<?xml version="1.0" standalone="no"?>
<!DOCTYPE svg PUBLIC "-//W3C//DTD SVG 1.1//EN" "http://www.w3.org/Graphics/SVG/1.1/DTD/svg11.dtd" >
<svg>
<metadata>
Created by FontForge 20090914 at Wed Jul  2 01:26:46 2014
 By www-data
Copyright (c) The Font Bureau, Inc, 2003. All rights reserved.
</metadata>
<defs>
<font id="Amplitude-Medium" horiz-adv-x="503" >
  <font-face 
    font-family="Amplitude-Medium"
    font-weight="500"
    font-stretch="normal"
    units-per-em="1000"
    panose-1="2 0 6 6 4 0 0 2 0 4"
    ascent="800"
    descent="-200"
    x-height="527"
    cap-height="651"
    bbox="-52.002 -242 1206 888.003"
    underline-thickness="20"
    underline-position="-113"
    unicode-range="U+0020-U+00FB"
  />
<missing-glyph horiz-adv-x="500" 
 />
    <glyph glyph-name=".notdef" horiz-adv-x="500" 
 />
    <glyph glyph-name="space" unicode=" " horiz-adv-x="224" 
 />
    <glyph glyph-name="space" unicode="&#xa0;" horiz-adv-x="224" 
 />
    <glyph glyph-name="exclam" unicode="!" horiz-adv-x="273" 
d="M70 466v226h133v-226l-39 -254h-55zM136 -12c-22 0 -40.833 7.33301 -56.5 22s-23.5 34 -23.5 58s7.83301 43.333 23.5 58s34.5 22 56.5 22s41 -7.33301 57 -22s24 -34 24 -58s-8 -43.333 -24 -58s-35 -22 -57 -22z" />
    <glyph glyph-name="quotedbl" unicode="&#x22;" horiz-adv-x="425" 
d="M246 557v135h127v-135l-42 -170h-44zM52 557v135h127v-135l-41 -170h-44z" />
    <glyph glyph-name="numbersign" unicode="#" horiz-adv-x="598" 
d="M135 157h-100l16 102h100l23 151h-99l16 102h99l21 139h79l-22 -139h117l21 139h79l-22 -139h100l-16 -102h-100l-23 -151h99l-16 -102h-99l-24 -157h-79l25 157h-117l-24 -157h-79zM348 255l25 159h-124l-24 -159h123z" />
    <glyph glyph-name="dollar" unicode="$" horiz-adv-x="511" 
d="M350 657c19.333 -3.33301 36.501 -7.16895 51.501 -11.502s28.833 -9.16602 41.5 -14.499l-14 -96l-48.5 14.5c-15 4.33301 -31.167 7.83301 -48.5 10.5l-34 -185c28 -6.66699 52.667 -14.167 74 -22.5s39.333 -19.5 54 -33.5s25.667 -31.333 33 -52s11 -46.667 11 -78
c0 -66.667 -18 -117.167 -54 -151.5s-93.667 -51.5 -173 -51.5h-17l-26 -140l-66 14l24 132c-26 3.33301 -48.667 8.5 -68 15.5s-37 14.833 -53 23.5l24 88c19.333 -8.66699 38.333 -16.167 57 -22.5s37.667 -11.5 57 -15.5l36 198c-26 6 -49.5 13.333 -70.5 22
s-38.833 20 -53.5 34s-25.834 31.667 -33.501 53s-11.5 48 -11.5 80c0 62.667 18.5 110.834 55.5 144.501s91.167 50.5 162.5 50.5h11c4 0 7.66699 -0.333008 11 -1l21 114l67 -13l-20 -106v0zM264.001 563.997c-42.667 -0.666992 -72.334 -7.33301 -89.001 -20
s-25 -34.667 -25 -66c0 -12.667 1.16699 -23.5 3.5 -32.5s6.5 -16.833 12.5 -23.5s14.333 -12.5 25 -17.5s24.334 -9.83301 41.001 -14.5l32 174v0zM243.001 76.998c40 1.33301 69.334 8.33301 88.001 21s28 37.667 28 75c0 12 -1.16699 22.667 -3.5 32
s-6.5 17.5 -12.5 24.5s-14.333 13.167 -25 18.5s-24.334 10.333 -41.001 15l-34 -186v0z" />
    <glyph glyph-name="percent" unicode="%" horiz-adv-x="863" 
d="M198 250c-28.667 0 -53.3379 5.66406 -74.0049 16.9971s-37.667 26.5 -51 45.5s-23.166 41 -29.499 66s-9.5 51.5 -9.5 79.5c0 26.667 3.33301 52.334 10 77.001s16.834 46.5 30.501 65.5s30.834 34.167 51.501 45.5s45.334 17 74.001 17s53.334 -5.66699 74.001 -17
s37.834 -26.333 51.501 -45s23.667 -40.167 30 -64.5s9.5 -49.833 9.5 -76.5c0 -28 -3.33301 -54.667 -10 -80s-16.834 -47.666 -30.501 -66.999s-31 -34.666 -52 -45.999s-45.833 -17 -74.5 -17zM578.996 650.997h81l-376 -651h-81zM661.996 -14.0029
c-28.667 0 -53.3379 5.66406 -74.0049 16.9971s-37.667 26.5 -51 45.5s-23.166 41 -29.499 66s-9.5 51.5 -9.5 79.5c0 26.667 3.33301 52.334 10 77.001s16.834 46.5 30.501 65.5s30.834 34.167 51.501 45.5s45.334 17 74.001 17s53.334 -5.66699 74.001 -17
s37.834 -26.333 51.501 -45s23.667 -40.167 30 -64.5s9.5 -49.833 9.5 -76.5c0 -28 -3.33301 -54.667 -10 -80s-16.834 -47.666 -30.501 -66.999s-31 -34.666 -52 -45.999s-45.833 -17 -74.5 -17zM198.992 321.994c21.333 0 37 7.83105 47 23.498s15 44.167 15 85.5v50
c0 40.667 -5 68.334 -15 83.001s-25.667 22 -47 22s-37 -7.5 -47 -22.5s-15 -42.833 -15 -83.5v-50c0 -41.333 5.16699 -69.666 15.5 -84.999s25.833 -23 46.5 -23zM662.992 57.9922c21.333 0 37 7.83105 47 23.498s15 44.167 15 85.5v50c0 40.667 -5 68.334 -15 83.001
s-25.667 22 -47 22s-37 -7.5 -47 -22.5s-15 -42.833 -15 -83.5v-50c0 -41.333 5.16699 -69.666 15.5 -84.999s25.833 -23 46.5 -23z" />
    <glyph glyph-name="ampersand" unicode="&#x26;" horiz-adv-x="613" 
d="M429 216c7.33301 21.333 14.001 44.6719 20.001 70.0049s11 53.666 15 84.999h98l-13 -70c-5.33301 -30.667 -12.833 -60.667 -22.5 -90s-21.167 -55.666 -34.5 -78.999l99 -132h-139l-51 69l-30 -51c-9.33301 -6 -23.5 -12.833 -42.5 -20.5s-44.5 -11.5 -76.5 -11.5
c-32.667 0 -62.334 4.16699 -89.001 12.5s-49.5 20.666 -68.5 36.999s-33.667 36.5 -44 60.5s-15.5 52 -15.5 84c0 27.333 3.66699 51 11 71s17.333 37.833 30 53.5s27.5 29.167 44.5 40.5s34.833 22 53.5 32l-1 1c-24.667 33.333 -41.334 63.166 -50.001 89.499
s-13 52.833 -13 79.5c0 25.333 4.5 47.666 13.5 66.999s21.5 35.5 37.5 48.5s34.667 22.833 56 29.5s44 10 68 10c21.333 0 41.833 -3 61.5 -9s37.334 -15.333 53.001 -28s28.167 -28.334 37.5 -47.001s14 -40.667 14 -66c0 -30 -4.5 -54.333 -13.5 -73
s-19.167 -35.334 -30.5 -50.001l-98 -52zM282.001 414.006c23.333 14 41 30.334 53 49.001s18 43 18 73c0 29.333 -6.16699 49.166 -18.5 59.499s-27.5 15.5 -45.5 15.5s-33.5 -5 -46.5 -15s-19.5 -26.667 -19.5 -50c0 -10.667 0.833008 -20.5 2.5 -29.5
s4.5 -18.167 8.5 -27.5s9.5 -19.5 16.5 -30.5s15.833 -23.833 26.5 -38.5l5 -6v0zM217.001 318.007c-19.333 -15.333 -33.833 -32.168 -43.5 -50.501s-14.5 -42.166 -14.5 -71.499v-15c0 -38 9.16699 -65.167 27.5 -81.5s43.833 -24.5 76.5 -24.5c42 0 77 13 105 39z" />
    <glyph glyph-name="quoteright" unicode="'" horiz-adv-x="255" 
d="M61 415l43 144l-36 9c-4.66699 4.66699 -9.33398 11.5 -14.001 20.5s-7 20.167 -7 33.5c0 24 7.83301 43.333 23.5 58s34.5 22 56.5 22c22.667 0 41.834 -7.16699 57.501 -21.5s23.5 -33.5 23.5 -57.5c0 -19.333 -4 -37.5 -12 -54.5s-17.667 -34.5 -29 -52.5l-73 -115z
" />
    <glyph glyph-name="parenleft" unicode="(" horiz-adv-x="331" 
d="M216 -100c-14 13.333 -30.334 32.166 -49.001 56.499s-36.5 53.833 -53.5 88.5s-31.333 74.667 -43 120s-17.5 95.666 -17.5 150.999c0 53.333 5.66699 101.833 17 145.5s25.333 82.334 42 116.001s34.334 62.334 53.001 86.001s35 41.834 49 54.501h101
c-22 -28.667 -41.5 -57.334 -58.5 -86.001s-31.333 -58.5 -43 -89.5s-20.667 -63.667 -27 -98s-9.5 -72.166 -9.5 -113.499v-30c0 -41.333 3 -79.333 9 -114s15 -67.834 27 -99.501s26.667 -62.667 44 -93s37.333 -61.833 60 -94.5h-101v0z" />
    <glyph glyph-name="parenright" unicode=")" horiz-adv-x="331" 
d="M14 -100c22.667 32.667 42.667 64.167 60 94.5s31.833 61.333 43.5 93s20.5 64.834 26.5 99.501s9 72.667 9 114v30c0 41.333 -3 79.166 -9 113.499s-14.833 67 -26.5 98s-26 60.833 -43 89.5s-36.5 57.334 -58.5 86.001h101c14 -12.667 30.333 -30.834 49 -54.501
s36.167 -52.334 52.5 -86.001s30.333 -72.334 42 -116.001s17.5 -92.167 17.5 -145.5c0 -55.333 -5.83301 -105.666 -17.5 -150.999s-26 -85.333 -43 -120s-34.833 -64.167 -53.5 -88.5s-35 -43.166 -49 -56.499h-101v0z" />
    <glyph glyph-name="asterisk" unicode="*" horiz-adv-x="428" 
d="M76 406l35 48l78 57h-97l-56 19l27 85l57 -18l79 -58l-30 94v59h90v-59l-30 -94l79 58l57 18l27 -85l-56 -19h-97l78 -57l35 -48l-73 -53l-35 48l-30 93l-30 -93l-35 -48z" />
    <glyph glyph-name="plus" unicode="+" horiz-adv-x="501" 
d="M202 261h-152v93h152v161h98v-161h151v-93h-151v-161h-98v161z" />
    <glyph glyph-name="comma" unicode="," horiz-adv-x="266" 
d="M64 -139l46.001 147.999l-41 10c-4.66699 5.33301 -9.16699 12.333 -13.5 21s-6.5 19.334 -6.5 32.001c0 26 8.16699 46.667 24.5 62s36.166 23 59.499 23s43.333 -7.83301 60 -23.5s25 -35.5 25 -59.5c0 -20 -4.83301 -39.333 -14.5 -58s-20.5 -37.667 -32.5 -57
l-71 -113z" />
    <glyph glyph-name="hyphen" unicode="-" horiz-adv-x="321" 
d="M50 352h221v-107h-221v107z" />
    <glyph glyph-name="period" unicode="." horiz-adv-x="266" 
d="M133 -12c-23.333 0 -43.333 7.66699 -60 23s-25 35.666 -25 60.999s8.33301 45.833 25 61.5s36.667 23.5 60 23.5s43.333 -7.83301 60 -23.5s25 -36.167 25 -61.5s-8.33301 -45.666 -25 -60.999s-36.667 -23 -60 -23z" />
    <glyph glyph-name="slash" unicode="/" horiz-adv-x="425" 
d="M310 718h97l-300 -818h-97z" />
    <glyph glyph-name="zero" unicode="0" horiz-adv-x="588" 
d="M292 -14c-42.667 0 -79.665 8.16699 -110.998 24.5s-57.166 39.5 -77.499 69.5s-35.333 66 -45 108s-14.5 88.333 -14.5 139c0 48.667 5 93.5 15 134.5s25.333 76.5 46 106.5s46.667 53.333 78 70s68.333 25 111 25c43.333 0 80.666 -8.33301 111.999 -25
s57.166 -39.667 77.499 -69s35.5 -64.5 45.5 -105.5s15 -85.833 15 -134.5c0 -52 -5 -99.167 -15 -141.5s-25.333 -78.333 -46 -108s-46.834 -52.667 -78.501 -69s-69.167 -24.5 -112.5 -24.5zM294.002 77c21.333 0 39.498 3.66797 54.498 11.001s27.167 20 36.5 38
s16.333 42 21 72s7 67.667 7 113v44c0 40.667 -2.16699 74.667 -6.5 102s-11.333 49.166 -21 65.499s-22 27.833 -37 34.5s-33.5 10 -55.5 10s-40.5 -3.5 -55.5 -10.5s-27.167 -18.833 -36.5 -35.5s-16.166 -38.667 -20.499 -66s-6.5 -61.333 -6.5 -102v-43
c0 -45.333 2.33301 -83 7 -113s11.834 -53.833 21.501 -71.5s22.167 -30.167 37.5 -37.5s33.333 -11 54 -11z" />
    <glyph glyph-name="one" unicode="1" horiz-adv-x="400" 
d="M52 79h95v432h-95v54l155 86h64v-572h91v-79h-310v79z" />
    <glyph glyph-name="two" unicode="2" horiz-adv-x="487" 
d="M42 90l6 20.001c6 23.333 14.667 44.5 26 63.5s24 36.667 38 53s29 31.666 45 45.999l48 42.5c17.333 14.667 32.166 27.834 44.499 39.501s22.833 23 31.5 34s15 22.167 19 33.5s6 24.333 6 39v14c0 34.667 -7.66699 58 -23 70s-38.333 18 -69 18
c-27.333 0 -51.666 -3.33301 -72.999 -10s-45.333 -15.334 -72 -26.001l-19 88c18 10.667 41.833 21.334 71.5 32.001s68.167 16 115.5 16c35.333 0 65.666 -4.5 90.999 -13.5s46.333 -21.833 63 -38.5s28.834 -36.334 36.501 -59.001s11.5 -47.667 11.5 -75
c0 -28.667 -4.5 -53.834 -13.5 -75.501s-21 -41.5 -36 -59.5s-32.333 -35 -52 -51l-62.5 -50l-39.5 -30.5c-12.333 -9.66699 -23.666 -20 -33.999 -31s-19.333 -23.167 -27 -36.5s-13.834 -28.666 -18.501 -45.999l-4 -15l120 15h158v-97h-388v90z" />
    <glyph glyph-name="three" unicode="3" horiz-adv-x="487" 
d="M222 -14c-48 0 -87.667 5.00293 -119 15.0029s-55.666 20.333 -72.999 31l19 83l37.5 -14.5c11.667 -4.33301 23.167 -8 34.5 -11s23.166 -5.33301 35.499 -7s25.833 -2.5 40.5 -2.5c42 0 72.333 7.66699 91 23s28 41 28 77v14c0 37.333 -10.667 63.333 -32 78
s-56 22 -104 22h-51v84h40c50.667 0 86 7.33301 106 22s30 38.334 30 71.001v9c0 33.333 -8.83301 56 -26.5 68s-45.167 18 -82.5 18c-13.333 0 -25.5 -0.666992 -36.5 -2s-21.833 -3 -32.5 -5s-21.334 -4.66699 -32.001 -8l-36 -11l-12 87c16.667 8 39 16 67 24
s62.333 12 103 12c36 0 67.5 -4.33301 94.5 -13s49.5 -20.5 67.5 -35.5s31.5 -32.833 40.5 -53.5s13.5 -43.334 13.5 -68.001c0 -45.333 -12.333 -79.333 -37 -102s-60 -39.334 -106 -50.001c50 -8.66699 88.833 -25.834 116.5 -51.501s41.5 -64.834 41.5 -117.501
c0 -28 -5.16699 -53.5 -15.5 -76.5s-25.166 -42.5 -44.499 -58.5s-43 -28.5 -71 -37.5s-59.667 -13.5 -95 -13.5z" />
    <glyph glyph-name="four" unicode="4" horiz-adv-x="575" 
d="M323 149h-294v61l260 441h157v-412h83v-90h-83v-149h-123v149zM325 239v177l8 175l-62 -146l-121 -206h175z" />
    <glyph glyph-name="five" unicode="5" horiz-adv-x="484" 
d="M221 -14c-50 0 -90.666 5.33301 -121.999 16s-55.333 21.667 -72 33l20 89l39.5 -17.5c11.667 -5 23.167 -9.16699 34.5 -12.5s22.833 -6 34.5 -8s24.5 -3 38.5 -3c39.333 0 68.833 8.16699 88.5 24.5s29.5 44.833 29.5 85.5v15c0 44.667 -7.16699 75.334 -21.5 92.001
s-35.5 25 -63.5 25c-24 0 -41.833 -3.83301 -53.5 -11.5s-21.834 -18.167 -30.501 -31.5l-83 12l15 357h336v-100h-245l-5 -107l-15 -87c14 13.333 30.333 24.666 49 33.999s43 14 73 14c24.667 0 47.667 -4.16699 69 -12.5s40 -21 56 -38s28.667 -38.333 38 -64
s14 -55.5 14 -89.5c0 -32 -5.33301 -61.167 -16 -87.5s-25.667 -49 -45 -68s-42.833 -33.667 -70.5 -44s-58.5 -15.5 -92.5 -15.5z" />
    <glyph glyph-name="six" unicode="6" horiz-adv-x="557" 
d="M271 418c6.66699 2 13.668 3.83301 21.001 5.5s16 2.5 26 2.5c63.333 0 112.166 -18.333 146.499 -55s51.5 -88.667 51.5 -156c0 -72.667 -20.667 -129 -62 -169s-99 -60 -173 -60c-34.667 0 -66.5 5.66699 -95.5 17s-53.833 28.166 -74.5 50.499s-36.667 50.333 -48 84
s-17 72.5 -17 116.5c0 47.333 7.66699 91 23 131s34.833 76.5 58.5 109.5s50.167 62.5 79.5 88.5s58 48.667 86 68h161c-30 -20 -59.333 -41 -88 -63s-55 -45.167 -79 -69.5s-45.167 -49.666 -63.5 -75.999s-31.833 -53.5 -40.5 -81.5zM173.001 296v-45
c0 -62.667 8.66699 -107.667 26 -135s45.666 -41 84.999 -41c38 0 64.833 9.33301 80.5 28s23.5 51 23.5 97v23c0 22.667 -2 41.5 -6 56.5s-10.333 27 -19 36s-19.667 15.333 -33 19s-29.666 5.5 -48.999 5.5c-22.667 0 -42.167 -3 -58.5 -9s-32.833 -13.333 -49.5 -22v-13z
" />
    <glyph glyph-name="seven" unicode="7" horiz-adv-x="485" 
d="M285 465l66 95l-112 -9h-209v100h416v-112l-235 -539h-129z" />
    <glyph glyph-name="eight" unicode="8" horiz-adv-x="547" 
d="M173 322c-30.667 16.667 -56.333 38.0039 -77 64.0039s-31 60.333 -31 103c0 24 4.16699 46.5 12.5 67.5s21.333 39.5 39 55.5s39.834 28.5 66.501 37.5s58 13.5 94 13.5c37.333 0 68.833 -4.66699 94.5 -14s46.5 -21.833 62.5 -37.5s27.667 -33.334 35 -53.001
s11 -39.834 11 -60.501c0 -20 -2.83301 -38.5 -8.5 -55.5s-13.5 -32.167 -23.5 -45.5l-89 -43c20 -8 39.167 -16.833 57.5 -26.5s34.333 -21.5 48 -35.5s24.667 -30.667 33 -50s12.5 -42.666 12.5 -69.999c0 -26.667 -5 -51.334 -15 -74.001s-24.833 -42.334 -44.5 -59.001
s-44.334 -29.667 -74.001 -39s-64.167 -14 -103.5 -14c-41.333 0 -77 4.66699 -107 14s-54.5 22.166 -73.5 38.499s-33 35.833 -42 58.5s-13.5 47 -13.5 73c0 25.333 4.5 47 13.5 65s20.833 34.333 35.5 49l87 38v0zM310.001 379.004c22.667 16 38.333 32.333 47 49
s13 36.667 13 60v6c0 25.333 -6.33301 45 -19 59s-37.334 21 -74.001 21c-33.333 0 -56.166 -7.33301 -68.499 -22s-18.5 -33.667 -18.5 -57v-6c0 -14.667 2 -27.167 6 -37.5s10.833 -19.5 20.5 -27.5s22.167 -15.5 37.5 -22.5s34 -14.5 56 -22.5zM219 293.004
c-21.333 -15.333 -37.166 -31.667 -47.499 -49s-15.5 -37.666 -15.5 -60.999v-15c0 -64.667 38.333 -97 115 -97c37.333 0 64.5 8.16699 81.5 24.5s25.5 38.833 25.5 67.5v16c0 13.333 -2.83301 24.666 -8.5 33.999s-14.834 18 -27.501 26s-29 16.167 -49 24.5z" />
    <glyph glyph-name="nine" unicode="9" horiz-adv-x="556" 
d="M285 228c-6.66699 -2 -13.6689 -3.83398 -21.002 -5.50098s-16 -2.5 -26 -2.5c-63.333 0 -112.166 18.833 -146.499 56.5s-51.5 90.167 -51.5 157.5c0 34.667 5.33301 66.167 16 94.5s26.167 52.5 46.5 72.5s45 35.333 74 46s61.833 16 98.5 16
c34.667 0 66.5 -5.5 95.5 -16.5s53.833 -27.667 74.5 -50s36.667 -50.166 48 -83.499s17 -72.666 17 -117.999c0 -47.333 -7.66699 -91 -23 -131s-34.833 -76.333 -58.5 -109s-50.167 -61.834 -79.5 -87.501s-58 -48.167 -86 -67.5h-161l88 63.5
c28.667 21.667 54.834 44.167 78.501 67.5s44.5 47.5 62.5 72.5s31.333 51.167 40 78.5zM381.998 330.999c0.666992 3.33301 1 6.66602 1 9.99902v12v45c0 31.333 -2 57.833 -6 79.5s-10.5 39.167 -19.5 52.5s-20.5 23 -34.5 29s-30.667 9 -50 9c-38 0 -65 -9 -81 -27
s-24 -49.667 -24 -95v-23c0 -45.333 8.33301 -77.166 25 -95.499s44 -27.5 82 -27.5c22 0 41.167 2.83301 57.5 8.5s32.833 13.167 49.5 22.5z" />
    <glyph glyph-name="colon" unicode=":" horiz-adv-x="274" 
d="M137 292c-23.333 0 -43.333 7.5 -60 22.5s-25 35.167 -25 60.5s8.33301 45.833 25 61.5s36.667 23.5 60 23.5s43.333 -7.83301 60 -23.5s25 -36.167 25 -61.5s-8.33301 -45.5 -25 -60.5s-36.667 -22.5 -60 -22.5zM137 -12c-23.333 0 -43.333 7.66699 -60 23
s-25 35.666 -25 60.999s8.33301 45.833 25 61.5s36.667 23.5 60 23.5s43.333 -7.83301 60 -23.5s25 -36.167 25 -61.5s-8.33301 -45.666 -25 -60.999s-36.667 -23 -60 -23z" />
    <glyph glyph-name="semicolon" unicode=";" horiz-adv-x="274" 
d="M137 292c-23.333 0 -43.333 7.5 -60 22.5s-25 35.167 -25 60.5s8.33301 45.833 25 61.5s36.667 23.5 60 23.5s43.333 -7.83301 60 -23.5s25 -36.167 25 -61.5s-8.33301 -45.5 -25 -60.5s-36.667 -22.5 -60 -22.5zM69 -139l46.001 147.999l-41 10
c-4.66699 5.33301 -9.16699 12.333 -13.5 21s-6.5 19.334 -6.5 32.001c0 26 8.16699 46.667 24.5 62s36.166 23 59.499 23s43.333 -7.83301 60 -23.5s25 -35.5 25 -59.5c0 -20 -4.83301 -39.333 -14.5 -58s-20.5 -37.667 -32.5 -57l-72 -113z" />
    <glyph glyph-name="less" unicode="&#x3c;" horiz-adv-x="428" 
d="M42 240v101l338 165v-115l-178 -75l-98 -26l98 -25l178 -77v-109z" />
    <glyph glyph-name="equal" unicode="=" horiz-adv-x="478" 
d="M50 446h377v-92h-377v92zM50 262h377v-92h-377v92z" />
    <glyph glyph-name="greater" unicode="&#x3e;" horiz-adv-x="428" 
d="M48 194l178 75l98 26l-98 25l-178 77v109l338 -161v-101l-338 -165v115z" />
    <glyph glyph-name="question" unicode="?" horiz-adv-x="442" 
d="M124 313c-2.66699 21.333 -0.00292969 37.499 7.99707 48.499s23.667 21.5 47 31.5c18.667 6.66699 33.834 13 45.501 19s21 13 28 21s11.833 17.667 14.5 29s4 25.333 4 42v12c0 32.667 -7 55.334 -21 68.001s-37.667 19 -71 19c-24 0 -46.333 -2.83301 -67 -8.5
s-44.667 -13.167 -72 -22.5l-18 90c19.333 9.33301 44.333 18.333 75 27s65.667 13 105 13c66.667 0 117 -15.833 151 -47.5s51 -76.5 51 -134.5c0 -32.667 -4.83301 -60 -14.5 -82s-22.667 -40.5 -39 -55.5s-35.166 -27 -56.499 -36s-43.666 -16.5 -66.999 -22.5v-112h-90z
M182.997 -12.001c-22 0 -40.833 7.33301 -56.5 22s-23.5 34 -23.5 58s7.83301 43.333 23.5 58s34.5 22 56.5 22s41 -7.33301 57 -22s24 -34 24 -58s-8 -43.333 -24 -58s-35 -22 -57 -22z" />
    <glyph glyph-name="at" unicode="@" horiz-adv-x="790" 
d="M401 -151c-124 0 -215.168 33.501 -273.501 100.501s-87.5 168.5 -87.5 304.5c0 134 30 234.833 90 302.5s152.333 101.5 277 101.5c62 0 114.833 -8.33301 158.5 -25s79.167 -40.334 106.5 -71.001s47.166 -67 59.499 -109s18.5 -88.667 18.5 -140
c0 -100.667 -16.333 -176.667 -49 -228s-89 -77 -169 -77c-16.667 0 -30.167 0.666992 -40.5 2s-19.166 3 -26.499 5l-27 58l-42 -49c-11.333 -4.66699 -24.166 -8.83398 -38.499 -12.501s-29.833 -5.5 -46.5 -5.5c-16 0 -31.167 2.5 -45.5 7.5s-27 12.5 -38 22.5
s-19.667 22.667 -26 38s-9.5 33.333 -9.5 54c0 28 3.83301 51.833 11.5 71.5s19.667 36.167 36 49.5s37.333 24 63 32s56.834 14.333 93.501 19l72 8l8 50c3.33301 21.333 1.66602 38.333 -5.00098 51s-23.667 19 -51 19c-22 0 -45.833 -2.5 -71.5 -7.5
s-51.5 -10.833 -77.5 -17.5v82c30 11.333 58 20.166 84 26.499s53 9.5 81 9.5c61.333 0 102.833 -16.667 124.5 -50s26.834 -85 15.501 -155l-35 -212c-2 -13.333 -1.5 -22.333 1.5 -27s10.167 -7 21.5 -7h8c20 0 37.167 5.5 51.5 16.5s26.333 26.333 36 46
s16.834 43.167 21.501 70.5s7 57 7 89v28c0 42 -4.66699 80.333 -14 115s-24.833 64.334 -46.5 89.001s-50.5 43.834 -86.5 57.501s-80.667 20.5 -134 20.5c-54 0 -100 -6.66699 -138 -20s-69 -33.666 -93 -60.999s-41.667 -61.833 -53 -103.5s-17 -91.167 -17 -148.5v-30
c0 -56 5.16699 -105 15.5 -147s27.166 -77 50.499 -105s53.666 -49 90.999 -63s83.333 -21 138 -21c40 0 78.5 4.5 115.5 13.5s74.5 20.167 112.5 33.5l16 -50c-28 -12.667 -63.167 -24.334 -105.5 -35.001s-88.5 -16 -138.5 -16zM352.999 79.001
c20 0 36.5039 3.16699 49.5039 9.5s24.167 13.833 33.5 22.5c4.66699 26.667 8.66699 51 12 73c3.33301 18.667 6.16602 35.5 8.49902 50.5s3.16602 22.5 2.49902 22.5l-64 -9c-17.333 -2 -31.833 -5 -43.5 -9s-21.334 -9.66699 -29.001 -17s-13.334 -16.5 -17.001 -27.5
s-6.16699 -24.5 -7.5 -40.5v-7c-5.33301 -45.333 13 -68 55 -68z" />
    <glyph glyph-name="A" unicode="A" horiz-adv-x="582" 
d="M132 0h-110l212 651h120l208 -651h-133l-33 114h-229zM309 412l-23 123l-28 -123l-66 -214h180z" />
    <glyph glyph-name="B" unicode="B" horiz-adv-x="578" 
d="M76 651l218 0.000976562c33.333 0 63.666 -3 90.999 -9s50.833 -15.833 70.5 -29.5s35 -31.5 46 -53.5s16.5 -49 16.5 -81c0 -24 -3.83301 -44.333 -11.5 -61s-17.667 -30.334 -30 -41.001s-26 -19.167 -41 -25.5s-29.5 -11.5 -43.5 -15.5
c15.333 -2.66699 31.333 -7.33398 48 -14.001s32 -16 46 -28s25.667 -27.167 35 -45.5s14 -41.166 14 -68.499c0 -62.667 -20.667 -108.167 -62 -136.5s-97.666 -42.5 -168.999 -42.5h-228v651zM296 372.001c32.667 0 56.667 6.16699 72 18.5s23 34.5 23 66.5v15
c0 30.667 -8.33301 52 -25 64s-43.667 18 -81 18h-82v-182h93zM296 96.001c38 0 65.167 6.66699 81.5 20s24.5 36.333 24.5 69v18c0 33.333 -7.83301 56.333 -23.5 69s-42.167 19 -79.5 19h-96v-195h93z" />
    <glyph glyph-name="C" unicode="C" horiz-adv-x="517" 
d="M311 -14c-50 0 -92.0029 8.83203 -126.003 26.499s-61.667 41.834 -83 72.501s-36.666 66.667 -45.999 108s-14 86 -14 134s4.83301 92.5 14.5 133.5s25.334 76.5 47.001 106.5s49.834 53.5 84.501 70.5s77 25.5 127 25.5c34.667 0 65.5 -3.33301 92.5 -10
s51.167 -15 72.5 -25l-13 -101c-30 9.33301 -56.5 16.666 -79.5 21.999s-48.5 8 -76.5 8c-20 0 -38.167 -2.83301 -54.5 -8.5s-30.5 -16.167 -42.5 -31.5s-21.167 -36.166 -27.5 -62.499s-9.5 -60.5 -9.5 -102.5v-42c0 -43.333 3.16699 -79.333 9.5 -108
s15.5 -51.667 27.5 -69s26.5 -29.5 43.5 -36.5s35.833 -10.5 56.5 -10.5c30 0 56.167 3.83301 78.5 11.5s46.833 17.167 73.5 28.5l26 -96c-23.333 -11.333 -49.833 -21.5 -79.5 -30.5s-63.5 -13.5 -101.5 -13.5z" />
    <glyph glyph-name="D" unicode="D" horiz-adv-x="614" 
d="M76 651l216 -0.000976562c94.667 0 165 -28 211 -84s69 -136 69 -240c0 -107.333 -23.833 -188.666 -71.5 -243.999s-120.167 -83 -217.5 -83h-207v651zM278 96.999c26.667 0 49.998 2.66602 69.998 7.99902s36.667 15.833 50 31.5s23.333 37.5 30 65.5s10 64.667 10 110
v39c0 41.333 -3.33301 74.833 -10 100.5s-16.667 45.834 -30 60.501s-30.166 24.667 -50.499 30s-44.166 8 -71.499 8h-73v-453h75z" />
    <glyph glyph-name="E" unicode="E" horiz-adv-x="518" 
d="M76 651h380v-102h-253v-171h215v-95h-215v-184h271v-99h-398v651z" />
    <glyph glyph-name="F" unicode="F" 
d="M76 651h378v-102h-251v-191h217v-96h-217v-262h-127v651z" />
    <glyph glyph-name="G" unicode="G" horiz-adv-x="579" 
d="M387 -6c-10.667 -2 -23.1689 -3.83496 -37.502 -5.50195s-28.166 -2.5 -41.499 -2.5c-48.667 0 -90 8.5 -124 25.5s-61.5 40.667 -82.5 71s-36.167 66.333 -45.5 108s-14 87.167 -14 136.5c0 48 5.16699 92.5 15.5 133.5s26.833 76.5 49.5 106.5s51.667 53.5 87 70.5
s78.333 25.5 129 25.5c36.667 0 70 -3.16699 100 -9.5s56.333 -14.166 79 -23.499l-14 -102c-30.667 9.33301 -58.834 16.666 -84.501 21.999s-53.5 8 -83.5 8c-21.333 0 -40.833 -2.83301 -58.5 -8.5s-32.834 -16.167 -45.501 -31.5s-22.5 -36.333 -29.5 -63
s-10.5 -61 -10.5 -103v-42c0 -44.667 3.16699 -81.667 9.5 -111s15.333 -52.666 27 -69.999s25.834 -29.5 42.501 -36.5s35.334 -10.5 56.001 -10.5s38.834 1.83301 54.501 5.5s30.167 8.83398 43.5 15.501v160h-96v86h211v-357h-39l-36 68z" />
    <glyph glyph-name="H" unicode="H" horiz-adv-x="627" 
d="M204 283v-283h-128v651h128v-268h219v268h128v-651h-128v283h-219z" />
    <glyph glyph-name="I" unicode="I" horiz-adv-x="291" 
d="M82 651h127v-651h-127v651z" />
    <glyph glyph-name="J" unicode="J" horiz-adv-x="390" 
d="M157 -14c-30.667 0 -56.166 3.49902 -76.499 10.499s-36.833 14.167 -49.5 21.5l11 94c16.667 -6 31.167 -11 43.5 -15s26.166 -6 41.499 -6c10 0 19 1.5 27 4.5s14.667 8.83301 20 17.5s9.33301 20.334 12 35.001s4 33.334 4 56.001v447h128v-425
c0 -34.667 -2.5 -66.834 -7.5 -96.501s-13.667 -55 -26 -76s-28.833 -37.5 -49.5 -49.5s-46.667 -18 -78 -18z" />
    <glyph glyph-name="K" unicode="K" horiz-adv-x="577" 
d="M421 651h130l-234 -298l74 -57l167 -296h-140l-164 295l-50 -76v-219h-128v651h128v-182l-20 -137z" />
    <glyph glyph-name="L" unicode="L" horiz-adv-x="482" 
d="M76 651h127v-552h247v-99h-374v651z" />
    <glyph glyph-name="M" unicode="M" horiz-adv-x="754" 
d="M76 651h164l102 -387l28 -212l31 212l105 387h172v-651h-126v254l24 342l-51 -244l-96 -352h-131l-92 348l-49 248l23 -343v-253h-104v651z" />
    <glyph glyph-name="N" unicode="N" horiz-adv-x="621" 
d="M76 651h138l178 -349l73 -201l-30 240v310h110v-651h-133l-187 362l-68 195l29 -234v-323h-110v651z" />
    <glyph glyph-name="O" unicode="O" horiz-adv-x="623" 
d="M310 -14c-47.333 0 -87.833 8.49805 -121.5 25.498s-61.334 40.833 -83.001 71.5s-37.667 66.834 -48 108.501s-15.5 86.834 -15.5 135.501s5.33301 93.5 16 134.5s27 76.5 49 106.5s50 53.333 84 70s74.333 25 121 25c47.333 0 88 -8.33301 122 -25
s61.833 -39.667 83.5 -69s37.667 -64.5 48 -105.5s15.5 -85.833 15.5 -134.5c0 -50 -5.16699 -96 -15.5 -138s-26.5 -78.167 -48.5 -108.5s-50.167 -54 -84.5 -71s-75.166 -25.5 -122.499 -25.5zM312 77.998c22.667 0 42.4971 3.83496 59.4971 11.502s31 20.5 42 38.5
s19.333 42 25 72s8.5 67.333 8.5 112v44c0 40.667 -2.66699 74.5 -8 101.5s-13.666 48.5 -24.999 64.5s-25.5 27.167 -42.5 33.5s-37.167 9.5 -60.5 9.5c-22.667 0 -42.5 -3.33301 -59.5 -10s-31.167 -18.334 -42.5 -35.001s-19.666 -38.5 -24.999 -65.5
s-8 -61.167 -8 -102.5v-43c0 -45.333 2.83301 -82.833 8.5 -112.5s14.334 -53.334 26.001 -71.001s26 -30 43 -37s36.5 -10.5 58.5 -10.5z" />
    <glyph glyph-name="P" unicode="P" horiz-adv-x="565" 
d="M76 651h220c77.333 0 135.833 -18.833 175.5 -56.5s59.5 -91.167 59.5 -160.5c0 -66.667 -19.667 -120 -59 -160s-98 -60 -176 -60h-93v-214h-127v651zM289 302c39.333 0 67 9 83 27s24 49 24 93v20c0 42.667 -8.33301 72 -25 88s-44.667 24 -84 24h-84v-252h86z" />
    <glyph glyph-name="Q" unicode="Q" horiz-adv-x="623" 
d="M536 -114l-144 -20.001l-82 121c-47.333 0 -88 8.5 -122 25.5s-61.833 40.667 -83.5 71s-37.5 66.333 -47.5 108s-15 86.834 -15 135.501s5.33301 93.5 16 134.5s27 76.5 49 106.5s50 53.333 84 70s74.333 25 121 25c47.333 0 88 -8.33301 122 -25
s61.833 -39.834 83.5 -69.501s37.667 -65 48 -106s15.5 -85.5 15.5 -133.5c0 -133.333 -33.667 -228.666 -101 -285.999l-82 -11zM312 74.999c22.667 0 42.4971 3.83398 59.4971 11.501s31 20.5 42 38.5s19.333 42.167 25 72.5s8.5 68.5 8.5 114.5v44
c0 40.667 -2.66699 74.5 -8 101.5s-13.666 48.5 -24.999 64.5s-25.5 27.167 -42.5 33.5s-37.167 9.5 -60.5 9.5c-22.667 0 -42.5 -3.33301 -59.5 -10s-31.167 -18.334 -42.5 -35.001s-19.666 -38.5 -24.999 -65.5s-8 -61.167 -8 -102.5v-43c0 -46 2.83301 -84 8.5 -114
s14.334 -54 26.001 -72s26 -30.5 43 -37.5s36.5 -10.5 58.5 -10.5z" />
    <glyph glyph-name="R" unicode="R" horiz-adv-x="585" 
d="M441 211l111 -210.999h-134l-126 250h-89v-250h-127v651h220c78 0 137.167 -16.833 177.5 -50.5s60.5 -84.834 60.5 -153.501c0 -22 -2.66699 -43.167 -8 -63.5s-14.166 -38.833 -26.499 -55.5s-28.833 -30.667 -49.5 -42s-46.334 -19.333 -77.001 -24zM289 332.001
c40 0 68.333 7.83301 85 23.5s25 42.5 25 80.5v20c0 38.667 -8.66699 64.667 -26 78s-46 20 -86 20h-84v-222h86z" />
    <glyph glyph-name="S" unicode="S" 
d="M239 -14c-48.667 0 -88.166 4.66992 -118.499 14.0029s-56.833 19.666 -79.5 30.999l21 90c28 -11.333 54.5 -20.833 79.5 -28.5s52.5 -11.5 82.5 -11.5c40.667 0 70.167 6.16699 88.5 18.5s27.5 36.166 27.5 71.499c0 14.667 -1.66699 26.834 -5 36.501
s-9.33301 18.167 -18 25.5s-20.834 13.666 -36.501 18.999s-35.5 10.666 -59.5 15.999c-28 6.66699 -53 14.5 -75 23.5s-40.5 21 -55.5 36s-26.333 33.833 -34 56.5s-11.5 50.667 -11.5 84c0 62.667 18 110.834 54 144.501s89 50.5 159 50.5c41.333 0 75.333 -3 102 -9
s50.667 -13.667 72 -23l-15 -95c-12.667 4 -24.667 7.5 -36 10.5s-22.666 5.66699 -33.999 8s-23.333 4 -36 5s-27 1.5 -43 1.5c-38 0 -65.167 -5.66699 -81.5 -17s-24.5 -32 -24.5 -62c0 -14.667 1.33301 -26.834 4 -36.501s8.16699 -18 16.5 -25s19.833 -13 34.5 -18
s34 -10.5 58 -16.5c29.333 -6.66699 55.5 -14.5 78.5 -23.5s42.5 -21 58.5 -36s28.167 -33.5 36.5 -55.5s12.5 -49.333 12.5 -82c0 -66.667 -17.833 -117.167 -53.5 -151.5s-91.834 -51.5 -168.501 -51.5z" />
    <glyph glyph-name="T" unicode="T" horiz-adv-x="508" 
d="M26 549v102h456v-102h-164v-549h-128v549h-164z" />
    <glyph glyph-name="U" unicode="U" horiz-adv-x="616" 
d="M412 651l128.003 -0.000976562v-651h-84l-30 67l-42 -61c-9.33301 -3.33301 -23.5 -7.5 -42.5 -12.5s-42.167 -7.5 -69.5 -7.5c-30 0 -57.333 4.5 -82 13.5s-45.834 23.833 -63.501 44.5s-31.167 47.334 -40.5 80.001s-14 72.667 -14 120v407h127v-437
c0 -50.667 7.66699 -85.5 23 -104.5s40.666 -28.5 75.999 -28.5c27.333 0 49.666 3 66.999 9s33 12.667 47 20v541z" />
    <glyph glyph-name="V" unicode="V" horiz-adv-x="579" 
d="M22 651h132l116 -388l27 -171l28 171l114 388h118l-209 -651h-112z" />
    <glyph glyph-name="W" unicode="W" horiz-adv-x="793" 
d="M24 651h132l65 -336l20 -235l29 227l75 344h123l76 -344l24 -227l24 235l70 336h110l-153 -651h-122l-71 342l-25 221l-26 -221l-77 -342h-123z" />
    <glyph glyph-name="X" unicode="X" horiz-adv-x="551" 
d="M198 335l-170 316h142l83 -166l38 -112l33 112l78 166h117l-167 -316l178 -335h-142l-87 175l-43 115l-35 -115l-85 -175h-118z" />
    <glyph glyph-name="Y" unicode="Y" horiz-adv-x="546" 
d="M215 230l-197 421h135l101 -244l31 -136l28 136l98 244h117l-186 -415v-236h-127v230z" />
    <glyph glyph-name="Z" unicode="Z" 
d="M42 110l249 388l67 70l-112 -12h-194v95h405v-114l-246 -379l-78 -83l121 17h206v-92h-418v110z" />
    <glyph glyph-name="bracketleft" unicode="[" horiz-adv-x="316" 
d="M63 718h213v-85h-97v-655h97v-85h-213v825z" />
    <glyph glyph-name="backslash" unicode="\" horiz-adv-x="423" 
d="M18 718h95l300 -818h-95z" />
    <glyph glyph-name="bracketright" unicode="]" horiz-adv-x="316" 
d="M40 -22h96v655h-96v85h213v-825h-213v85z" />
    <glyph glyph-name="asciicircum" unicode="^" horiz-adv-x="478" 
d="M183 691h101l149 -298h-115l-61 139l-26 103l-25 -103l-64 -139h-103z" />
    <glyph glyph-name="underscore" unicode="_" horiz-adv-x="309" 
d="M1 -85h307v-77h-307v77z" />
    <glyph glyph-name="quoteleft" unicode="`" horiz-adv-x="255" 
d="M127 423c-22 0 -40.834 7.16699 -56.501 21.5s-23.5 33.5 -23.5 57.5c0 19.333 4 37.5 12 54.5s17.667 34.5 29 52.5l73 115l33 -14l-43 -144l36 -9c4.66699 -4.66699 9.33398 -11.5 14.001 -20.5s7 -20.167 7 -33.5c0 -24 -8 -43.333 -24 -58s-35 -22 -57 -22z" />
    <glyph glyph-name="a" unicode="a" 
d="M310 366c0 21.333 -5.16992 38.833 -15.5029 52.5s-30.166 20.5 -59.499 20.5c-23.333 0 -48 -3.16699 -74 -9.5s-54.667 -14.833 -86 -25.5l-16 88c22 10.667 48.833 21 80.5 31s67.167 15 106.5 15c32.667 0 60.334 -3.83301 83.001 -11.5s41.167 -20 55.5 -37
s24.833 -39 31.5 -66s10 -59.833 10 -98.5v-231c0 -12.667 2.5 -21 7.5 -25s12.5 -6 22.5 -6h24l2 -52c-5.33301 -5.33301 -13.666 -10.5 -24.999 -15.5s-26 -7.5 -44 -7.5c-18.667 0 -36.667 2.66699 -54 8l-43 59l-40 -50c-10 -4.66699 -22.5 -9 -37.5 -13
s-33.167 -6 -54.5 -6c-19.333 0 -37.833 2.66699 -55.5 8s-33.334 14 -47.001 26s-24.5 27.5 -32.5 46.5s-12 42.5 -12 70.5s3.66699 51.5 11 70.5s18.833 35 34.5 48s35.834 23.5 60.501 31.5s54.667 14.333 90 19l77 10v50zM309.997 249l-69.002 -10
c-33.333 -4.66699 -57.166 -13.167 -71.499 -25.5s-21.5 -33.5 -21.5 -63.5v-8c0 -27.333 6.83301 -47 20.5 -59s33.167 -18 58.5 -18c21.333 0 38.333 3.33301 51 10s23.334 14.667 32.001 24v150z" />
    <glyph glyph-name="b" unicode="b" horiz-adv-x="533" 
d="M127 -3h-58v721h117v-230c14 14 31 25.833 51 35.5s44 14.5 72 14.5c60.667 0 106.667 -23.167 138 -69.5s47 -115.833 47 -208.5c0 -182.667 -64.333 -274 -193 -274c-19.333 0 -36.5 2 -51.5 6s-26.833 8 -35.5 12l-52 59zM186 92
c13.333 -8.66699 27.501 -15.668 42.501 -21.001s31.167 -8 48.5 -8c32 0 56 12.5 72 37.5s24 68.5 24 130.5v50c0 32 -2 58.333 -6 79s-9.83301 37.334 -17.5 50.001s-17.334 21.5 -29.001 26.5s-25.5 7.5 -41.5 7.5c-21.333 0 -39.833 -4.5 -55.5 -13.5
s-28.167 -17.833 -37.5 -26.5v-312z" />
    <glyph glyph-name="c" unicode="c" horiz-adv-x="432" 
d="M254 -14c-70.667 0 -124.334 23.667 -161.001 71s-55 116 -55 206c0 91.333 18.333 160 55 206s90.334 69 161.001 69c32 0 60.833 -3.5 86.5 -10.5s46.167 -14.5 61.5 -22.5l-18 -88c-20.667 6.66699 -40.834 12.334 -60.501 17.001s-40.167 7 -61.5 7
c-16.667 0 -31.5 -2.16699 -44.5 -6.5s-23.833 -12.5 -32.5 -24.5s-15.167 -28.833 -19.5 -50.5s-6.5 -49.834 -6.5 -84.501v-19c0 -34.667 2.16699 -63.334 6.5 -86.001s10.833 -40.834 19.5 -54.501s19.5 -23.167 32.5 -28.5s27.833 -8 44.5 -8
c24.667 0 47.334 3.33301 68.001 10s41 14.334 61 23.001l15 -87c-16 -9.33301 -36.833 -18.166 -62.5 -26.499s-55.5 -12.5 -89.5 -12.5z" />
    <glyph glyph-name="d" unicode="d" horiz-adv-x="533" 
d="M347 718l117.002 0.000976562v-718h-78l-34 61l-53 -60c-6.66699 -3.33301 -15.834 -6.33301 -27.501 -9s-24.167 -4 -37.5 -4c-64.667 0 -113.334 23 -146.001 69s-49 114.333 -49 205c0 50 5.33301 92.5 16 127.5s24.834 63.5 42.501 85.5s38.167 38 61.5 48
s48 15 74 15s48.167 -3.83301 66.5 -11.5s34.166 -16.834 47.499 -27.501v219zM347.002 414.001c-9.33301 7.33301 -21.333 14.166 -36 20.499s-32.334 9.5 -53.001 9.5c-16 0 -30 -2.16699 -42 -6.5s-22.167 -12.333 -30.5 -24s-14.666 -27.667 -18.999 -48
s-6.5 -46.5 -6.5 -78.5v-54c0 -61.333 8.5 -104.666 25.5 -129.999s41.5 -38 73.5 -38c18.667 0 34.5 4 47.5 12s26.5 18.667 40.5 32v305z" />
    <glyph glyph-name="e" unicode="e" horiz-adv-x="489" 
d="M159 226c0.666992 -28 3.16504 -51.3301 7.49805 -69.9971s11 -33.834 20 -45.501s20.833 -19.834 35.5 -24.501s32.334 -7 53.001 -7c25.333 0 49.5 3.33301 72.5 10s45.5 14.334 67.5 23.001l16 -86c-15.333 -8.66699 -37.5 -17.5 -66.5 -26.5s-61.5 -13.5 -97.5 -13.5
c-76.667 0 -134 23.333 -172 70s-57 115.667 -57 207s19.5 160 58.5 206s91.5 69 157.5 69c35.333 0 65.333 -5.66699 90 -17s44.834 -27.833 60.501 -49.5s27.167 -47.834 34.5 -78.501s11 -65.334 11 -104.001v-63h-291v0zM339.998 305.003l-0.000976562 18
c0 48.667 -6.66699 82.667 -20 102s-35 29 -65 29c-15.333 0 -28.666 -2.33301 -39.999 -7s-21 -12.667 -29 -24s-14 -26.5 -18 -45.5s-6.66699 -43.167 -8 -72.5h180z" />
    <glyph glyph-name="f" unicode="f" horiz-adv-x="330" 
d="M21 445v81.999h62v40c0 108 46.333 162 139 162c24 0 45.333 -2.66699 64 -8s33.334 -10.666 44.001 -15.999l-6 -67h-74c-18.667 0 -31.834 -3.33301 -39.501 -10s-11.5 -18 -11.5 -34v-67h114v-82h-114v-445h-116v445h-62z" />
    <glyph glyph-name="g" unicode="g" horiz-adv-x="494" 
d="M483 554l-0.00292969 -97h-118l69 -42c2.66699 -6.66699 4.66699 -13.667 6 -21s2 -16.666 2 -27.999c0 -32.667 -5.33301 -60.167 -16 -82.5s-25.167 -40.333 -43.5 -54s-39.666 -23.5 -63.999 -29.5s-49.833 -9 -76.5 -9c-32.667 0 -62 4.66699 -88 14
c-5.33301 -4.66699 -10.166 -10.334 -14.499 -17.001s-6.5 -14.667 -6.5 -24c0 -14.667 4.66699 -25.667 14 -33s24.666 -11 45.999 -11h117c54 0 95 -10.667 123 -32s42 -55.666 42 -102.999c0 -30.667 -6.5 -56.667 -19.5 -78s-30.5 -38.5 -52.5 -51.5
s-47.667 -22.5 -77 -28.5s-60 -9 -92 -9c-67.333 0 -118 11 -152 33s-51 53 -51 93c0 18 2.66699 32.333 8 43s10.333 19 15 25l55 26c-19.333 6 -35 16 -47 30s-18 33 -18 57c0 15.333 2 28.5 6 39.5s8.66699 20.167 14 27.5l61 36l-61 38
c-7.33301 13.333 -13.166 27.666 -17.499 42.999s-6.5 33.333 -6.5 54c0 32.667 5.83301 60.167 17.5 82.5s27 40.333 46 54s40.5 23.5 64.5 29.5s48.667 9 74 9c44.667 0 82.334 -8.66699 113.001 -26zM241.997 265c29.333 0 50.833 6.83301 64.5 20.5s20.5 36.5 20.5 68.5
v17c0 30 -6.83301 51.333 -20.5 64s-35.167 19 -64.5 19c-30 0 -51.833 -6.16699 -65.5 -18.5s-20.5 -33.166 -20.5 -62.499v-18c0 -32.667 6.83301 -55.834 20.5 -69.501s35.5 -20.5 65.5 -20.5zM154.997 29c-7.33301 -8.66699 -13.333 -18.167 -18 -28.5
s-7 -22.166 -7 -35.499c0 -22.667 8 -39 24 -49s43.667 -15 83 -15c44 0 76.667 6.83301 98 20.5s32 30.5 32 50.5v9c0 13.333 -4.33301 24.666 -13 33.999s-25.667 14 -51 14h-148v0z" />
    <glyph glyph-name="h" unicode="h" horiz-adv-x="534" 
d="M186 0l-117 -0.000976562v718h117v-258l51 58c11.333 5.33301 24.5 10 39.5 14s31.5 6 49.5 6c46 0 81.333 -14 106 -42s37 -70.667 37 -128v-368h-117v380c0 23.333 -5.83301 39.833 -17.5 49.5s-28.167 14.5 -49.5 14.5c-19.333 0 -36.333 -2.66699 -51 -8
s-30.667 -12.666 -48 -21.999v-414z" />
    <glyph glyph-name="i" unicode="i" horiz-adv-x="263" 
d="M132 601c-19.333 0 -35.833 5.83301 -49.5 17.5s-20.5 28.167 -20.5 49.5c0 20.667 6.83301 37 20.5 49s30.167 18 49.5 18c18.667 0 34.834 -6 48.501 -18s20.5 -28.333 20.5 -49c0 -21.333 -6.83301 -37.833 -20.5 -49.5s-29.834 -17.5 -48.501 -17.5zM73 527h117v-527
h-117v527z" />
    <glyph glyph-name="j" unicode="j" horiz-adv-x="260" 
d="M130 601c-19.333 0 -35.833 5.83301 -49.5 17.5s-20.5 28.167 -20.5 49.5c0 20.667 6.83301 37 20.5 49s30.167 18 49.5 18s35.833 -6 49.5 -18s20.5 -28.333 20.5 -49c0 -21.333 -6.83301 -37.833 -20.5 -49.5s-30.167 -17.5 -49.5 -17.5zM74 -170
c-28 0 -50.834 2.83301 -68.501 8.5s-31.167 11.167 -40.5 16.5l9 63h54c16 0 27.333 3.16699 34 9.5s10 16.166 10 29.499v570h116v-535c0 -55.333 -9.66699 -96.166 -29 -122.499s-47.666 -39.5 -84.999 -39.5z" />
    <glyph glyph-name="k" unicode="k" horiz-adv-x="498" 
d="M186 0h-117v718h117v-295l-19 -154l186 258h123l-184 -236l69 -60l124 -231h-126l-127 246l-46 -68v-178z" />
    <glyph glyph-name="l" unicode="l" horiz-adv-x="267" 
d="M75 718h117v-718h-117v718z" />
    <glyph glyph-name="m" unicode="m" horiz-adv-x="799" 
d="M505 518c12 5.33301 25.166 9.99902 39.499 13.999s30.5 6 48.5 6c46 0 81 -14 105 -42s36 -70.667 36 -128v-368h-117v380c0 23.333 -5.5 39.833 -16.5 49.5s-27.167 14.5 -48.5 14.5c-18 0 -33.833 -2.66699 -47.5 -8s-28.5 -12.666 -44.5 -21.999v-414h-117v380
c0 23.333 -6 39.833 -18 49.5s-27.667 14.5 -47 14.5c-17.333 0 -33.166 -2.66699 -47.499 -8s-29.166 -12.333 -44.499 -21v-415h-117v527h77l38 -67l51 58c10.667 5.33301 23.167 10 37.5 14s30.833 6 49.5 6c20 0 37.167 -1.83301 51.5 -5.5s27.166 -8.5 38.499 -14.5
l40 -62z" />
    <glyph glyph-name="n" unicode="n" horiz-adv-x="534" 
d="M237 518c11.333 5.33301 24.5 9.99902 39.5 13.999s31.5 6 49.5 6c46 0 81.333 -14 106 -42s37 -70.667 37 -128v-368h-117v380c0 23.333 -5.83301 39.833 -17.5 49.5s-28.167 14.5 -49.5 14.5c-19.333 0 -36.333 -2.66699 -51 -8s-30.667 -12.666 -48 -21.999v-414h-117
v527h77l38 -69z" />
    <glyph glyph-name="o" unicode="o" horiz-adv-x="514" 
d="M258 -14c-70 0 -124.167 24 -162.5 72s-57.5 116 -57.5 204c0 89.333 19.5 157.666 58.5 204.999s92.833 71 161.5 71s122.167 -23.5 160.5 -70.5s57.5 -114.5 57.5 -202.5c0 -89.333 -19.167 -158.166 -57.5 -206.499s-91.833 -72.5 -160.5 -72.5zM258 75
c16 0 30 2.83301 42 8.5s22.167 15.167 30.5 28.5s14.5 31.5 18.5 54.5s6 51.5 6 85.5v18c0 36 -1.83301 65.333 -5.5 88s-9.5 40.667 -17.5 54s-18.167 22.5 -30.5 27.5s-26.833 7.5 -43.5 7.5c-17.333 0 -32.166 -2.5 -44.499 -7.5s-22.5 -14 -30.5 -27
s-14 -30.5 -18 -52.5s-6 -50.333 -6 -85v-19c0 -35.333 2 -64.666 6 -87.999s10.167 -41.833 18.5 -55.5s18.666 -23.334 30.999 -29.001s26.833 -8.5 43.5 -8.5z" />
    <glyph glyph-name="p" unicode="p" horiz-adv-x="531" 
d="M232 521c9.33301 4.66699 20.668 8.66699 34.001 12s29.666 5 48.999 5c60 0 104.5 -23.667 133.5 -71s43.5 -115.333 43.5 -204c0 -88 -14.5 -153.667 -43.5 -197s-75.833 -65 -140.5 -65c-27.333 0 -51 4 -71 12s-37 17.333 -51 28v-203h-117v689h77l35 -63z
M186.002 106c11.333 -6.66699 24.6689 -13.167 40.002 -19.5s32.666 -9.5 51.999 -9.5c32.667 0 56.5 12.5 71.5 37.5s22.5 67.5 22.5 127.5v47c0 56.667 -7.5 96.667 -22.5 120s-37.833 35 -68.5 35c-17.333 0 -33.833 -2.5 -49.5 -7.5s-30.834 -11.833 -45.501 -20.5v-310
v0z" />
    <glyph glyph-name="q" unicode="q" horiz-adv-x="533" 
d="M348 48c-14 -12.667 -30.999 -23.667 -50.999 -33s-44 -14 -72 -14c-60.667 0 -106.834 21.667 -138.501 65s-47.5 110.333 -47.5 201c0 88.667 15.667 156 47 202s76.333 69 135 69c22.667 0 42 -2 58 -6s29.333 -8.33301 40 -13l50 -60l37 68h59v-689h-117v210v0z
M348.001 414c-14.667 8.66699 -30.002 15.833 -46.002 21.5s-32.667 8.5 -50 8.5c-28.667 0 -51.167 -11.5 -67.5 -34.5s-24.5 -63.167 -24.5 -120.5v-47c0 -59.333 7.83301 -101.666 23.5 -126.999s39.834 -38 72.501 -38c20.667 0 38.834 4.16699 54.501 12.5
s28.167 16.166 37.5 23.499v301v0z" />
    <glyph glyph-name="r" unicode="r" horiz-adv-x="390" 
d="M239 522c11.333 5.33301 22.665 9.33203 33.998 11.999s24 4 38 4c16 0 29.333 -1.83301 40 -5.5s18.667 -7.5 24 -11.5l-20 -105c-9.33301 4 -19.666 7.16699 -30.999 9.5s-25.666 3.5 -42.999 3.5c-18 0 -34.667 -2.66699 -50 -8s-30.333 -11.666 -45 -18.999v-402
h-117v527h77l38 -76z" />
    <glyph glyph-name="s" unicode="s" horiz-adv-x="423" 
d="M198 -14c-38 0 -69.835 3.66895 -95.502 11.002s-46.167 15 -61.5 23l12 83c17.333 -7.33301 36.833 -14.166 58.5 -20.499s45.834 -9.5 72.501 -9.5c32 0 55.667 5.16699 71 15.5s23 28.166 23 53.499c0 13.333 -1.83301 23.666 -5.5 30.999s-9.83398 13.5 -18.501 18.5
s-20.5 9.33301 -35.5 13l-56.5 14.5c-18.667 4.66699 -35.667 10.667 -51 18s-28.666 17 -39.999 29s-20.166 27 -26.499 45s-9.5 39.667 -9.5 65c0 56 16.833 97 50.5 123s78.5 39 134.5 39c34 0 63.5 -3.16699 88.5 -9.5s45.167 -13.5 60.5 -21.5l-17 -85
c-20 6.66699 -39.333 12 -58 16s-39.667 6 -63 6c-32 0 -54.833 -4.16699 -68.5 -12.5s-20.5 -24.833 -20.5 -49.5c0 -12 1.83301 -21.667 5.5 -29s9.83398 -13.333 18.501 -18s20 -8.83398 34 -12.501l52 -13.5c22 -5.33301 41.667 -11.833 59 -19.5
s31.666 -17.667 42.999 -30s20 -27.5 26 -45.5s9 -39.667 9 -65c0 -49.333 -15.667 -88.833 -47 -118.5s-79.333 -44.5 -144 -44.5z" />
    <glyph glyph-name="t" unicode="t" horiz-adv-x="352" 
d="M216 -12c-46.667 0 -80.668 13 -102.001 39s-32 65 -32 117v301h-61v82h70l56 143h52v-143h113v-82h-113v-328c0 -17.333 3.5 -29 10.5 -35s20.167 -9 39.5 -9h72l6 -63c-11.333 -5.33301 -26.666 -10.333 -45.999 -15s-41 -7 -65 -7z" />
    <glyph glyph-name="u" unicode="u" horiz-adv-x="532" 
d="M346 527l116.999 0.000976562v-527h-77l-38 66l-47 -60c-13.333 -5.33301 -27.833 -9.66602 -43.5 -12.999s-32.5 -5 -50.5 -5c-46 0 -81.167 14.167 -105.5 42.5s-36.5 71.166 -36.5 128.499v368h117v-378c0 -28 5.83301 -47.167 17.5 -57.5s27.834 -15.5 48.501 -15.5
c20 0 37.5 2.66699 52.5 8s30.167 12.666 45.5 21.999v421z" />
    <glyph glyph-name="v" unicode="v" horiz-adv-x="475" 
d="M15 527h122l79 -290l27 -192l27 192l81 290h109l-162 -527h-117z" />
    <glyph glyph-name="w" unicode="w" horiz-adv-x="688" 
d="M15 527h121l56 -271l15 -183l33 213l57 241h112l55 -241l30 -213l15 183l59 271h105l-131 -527h-116l-54 239l-24 196l-26 -196l-58 -239h-117z" />
    <glyph glyph-name="x" unicode="x" horiz-adv-x="474" 
d="M169 269l-142 258h125l59 -114l35 -106l29 106l54 114h113l-137 -254l148 -273h-126l-63 126l-36 111l-32 -111l-61 -126h-114z" />
    <glyph glyph-name="y" unicode="y" horiz-adv-x="475" 
d="M187 19l-172 508h120l83 -273l24 -165l28 165l81 273h109l-219 -689h-111z" />
    <glyph glyph-name="z" unicode="z" horiz-adv-x="434" 
d="M34 96l207 293l59 54l-106 -9h-149v93h353v-101l-202 -289l-66 -64l109 15h163v-88h-368v96z" />
    <glyph glyph-name="braceleft" unicode="{" horiz-adv-x="332" 
d="M218 -110c-41.333 0 -73.1689 11.166 -95.502 33.499s-33.5 54.166 -33.5 95.499c0 18 1.33301 35.333 4 52s5.83398 32.334 9.50098 47.001s6.83398 28.5 9.50098 41.5s4 24.833 4 35.5c0 26.667 -7.5 46 -22.5 58s-36.5 18.667 -64.5 20v80c28 1.33301 49.5 8 64.5 20
s22.5 31.333 22.5 58c0 10.667 -1.5 22 -4.5 34l-9.5 38.5c-3.33301 13.667 -6.5 28.334 -9.5 44.001s-4.5 32.5 -4.5 50.5c0 21.333 3.66699 40 11 56s17.166 29.333 29.499 40s27 18.667 44 24s35.167 8 54.5 8c16 0 30 -1.5 42 -4.5s21.333 -6.16699 28 -9.5l-6 -76h-34
c-22 0 -37 -5.16699 -45 -15.5s-9.33301 -30.166 -4 -59.499l18 -102c16 -84.667 -21.667 -133.334 -113 -146.001c46.667 -6 79.167 -20.833 97.5 -44.5s23.833 -58.167 16.5 -103.5l-19 -108c-5.33301 -30 -4 -51 4 -63s23 -18 45 -18h34l6 -72
c-6.66699 -3.33301 -17.667 -6.5 -33 -9.5s-30.666 -4.5 -45.999 -4.5z" />
    <glyph glyph-name="bar" unicode="|" horiz-adv-x="212" 
d="M61 718h90v-818h-90v818z" />
    <glyph glyph-name="braceright" unicode="}" horiz-adv-x="332" 
d="M115 -110c-15.333 0 -30.832 1.49902 -46.499 4.49902s-26.834 6.16699 -33.501 9.5l6 72h34c22 0 37.167 5.66699 45.5 17s9.83301 31.666 4.5 60.999l-19 111c-7.33301 44.667 -2 79 16 103s50.667 39 98 45c-46.667 6.66699 -79.5 21.834 -98.5 45.501
s-24.167 57.5 -15.5 101.5l18 98c5.33301 30 4 50.5 -4 61.5s-23 16.5 -45 16.5h-34l-6 76c6.66699 3.33301 16 6.5 28 9.5s26 4.5 42 4.5c19.333 0 37.5 -2.66699 54.5 -8s31.667 -13.166 44 -23.499s22.166 -23.5 29.499 -39.5s11 -34.667 11 -56
c0 -18 -1.5 -34.833 -4.5 -50.5s-6.16699 -30.334 -9.5 -44.001l-9.5 -38c-3 -11.667 -4.5 -22.834 -4.5 -33.501c0 -27.333 7.5 -47.166 22.5 -59.499s36.5 -19.166 64.5 -20.499v-80c-28 -1.33301 -49.5 -7.83301 -64.5 -19.5s-22.5 -30.5 -22.5 -56.5
c0 -10.667 1.5 -22.667 4.5 -36l9.5 -42.5c3.33301 -15 6.5 -30.833 9.5 -47.5s4.5 -33.667 4.5 -51c0 -42.667 -11.167 -75 -33.5 -97s-54.166 -33 -95.499 -33z" />
    <glyph glyph-name="asciitilde" unicode="~" horiz-adv-x="411" 
d="M273 235c-18 0 -32.5 3.83203 -43.5 11.499s-21.833 16.5 -32.5 26.5l-23 23c-10.667 10.667 -18.167 17.834 -22.5 21.501s-10.5 5.5 -18.5 5.5c-11.333 0 -19.166 -6.16699 -23.499 -18.5s-6.5 -29.166 -6.5 -50.499v-11h-64c0 58 9 102.5 27 133.5s42 46.5 72 46.5
c17.333 0 31.666 -3.83301 42.999 -11.5s22.333 -16.834 33 -27.501l23 -22l23 -22c4 -4 10 -6 18 -6c10.667 0 18.167 6 22.5 18s6.5 28.667 6.5 50v12h65c0 -57.333 -9 -101.5 -27 -132.5s-42 -46.5 -72 -46.5z" />
    <glyph glyph-name="exclamdown" unicode="&#xa1;" horiz-adv-x="273" 
d="M137 378c-22 0 -41 7.33301 -57 22s-24 34 -24 58s8 43.333 24 58s35 22 57 22s40.833 -7.33301 56.5 -22s23.5 -34 23.5 -58s-7.83301 -43.333 -23.5 -58s-34.5 -22 -56.5 -22zM70 60l39 254h55l39 -254v-222h-133v222z" />
    <glyph glyph-name="cent" unicode="&#xa2;" horiz-adv-x="437" 
d="M262 76c24.667 0 47.3311 4.16699 67.998 12.5s41 17.166 61 26.499l14 -90c-16 -9.33301 -36.333 -18.166 -61 -26.499s-54.667 -12.5 -90 -12.5h-10c-3.33301 0 -6.66602 0.333008 -9.99902 1l-40 -129l-63 21l37 122c-86.667 34.667 -130 122 -130 262
c0 91.333 18.333 160 55 206s90.334 69 161.001 69c28 0 53 -3 75 -9l37 122l65 -20l-170 -555h1zM301.997 440c-12.667 2.66699 -26.001 4 -40.001 4c-17.333 0 -32.666 -2.33301 -45.999 -7s-24.5 -13.167 -33.5 -25.5s-15.833 -29.5 -20.5 -51.5s-7 -50.333 -7 -85v-19
c0 -44.667 3.5 -79.667 10.5 -105s17.5 -44 31.5 -56l105 345v0z" />
    <glyph glyph-name="sterling" unicode="&#xa3;" horiz-adv-x="487" 
d="M268 280c2 -10.667 2.99707 -22.999 2.99707 -36.999c0 -41.333 -15.667 -79 -47 -113l-78 -49l127 16h186v-97h-402v85c34 20.667 59.333 41.167 76 61.5s25 46.833 25 79.5c0 9.33301 -0.666992 18.5 -2 27.5s-3 17.833 -5 26.5h-105v90h68
c-8 18.667 -15.333 37.5 -22 56.5s-10 39.833 -10 62.5c0 25.333 4 48.5 12 69.5s20.167 39.333 36.5 55s37.333 27.834 63 36.501s55.834 13 90.501 13c22.667 0 42.834 -1 60.501 -3s33.5 -4.83301 47.5 -8.5s26.833 -8.16699 38.5 -13.5s22.834 -11 33.501 -17l-19 -89
c-13.333 5.33301 -25.5 9.83301 -36.5 13.5s-21.833 6.66699 -32.5 9s-21.5 4.16602 -32.5 5.49902s-23.167 2 -36.5 2c-32.667 0 -56.167 -5.66699 -70.5 -17s-21.5 -32 -21.5 -62v-14c0 -18 2.66699 -34.833 8 -50.5s11.333 -31.834 18 -48.501h145v-90h-118v0z" />
    <glyph glyph-name="fraction" unicode="&#xa4;" horiz-adv-x="318" 
d="M271 652h88l-312 -652h-88z" />
    <glyph glyph-name="yen" unicode="&#xa5;" horiz-adv-x="577" 
d="M541 437v-90h-143l-37 -86h180v-89h-191v-172h-123v172h-191v89h177l-38 86h-139v90h99l-95 214h137l90 -238l30 -168l29 168l90 238h113l-92 -214h104z" />
    <glyph glyph-name="florin" unicode="&#xa6;" horiz-adv-x="403" 
d="M35 -177c-21.333 0 -38.6689 2.66504 -52.002 7.99805s-25 10.666 -35 15.999l18 67h45c15.333 0 25.833 2.83301 31.5 8.5s9.83398 15.834 12.501 30.501l76 439h-74v82h87l16 90c10.667 60 29 101.833 55 125.5s59.667 35.5 101 35.5c24.667 0 45.167 -2.66699 61.5 -8
s29.5 -10.666 39.5 -15.999l-18 -67h-62c-17.333 0 -29.666 -3.33301 -36.999 -10s-12.666 -18 -15.999 -34l-20 -116h99v-82h-113l-72 -419c-4.66699 -28.667 -11.167 -52.667 -19.5 -72s-18.333 -34.666 -30 -45.999s-25.334 -19.5 -41.001 -24.5s-33.167 -7.5 -52.5 -7.5
z" />
    <glyph glyph-name="section" unicode="&#xa7;" horiz-adv-x="454" 
d="M156 352c-13.333 5.33301 -25.833 12.1738 -37.5 20.5068s-22 18.166 -31 29.499s-16.167 24.833 -21.5 40.5s-8 33.834 -8 54.501c0 57.333 16.833 99.333 50.5 126s78.5 40 134.5 40c34 0 63.333 -3 88 -9s45 -13.333 61 -22l-18 -85
c-19.333 6.66699 -38.333 12 -57 16s-39.667 6 -63 6c-32 0 -54.833 -4.83301 -68.5 -14.5s-20.5 -26.834 -20.5 -51.501c0 -12 1.66699 -21.833 5 -29.5s9 -14.334 17 -20.001s18.667 -10.834 32 -15.501s30 -10 50 -16c20.667 -6 40 -12.667 58 -20s33.833 -17 47.5 -29
s24.5 -26.833 32.5 -44.5s12 -39.834 12 -66.501c0 -22.667 -3.5 -42.334 -10.5 -59.001s-16.5 -31.667 -28.5 -45l-83 -23c27.333 -12 50.333 -29.167 69 -51.5s28 -53.5 28 -93.5c0 -57.333 -16.833 -99.5 -50.5 -126.5s-78.5 -40.5 -134.5 -40.5
c-34 0 -63.833 3.33301 -89.5 10s-46.5 14 -62.5 22l12 82c18 -6.66699 36.667 -12.834 56 -18.501s43 -8.5 71 -8.5c32.667 0 56 5.66699 70 17s21 29.333 21 54c0 12.667 -2 23.167 -6 31.5s-10.167 15.666 -18.5 21.999s-19 12 -32 17s-28.833 10.167 -47.5 15.5
c-22.667 6.66699 -43.167 14.167 -61.5 22.5s-34 18.833 -47 31.5s-22.833 28 -29.5 46s-10 40 -10 66c0 20.667 3.5 39 10.5 55s16.167 29.667 27.5 41l83 23v0zM235 157.008c28 9.33301 48.666 19.9971 61.999 31.9971s20 30 20 54c0 13.333 -1.5 24.5 -4.5 33.5
s-8.16699 16.833 -15.5 23.5s-17.166 12.334 -29.499 17.001s-27.5 9.33398 -45.5 14.001c-31.333 -8.66699 -53.333 -18.667 -66 -30s-19 -29.666 -19 -54.999c0 -12.667 1.33301 -23.5 4 -32.5s7.5 -16.667 14.5 -23s17 -12 30 -17s29.5 -10.5 49.5 -16.5z" />
    <glyph glyph-name="currency" unicode="&#xa8;" horiz-adv-x="547" 
d="M30 360v77.9971h75c6 33.333 15.333 63.833 28 91.5s29 51.334 49 71.001s44.333 35 73 46s62 16.5 100 16.5c34 0 63.5 -3.16699 88.5 -9.5s48.167 -14.166 69.5 -23.499l-17 -96l-40 12.5c-12 3.66699 -23.5 6.66699 -34.5 9s-22 4.16602 -33 5.49902
s-23.167 2 -36.5 2c-16 0 -30.667 -2 -44 -6s-25 -10.667 -35 -20s-18.5 -22.166 -25.5 -38.499s-12.5 -36.5 -16.5 -60.5h174v-78h-179v-8v-42v-25h179v-78h-172c8.66699 -47.333 23.167 -80.333 43.5 -99s46.166 -28 77.499 -28c28.667 0 53.334 3.66699 74.001 11
s44.334 17 71.001 29l26 -90c-20 -11.333 -44.333 -21.5 -73 -30.5s-62.334 -13.5 -101.001 -13.5c-37.333 0 -69.833 5.33301 -97.5 16s-51.5 25.834 -71.5 45.501s-36.167 43 -48.5 70s-21.5 56.833 -27.5 89.5h-76v78h67c-0.666992 7.33301 -1 14.333 -1 21v21v16
c0 6 0.333008 11.667 1 17h-67z" />
    <glyph glyph-name="quotesingle" unicode="&#xa9;" horiz-adv-x="231" 
d="M52 557v135h127v-135l-41 -170h-44z" />
    <glyph glyph-name="quotedblleft" unicode="&#xaa;" horiz-adv-x="461" 
d="M334 423c-22.667 0 -41.834 7.16699 -57.501 21.5s-23.5 33.5 -23.5 57.5c0 19.333 4 37.5 12 54.5s17.667 34.5 29 52.5l73 115l33 -14l-43 -144l36 -9c4.66699 -4.66699 9.33398 -11.5 14.001 -20.5s7 -20.167 7 -33.5c0 -24 -7.83301 -43.333 -23.5 -58
s-34.5 -22 -56.5 -22zM127 423c-22 0 -40.834 7.16699 -56.501 21.5s-23.5 33.5 -23.5 57.5c0 19.333 4 37.5 12 54.5s17.667 34.5 29 52.5l73 115l33 -14l-43 -144l36 -9c4.66699 -4.66699 9.33398 -11.5 14.001 -20.5s7 -20.167 7 -33.5c0 -24 -8 -43.333 -24 -58
s-35 -22 -57 -22z" />
    <glyph glyph-name="guillemotleft" unicode="&#xab;" horiz-adv-x="485" 
d="M227 165v81l120 165h108l-110 -155l-51 -50l51 -49l110 -157h-107zM38 165v81l120 165h109l-111 -155l-51 -50l51 -49l111 -157h-108z" />
    <glyph glyph-name="guilsinglleft" unicode="&#xac;" horiz-adv-x="297" 
d="M38 165v81l120 165h109l-111 -155l-51 -50l51 -49l111 -157h-108z" />
    <glyph glyph-name="guilsinglright" unicode="&#xad;" horiz-adv-x="296" 
d="M140 155l51 50l-51 49l-110 157h107l121 -165v-82l-120 -164h-108z" />
    <glyph glyph-name="fi" unicode="&#xae;" horiz-adv-x="577" 
d="M445 601c-20 0 -37.333 5.83301 -52 17.5s-22 28.167 -22 49.5s7.33301 38.166 22 50.499s32 18.5 52 18.5s37.167 -6.16699 51.5 -18.5s21.5 -29.166 21.5 -50.499s-7.16699 -37.833 -21.5 -49.5s-31.5 -17.5 -51.5 -17.5zM23 445l0.00195312 81.999h62v40
c0 54 11.833 94.5 35.5 121.5s58.167 40.5 103.5 40.5c21.333 0 40.166 -2.66699 56.499 -8s29.166 -10.666 38.499 -15.999l-6 -67h-51c-22.667 0 -38.5 -3.33301 -47.5 -10s-13.5 -18 -13.5 -34v-67h111v-82h-111v-445h-116v445h-62zM386.002 526.999h117v-527h-117v527z
" />
    <glyph glyph-name="fl" unicode="&#xaf;" horiz-adv-x="568" 
d="M23 445v81.999h62v40c0 54 11.833 94.5 35.5 121.5s58.167 40.5 103.5 40.5c22 0 40.833 -2.66699 56.5 -8s28.167 -10.666 37.5 -15.999l-6 -67h-50c-22.667 0 -38.5 -3.33301 -47.5 -10s-13.5 -18 -13.5 -34v-67h111v-82h-111v-445h-116v445h-62zM377 717.999h116v-718
h-116v718z" />
    <glyph glyph-name="endash" unicode="&#xb1;" horiz-adv-x="438" 
d="M48 341h342v-85h-342v85z" />
    <glyph glyph-name="dagger" unicode="&#xb2;" 
d="M131 376h-87v105h87l93 -31l-37 102v119h129v-119l-37 -102l93 31h87v-105h-87l-95 22l39 -112v-152l-36 -296h-57l-36 296v152l39 112z" />
    <glyph glyph-name="daggerdbl" unicode="&#xb3;" 
d="M131 376h-87v105h87l95 -32l-39 103v119h129v-119l-39 -102l95 31h87v-105h-87l-92 21l36 -99v-86l-36 -99l92 21h87v-105h-87l-95 32l39 -103v-119h-129v119l39 102l-95 -31h-87v105h87l92 -21l-36 99v86l36 99z" />
    <glyph glyph-name="periodcentered" unicode="&#xb4;" horiz-adv-x="266" 
d="M133 247c-23.333 0 -43.333 7.66699 -60 23s-25 35.666 -25 60.999s8.33301 45.833 25 61.5s36.667 23.5 60 23.5s43.333 -7.83301 60 -23.5s25 -36.167 25 -61.5s-8.33301 -45.666 -25 -60.999s-36.667 -23 -60 -23z" />
    <glyph glyph-name="paragraph" unicode="&#xb6;" horiz-adv-x="526" 
d="M233 310l-75 -15c-37.333 10 -66.5 29.5 -87.5 58.5s-31.5 68.833 -31.5 119.5c0 58.667 18.667 103 56 133s87 45 149 45h206v-751h-74v679h-69v-679h-74v410z" />
    <glyph glyph-name="bullet" unicode="&#xb7;" horiz-adv-x="353" 
d="M175 192c-16.667 0 -32.667 3.33301 -48 10s-29 15.667 -41 27s-21.5 25.166 -28.5 41.499s-10.5 33.833 -10.5 52.5c0 20 3.5 38.167 10.5 54.5s16.5 30.5 28.5 42.5s25.667 21.167 41 27.5s31.333 9.5 48 9.5c18 0 35 -3.16699 51 -9.5s30 -15.5 42 -27.5
s21.333 -26.167 28 -42.5s10 -34.5 10 -54.5c0 -18.667 -3.33301 -36.167 -10 -52.5s-16 -30.166 -28 -41.499s-26 -20.333 -42 -27s-33 -10 -51 -10z" />
    <glyph glyph-name="bullet" unicode="&#x2219;" horiz-adv-x="353" 
d="M175 192c-16.667 0 -32.667 3.33301 -48 10s-29 15.667 -41 27s-21.5 25.166 -28.5 41.499s-10.5 33.833 -10.5 52.5c0 20 3.5 38.167 10.5 54.5s16.5 30.5 28.5 42.5s25.667 21.167 41 27.5s31.333 9.5 48 9.5c18 0 35 -3.16699 51 -9.5s30 -15.5 42 -27.5
s21.333 -26.167 28 -42.5s10 -34.5 10 -54.5c0 -18.667 -3.33301 -36.167 -10 -52.5s-16 -30.166 -28 -41.499s-26 -20.333 -42 -27s-33 -10 -51 -10z" />
    <glyph glyph-name="quotesinglbase" unicode="&#xb8;" horiz-adv-x="255" 
d="M61 -132l43 144l-36 9c-4.66699 4.66699 -9.33398 11.5 -14.001 20.5s-7 20.167 -7 33.5c0 24 7.83301 43.333 23.5 58s34.5 22 56.5 22c22.667 0 41.834 -7.16699 57.501 -21.5s23.5 -33.5 23.5 -57.5c0 -19.333 -4 -37.5 -12 -54.5s-17.667 -34.5 -29 -52.5l-73 -115z
" />
    <glyph glyph-name="quotedblbase" unicode="&#xb9;" horiz-adv-x="461" 
d="M267 -132l44 144l-36 9c-4.66699 4.66699 -9.5 11.5 -14.5 20.5s-7.5 20.167 -7.5 33.5c0 24 8 43.333 24 58s35 22 57 22c22.667 0 41.667 -7.16699 57 -21.5s23 -33.5 23 -57.5c0 -19.333 -3.83301 -37.5 -11.5 -54.5s-17.5 -34.5 -29.5 -52.5l-72 -115zM61 -132
l43 144l-36 9c-4.66699 4.66699 -9.33398 11.5 -14.001 20.5s-7 20.167 -7 33.5c0 24 7.83301 43.333 23.5 58s34.5 22 56.5 22c22.667 0 41.834 -7.16699 57.501 -21.5s23.5 -33.5 23.5 -57.5c0 -19.333 -4 -37.5 -12 -54.5s-17.667 -34.5 -29 -52.5l-73 -115z" />
    <glyph glyph-name="quotedblright" unicode="&#xba;" horiz-adv-x="461" 
d="M267 415l44 144l-36 9c-4.66699 4.66699 -9.5 11.5 -14.5 20.5s-7.5 20.167 -7.5 33.5c0 24 8 43.333 24 58s35 22 57 22c22.667 0 41.667 -7.16699 57 -21.5s23 -33.5 23 -57.5c0 -19.333 -3.83301 -37.5 -11.5 -54.5s-17.5 -34.5 -29.5 -52.5l-72 -115zM61 415l43 144
l-36 9c-4.66699 4.66699 -9.33398 11.5 -14.001 20.5s-7 20.167 -7 33.5c0 24 7.83301 43.333 23.5 58s34.5 22 56.5 22c22.667 0 41.834 -7.16699 57.501 -21.5s23.5 -33.5 23.5 -57.5c0 -19.333 -4 -37.5 -12 -54.5s-17.667 -34.5 -29 -52.5l-73 -115z" />
    <glyph glyph-name="guillemotright" unicode="&#xbb;" horiz-adv-x="485" 
d="M329 155l51 50l-51 49l-111 157h108l121 -165v-82l-120 -164h-109zM140 155l51 50l-51 49l-110 157h107l121 -165v-82l-120 -164h-108z" />
    <glyph glyph-name="ellipsis" unicode="&#xbc;" horiz-adv-x="753" 
d="M620 -12c-23.333 0 -43.333 7.66699 -60 23s-25 35.666 -25 60.999s8.33301 45.833 25 61.5s36.667 23.5 60 23.5s43.333 -7.83301 60 -23.5s25 -36.167 25 -61.5s-8.33301 -45.666 -25 -60.999s-36.667 -23 -60 -23zM376 -12c-23.333 0 -43.166 7.66699 -59.499 23
s-24.5 35.666 -24.5 60.999s8.16699 45.833 24.5 61.5s36.166 23.5 59.499 23.5s43.333 -7.83301 60 -23.5s25 -36.167 25 -61.5s-8.33301 -45.666 -25 -60.999s-36.667 -23 -60 -23zM133 -12c-23.333 0 -43.166 7.66699 -59.499 23s-24.5 35.666 -24.5 60.999
s8.16699 45.833 24.5 61.5s36.166 23.5 59.499 23.5s43.333 -7.83301 60 -23.5s25 -36.167 25 -61.5s-8.33301 -45.666 -25 -60.999s-36.667 -23 -60 -23z" />
    <glyph glyph-name="perthousand" unicode="&#xbd;" horiz-adv-x="1240" 
d="M198 250c-28.667 0 -53.3379 5.66406 -74.0049 16.9971s-37.667 26.5 -51 45.5s-23.166 41 -29.499 66s-9.5 51.5 -9.5 79.5c0 26.667 3.33301 52.334 10 77.001s16.834 46.5 30.501 65.5s30.834 34.167 51.501 45.5s45.334 17 74.001 17s53.334 -5.66699 74.001 -17
s37.834 -26.333 51.501 -45s23.667 -40.167 30 -64.5s9.5 -49.833 9.5 -76.5c0 -28 -3.33301 -54.667 -10 -80s-16.834 -47.666 -30.501 -66.999s-31 -34.666 -52 -45.999s-45.833 -17 -74.5 -17zM578.996 650.997h81l-376 -651h-81zM1039 -14.0029
c-28.667 0 -53.3379 5.66406 -74.0049 16.9971s-37.667 26.5 -51 45.5s-23.166 41 -29.499 66s-9.5 51.5 -9.5 79.5c0 26.667 3.33301 52.334 10 77.001s16.834 46.5 30.501 65.5s30.834 34.167 51.501 45.5s45.334 17 74.001 17s53.334 -5.66699 74.001 -17
s37.834 -26.333 51.501 -45s23.667 -40.167 30 -64.5s9.5 -49.833 9.5 -76.5c0 -28 -3.33301 -54.667 -10 -80s-16.834 -47.666 -30.501 -66.999s-31 -34.666 -52 -45.999s-45.833 -17 -74.5 -17zM661.992 -14.0059c-28.667 0 -53.3379 5.66406 -74.0049 16.9971
s-37.667 26.5 -51 45.5s-23.166 41 -29.499 66s-9.5 51.5 -9.5 79.5c0 26.667 3.33301 52.334 10 77.001s16.834 46.5 30.501 65.5s30.834 34.167 51.501 45.5s45.334 17 74.001 17s53.334 -5.66699 74.001 -17s37.834 -26.333 51.501 -45s23.667 -40.167 30 -64.5
s9.5 -49.833 9.5 -76.5c0 -28 -3.33301 -54.667 -10 -80s-16.834 -47.666 -30.501 -66.999s-31 -34.666 -52 -45.999s-45.833 -17 -74.5 -17zM198.988 321.991c21.333 0 37 7.83105 47 23.498s15 44.167 15 85.5v50c0 40.667 -5 68.334 -15 83.001s-25.667 22 -47 22
s-37 -7.5 -47 -22.5s-15 -42.833 -15 -83.5v-50c0 -41.333 5.16699 -69.666 15.5 -84.999s25.833 -23 46.5 -23zM1039.99 57.9893c21.333 0 37 7.83105 47 23.498s15 44.167 15 85.5v50c0 40.667 -5 68.334 -15 83.001s-25.667 22 -47 22s-37 -7.5 -47 -22.5
s-15 -42.833 -15 -83.5v-50c0 -41.333 5.16699 -69.666 15.5 -84.999s25.833 -23 46.5 -23zM662.988 57.9873c21.333 0 37 7.83105 47 23.498s15 44.167 15 85.5v50c0 40.667 -5 68.334 -15 83.001s-25.667 22 -47 22s-37 -7.5 -47 -22.5s-15 -42.833 -15 -83.5v-50
c0 -41.333 5.16699 -69.666 15.5 -84.999s25.833 -23 46.5 -23z" />
    <glyph glyph-name="questiondown" unicode="&#xbf;" horiz-adv-x="441" 
d="M259 378c-22.667 0 -41.834 7.33301 -57.501 22s-23.5 34 -23.5 58s7.83301 43.333 23.5 58s34.834 22 57.501 22c21.333 0 40 -7.33301 56 -22s24 -34 24 -58s-8 -43.333 -24 -58s-34.667 -22 -56 -22zM240 -174c-66.667 0 -116.996 15.834 -150.996 47.501
s-51 76.5 -51 134.5c0 32.667 4.83301 60 14.5 82s22.667 40.333 39 55s35.166 26.5 56.499 35.5s43.666 16.5 66.999 22.5v111h90l13 -99c2.66699 -22 0 -38.5 -8 -49.5s-23.667 -21.5 -47 -31.5c-18.667 -6.66699 -34 -12.834 -46 -18.501s-21.333 -12.5 -28 -20.5
s-11.334 -17.5 -14.001 -28.5s-4 -25.167 -4 -42.5v-11c0 -32.667 7 -55.5 21 -68.5s37.667 -19.5 71 -19.5c24 0 46.333 2.83301 67 8.5s44.667 13.167 72 22.5l17 -90c-18.667 -9.33301 -43.334 -18.333 -74.001 -27s-65.667 -13 -105 -13z" />
    <glyph glyph-name="grave" unicode="&#xc1;" horiz-adv-x="512" 
d="M109 757h145l41 -164h-66z" />
    <glyph glyph-name="acute" unicode="&#xc2;" horiz-adv-x="500" 
d="M243 757h145l-120 -164h-66z" />
    <glyph glyph-name="circumflex" unicode="&#xc3;" horiz-adv-x="500" 
d="M202 769h92l121 -176h-110l-35 65l-25 69l-24 -69l-39 -65h-99z" />
    <glyph glyph-name="tilde" unicode="&#xc4;" horiz-adv-x="500" 
d="M306 593c-14.667 0 -26.667 2.5 -36 7.5s-18.666 12.167 -27.999 21.5l-17 18c-7.33301 7.33301 -13.166 12.666 -17.499 15.999s-9.83301 5 -16.5 5c-18.667 0 -28 -17.667 -28 -53v-9h-60c0 46.667 9 83 27 109s39.333 39 64 39c14 0 25.667 -2.5 35 -7.5
s18.666 -12.167 27.999 -21.5l17 -18c8 -7.33301 14 -12.666 18 -15.999s9.66699 -5 17 -5c18.667 0 28 17.333 28 52v10h59c0 -46.667 -8.83301 -83 -26.5 -109s-38.834 -39 -63.501 -39z" />
    <glyph glyph-name="macron" unicode="&#xc5;" horiz-adv-x="500" 
d="M129 708h242v-97h-242v97z" />
    <glyph glyph-name="breve" unicode="&#xc6;" horiz-adv-x="500" 
d="M256 602c-24.667 0 -45.8369 4.33301 -63.5039 13s-32.167 20.167 -43.5 34.5s-19.666 30.833 -24.999 49.5s-8.33301 37.667 -9 57h83v-8c0 -22 3.83301 -38.5 11.5 -49.5s23.167 -16.5 46.5 -16.5s38.833 5.5 46.5 16.5s11.5 27.5 11.5 49.5v8h83
c-0.666992 -19.333 -3.66699 -38.333 -9 -57s-13.666 -35.167 -24.999 -49.5s-25.666 -25.833 -42.999 -34.5s-38.666 -13 -63.999 -13z" />
    <glyph glyph-name="dotaccent" unicode="&#xc7;" horiz-adv-x="500" 
d="M250 593c-18.667 0 -34.5 6.33301 -47.5 19s-19.5 29.334 -19.5 50.001s6.5 37.5 19.5 50.5s28.833 19.5 47.5 19.5s34.5 -6.5 47.5 -19.5s19.5 -29.833 19.5 -50.5s-6.5 -37.334 -19.5 -50.001s-28.833 -19 -47.5 -19z" />
    <glyph glyph-name="dieresis" unicode="&#xc8;" horiz-adv-x="500" 
d="M343 593c-18.667 0 -34.5 6.33301 -47.5 19s-19.5 29.334 -19.5 50.001s6.5 37.5 19.5 50.5s28.833 19.5 47.5 19.5c19.333 0 35.5 -6.5 48.5 -19.5s19.5 -29.833 19.5 -50.5s-6.5 -37.334 -19.5 -50.001s-29.167 -19 -48.5 -19zM157 593
c-19.333 0 -35.5 6.33301 -48.5 19s-19.5 29.334 -19.5 50.001s6.5 37.5 19.5 50.5s29.167 19.5 48.5 19.5c18.667 0 34.5 -6.5 47.5 -19.5s19.5 -29.833 19.5 -50.5s-6.5 -37.334 -19.5 -50.001s-28.833 -19 -47.5 -19z" />
    <glyph glyph-name="ring" unicode="&#xca;" horiz-adv-x="500" 
d="M250 587c-28.667 0 -53.167 9 -73.5 27s-30.5 46.333 -30.5 85s10.167 67.167 30.5 85.5s44.833 27.5 73.5 27.5s53.167 -9.16699 73.5 -27.5s30.5 -46.833 30.5 -85.5s-10.167 -67 -30.5 -85s-44.833 -27 -73.5 -27zM250 638c15.333 0 26.666 3.5 33.999 10.5
s11 23.833 11 50.5s-3.66699 43.834 -11 51.501s-18.666 11.5 -33.999 11.5s-26.666 -3.83301 -33.999 -11.5s-11 -24.834 -11 -51.501s3.66699 -43.5 11 -50.5s18.666 -10.5 33.999 -10.5z" />
    <glyph glyph-name="cedilla" unicode="&#xcb;" horiz-adv-x="500" 
d="M252 -242c-18.667 0 -35.8311 2.33398 -51.498 7.00098s-27.834 9.66699 -36.501 15l7 47c13.333 -5.33301 25.666 -9.66602 36.999 -12.999s22.666 -5 33.999 -5c17.333 0 30 2.66699 38 8s12 14.666 12 27.999v8c0 11.333 -2.16699 19.666 -6.5 24.999
s-13.166 8 -26.499 8c-10 0 -17.667 -1.16699 -23 -3.5s-11.333 -6.16602 -18 -11.499l-33 26l43 103h57l-36 -81l43 16c18 -3.33301 34.5 -12 49.5 -26s22.5 -33.333 22.5 -58c0 -32.667 -10.833 -56.334 -32.5 -71.001s-48.167 -22 -79.5 -22z" />
    <glyph glyph-name="hungarumlaut" unicode="&#xcd;" horiz-adv-x="500" 
d="M351 757h119l-102 -164h-67zM184 757h119l-102 -164h-67z" />
    <glyph glyph-name="ogonek" unicode="&#xce;" horiz-adv-x="500" 
d="M258 -242c-30 0 -54.499 7.83301 -73.499 23.5s-28.5 37.5 -28.5 65.5c0 15.333 3 30.166 9 44.499s13.833 28 23.5 41s20.5 25.167 32.5 36.5s24 21.666 36 30.999h47l-47 -73c-9.33301 -15.333 -16 -28.166 -20 -38.499s-6 -23.166 -6 -38.499
c0 -27.333 13.333 -41 40 -41c10.667 0 20.667 1.33301 30 4s20.666 6.66699 33.999 12l6 -47c-7.33301 -4 -18 -8.33301 -32 -13s-31 -7 -51 -7z" />
    <glyph glyph-name="caron" unicode="&#xcf;" horiz-adv-x="500" 
d="M85 769h110l35 -65l25 -69l24 69l39 65h99l-119 -176h-92z" />
    <glyph glyph-name="emdash" unicode="&#xd0;" horiz-adv-x="655" 
d="M48 341h559v-85h-559v85z" />
    <glyph glyph-name="AE" unicode="&#xe1;" horiz-adv-x="855" 
d="M371 651l421 0.000976562v-102h-253v-171h215v-95h-215v-184h272v-99h-396v114h-215c0.666992 0 -2.33301 -5.83301 -9 -17.5s-13.667 -24.834 -21 -39.501c-8.66699 -17.333 -18.667 -36.333 -30 -57h-125zM415 198.001v236l11 168l-54 -157l-128 -247h171z" />
    <glyph glyph-name="ordfeminine" unicode="&#xe3;" horiz-adv-x="452" 
d="M274 513c0 20.667 -4.33105 36.502 -12.998 47.502s-25 16.5 -49 16.5c-20 0 -41.167 -2.83301 -63.5 -8.5s-46.5 -12.5 -72.5 -20.5l-14 77c20 9.33301 43.333 18 70 26s56.667 12 90 12c56 0 96 -14 120 -42s36 -74 36 -138v-193c0 -10.667 1.83301 -17.667 5.5 -21
s9.5 -5 17.5 -5h19l2 -46c-5.33301 -4 -14 -8 -26 -12s-25 -6 -39 -6c-8 0 -15.833 0.666992 -23.5 2s-14.834 3 -21.501 5l-33 51l-33 -45c-9.33301 -4 -20 -7.33301 -32 -10s-26.667 -4 -44 -4c-16 0 -31.5 2.16699 -46.5 6.5s-28.5 11.5 -40.5 21.5s-21.5 23 -28.5 39
s-10.5 35.667 -10.5 59s3.16699 43.333 9.5 60s16.166 30.667 29.499 42s30.5 20.166 51.5 26.499s46.167 11.166 75.5 14.499l64 7v38zM274.002 418.002l-58 -7c-26.667 -3.33301 -45.167 -10.5 -55.5 -21.5s-15.5 -28.833 -15.5 -53.5v-6c0 -22 4.83301 -38 14.5 -48
s24.5 -15 44.5 -15c17.333 0 31.5 3.16699 42.5 9.5s20.167 13.5 27.5 21.5v120z" />
    <glyph glyph-name="Lslash" unicode="&#xe8;" horiz-adv-x="485" 
d="M20 213v101l69 31v306h127v-250l119 53v-101l-119 -53v-201h240v-99h-367v244z" />
    <glyph glyph-name="Oslash" unicode="&#xe9;" horiz-adv-x="623" 
d="M500 587c27.333 -30 47.3311 -67 59.998 -111s19 -93 19 -147c0 -50 -5.16699 -96 -15.5 -138s-26.5 -78.167 -48.5 -108.5s-50.167 -54 -84.5 -71s-75.166 -25.5 -122.499 -25.5c-45.333 0 -86 8.66699 -122 26l-56 -104l-67 38l61 112
c-29.333 30.667 -50.666 69 -63.999 115s-20 97.333 -20 154c0 48.667 5.33301 93.5 16 134.5s27 76.5 49 106.5s50 53.333 84 70s74.333 25 121 25c49.333 0 92.333 -9.66699 129 -29l50 92l67 -36l-56 -103v0zM391.998 549c-20 13.333 -47.999 20.001 -83.999 20.001
c-22.667 0 -42.5 -3.66699 -59.5 -11s-31.333 -19.333 -43 -36s-20.334 -38.834 -26.001 -66.501s-8.5 -62.167 -8.5 -103.5v-43c0 -30 1 -56.5 3 -79.5s5.66699 -43.167 11 -60.5zM230.999 94.001c20 -13.333 46.333 -20.001 79 -20.001c22.667 0 42.5 4 59.5 12
s31.333 21.167 43 39.5s20.5 42.833 26.5 73.5s9 68.334 9 113.001v44c0 48.667 -3.33301 87.667 -10 117z" />
    <glyph glyph-name="OE" unicode="&#xea;" horiz-adv-x="839" 
d="M329 0c-97.333 0 -169.833 27.668 -217.5 83.001s-71.5 136.666 -71.5 243.999c0 104 23.167 184 69.5 240s116.833 84 211.5 84h455v-102h-248v-171h210v-95h-210v-184h267v-99h-466v0zM401 97.001v453.001h-65c-27.333 0 -51 -2.66699 -71 -8s-36.667 -15.333 -50 -30
s-23.333 -34.834 -30 -60.501s-10 -59.167 -10 -100.5v-39c0 -45.333 3.33301 -82 10 -110s16.667 -49.833 30 -65.5s30 -26.167 50 -31.5s43 -8 69 -8h67z" />
    <glyph glyph-name="ordmasculine" unicode="&#xeb;" horiz-adv-x="452" 
d="M229 205c-57.333 0 -102.333 20.168 -135 60.501s-49 96.5 -49 168.5c0 72.667 16.5 129 49.5 169s77.833 60 134.5 60s101.5 -19.833 134.5 -59.5s49.5 -95.5 49.5 -167.5c0 -72.667 -16.167 -129.334 -48.5 -170.001s-77.5 -61 -135.5 -61zM229 281.001
c12.667 0 23.8281 2.16797 33.4951 6.50098s17.834 11.833 24.501 22.5s11.667 25.167 15 43.5s5 41.5 5 69.5v19c0 29.333 -1.66699 53.166 -5 71.499s-8.16602 32.833 -14.499 43.5s-14.333 18 -24 22s-21.167 6 -34.5 6c-12.667 0 -24 -2 -34 -6
s-18.167 -11.167 -24.5 -21.5s-11.166 -24.5 -14.499 -42.5s-5 -41 -5 -69v-19c0 -28.667 1.66699 -52.5 5 -71.5s8.33301 -34 15 -45s14.834 -18.667 24.501 -23s20.834 -6.5 33.501 -6.5z" />
    <glyph glyph-name="ae" unicode="&#xf1;" horiz-adv-x="753" 
d="M193 -14c-21.333 0 -41.499 2.66797 -60.499 8.00098s-35.5 14 -49.5 26s-25.167 27.5 -33.5 46.5s-12.5 42.5 -12.5 70.5s3.66699 51.5 11 70.5s18.833 35 34.5 48s35.834 23.5 60.501 31.5s54.667 14.333 90 19l81 10v50c0 21.333 -5.83301 38.833 -17.5 52.5
s-32.167 20.5 -61.5 20.5c-23.333 0 -48.166 -3.16699 -74.499 -9.5s-54.833 -14.833 -85.5 -25.5l-16 88c28.667 13.333 58 24.333 88 33s63 13 99 13c32.667 0 60.667 -5.66699 84 -17s40.666 -31 51.999 -59c14 25.333 33.5 44.333 58.5 57s52.5 19 82.5 19
c35.333 0 65.333 -5.66699 90 -17s44.834 -27.833 60.501 -49.5s27.167 -47.834 34.5 -78.501s11 -65.334 11 -104.001v-62h-291c0.666992 -28.667 3.33398 -52.5 8.00098 -71.5s11.5 -34.167 20.5 -45.5s20.667 -19.333 35 -24s31.833 -7 52.5 -7
c25.333 0 50.166 3.5 74.499 10.5s47.166 14.833 68.499 23.5l11 -87c-16 -8.66699 -38.333 -17.5 -67 -26.5s-60.334 -13.5 -95.001 -13.5c-44 0 -80.833 8 -110.5 24s-53.5 40 -71.5 72l-66 -75c-10.667 -5.33301 -23.834 -10.166 -39.501 -14.499
s-34.167 -6.5 -55.5 -6.5zM609.001 304.001l-0.00195312 18.998c0 48.667 -6.66699 82.667 -20 102s-35 29 -65 29c-15.333 0 -28.666 -2.33301 -39.999 -7s-21 -12.667 -29 -24s-14.167 -26.666 -18.5 -45.999s-7.16602 -43.666 -8.49902 -72.999h181zM226.999 64.999
c14 0 26.332 1.66699 36.999 5s20.167 8 28.5 14s15.833 12.833 22.5 20.5s13 15.5 19 23.5c-10.667 34 -16.667 74.667 -18 122l-75 -11c-33.333 -4.66699 -57.166 -13.167 -71.499 -25.5s-21.5 -33.5 -21.5 -63.5v-8c0 -27.333 6.83301 -47 20.5 -59s33.167 -18 58.5 -18z
" />
    <glyph glyph-name="dotlessi" unicode="&#xf5;" horiz-adv-x="264" 
d="M73 527h117v-527h-117v527z" />
    <glyph glyph-name="lslash" unicode="&#xf8;" horiz-adv-x="324" 
d="M30 240v100l73 40v338h117v-274l74 40v-100l-74 -40v-344h-117v280z" />
    <glyph glyph-name="oslash" unicode="&#xf9;" horiz-adv-x="514" 
d="M415 468c38.667 -46.667 58.001 -114.333 58.001 -203c0 -89.333 -18.833 -158.166 -56.5 -206.499s-90.834 -72.5 -159.501 -72.5c-38.667 0 -71.667 7.33301 -99 22l-52 -93l-63 35l57 102c-42 48 -63 118 -63 210c0 89.333 19.5 157.666 58.5 204.999
s92.833 71 161.5 71c38.667 0 72.667 -7.66699 102 -23l46 81l63 -34l-53 -94v0zM316.001 438.001c-14 9.33301 -33.666 14.002 -58.999 14.002c-17.333 0 -32.333 -2.66699 -45 -8s-23.334 -14.833 -32.001 -28.5s-15 -31.834 -19 -54.501s-6 -51.334 -6 -86.001v-19
c0 -38 2 -69.667 6 -95zM199.002 82.0029c14.667 -9.33301 34.001 -13.999 58.001 -13.999c16 0 30.333 3 43 9s23.167 16.167 31.5 30.5s14.666 33.333 18.999 57s6.5 52.834 6.5 87.501v18c0 17.333 -0.333008 33.166 -1 47.499s-2 27.166 -4 38.499z" />
    <glyph glyph-name="oe" unicode="&#xfa;" horiz-adv-x="797" 
d="M470 227c0.666992 -28.667 3.16895 -52.4971 7.50195 -71.4971s11 -34.167 20 -45.5s20.667 -19.333 35 -24s31.833 -7 52.5 -7c25.333 0 50.166 3.5 74.499 10.5s47.5 14.833 69.5 23.5l11 -87c-16.667 -8.66699 -39.167 -17.5 -67.5 -26.5s-59.833 -13.5 -94.5 -13.5
c-40.667 0 -75.167 7.5 -103.5 22.5s-49.166 38.833 -62.499 71.5c-16 -32.667 -36.667 -56.5 -62 -71.5s-57 -22.5 -95 -22.5c-68.667 0 -122 24 -160 72s-57 116 -57 204c0 89.333 19.5 157.666 58.5 204.999s92.833 71 161.5 71c33.333 0 64 -7.33301 92 -22
s48.667 -38.667 62 -72c13.333 32 33.666 55.667 60.999 71s57.666 23 90.999 23c35.333 0 65.5 -5.66699 90.5 -17s45.333 -27.833 61 -49.5s27.167 -47.834 34.5 -78.501s11 -65.334 11 -104.001v-62h-291v0zM650.002 304.003v19.001c0 48.667 -6.5 82.667 -19.5 102
s-34.5 29 -64.5 29c-15.333 0 -28.833 -2.33301 -40.5 -7s-21.5 -12.834 -29.5 -24.501s-14 -27 -18 -46s-6.66699 -43.167 -8 -72.5h180zM258.002 75.0039c16 0 30.167 2.66504 42.5 7.99805s22.5 14.833 30.5 28.5s14 31.834 18 54.501s6 51.334 6 86.001v18
c0 36 -1.83301 65.333 -5.5 88s-9.5 40.667 -17.5 54s-18.167 22.5 -30.5 27.5s-26.833 7.5 -43.5 7.5c-17.333 0 -32.166 -2.5 -44.499 -7.5s-22.5 -14 -30.5 -27s-14 -30.5 -18 -52.5s-6 -50.333 -6 -85v-19c0 -36 2 -65.667 6 -89s10.167 -41.833 18.5 -55.5
s18.666 -23.167 30.999 -28.5s26.833 -8 43.5 -8z" />
    <glyph glyph-name="germandbls" unicode="&#xfb;" horiz-adv-x="605" 
d="M394 -14c-36.667 0 -66.1699 3.50098 -88.5029 10.501s-41.166 14.5 -56.499 22.5l11 84c17.333 -7.33301 35.166 -14.166 53.499 -20.499s40.5 -9.5 66.5 -9.5c32.667 0 54 5.16699 64 15.5s15 26.166 15 47.499c0 12 -1.16699 21.5 -3.5 28.5
s-6.83301 12.833 -13.5 17.5s-16 8.83398 -28 12.501s-28 8.16699 -48 13.5c-15.333 4 -30 9.33301 -44 16s-26.333 15.667 -37 27s-19.167 26.333 -25.5 45s-9.5 42 -9.5 70c0 20 2.33301 37.167 7 51.5s10.667 26.833 18 37.5s15.5 19.667 24.5 27s17.833 13.333 26.5 18
l57 8v19c0 18.667 -1 35 -3 49s-6.16699 25.667 -12.5 35s-15.666 16.333 -27.999 21s-28.833 7 -49.5 7c-39.333 0 -66.666 -10.833 -81.999 -32.5s-23 -57.834 -23 -108.501v-498h-116v471c0 85.333 17.667 149.666 53 192.999s91.666 65 168.999 65
c37.333 0 68.666 -5 93.999 -15s45.833 -24.833 61.5 -44.5s26.834 -43.5 33.501 -71.5s10 -60 10 -96v-52l-50 -7c-17.333 -2.66699 -31.5 -5.5 -42.5 -8.5s-19.667 -7.16699 -26 -12.5s-10.666 -11.833 -12.999 -19.5s-3.5 -17.5 -3.5 -29.5s1.83301 -21.667 5.5 -29
s9 -13.333 16 -18s16 -8.5 27 -11.5l38.5 -10.5c16 -4 31.667 -9 47 -15s29 -14.833 41 -26.5s21.833 -26.667 29.5 -45s11.5 -41.833 11.5 -70.5c0 -48 -13.667 -86.833 -41 -116.5s-72.666 -44.5 -135.999 -44.5z" />
    <glyph glyph-name="NUL" horiz-adv-x="0" 
 />
    <glyph glyph-name="nonmarkingreturn" horiz-adv-x="224" 
 />
    <glyph glyph-name="Scaron" 
d="M239 -14c-48.667 0 -88.166 4.66992 -118.499 14.0029s-56.833 19.666 -79.5 30.999l21 90c28 -11.333 54.5 -20.833 79.5 -28.5s52.5 -11.5 82.5 -11.5c40.667 0 70.167 6.16699 88.5 18.5s27.5 36.166 27.5 71.499c0 14.667 -1.66699 26.834 -5 36.501
s-9.33301 18.167 -18 25.5s-20.834 13.666 -36.501 18.999s-35.5 10.666 -59.5 15.999c-28 6.66699 -53 14.5 -75 23.5s-40.5 21 -55.5 36s-26.333 33.833 -34 56.5s-11.5 50.667 -11.5 84c0 62.667 18 110.834 54 144.501s89 50.5 159 50.5c41.333 0 75.333 -3 102 -9
s50.667 -13.667 72 -23l-15 -95c-12.667 4 -24.667 7.5 -36 10.5s-22.666 5.66699 -33.999 8s-23.333 4 -36 5s-27 1.5 -43 1.5c-38 0 -65.167 -5.66699 -81.5 -17s-24.5 -32 -24.5 -62c0 -14.667 1.33301 -26.834 4 -36.501s8.16699 -18 16.5 -25s19.833 -13 34.5 -18
s34 -10.5 58 -16.5c29.333 -6.66699 55.5 -14.5 78.5 -23.5s42.5 -21 58.5 -36s28.167 -33.5 36.5 -55.5s12.5 -49.333 12.5 -82c0 -66.667 -17.833 -117.167 -53.5 -151.5s-91.834 -51.5 -168.501 -51.5zM87.001 888.003h110l35 -65l25 -69l24 69l39 65h99l-119 -176h-92z
" />
    <glyph glyph-name="scaron" horiz-adv-x="423" 
d="M198 -14c-38 0 -69.835 3.66895 -95.502 11.002s-46.167 15 -61.5 23l12 83c17.333 -7.33301 36.833 -14.166 58.5 -20.499s45.834 -9.5 72.501 -9.5c32 0 55.667 5.16699 71 15.5s23 28.166 23 53.499c0 13.333 -1.83301 23.666 -5.5 30.999s-9.83398 13.5 -18.501 18.5
s-20.5 9.33301 -35.5 13l-56.5 14.5c-18.667 4.66699 -35.667 10.667 -51 18s-28.666 17 -39.999 29s-20.166 27 -26.499 45s-9.5 39.667 -9.5 65c0 56 16.833 97 50.5 123s78.5 39 134.5 39c34 0 63.5 -3.16699 88.5 -9.5s45.167 -13.5 60.5 -21.5l-17 -85
c-20 6.66699 -39.333 12 -58 16s-39.667 6 -63 6c-32 0 -54.833 -4.16699 -68.5 -12.5s-20.5 -24.833 -20.5 -49.5c0 -12 1.83301 -21.667 5.5 -29s9.83398 -13.333 18.501 -18s20 -8.83398 34 -12.501l52 -13.5c22 -5.33301 41.667 -11.833 59 -19.5
s31.666 -17.667 42.999 -30s20 -27.5 26 -45.5s9 -39.667 9 -65c0 -49.333 -15.667 -88.833 -47 -118.5s-79.333 -44.5 -144 -44.5zM45.998 769.002h110l35 -65l25 -69l24 69l39 65h99l-119 -176h-92z" />
    <glyph glyph-name="Yacute" horiz-adv-x="546" 
d="M215 230l-197 421h135l101 -244l31 -136l28 136l98 244h117l-186 -415v-236h-127v230zM275 876h145l-120 -164h-66z" />
    <glyph glyph-name="yacute" horiz-adv-x="475" 
d="M187 19l-172 508h120l83 -273l24 -165l28 165l81 273h109l-219 -689h-111zM244 757h145l-120 -164h-66z" />
    <glyph glyph-name="Thorn" horiz-adv-x="563" 
d="M76 651h126.998v-98h93c77.333 0 135.833 -18.667 175.5 -56s59.5 -89.666 59.5 -156.999c0 -32.667 -5 -62.334 -15 -89.001s-24.667 -49.5 -44 -68.5s-43.666 -33.667 -72.999 -44s-63.666 -15.5 -102.999 -15.5h-93v-123h-127v651zM288.998 212
c39.333 0 67 8.50098 83 25.501s24 47.167 24 90.5v20c0 41.333 -8.33301 69.666 -25 84.999s-44.667 23 -84 23h-84v-244h86z" />
    <glyph glyph-name="thorn" horiz-adv-x="532" 
d="M186 -162l-117 -0.000976562v880h117v-231c14 14.667 31 26.834 51 36.501s44 14.5 72 14.5c60.667 0 106.667 -23.167 138 -69.5s47 -115.833 47 -208.5c0 -182.667 -61 -274 -183 -274c-15.333 0 -29 1.16699 -41 3.5s-21.667 4.83301 -29 7.5l-55 51v-210zM186 97.999
c13.333 -10 27.334 -18.335 42.001 -25.002s31.667 -10 51 -10c32 0 55.667 12.333 71 37s23 68.334 23 131.001v50c0 32 -2 58.333 -6 79s-9.83301 37.334 -17.5 50.001s-17.334 21.5 -29.001 26.5s-25.5 7.5 -41.5 7.5c-21.333 0 -39.833 -4.5 -55.5 -13.5
s-28.167 -17.833 -37.5 -26.5v-306z" />
    <glyph glyph-name="Zcaron" 
d="M42 110l249 388l67 70l-112 -12h-194v95h405v-114l-246 -379l-78 -83l121 17h206v-92h-418v110zM83 888h110l35 -65l25 -69l24 69l39 65h99l-119 -176h-92z" />
    <glyph glyph-name="zcaron" horiz-adv-x="434" 
d="M34 96l207 293l59 54l-106 -9h-149v93h353v-101l-202 -289l-66 -64l109 15h163v-88h-368v96zM54 769h110l35 -65l25 -69l24 69l39 65h99l-119 -176h-92z" />
    <glyph glyph-name="onehalf" horiz-adv-x="864" 
d="M36 317h59v234h-59v45l107 64h49v-343h56v-59h-212v59zM557 651h81l-376 -651h-81zM556 66l4 11.999c8 27.333 21.167 50.333 39.5 69s37.5 36.334 57.5 53.001c18 16 31.167 29 39.5 39s12.5 23 12.5 39v7c0 18 -4 30.167 -12 36.5s-20.333 9.5 -37 9.5
c-14 0 -27.667 -1.66699 -41 -5s-29 -8.33301 -47 -15l-13 68c13.333 7.33301 29.5 14.333 48.5 21s43.5 10 73.5 10c45.333 0 78.666 -10.5 99.999 -31.5s32 -50.167 32 -87.5c0 -18.667 -2.66699 -34.834 -8 -48.501s-12.666 -26 -21.999 -37s-20.166 -21.333 -32.499 -31
l-39.5 -29.5c-15.333 -11.333 -28.833 -22.166 -40.5 -32.499s-19.834 -23.833 -24.501 -40.5l-3 -8l70 11h94v-75h-251v66z" />
    <glyph glyph-name="onequarter" horiz-adv-x="864" 
d="M41 317h59v234h-59v45l107 64h48v-343h57v-59h-212v59zM571 651h81l-376 -651h-81zM670 86h-181v51l155 265h121v-249h51v-67h-51v-86h-95v86zM672 152v101l6 99l-34 -82l-67 -118h95z" />
    <glyph glyph-name="onesuperior" horiz-adv-x="306" 
d="M45 317h59v234h-59v46l107 63h49v-343h56v-59h-212v59z" />
    <glyph glyph-name="threequarters" horiz-adv-x="864" 
d="M159 249c-30.667 0 -56.167 2.99805 -76.5 8.99805s-36.833 12.667 -49.5 20l14 63c16.667 -6.66699 31.5 -11.667 44.5 -15s28.5 -5 46.5 -5c22 0 38.333 3.66699 49 11s16 20.333 16 39v10c0 19.333 -6 32.333 -18 39s-30.667 10 -56 10h-36v64h30
c28 0 47.5 3.66699 58.5 11s16.5 19.666 16.5 36.999v7c0 17.333 -5.33301 29 -16 35s-25.667 9 -45 9c-15.333 0 -29 -1.16699 -41 -3.5s-26.333 -6.16602 -43 -11.499l-9 66c13.333 5.33301 28.833 10.666 46.5 15.999s39.5 8 65.5 8c46 0 80.833 -9.66699 104.5 -29
s35.5 -45 35.5 -77c0 -28 -8 -49.167 -24 -63.5s-39 -25.166 -69 -32.499c32.667 -5.33301 58 -15.666 76 -30.999s27 -39.666 27 -72.999c0 -34 -13 -61.333 -39 -82s-62 -31 -108 -31zM583 650.998h81l-376 -651h-81zM686 85.998h-180v51l154 265h122v-249h50v-67h-50v-86
h-96v86zM688 151.998v101l6 99l-34 -82l-67 -118h95z" />
    <glyph glyph-name="threesuperior" horiz-adv-x="360" 
d="M162 249c-30.667 0 -56.167 2.99805 -76.5 8.99805s-36.833 12.667 -49.5 20l14 63c16.667 -6.66699 31.5 -11.667 44.5 -15s28.5 -5 46.5 -5c22 0 38.333 3.66699 49 11s16 20.333 16 39v10c0 19.333 -5.83301 32.333 -17.5 39s-30.167 10 -55.5 10h-37v64h30
c28 0 47.667 3.66699 59 11s17 19.666 17 36.999v7c0 17.333 -5.33301 29 -16 35s-26 9 -46 9c-15.333 0 -29 -1.16699 -41 -3.5s-26.333 -6.16602 -43 -11.499l-9 66c13.333 5.33301 28.833 10.666 46.5 15.999s39.5 8 65.5 8c46 0 80.833 -9.66699 104.5 -29
s35.5 -45 35.5 -77c0 -28 -7.83301 -49.167 -23.5 -63.5s-38.5 -25.166 -68.5 -32.499c32 -5.33301 57 -15.666 75 -30.999s27 -39.666 27 -72.999c0 -34 -13 -61.333 -39 -82s-62 -31 -108 -31z" />
    <glyph glyph-name="twosuperior" horiz-adv-x="342" 
d="M43 324l2.99707 11.002c8 28 21.167 51.167 39.5 69.5s37.5 36.166 57.5 53.499c18.667 15.333 32.167 28.166 40.5 38.499s12.5 23.5 12.5 39.5v7c0 17.333 -4.16699 29.333 -12.5 36s-20.833 10 -37.5 10c-14 0 -27.667 -1.66699 -41 -5s-29 -8.33301 -47 -15l-12 68
c12.667 7.33301 28.5 14.333 47.5 21s43.5 10 73.5 10c45.333 0 78.666 -10.5 99.999 -31.5s32 -50.167 32 -87.5c0 -18.667 -2.66699 -35 -8 -49s-12.666 -26.5 -21.999 -37.5s-20.166 -21.333 -32.499 -31l-39.5 -29.5c-15.333 -11.333 -28.666 -22 -39.999 -32
s-19.666 -23.333 -24.999 -40l-2 -8l70 10h94v-74h-251v66z" />
    <glyph glyph-name="brokenbar" horiz-adv-x="213" 
d="M61 718h90v-360h-90v360zM61 265h90v-365h-90v365z" />
    <glyph glyph-name="minus" horiz-adv-x="501" 
d="M50 354h401v-93h-401v93z" />
    <glyph glyph-name="multiply" horiz-adv-x="501" 
d="M443 178l-63 -64l-127 129l-128 -129l-63 64l127 129l-5 5.5l-14 15l-20.5 21l-23.5 23.5l-64 64l63 64l127 -129l128 129l63 -64l-64 -64l-23.5 -23.5l-20.5 -21l-14.5 -15l-5.5 -5.5z" />
    <glyph glyph-name="eth" horiz-adv-x="514" 
d="M201 537l-28.999 58.0029l80 38c-10 14.667 -20.5 29 -31.5 43l-33.5 42h107c6.66699 -6 13.667 -12.667 21 -20s14.666 -15.333 21.999 -24l87 41l29 -59l-74 -35c12.667 -18 24.834 -38.167 36.501 -60.5s22 -47 31 -74s16.167 -56.333 21.5 -88s8 -65.834 8 -102.501
c0 -107.333 -19.167 -185.833 -57.5 -235.5s-91.833 -74.5 -160.5 -74.5c-70 0 -124.167 21.667 -162.5 65s-57.5 108.666 -57.5 195.999c0 45.333 5 84.166 15 116.499s23.667 59 41 80s38.166 36.333 62.499 46s50.5 14.5 78.5 14.5c7.33301 0 13.5 -0.333008 18.5 -1
s10.167 -1.66699 15.5 -3l71 -56c-6 26 -13.5 50 -22.5 72s-19.167 42.667 -30.5 62zM350.001 384.003c-11.333 9.33301 -24.3301 17.166 -38.9971 23.499s-33.334 9.5 -56.001 9.5c-16 0 -30 -2.33301 -42 -7s-22 -12.834 -30 -24.501s-14 -27.667 -18 -48
s-6 -46.166 -6 -77.499v-19c0 -33.333 2 -60.666 6 -81.999s10.167 -38.333 18.5 -51s18.666 -21.334 30.999 -26.001s26.833 -7 43.5 -7c16 0 30.167 2.5 42.5 7.5s22.666 14.833 30.999 29.5s14.5 34.834 18.5 60.501s6 59.5 6 101.5v18c0 33.333 -2 64 -6 92z" />
    <glyph glyph-name="Adieresis" horiz-adv-x="582" 
d="M132 0h-110l212 651h120l208 -651h-133l-33 114h-229zM309 412l-23 123l-28 -123l-66 -214h180zM382 712c-18.667 0 -34.5 6.33301 -47.5 19s-19.5 29.334 -19.5 50.001s6.5 37.5 19.5 50.5s28.833 19.5 47.5 19.5c19.333 0 35.5 -6.5 48.5 -19.5
s19.5 -29.833 19.5 -50.5s-6.5 -37.334 -19.5 -50.001s-29.167 -19 -48.5 -19zM196 712c-19.333 0 -35.5 6.33301 -48.5 19s-19.5 29.334 -19.5 50.001s6.5 37.5 19.5 50.5s29.167 19.5 48.5 19.5c18.667 0 34.5 -6.5 47.5 -19.5s19.5 -29.833 19.5 -50.5
s-6.5 -37.334 -19.5 -50.001s-28.833 -19 -47.5 -19z" />
    <glyph glyph-name="Aring" horiz-adv-x="582" 
d="M226 626c-11.333 8.66699 -20.667 20.499 -28 35.499s-11 33.167 -11 54.5c0 38.667 10.167 67.167 30.5 85.5s44.833 27.5 73.5 27.5s53 -9.16699 73 -27.5s30 -46.833 30 -85.5c0 -20 -3 -37.167 -9 -51.5s-14.333 -26.166 -25 -35.499l8.5 -26.5l23 -71l32.5 -101
l37 -115.5l101 -315h-133l-33 114h-229l-35 -114h-110zM290.999 654.999c15.333 0 26.666 3.5 33.999 10.5s11 23.833 11 50.5c0 26 -3.66699 42.833 -11 50.5s-18.666 11.5 -33.999 11.5s-26.666 -3.83301 -33.999 -11.5s-11 -24.5 -11 -50.5
c0 -26.667 3.66699 -43.5 11 -50.5s18.666 -10.5 33.999 -10.5zM371.999 197.999l-63 214l-23 123l-28 -123l-66 -214h180z" />
    <glyph glyph-name="Ccedilla" horiz-adv-x="517" 
d="M252 -9c-38.667 6.66699 -71.3311 20.001 -97.998 40.001s-48.334 44.667 -65.001 74s-28.667 63 -36 101s-11 78.333 -11 121c0 48 4.83301 92.5 14.5 133.5s25.334 76.5 47.001 106.5s49.834 53.5 84.501 70.5s77 25.5 127 25.5c34.667 0 65.5 -3.33301 92.5 -10
s51.167 -15 72.5 -25l-13 -101c-30 9.33301 -56.5 16.666 -79.5 21.999s-48.5 8 -76.5 8c-20 0 -38.167 -2.83301 -54.5 -8.5s-30.5 -16.167 -42.5 -31.5s-21.167 -36.166 -27.5 -62.499s-9.5 -60.5 -9.5 -102.5v-42c0 -43.333 3.16699 -79.333 9.5 -108
s15.5 -51.667 27.5 -69s26.5 -29.5 43.5 -36.5s35.833 -10.5 56.5 -10.5c30 0 56.167 3.83301 78.5 11.5s46.833 17.167 73.5 28.5l26 -96c-23.333 -11.333 -49.833 -21.5 -79.5 -30.5s-63.5 -13.5 -101.5 -13.5h-4l-30 -67l43 16c18 -3.33301 34.5 -12 49.5 -26
s22.5 -33.333 22.5 -58c0 -32.667 -10.833 -56.334 -32.5 -71.001s-48.167 -22 -79.5 -22c-18.667 0 -35.834 2.33301 -51.501 7s-27.834 9.66699 -36.501 15l7 47c13.333 -5.33301 25.666 -9.66602 36.999 -12.999s22.666 -5 33.999 -5c17.333 0 30 2.66699 38 8
s12 14.666 12 27.999v8c0 11.333 -2.16699 19.666 -6.5 24.999s-13.166 8 -26.499 8c-10 0 -17.667 -1.16699 -23 -3.5s-11.333 -6.16602 -18 -11.499l-33 26l39 94v0z" />
    <glyph glyph-name="Eacute" horiz-adv-x="518" 
d="M76 651h380v-102h-253v-171h215v-95h-215v-184h271v-99h-398v651zM252 876h145l-120 -164h-66z" />
    <glyph glyph-name="Ntilde" horiz-adv-x="621" 
d="M76 651h138l178 -349l73 -201l-30 240v310h110v-651h-133l-187 362l-68 195l29 -234v-323h-110v651zM367 712c-14.667 0 -26.667 2.5 -36 7.5s-18.666 12.167 -27.999 21.5l-17 18c-7.33301 7.33301 -13.166 12.666 -17.499 15.999s-9.83301 5 -16.5 5
c-18.667 0 -28 -17.667 -28 -53v-9h-60c0 46.667 9 83 27 109s39.333 39 64 39c14 0 25.667 -2.5 35 -7.5s18.666 -12.167 27.999 -21.5l17 -18c8 -7.33301 14 -12.666 18 -15.999s9.66699 -5 17 -5c18.667 0 28 17.333 28 52v10h59c0 -46.667 -8.83301 -83 -26.5 -109
s-38.834 -39 -63.501 -39z" />
    <glyph glyph-name="Odieresis" horiz-adv-x="623" 
d="M310 -14c-47.333 0 -87.833 8.49805 -121.5 25.498s-61.334 40.833 -83.001 71.5s-37.667 66.834 -48 108.501s-15.5 86.834 -15.5 135.501s5.33301 93.5 16 134.5s27 76.5 49 106.5s50 53.333 84 70s74.333 25 121 25c47.333 0 88 -8.33301 122 -25
s61.833 -39.667 83.5 -69s37.667 -64.5 48 -105.5s15.5 -85.833 15.5 -134.5c0 -50 -5.16699 -96 -15.5 -138s-26.5 -78.167 -48.5 -108.5s-50.167 -54 -84.5 -71s-75.166 -25.5 -122.499 -25.5zM312 77.998c22.667 0 42.4971 3.83496 59.4971 11.502s31 20.5 42 38.5
s19.333 42 25 72s8.5 67.333 8.5 112v44c0 40.667 -2.66699 74.5 -8 101.5s-13.666 48.5 -24.999 64.5s-25.5 27.167 -42.5 33.5s-37.167 9.5 -60.5 9.5c-22.667 0 -42.5 -3.33301 -59.5 -10s-31.167 -18.334 -42.5 -35.001s-19.666 -38.5 -24.999 -65.5
s-8 -61.167 -8 -102.5v-43c0 -45.333 2.83301 -82.833 8.5 -112.5s14.334 -53.334 26.001 -71.001s26 -30 43 -37s36.5 -10.5 58.5 -10.5zM400.997 712c-18.667 0 -34.5 6.33301 -47.5 19s-19.5 29.334 -19.5 50.001s6.5 37.5 19.5 50.5s28.833 19.5 47.5 19.5
c19.333 0 35.5 -6.5 48.5 -19.5s19.5 -29.833 19.5 -50.5s-6.5 -37.334 -19.5 -50.001s-29.167 -19 -48.5 -19zM214.997 712c-19.333 0 -35.5 6.33301 -48.5 19s-19.5 29.334 -19.5 50.001s6.5 37.5 19.5 50.5s29.167 19.5 48.5 19.5c18.667 0 34.5 -6.5 47.5 -19.5
s19.5 -29.833 19.5 -50.5s-6.5 -37.334 -19.5 -50.001s-28.833 -19 -47.5 -19z" />
    <glyph glyph-name="Udieresis" horiz-adv-x="616" 
d="M412 651l128.003 -0.000976562v-651h-84l-30 67l-42 -61c-9.33301 -3.33301 -23.5 -7.5 -42.5 -12.5s-42.167 -7.5 -69.5 -7.5c-30 0 -57.333 4.5 -82 13.5s-45.834 23.833 -63.501 44.5s-31.167 47.334 -40.5 80.001s-14 72.667 -14 120v407h127v-437
c0 -50.667 7.66699 -85.5 23 -104.5s40.666 -28.5 75.999 -28.5c27.333 0 49.666 3 66.999 9s33 12.667 47 20v541zM396.003 711.999c-18.667 0 -34.5 6.33301 -47.5 19s-19.5 29.334 -19.5 50.001s6.5 37.5 19.5 50.5s28.833 19.5 47.5 19.5c19.333 0 35.5 -6.5 48.5 -19.5
s19.5 -29.833 19.5 -50.5s-6.5 -37.334 -19.5 -50.001s-29.167 -19 -48.5 -19zM210.003 711.999c-19.333 0 -35.5 6.33301 -48.5 19s-19.5 29.334 -19.5 50.001s6.5 37.5 19.5 50.5s29.167 19.5 48.5 19.5c18.667 0 34.5 -6.5 47.5 -19.5s19.5 -29.833 19.5 -50.5
s-6.5 -37.334 -19.5 -50.001s-28.833 -19 -47.5 -19z" />
    <glyph glyph-name="aacute" 
d="M310 366c0 21.333 -5.16992 38.833 -15.5029 52.5s-30.166 20.5 -59.499 20.5c-23.333 0 -48 -3.16699 -74 -9.5s-54.667 -14.833 -86 -25.5l-16 88c22 10.667 48.833 21 80.5 31s67.167 15 106.5 15c32.667 0 60.334 -3.83301 83.001 -11.5s41.167 -20 55.5 -37
s24.833 -39 31.5 -66s10 -59.833 10 -98.5v-231c0 -12.667 2.5 -21 7.5 -25s12.5 -6 22.5 -6h24l2 -52c-5.33301 -5.33301 -13.666 -10.5 -24.999 -15.5s-26 -7.5 -44 -7.5c-18.667 0 -36.667 2.66699 -54 8l-43 59l-40 -50c-10 -4.66699 -22.5 -9 -37.5 -13
s-33.167 -6 -54.5 -6c-19.333 0 -37.833 2.66699 -55.5 8s-33.334 14 -47.001 26s-24.5 27.5 -32.5 46.5s-12 42.5 -12 70.5s3.66699 51.5 11 70.5s18.833 35 34.5 48s35.834 23.5 60.501 31.5s54.667 14.333 90 19l77 10v50zM309.997 249l-69.002 -10
c-33.333 -4.66699 -57.166 -13.167 -71.499 -25.5s-21.5 -33.5 -21.5 -63.5v-8c0 -27.333 6.83301 -47 20.5 -59s33.167 -18 58.5 -18c21.333 0 38.333 3.33301 51 10s23.334 14.667 32.001 24v150zM235.995 757h145l-120 -164h-66z" />
    <glyph glyph-name="agrave" 
d="M310 366c0 21.333 -5.16992 38.833 -15.5029 52.5s-30.166 20.5 -59.499 20.5c-23.333 0 -48 -3.16699 -74 -9.5s-54.667 -14.833 -86 -25.5l-16 88c22 10.667 48.833 21 80.5 31s67.167 15 106.5 15c32.667 0 60.334 -3.83301 83.001 -11.5s41.167 -20 55.5 -37
s24.833 -39 31.5 -66s10 -59.833 10 -98.5v-231c0 -12.667 2.5 -21 7.5 -25s12.5 -6 22.5 -6h24l2 -52c-5.33301 -5.33301 -13.666 -10.5 -24.999 -15.5s-26 -7.5 -44 -7.5c-18.667 0 -36.667 2.66699 -54 8l-43 59l-40 -50c-10 -4.66699 -22.5 -9 -37.5 -13
s-33.167 -6 -54.5 -6c-19.333 0 -37.833 2.66699 -55.5 8s-33.334 14 -47.001 26s-24.5 27.5 -32.5 46.5s-12 42.5 -12 70.5s3.66699 51.5 11 70.5s18.833 35 34.5 48s35.834 23.5 60.501 31.5s54.667 14.333 90 19l77 10v50zM309.997 249l-69.002 -10
c-33.333 -4.66699 -57.166 -13.167 -71.499 -25.5s-21.5 -33.5 -21.5 -63.5v-8c0 -27.333 6.83301 -47 20.5 -59s33.167 -18 58.5 -18c21.333 0 38.333 3.33301 51 10s23.334 14.667 32.001 24v150zM109.995 757h145l41 -164h-66z" />
    <glyph glyph-name="acircumflex" 
d="M310 366c0 21.333 -5.16992 38.833 -15.5029 52.5s-30.166 20.5 -59.499 20.5c-23.333 0 -48 -3.16699 -74 -9.5s-54.667 -14.833 -86 -25.5l-16 88c22 10.667 48.833 21 80.5 31s67.167 15 106.5 15c32.667 0 60.334 -3.83301 83.001 -11.5s41.167 -20 55.5 -37
s24.833 -39 31.5 -66s10 -59.833 10 -98.5v-231c0 -12.667 2.5 -21 7.5 -25s12.5 -6 22.5 -6h24l2 -52c-5.33301 -5.33301 -13.666 -10.5 -24.999 -15.5s-26 -7.5 -44 -7.5c-18.667 0 -36.667 2.66699 -54 8l-43 59l-40 -50c-10 -4.66699 -22.5 -9 -37.5 -13
s-33.167 -6 -54.5 -6c-19.333 0 -37.833 2.66699 -55.5 8s-33.334 14 -47.001 26s-24.5 27.5 -32.5 46.5s-12 42.5 -12 70.5s3.66699 51.5 11 70.5s18.833 35 34.5 48s35.834 23.5 60.501 31.5s54.667 14.333 90 19l77 10v50zM309.997 249l-69.002 -10
c-33.333 -4.66699 -57.166 -13.167 -71.499 -25.5s-21.5 -33.5 -21.5 -63.5v-8c0 -27.333 6.83301 -47 20.5 -59s33.167 -18 58.5 -18c21.333 0 38.333 3.33301 51 10s23.334 14.667 32.001 24v150zM199.995 769h92l121 -176h-110l-35 65l-25 69l-24 -69l-39 -65h-99z" />
    <glyph glyph-name="adieresis" 
d="M310 366c0 21.333 -5.16992 38.833 -15.5029 52.5s-30.166 20.5 -59.499 20.5c-23.333 0 -48 -3.16699 -74 -9.5s-54.667 -14.833 -86 -25.5l-16 88c22 10.667 48.833 21 80.5 31s67.167 15 106.5 15c32.667 0 60.334 -3.83301 83.001 -11.5s41.167 -20 55.5 -37
s24.833 -39 31.5 -66s10 -59.833 10 -98.5v-231c0 -12.667 2.5 -21 7.5 -25s12.5 -6 22.5 -6h24l2 -52c-5.33301 -5.33301 -13.666 -10.5 -24.999 -15.5s-26 -7.5 -44 -7.5c-18.667 0 -36.667 2.66699 -54 8l-43 59l-40 -50c-10 -4.66699 -22.5 -9 -37.5 -13
s-33.167 -6 -54.5 -6c-19.333 0 -37.833 2.66699 -55.5 8s-33.334 14 -47.001 26s-24.5 27.5 -32.5 46.5s-12 42.5 -12 70.5s3.66699 51.5 11 70.5s18.833 35 34.5 48s35.834 23.5 60.501 31.5s54.667 14.333 90 19l77 10v50zM309.997 249l-69.002 -10
c-33.333 -4.66699 -57.166 -13.167 -71.499 -25.5s-21.5 -33.5 -21.5 -63.5v-8c0 -27.333 6.83301 -47 20.5 -59s33.167 -18 58.5 -18c21.333 0 38.333 3.33301 51 10s23.334 14.667 32.001 24v150zM343.995 593c-18.667 0 -34.5 6.33301 -47.5 19
s-19.5 29.334 -19.5 50.001s6.5 37.5 19.5 50.5s28.833 19.5 47.5 19.5c19.333 0 35.5 -6.5 48.5 -19.5s19.5 -29.833 19.5 -50.5s-6.5 -37.334 -19.5 -50.001s-29.167 -19 -48.5 -19zM157.995 593c-19.333 0 -35.5 6.33301 -48.5 19s-19.5 29.334 -19.5 50.001
s6.5 37.5 19.5 50.5s29.167 19.5 48.5 19.5c18.667 0 34.5 -6.5 47.5 -19.5s19.5 -29.833 19.5 -50.5s-6.5 -37.334 -19.5 -50.001s-28.833 -19 -47.5 -19z" />
    <glyph glyph-name="atilde" 
d="M310 366c0 21.333 -5.16992 38.833 -15.5029 52.5s-30.166 20.5 -59.499 20.5c-23.333 0 -48 -3.16699 -74 -9.5s-54.667 -14.833 -86 -25.5l-16 88c22 10.667 48.833 21 80.5 31s67.167 15 106.5 15c32.667 0 60.334 -3.83301 83.001 -11.5s41.167 -20 55.5 -37
s24.833 -39 31.5 -66s10 -59.833 10 -98.5v-231c0 -12.667 2.5 -21 7.5 -25s12.5 -6 22.5 -6h24l2 -52c-5.33301 -5.33301 -13.666 -10.5 -24.999 -15.5s-26 -7.5 -44 -7.5c-18.667 0 -36.667 2.66699 -54 8l-43 59l-40 -50c-10 -4.66699 -22.5 -9 -37.5 -13
s-33.167 -6 -54.5 -6c-19.333 0 -37.833 2.66699 -55.5 8s-33.334 14 -47.001 26s-24.5 27.5 -32.5 46.5s-12 42.5 -12 70.5s3.66699 51.5 11 70.5s18.833 35 34.5 48s35.834 23.5 60.501 31.5s54.667 14.333 90 19l77 10v50zM309.997 249l-69.002 -10
c-33.333 -4.66699 -57.166 -13.167 -71.499 -25.5s-21.5 -33.5 -21.5 -63.5v-8c0 -27.333 6.83301 -47 20.5 -59s33.167 -18 58.5 -18c21.333 0 38.333 3.33301 51 10s23.334 14.667 32.001 24v150zM302.995 593c-14.667 0 -26.667 2.5 -36 7.5s-18.666 12.167 -27.999 21.5
l-17 18c-7.33301 7.33301 -13.166 12.666 -17.499 15.999s-9.83301 5 -16.5 5c-18.667 0 -28 -17.667 -28 -53v-9h-60c0 46.667 9 83 27 109s39.333 39 64 39c14 0 25.667 -2.5 35 -7.5s18.666 -12.167 27.999 -21.5l17 -18c8 -7.33301 14 -12.666 18 -15.999
s9.66699 -5 17 -5c18.667 0 28 17.333 28 52v10h59c0 -46.667 -8.83301 -83 -26.5 -109s-38.834 -39 -63.501 -39z" />
    <glyph glyph-name="aring" 
d="M310 366c0 21.333 -5.16992 38.833 -15.5029 52.5s-30.166 20.5 -59.499 20.5c-23.333 0 -48 -3.16699 -74 -9.5s-54.667 -14.833 -86 -25.5l-16 88c22 10.667 48.833 21 80.5 31s67.167 15 106.5 15c32.667 0 60.334 -3.83301 83.001 -11.5s41.167 -20 55.5 -37
s24.833 -39 31.5 -66s10 -59.833 10 -98.5v-231c0 -12.667 2.5 -21 7.5 -25s12.5 -6 22.5 -6h24l2 -52c-5.33301 -5.33301 -13.666 -10.5 -24.999 -15.5s-26 -7.5 -44 -7.5c-18.667 0 -36.667 2.66699 -54 8l-43 59l-40 -50c-10 -4.66699 -22.5 -9 -37.5 -13
s-33.167 -6 -54.5 -6c-19.333 0 -37.833 2.66699 -55.5 8s-33.334 14 -47.001 26s-24.5 27.5 -32.5 46.5s-12 42.5 -12 70.5s3.66699 51.5 11 70.5s18.833 35 34.5 48s35.834 23.5 60.501 31.5s54.667 14.333 90 19l77 10v50zM309.997 249l-69.002 -10
c-33.333 -4.66699 -57.166 -13.167 -71.499 -25.5s-21.5 -33.5 -21.5 -63.5v-8c0 -27.333 6.83301 -47 20.5 -59s33.167 -18 58.5 -18c21.333 0 38.333 3.33301 51 10s23.334 14.667 32.001 24v150zM247.995 587c-28.667 0 -53.167 9 -73.5 27s-30.5 46.333 -30.5 85
s10.167 67.167 30.5 85.5s44.833 27.5 73.5 27.5s53.167 -9.16699 73.5 -27.5s30.5 -46.833 30.5 -85.5s-10.167 -67 -30.5 -85s-44.833 -27 -73.5 -27zM247.995 638c15.333 0 26.666 3.5 33.999 10.5s11 23.833 11 50.5s-3.66699 43.834 -11 51.501
s-18.666 11.5 -33.999 11.5s-26.666 -3.83301 -33.999 -11.5s-11 -24.834 -11 -51.501s3.66699 -43.5 11 -50.5s18.666 -10.5 33.999 -10.5z" />
    <glyph glyph-name="ccedilla" horiz-adv-x="432" 
d="M205 -10c-54.667 10.667 -96.1641 39.1689 -124.497 85.502s-42.5 108.833 -42.5 187.5c0 91.333 18.333 160 55 206s90.334 69 161.001 69c32 0 60.833 -3.5 86.5 -10.5s46.167 -14.5 61.5 -22.5l-18 -88c-20.667 6.66699 -40.834 12.334 -60.501 17.001
s-40.167 7 -61.5 7c-16.667 0 -31.5 -2.16699 -44.5 -6.5s-23.833 -12.5 -32.5 -24.5s-15.167 -28.833 -19.5 -50.5s-6.5 -49.834 -6.5 -84.501v-19c0 -34.667 2.16699 -63.334 6.5 -86.001s10.833 -40.834 19.5 -54.501s19.5 -23.167 32.5 -28.5s27.833 -8 44.5 -8
c24.667 0 47.334 3.33301 68.001 10s41 14.334 61 23.001l15 -87c-15.333 -8.66699 -35.333 -17.167 -60 -25.5s-53.334 -12.833 -86.001 -13.5l-30 -67l43 16c18 -3.33301 34.5 -12 49.5 -26s22.5 -33.333 22.5 -58c0 -32.667 -10.833 -56.334 -32.5 -71.001
s-48.167 -22 -79.5 -22c-18.667 0 -35.834 2.33301 -51.501 7s-27.834 9.66699 -36.501 15l7 47c13.333 -5.33301 25.666 -9.66602 36.999 -12.999s22.666 -5 33.999 -5c17.333 0 30 2.66699 38 8s12 14.666 12 27.999v8c0 11.333 -2.16699 19.666 -6.5 24.999
s-13.166 8 -26.499 8c-10 0 -17.667 -1.16699 -23 -3.5s-11.333 -6.16602 -18 -11.499l-33 26l39 93v0z" />
    <glyph glyph-name="eacute" horiz-adv-x="489" 
d="M159 226c0.666992 -28 3.16504 -51.3301 7.49805 -69.9971s11 -33.834 20 -45.501s20.833 -19.834 35.5 -24.501s32.334 -7 53.001 -7c25.333 0 49.5 3.33301 72.5 10s45.5 14.334 67.5 23.001l16 -86c-15.333 -8.66699 -37.5 -17.5 -66.5 -26.5s-61.5 -13.5 -97.5 -13.5
c-76.667 0 -134 23.333 -172 70s-57 115.667 -57 207s19.5 160 58.5 206s91.5 69 157.5 69c35.333 0 65.333 -5.66699 90 -17s44.834 -27.833 60.501 -49.5s27.167 -47.834 34.5 -78.501s11 -65.334 11 -104.001v-63h-291v0zM339.998 305.003l-0.000976562 18
c0 48.667 -6.66699 82.667 -20 102s-35 29 -65 29c-15.333 0 -28.666 -2.33301 -39.999 -7s-21 -12.667 -29 -24s-14 -26.5 -18 -45.5s-6.66699 -43.167 -8 -72.5h180zM237.997 757.003h145l-120 -164h-66z" />
    <glyph glyph-name="egrave" horiz-adv-x="489" 
d="M159 226c0.666992 -28 3.16504 -51.3301 7.49805 -69.9971s11 -33.834 20 -45.501s20.833 -19.834 35.5 -24.501s32.334 -7 53.001 -7c25.333 0 49.5 3.33301 72.5 10s45.5 14.334 67.5 23.001l16 -86c-15.333 -8.66699 -37.5 -17.5 -66.5 -26.5s-61.5 -13.5 -97.5 -13.5
c-76.667 0 -134 23.333 -172 70s-57 115.667 -57 207s19.5 160 58.5 206s91.5 69 157.5 69c35.333 0 65.333 -5.66699 90 -17s44.834 -27.833 60.501 -49.5s27.167 -47.834 34.5 -78.501s11 -65.334 11 -104.001v-63h-291v0zM339.998 305.003l-0.000976562 18
c0 48.667 -6.66699 82.667 -20 102s-35 29 -65 29c-15.333 0 -28.666 -2.33301 -39.999 -7s-21 -12.667 -29 -24s-14 -26.5 -18 -45.5s-6.66699 -43.167 -8 -72.5h180zM105.997 757.003h145l41 -164h-66z" />
    <glyph glyph-name="ecircumflex" horiz-adv-x="489" 
d="M159 226c0.666992 -28 3.16504 -51.3301 7.49805 -69.9971s11 -33.834 20 -45.501s20.833 -19.834 35.5 -24.501s32.334 -7 53.001 -7c25.333 0 49.5 3.33301 72.5 10s45.5 14.334 67.5 23.001l16 -86c-15.333 -8.66699 -37.5 -17.5 -66.5 -26.5s-61.5 -13.5 -97.5 -13.5
c-76.667 0 -134 23.333 -172 70s-57 115.667 -57 207s19.5 160 58.5 206s91.5 69 157.5 69c35.333 0 65.333 -5.66699 90 -17s44.834 -27.833 60.501 -49.5s27.167 -47.834 34.5 -78.501s11 -65.334 11 -104.001v-63h-291v0zM339.998 305.003l-0.000976562 18
c0 48.667 -6.66699 82.667 -20 102s-35 29 -65 29c-15.333 0 -28.666 -2.33301 -39.999 -7s-21 -12.667 -29 -24s-14 -26.5 -18 -45.5s-6.66699 -43.167 -8 -72.5h180zM197.997 769.003h92l121 -176h-110l-35 65l-25 69l-24 -69l-39 -65h-99z" />
    <glyph glyph-name="edieresis" horiz-adv-x="489" 
d="M159 226c0.666992 -28 3.16504 -51.3301 7.49805 -69.9971s11 -33.834 20 -45.501s20.833 -19.834 35.5 -24.501s32.334 -7 53.001 -7c25.333 0 49.5 3.33301 72.5 10s45.5 14.334 67.5 23.001l16 -86c-15.333 -8.66699 -37.5 -17.5 -66.5 -26.5s-61.5 -13.5 -97.5 -13.5
c-76.667 0 -134 23.333 -172 70s-57 115.667 -57 207s19.5 160 58.5 206s91.5 69 157.5 69c35.333 0 65.333 -5.66699 90 -17s44.834 -27.833 60.501 -49.5s27.167 -47.834 34.5 -78.501s11 -65.334 11 -104.001v-63h-291v0zM339.998 305.003l-0.000976562 18
c0 48.667 -6.66699 82.667 -20 102s-35 29 -65 29c-15.333 0 -28.666 -2.33301 -39.999 -7s-21 -12.667 -29 -24s-14 -26.5 -18 -45.5s-6.66699 -43.167 -8 -72.5h180zM338.997 593.003c-18.667 0 -34.5 6.33301 -47.5 19s-19.5 29.334 -19.5 50.001s6.5 37.5 19.5 50.5
s28.833 19.5 47.5 19.5c19.333 0 35.5 -6.5 48.5 -19.5s19.5 -29.833 19.5 -50.5s-6.5 -37.334 -19.5 -50.001s-29.167 -19 -48.5 -19zM152.997 593.003c-19.333 0 -35.5 6.33301 -48.5 19s-19.5 29.334 -19.5 50.001s6.5 37.5 19.5 50.5s29.167 19.5 48.5 19.5
c18.667 0 34.5 -6.5 47.5 -19.5s19.5 -29.833 19.5 -50.5s-6.5 -37.334 -19.5 -50.001s-28.833 -19 -47.5 -19z" />
    <glyph glyph-name="iacute" horiz-adv-x="264" 
d="M73 527h117v-527h-117v527zM123 757h145l-120 -164h-66z" />
    <glyph glyph-name="igrave" horiz-adv-x="264" 
d="M72 527h117v-527h-117v527zM-10 757h145l41 -164h-66z" />
    <glyph glyph-name="icircumflex" horiz-adv-x="264" 
d="M73 527h117v-527h-117v527zM83 769h92l121 -176h-110l-35 65l-25 69l-24 -69l-39 -65h-99z" />
    <glyph glyph-name="idieresis" horiz-adv-x="264" 
d="M73 527h117v-527h-117v527zM224 593c-18.667 0 -34.5 6.33301 -47.5 19s-19.5 29.334 -19.5 50.001s6.5 37.5 19.5 50.5s28.833 19.5 47.5 19.5c19.333 0 35.5 -6.5 48.5 -19.5s19.5 -29.833 19.5 -50.5s-6.5 -37.334 -19.5 -50.001s-29.167 -19 -48.5 -19zM38 593
c-19.333 0 -35.5 6.33301 -48.5 19s-19.5 29.334 -19.5 50.001s6.5 37.5 19.5 50.5s29.167 19.5 48.5 19.5c18.667 0 34.5 -6.5 47.5 -19.5s19.5 -29.833 19.5 -50.5s-6.5 -37.334 -19.5 -50.001s-28.833 -19 -47.5 -19z" />
    <glyph glyph-name="ntilde" horiz-adv-x="534" 
d="M237 518c11.333 5.33301 24.5 9.99902 39.5 13.999s31.5 6 49.5 6c46 0 81.333 -14 106 -42s37 -70.667 37 -128v-368h-117v380c0 23.333 -5.83301 39.833 -17.5 49.5s-28.167 14.5 -49.5 14.5c-19.333 0 -36.333 -2.66699 -51 -8s-30.667 -12.666 -48 -21.999v-414h-117
v527h77l38 -69zM321 592.999c-14.667 0 -26.667 2.5 -36 7.5s-18.666 12.167 -27.999 21.5l-17 18c-7.33301 7.33301 -13.166 12.666 -17.499 15.999s-9.83301 5 -16.5 5c-18.667 0 -28 -17.667 -28 -53v-9h-60c0 46.667 9 83 27 109s39.333 39 64 39
c14 0 25.667 -2.5 35 -7.5s18.666 -12.167 27.999 -21.5l17 -18c8 -7.33301 14 -12.666 18 -15.999s9.66699 -5 17 -5c18.667 0 28 17.333 28 52v10h59c0 -46.667 -8.83301 -83 -26.5 -109s-38.834 -39 -63.501 -39z" />
    <glyph glyph-name="oacute" horiz-adv-x="514" 
d="M258 -14c-70 0 -124.167 24 -162.5 72s-57.5 116 -57.5 204c0 89.333 19.5 157.666 58.5 204.999s92.833 71 161.5 71s122.167 -23.5 160.5 -70.5s57.5 -114.5 57.5 -202.5c0 -89.333 -19.167 -158.166 -57.5 -206.499s-91.833 -72.5 -160.5 -72.5zM258 75
c16 0 30 2.83301 42 8.5s22.167 15.167 30.5 28.5s14.5 31.5 18.5 54.5s6 51.5 6 85.5v18c0 36 -1.83301 65.333 -5.5 88s-9.5 40.667 -17.5 54s-18.167 22.5 -30.5 27.5s-26.833 7.5 -43.5 7.5c-17.333 0 -32.166 -2.5 -44.499 -7.5s-22.5 -14 -30.5 -27
s-14 -30.5 -18 -52.5s-6 -50.333 -6 -85v-19c0 -35.333 2 -64.666 6 -87.999s10.167 -41.833 18.5 -55.5s18.666 -23.334 30.999 -29.001s26.833 -8.5 43.5 -8.5zM248 757h145l-120 -164h-66z" />
    <glyph glyph-name="ograve" horiz-adv-x="514" 
d="M258 -14c-70 0 -124.167 24 -162.5 72s-57.5 116 -57.5 204c0 89.333 19.5 157.666 58.5 204.999s92.833 71 161.5 71s122.167 -23.5 160.5 -70.5s57.5 -114.5 57.5 -202.5c0 -89.333 -19.167 -158.166 -57.5 -206.499s-91.833 -72.5 -160.5 -72.5zM258 75
c16 0 30 2.83301 42 8.5s22.167 15.167 30.5 28.5s14.5 31.5 18.5 54.5s6 51.5 6 85.5v18c0 36 -1.83301 65.333 -5.5 88s-9.5 40.667 -17.5 54s-18.167 22.5 -30.5 27.5s-26.833 7.5 -43.5 7.5c-17.333 0 -32.166 -2.5 -44.499 -7.5s-22.5 -14 -30.5 -27
s-14 -30.5 -18 -52.5s-6 -50.333 -6 -85v-19c0 -35.333 2 -64.666 6 -87.999s10.167 -41.833 18.5 -55.5s18.666 -23.334 30.999 -29.001s26.833 -8.5 43.5 -8.5zM114 757h145l41 -164h-66z" />
    <glyph glyph-name="ocircumflex" horiz-adv-x="514" 
d="M258 -14c-70 0 -124.167 24 -162.5 72s-57.5 116 -57.5 204c0 89.333 19.5 157.666 58.5 204.999s92.833 71 161.5 71s122.167 -23.5 160.5 -70.5s57.5 -114.5 57.5 -202.5c0 -89.333 -19.167 -158.166 -57.5 -206.499s-91.833 -72.5 -160.5 -72.5zM258 75
c16 0 30 2.83301 42 8.5s22.167 15.167 30.5 28.5s14.5 31.5 18.5 54.5s6 51.5 6 85.5v18c0 36 -1.83301 65.333 -5.5 88s-9.5 40.667 -17.5 54s-18.167 22.5 -30.5 27.5s-26.833 7.5 -43.5 7.5c-17.333 0 -32.166 -2.5 -44.499 -7.5s-22.5 -14 -30.5 -27
s-14 -30.5 -18 -52.5s-6 -50.333 -6 -85v-19c0 -35.333 2 -64.666 6 -87.999s10.167 -41.833 18.5 -55.5s18.666 -23.334 30.999 -29.001s26.833 -8.5 43.5 -8.5zM207 769h92l121 -176h-110l-35 65l-25 69l-24 -69l-39 -65h-99z" />
    <glyph glyph-name="odieresis" horiz-adv-x="514" 
d="M258 -14c-70 0 -124.167 24 -162.5 72s-57.5 116 -57.5 204c0 89.333 19.5 157.666 58.5 204.999s92.833 71 161.5 71s122.167 -23.5 160.5 -70.5s57.5 -114.5 57.5 -202.5c0 -89.333 -19.167 -158.166 -57.5 -206.499s-91.833 -72.5 -160.5 -72.5zM258 75
c16 0 30 2.83301 42 8.5s22.167 15.167 30.5 28.5s14.5 31.5 18.5 54.5s6 51.5 6 85.5v18c0 36 -1.83301 65.333 -5.5 88s-9.5 40.667 -17.5 54s-18.167 22.5 -30.5 27.5s-26.833 7.5 -43.5 7.5c-17.333 0 -32.166 -2.5 -44.499 -7.5s-22.5 -14 -30.5 -27
s-14 -30.5 -18 -52.5s-6 -50.333 -6 -85v-19c0 -35.333 2 -64.666 6 -87.999s10.167 -41.833 18.5 -55.5s18.666 -23.334 30.999 -29.001s26.833 -8.5 43.5 -8.5zM348 593c-18.667 0 -34.5 6.33301 -47.5 19s-19.5 29.334 -19.5 50.001s6.5 37.5 19.5 50.5
s28.833 19.5 47.5 19.5c19.333 0 35.5 -6.5 48.5 -19.5s19.5 -29.833 19.5 -50.5s-6.5 -37.334 -19.5 -50.001s-29.167 -19 -48.5 -19zM162 593c-19.333 0 -35.5 6.33301 -48.5 19s-19.5 29.334 -19.5 50.001s6.5 37.5 19.5 50.5s29.167 19.5 48.5 19.5
c18.667 0 34.5 -6.5 47.5 -19.5s19.5 -29.833 19.5 -50.5s-6.5 -37.334 -19.5 -50.001s-28.833 -19 -47.5 -19z" />
    <glyph glyph-name="otilde" horiz-adv-x="514" 
d="M258 -14c-70 0 -124.167 24 -162.5 72s-57.5 116 -57.5 204c0 89.333 19.5 157.666 58.5 204.999s92.833 71 161.5 71s122.167 -23.5 160.5 -70.5s57.5 -114.5 57.5 -202.5c0 -89.333 -19.167 -158.166 -57.5 -206.499s-91.833 -72.5 -160.5 -72.5zM258 75
c16 0 30 2.83301 42 8.5s22.167 15.167 30.5 28.5s14.5 31.5 18.5 54.5s6 51.5 6 85.5v18c0 36 -1.83301 65.333 -5.5 88s-9.5 40.667 -17.5 54s-18.167 22.5 -30.5 27.5s-26.833 7.5 -43.5 7.5c-17.333 0 -32.166 -2.5 -44.499 -7.5s-22.5 -14 -30.5 -27
s-14 -30.5 -18 -52.5s-6 -50.333 -6 -85v-19c0 -35.333 2 -64.666 6 -87.999s10.167 -41.833 18.5 -55.5s18.666 -23.334 30.999 -29.001s26.833 -8.5 43.5 -8.5zM311 593c-14.667 0 -26.667 2.5 -36 7.5s-18.666 12.167 -27.999 21.5l-17 18
c-7.33301 7.33301 -13.166 12.666 -17.499 15.999s-9.83301 5 -16.5 5c-18.667 0 -28 -17.667 -28 -53v-9h-60c0 46.667 9 83 27 109s39.333 39 64 39c14 0 25.667 -2.5 35 -7.5s18.666 -12.167 27.999 -21.5l17 -18c8 -7.33301 14 -12.666 18 -15.999s9.66699 -5 17 -5
c18.667 0 28 17.333 28 52v10h59c0 -46.667 -8.83301 -83 -26.5 -109s-38.834 -39 -63.501 -39z" />
    <glyph glyph-name="uacute" horiz-adv-x="532" 
d="M346 527l116.999 0.000976562v-527h-77l-38 66l-47 -60c-13.333 -5.33301 -27.833 -9.66602 -43.5 -12.999s-32.5 -5 -50.5 -5c-46 0 -81.167 14.167 -105.5 42.5s-36.5 71.166 -36.5 128.499v368h117v-378c0 -28 5.83301 -47.167 17.5 -57.5s27.834 -15.5 48.501 -15.5
c20 0 37.5 2.66699 52.5 8s30.167 12.666 45.5 21.999v421zM257.999 757.001h145l-120 -164h-66z" />
    <glyph glyph-name="ugrave" horiz-adv-x="532" 
d="M346 527l116.999 0.000976562v-527h-77l-38 66l-47 -60c-13.333 -5.33301 -27.833 -9.66602 -43.5 -12.999s-32.5 -5 -50.5 -5c-46 0 -81.167 14.167 -105.5 42.5s-36.5 71.166 -36.5 128.499v368h117v-378c0 -28 5.83301 -47.167 17.5 -57.5s27.834 -15.5 48.501 -15.5
c20 0 37.5 2.66699 52.5 8s30.167 12.666 45.5 21.999v421zM123.999 757.001h145l41 -164h-66z" />
    <glyph glyph-name="ucircumflex" horiz-adv-x="532" 
d="M346 527l116.999 0.000976562v-527h-77l-38 66l-47 -60c-13.333 -5.33301 -27.833 -9.66602 -43.5 -12.999s-32.5 -5 -50.5 -5c-46 0 -81.167 14.167 -105.5 42.5s-36.5 71.166 -36.5 128.499v368h117v-378c0 -28 5.83301 -47.167 17.5 -57.5s27.834 -15.5 48.501 -15.5
c20 0 37.5 2.66699 52.5 8s30.167 12.666 45.5 21.999v421zM216.999 769.001h92l121 -176h-110l-35 65l-25 69l-24 -69l-39 -65h-99z" />
    <glyph glyph-name="udieresis" horiz-adv-x="532" 
d="M346 527l116.999 0.000976562v-527h-77l-38 66l-47 -60c-13.333 -5.33301 -27.833 -9.66602 -43.5 -12.999s-32.5 -5 -50.5 -5c-46 0 -81.167 14.167 -105.5 42.5s-36.5 71.166 -36.5 128.499v368h117v-378c0 -28 5.83301 -47.167 17.5 -57.5s27.834 -15.5 48.501 -15.5
c20 0 37.5 2.66699 52.5 8s30.167 12.666 45.5 21.999v421zM357.999 593.001c-18.667 0 -34.5 6.33301 -47.5 19s-19.5 29.334 -19.5 50.001s6.5 37.5 19.5 50.5s28.833 19.5 47.5 19.5c19.333 0 35.5 -6.5 48.5 -19.5s19.5 -29.833 19.5 -50.5s-6.5 -37.334 -19.5 -50.001
s-29.167 -19 -48.5 -19zM171.999 593.001c-19.333 0 -35.5 6.33301 -48.5 19s-19.5 29.334 -19.5 50.001s6.5 37.5 19.5 50.5s29.167 19.5 48.5 19.5c18.667 0 34.5 -6.5 47.5 -19.5s19.5 -29.833 19.5 -50.5s-6.5 -37.334 -19.5 -50.001s-28.833 -19 -47.5 -19z" />
    <glyph glyph-name="degree" horiz-adv-x="324" 
d="M163 352c-17.333 0 -34 3 -50 9s-30 15.333 -42 28s-21.667 28.834 -29 48.501s-11 43.167 -11 70.5s3.66699 50.666 11 69.999s17.166 35.333 29.499 48s26.5 22 42.5 28s32.333 9 49 9s32.834 -3 48.501 -9s29.5 -15.333 41.5 -28s21.667 -28.667 29 -48
s11 -42.333 11 -69c0 -27.333 -3.5 -51 -10.5 -71s-16.5 -36.333 -28.5 -49s-25.833 -22 -41.5 -28s-32.167 -9 -49.5 -9zM162 412c17.333 0 30.1641 5.66797 38.4971 17.001s12.5 34.333 12.5 69v19c0 34 -4.16699 56.333 -12.5 67s-21.166 16 -38.499 16
s-30.166 -5.33301 -38.499 -16s-12.5 -32.667 -12.5 -66v-19c0 -34.667 4.33301 -57.834 13 -69.501s21.334 -17.5 38.001 -17.5z" />
    <glyph glyph-name="registered" horiz-adv-x="463" 
d="M229 163c-68 0 -117.999 22.167 -149.999 66.5s-48 106.166 -48 185.499c0 77.333 16.333 138 49 182s83 66 151 66c67.333 0 117.666 -21.667 150.999 -65s50 -103.666 50 -180.999c0 -86 -16.333 -149.833 -49 -191.5s-84 -62.5 -154 -62.5zM229.001 204
c30 0 55.334 3.66895 76.001 11.002s37.167 19.5 49.5 36.5s21.333 39 27 66s8.5 60.167 8.5 99.5c0 71.333 -12 123.333 -36 156s-65 49 -123 49s-99 -16.833 -123 -50.5s-36 -85.834 -36 -156.501c0 -36.667 2.66699 -68.334 8 -95.001s14.166 -48.5 26.499 -65.5
s28.5 -29.667 48.5 -38s44.667 -12.5 74 -12.5zM297.002 363.002l43 -89h-64l-47 106h-29v-106h-60v283h92c32.667 0 57.834 -7.5 75.501 -22.5s26.5 -37.167 26.5 -66.5c0 -19.333 -4.83301 -36.333 -14.5 -51s-26.834 -24.667 -51.501 -30zM229.002 419.002
c15.333 0 26.167 3.33105 32.5 9.99805s9.5 17.334 9.5 32.001v8c0 14.667 -3.33301 24.834 -10 30.501s-17.667 8.5 -33 8.5h-28v-89h29z" />
    <glyph glyph-name="copyright" horiz-adv-x="618" 
d="M307 -14c-92.667 0 -160.833 29.833 -204.5 89.5s-65.5 143.5 -65.5 251.5c0 52 5.66699 98.833 17 140.5s28.333 77 51 106s51 51.167 85 66.5s73.667 23 119 23c90.667 0 158.667 -29.333 204 -88s68 -140.667 68 -246c0 -116 -22.167 -202.167 -66.5 -258.5
s-113.5 -84.5 -207.5 -84.5zM307.001 34c41.333 0 76.167 5.49902 104.5 16.499s51.333 28.167 69 51.5s30.5 53.833 38.5 91.5s12 82.834 12 135.501c0 97.333 -17 169.333 -51 216s-91 70 -171 70c-40.667 0 -75 -6 -103 -18s-50.833 -30 -68.5 -54s-30.5 -54 -38.5 -90
s-12 -78 -12 -126c0 -50 3.83301 -93.333 11.5 -130s20 -67.167 37 -91.5s39.667 -42.333 68 -54s62.833 -17.5 103.5 -17.5zM316.002 100.999c-32 0 -58.834 5.83301 -80.501 17.5s-39.167 27.667 -52.5 48s-22.833 44.333 -28.5 72s-8.5 57.167 -8.5 88.5s3 60.5 9 87.5
s15.833 50.333 29.5 70s31.334 35.167 53.001 46.5s48.5 17 80.5 17c23.333 0 43.5 -2.16699 60.5 -6.5s33.167 -9.83301 48.5 -16.5l-10 -76c-19.333 7.33301 -35.666 12.333 -48.999 15s-28.666 4 -45.999 4c-25.333 0 -44.333 -9.16699 -57 -27.5s-19 -50.5 -19 -96.5
v-30c0 -49.333 6.33301 -84 19 -104s32 -30 58 -30c9.33301 0 17.666 0.5 24.999 1.5s14.5 2.5 21.5 4.5s14.167 4.5 21.5 7.5l25 10.5l19 -71c-16.667 -9.33301 -34.334 -17 -53.001 -23s-40.667 -9 -66 -9z" />
    <glyph glyph-name="trademark" horiz-adv-x="773" 
d="M354 652h108l58 -218l15 -117l17 117l60 218h112v-381h-87v125l14 211l-37 -167l-47 -169h-75l-47 175l-32 161l13 -202v-134h-72v381zM40 579v73h272v-73h-91v-308h-89v308h-92z" />
    <glyph glyph-name="notequal" horiz-adv-x="634" 
d="M335 445l-0.000976562 81.999h55v40c0 108 46.333 162 139 162c24.667 0 46.334 -2.66699 65.001 -8s33 -10.666 43 -15.999l-6 -67h-73c-18.667 0 -32 -3.33301 -40 -10s-12 -18 -12 -34v-67h115v-82h-115v-445h-116v445h-55zM22.999 444.999v82h62v40
c0 54 11.833 94.5 35.5 121.5s58.5 40.5 104.5 40.5c25.333 0 46.833 -2.33301 64.5 -7s31.5 -9.66699 41.5 -15l-6 -69h-63c-22.667 0 -38.5 -3.33301 -47.5 -10s-13.5 -18 -13.5 -34v-67h95v-82h-95v-445h-116v445h-62z" />
    <glyph glyph-name="infinity" horiz-adv-x="883" 
d="M750 601c-20 0 -37.333 5.83301 -52 17.5s-22 28.167 -22 49.5s7.33301 38.166 22 50.499s32 18.5 52 18.5s37.167 -6.16699 51.5 -18.5s21.5 -29.166 21.5 -50.499s-7.16699 -37.833 -21.5 -49.5s-31.5 -17.5 -51.5 -17.5zM335 445l0.00195312 81.999h55v40
c0 54 11.833 94.5 35.5 121.5s58.167 40.5 103.5 40.5c21.333 0 40.166 -2.66699 56.499 -8s29.166 -10.666 38.499 -15.999l-6 -67h-51c-22 0 -37.667 -3.33301 -47 -10s-14 -18 -14 -34v-67h112v-82h-112v-445h-116v445h-55zM23.002 444.999v82h62v40
c0 54 11.833 94.5 35.5 121.5s58.5 40.5 104.5 40.5c25.333 0 46.833 -2.33301 64.5 -7s31.5 -9.66699 41.5 -15l-6 -69h-63c-22.667 0 -38.5 -3.33301 -47.5 -10s-13.5 -18 -13.5 -34v-67h95v-82h-95v-445h-116v445h-62zM691.002 526.999h117v-527h-117v527z" />
    <glyph glyph-name="plusminus" horiz-adv-x="874" 
d="M335 445v81.999h55v40c0 54 11.833 94.5 35.5 121.5s58.167 40.5 103.5 40.5c22.667 0 42 -2.66699 58 -8s28.667 -10.666 38 -15.999l-6 -67h-52c-22 0 -37.667 -3.33301 -47 -10s-14 -18 -14 -34v-67h112v-82h-112v-445h-116v445h-55zM23 444.999v82h62v40
c0 54 11.833 94.5 35.5 121.5s58.5 40.5 104.5 40.5c25.333 0 46.833 -2.33301 64.5 -7s31.5 -9.66699 41.5 -15l-6 -69h-63c-22.667 0 -38.5 -3.33301 -47.5 -10s-13.5 -18 -13.5 -34v-67h95v-82h-95v-445h-116v445h-62zM682 717.999h116v-718h-116v718z" />
    <glyph glyph-name="lessequal" horiz-adv-x="273" 
d="M70 466v226h133v-226l-39 -254h-55zM67 -134l43.998 141l-37 10c-4.66699 4.66699 -9 11.167 -13 19.5s-6 18.5 -6 30.5c0 25.333 8 45.333 24 60s35 22 57 22c22.667 0 41.834 -7.5 57.501 -22.5s23.5 -34.167 23.5 -57.5c0 -19.333 -4.66699 -38 -14 -56
s-19.666 -35.667 -30.999 -53l-69 -109z" />
    <glyph glyph-name="greaterequal" horiz-adv-x="442" 
d="M124 313c-2.66699 21.333 -0.00292969 37.499 7.99707 48.499s23.667 21.5 47 31.5c18.667 6.66699 33.834 13 45.501 19s21 13 28 21s11.833 17.667 14.5 29s4 25.333 4 42v12c0 32.667 -7 55.334 -21 68.001s-37.667 19 -71 19c-24 0 -46.333 -2.83301 -67 -8.5
s-44.667 -13.167 -72 -22.5l-18 90c19.333 9.33301 44.333 18.333 75 27s65.667 13 105 13c66.667 0 117 -15.833 151 -47.5s51 -76.5 51 -134.5c0 -32.667 -4.83301 -60 -14.5 -82s-22.667 -40.5 -39 -55.5s-35.166 -27 -56.499 -36s-43.666 -16.5 -66.999 -22.5v-112h-90z
M113.997 -134.001l44 141l-37 10c-4.66699 4.66699 -9.16699 11.167 -13.5 19.5s-6.5 18.5 -6.5 30.5c0 25.333 8.16699 45.333 24.5 60s35.5 22 57.5 22s41 -7.5 57 -22.5s24 -34.167 24 -57.5c0 -19.333 -4.83301 -38 -14.5 -56s-20.167 -35.667 -31.5 -53l-68 -109z" />
    <glyph glyph-name="mu" horiz-adv-x="536" 
d="M350 527l116.998 0.000976562v-527h-77l-37 65l-48 -61c-7.33301 -4 -17.333 -7.16699 -30 -9.5s-25.667 -3.5 -39 -3.5c-11.333 0 -19.666 0.666992 -24.999 2l-52 44l24 -107v-92h-114v689h117v-378c0 -28 5.83301 -47.167 17.5 -57.5s27.834 -15.5 48.501 -15.5
c20 0 37.5 2.66699 52.5 8s30.167 12.666 45.5 21.999v421z" />
    <glyph glyph-name="partialdiff" horiz-adv-x="594" 
d="M75 -14c-14.667 0 -26.6689 6.83301 -36.002 20.5s-17.166 34.5 -23.499 62.5s-11.833 63.167 -16.5 105.5s-9.33398 92.5 -14.001 150.5h29c3.33301 -33.333 6.33301 -68.333 9 -105s6.16699 -70.334 10.5 -101.001s9.66602 -56 15.999 -76s14.833 -30 25.5 -30
s19.167 10 25.5 30s11.666 45.333 15.999 76s8 64.334 11 101.001l8.5 105l14 150.5c4 42.333 9 77.333 15 105s13.5 48.334 22.5 62.001s20.833 20.5 35.5 20.5s26.5 -6.83301 35.5 -20.5s16.5 -34.334 22.5 -62.001s11.167 -62.667 15.5 -105s8.83301 -92.5 13.5 -150.5
c3.33301 -33.333 6.33301 -68.333 9 -105s6.16699 -70.334 10.5 -101.001s9.66602 -56 15.999 -76s14.833 -30 25.5 -30s19.167 10 25.5 30s11.666 45.333 15.999 76s8 64.334 11 101.001l8.5 105l14 150.5c4 42.333 9 77.333 15 105s13.5 48.334 22.5 62.001
s20.833 20.5 35.5 20.5s26.667 -6.83301 36 -20.5s17.166 -34.334 23.499 -62.001s11.833 -62.667 16.5 -105s9.33398 -92.5 14.001 -150.5h-29l-8.5 105c-3 36.667 -6.66699 70.334 -11 101.001s-9.66602 55.834 -15.999 75.501s-14.833 29.5 -25.5 29.5
s-19 -9.83301 -25 -29.5s-11 -44.834 -15 -75.501s-7.16699 -64.334 -9.5 -101.001s-5.16602 -71.667 -8.49902 -105c-4.66699 -58 -9.33398 -108.167 -14.001 -150.5s-10.167 -77.5 -16.5 -105.5s-14.166 -48.833 -23.499 -62.5s-21.333 -20.5 -36 -20.5
s-26.667 6.83301 -36 20.5s-17.166 34.5 -23.499 62.5s-11.666 63.167 -15.999 105.5s-9.16602 92.5 -14.499 150.5l-8 105c-2.66699 36.667 -6 70.334 -10 101.001s-9 55.834 -15 75.501s-14.333 29.5 -25 29.5s-19 -9.83301 -25 -29.5s-11 -44.834 -15 -75.501
s-7.16699 -64.334 -9.5 -101.001s-5.16602 -71.667 -8.49902 -105c-4.66699 -58 -9.33398 -108.167 -14.001 -150.5s-10.167 -77.5 -16.5 -105.5s-14.166 -48.833 -23.499 -62.5s-21.333 -20.5 -36 -20.5z" />
    <glyph glyph-name="summation" horiz-adv-x="594" 
d="M75 -14c-14.667 0 -26.6689 6.83301 -36.002 20.5s-17.166 34.5 -23.499 62.5s-11.833 63.167 -16.5 105.5s-9.33398 92.5 -14.001 150.5h29c3.33301 -33.333 6.33301 -68.333 9 -105s6.16699 -70.334 10.5 -101.001s9.66602 -56 15.999 -76s14.833 -30 25.5 -30
s19.167 10 25.5 30s11.666 45.333 15.999 76s8 64.334 11 101.001l8.5 105l14 150.5c4 42.333 9 77.333 15 105s13.5 48.334 22.5 62.001s20.833 20.5 35.5 20.5s26.5 -6.83301 35.5 -20.5s16.5 -34.334 22.5 -62.001s11.167 -62.667 15.5 -105s8.83301 -92.5 13.5 -150.5
c3.33301 -33.333 6.33301 -68.333 9 -105s6.16699 -70.334 10.5 -101.001s9.66602 -56 15.999 -76s14.833 -30 25.5 -30s19.167 10 25.5 30s11.666 45.333 15.999 76s8 64.334 11 101.001l8.5 105l14 150.5c4 42.333 9 77.333 15 105s13.5 48.334 22.5 62.001
s20.833 20.5 35.5 20.5s26.667 -6.83301 36 -20.5s17.166 -34.334 23.499 -62.001s11.833 -62.667 16.5 -105s9.33398 -92.5 14.001 -150.5h-29l-8.5 105c-3 36.667 -6.66699 70.334 -11 101.001s-9.66602 55.834 -15.999 75.501s-14.833 29.5 -25.5 29.5
s-19 -9.83301 -25 -29.5s-11 -44.834 -15 -75.501s-7.16699 -64.334 -9.5 -101.001s-5.16602 -71.667 -8.49902 -105c-4.66699 -58 -9.33398 -108.167 -14.001 -150.5s-10.167 -77.5 -16.5 -105.5s-14.166 -48.833 -23.499 -62.5s-21.333 -20.5 -36 -20.5
s-26.667 6.83301 -36 20.5s-17.166 34.5 -23.499 62.5s-11.666 63.167 -15.999 105.5s-9.16602 92.5 -14.499 150.5l-8 105c-2.66699 36.667 -6 70.334 -10 101.001s-9 55.834 -15 75.501s-14.333 29.5 -25 29.5s-19 -9.83301 -25 -29.5s-11 -44.834 -15 -75.501
s-7.16699 -64.334 -9.5 -101.001s-5.16602 -71.667 -8.49902 -105c-4.66699 -58 -9.33398 -108.167 -14.001 -150.5s-10.167 -77.5 -16.5 -105.5s-14.166 -48.833 -23.499 -62.5s-21.333 -20.5 -36 -20.5z" />
    <glyph glyph-name="product" horiz-adv-x="594" 
d="M75 -14c-14.667 0 -26.6689 6.83301 -36.002 20.5s-17.166 34.5 -23.499 62.5s-11.833 63.167 -16.5 105.5s-9.33398 92.5 -14.001 150.5h29c3.33301 -33.333 6.33301 -68.333 9 -105s6.16699 -70.334 10.5 -101.001s9.66602 -56 15.999 -76s14.833 -30 25.5 -30
s19.167 10 25.5 30s11.666 45.333 15.999 76s8 64.334 11 101.001l8.5 105l14 150.5c4 42.333 9 77.333 15 105s13.5 48.334 22.5 62.001s20.833 20.5 35.5 20.5s26.5 -6.83301 35.5 -20.5s16.5 -34.334 22.5 -62.001s11.167 -62.667 15.5 -105s8.83301 -92.5 13.5 -150.5
c3.33301 -33.333 6.33301 -68.333 9 -105s6.16699 -70.334 10.5 -101.001s9.66602 -56 15.999 -76s14.833 -30 25.5 -30s19.167 10 25.5 30s11.666 45.333 15.999 76s8 64.334 11 101.001l8.5 105l14 150.5c4 42.333 9 77.333 15 105s13.5 48.334 22.5 62.001
s20.833 20.5 35.5 20.5s26.667 -6.83301 36 -20.5s17.166 -34.334 23.499 -62.001s11.833 -62.667 16.5 -105s9.33398 -92.5 14.001 -150.5h-29l-8.5 105c-3 36.667 -6.66699 70.334 -11 101.001s-9.66602 55.834 -15.999 75.501s-14.833 29.5 -25.5 29.5
s-19 -9.83301 -25 -29.5s-11 -44.834 -15 -75.501s-7.16699 -64.334 -9.5 -101.001s-5.16602 -71.667 -8.49902 -105c-4.66699 -58 -9.33398 -108.167 -14.001 -150.5s-10.167 -77.5 -16.5 -105.5s-14.166 -48.833 -23.499 -62.5s-21.333 -20.5 -36 -20.5
s-26.667 6.83301 -36 20.5s-17.166 34.5 -23.499 62.5s-11.666 63.167 -15.999 105.5s-9.16602 92.5 -14.499 150.5l-8 105c-2.66699 36.667 -6 70.334 -10 101.001s-9 55.834 -15 75.501s-14.333 29.5 -25 29.5s-19 -9.83301 -25 -29.5s-11 -44.834 -15 -75.501
s-7.16699 -64.334 -9.5 -101.001s-5.16602 -71.667 -8.49902 -105c-4.66699 -58 -9.33398 -108.167 -14.001 -150.5s-10.167 -77.5 -16.5 -105.5s-14.166 -48.833 -23.499 -62.5s-21.333 -20.5 -36 -20.5z" />
    <glyph glyph-name="pi" horiz-adv-x="618" 
d="M307 -14c-92.667 0 -160.833 29.833 -204.5 89.5s-65.5 143.5 -65.5 251.5c0 52 5.66699 98.833 17 140.5s28.333 77 51 106s51 51.167 85 66.5s73.667 23 119 23c90.667 0 158.667 -29.333 204 -88s68 -140.667 68 -246c0 -116 -22.167 -202.167 -66.5 -258.5
s-113.5 -84.5 -207.5 -84.5zM307.001 34c41.333 0 76.167 5.49902 104.5 16.499s51.333 28.167 69 51.5s30.5 53.833 38.5 91.5s12 82.834 12 135.501c0 97.333 -17 169.333 -51 216s-91 70 -171 70c-40.667 0 -75 -6 -103 -18s-50.833 -30 -68.5 -54s-30.5 -54 -38.5 -90
s-12 -78 -12 -126c0 -50 3.83301 -93.333 11.5 -130s20 -67.167 37 -91.5s39.667 -42.333 68 -54s62.833 -17.5 103.5 -17.5zM183.002 537.999h136c50.667 0 88.334 -13.333 113.001 -40s37 -61.667 37 -105c0 -42.667 -11.833 -77.667 -35.5 -105s-61.834 -41 -114.501 -41
h-46v-137h-90v428zM315.002 311.999c24 0 40.333 5.16699 49 15.5s13 29.833 13 58.5v15c0 27.333 -4.5 45.5 -13.5 54.5s-25.5 13.5 -49.5 13.5h-41v-157h42z" />
    <glyph glyph-name="integral" horiz-adv-x="594" 
d="M75 -14c-14.667 0 -26.6689 6.83301 -36.002 20.5s-17.166 34.5 -23.499 62.5s-11.833 63.167 -16.5 105.5s-9.33398 92.5 -14.001 150.5h29c3.33301 -33.333 6.33301 -68.333 9 -105s6.16699 -70.334 10.5 -101.001s9.66602 -56 15.999 -76s14.833 -30 25.5 -30
s19.167 10 25.5 30s11.666 45.333 15.999 76s8 64.334 11 101.001l8.5 105l14 150.5c4 42.333 9 77.333 15 105s13.5 48.334 22.5 62.001s20.833 20.5 35.5 20.5s26.5 -6.83301 35.5 -20.5s16.5 -34.334 22.5 -62.001s11.167 -62.667 15.5 -105s8.83301 -92.5 13.5 -150.5
c3.33301 -33.333 6.33301 -68.333 9 -105s6.16699 -70.334 10.5 -101.001s9.66602 -56 15.999 -76s14.833 -30 25.5 -30s19.167 10 25.5 30s11.666 45.333 15.999 76s8 64.334 11 101.001l8.5 105l14 150.5c4 42.333 9 77.333 15 105s13.5 48.334 22.5 62.001
s20.833 20.5 35.5 20.5s26.667 -6.83301 36 -20.5s17.166 -34.334 23.499 -62.001s11.833 -62.667 16.5 -105s9.33398 -92.5 14.001 -150.5h-29l-8.5 105c-3 36.667 -6.66699 70.334 -11 101.001s-9.66602 55.834 -15.999 75.501s-14.833 29.5 -25.5 29.5
s-19 -9.83301 -25 -29.5s-11 -44.834 -15 -75.501s-7.16699 -64.334 -9.5 -101.001s-5.16602 -71.667 -8.49902 -105c-4.66699 -58 -9.33398 -108.167 -14.001 -150.5s-10.167 -77.5 -16.5 -105.5s-14.166 -48.833 -23.499 -62.5s-21.333 -20.5 -36 -20.5
s-26.667 6.83301 -36 20.5s-17.166 34.5 -23.499 62.5s-11.666 63.167 -15.999 105.5s-9.16602 92.5 -14.499 150.5l-8 105c-2.66699 36.667 -6 70.334 -10 101.001s-9 55.834 -15 75.501s-14.333 29.5 -25 29.5s-19 -9.83301 -25 -29.5s-11 -44.834 -15 -75.501
s-7.16699 -64.334 -9.5 -101.001s-5.16602 -71.667 -8.49902 -105c-4.66699 -58 -9.33398 -108.167 -14.001 -150.5s-10.167 -77.5 -16.5 -105.5s-14.166 -48.833 -23.499 -62.5s-21.333 -20.5 -36 -20.5z" />
    <glyph glyph-name="Omega" horiz-adv-x="594" 
d="M75 -14c-14.667 0 -26.6689 6.83301 -36.002 20.5s-17.166 34.5 -23.499 62.5s-11.833 63.167 -16.5 105.5s-9.33398 92.5 -14.001 150.5h29c3.33301 -33.333 6.33301 -68.333 9 -105s6.16699 -70.334 10.5 -101.001s9.66602 -56 15.999 -76s14.833 -30 25.5 -30
s19.167 10 25.5 30s11.666 45.333 15.999 76s8 64.334 11 101.001l8.5 105l14 150.5c4 42.333 9 77.333 15 105s13.5 48.334 22.5 62.001s20.833 20.5 35.5 20.5s26.5 -6.83301 35.5 -20.5s16.5 -34.334 22.5 -62.001s11.167 -62.667 15.5 -105s8.83301 -92.5 13.5 -150.5
c3.33301 -33.333 6.33301 -68.333 9 -105s6.16699 -70.334 10.5 -101.001s9.66602 -56 15.999 -76s14.833 -30 25.5 -30s19.167 10 25.5 30s11.666 45.333 15.999 76s8 64.334 11 101.001l8.5 105l14 150.5c4 42.333 9 77.333 15 105s13.5 48.334 22.5 62.001
s20.833 20.5 35.5 20.5s26.667 -6.83301 36 -20.5s17.166 -34.334 23.499 -62.001s11.833 -62.667 16.5 -105s9.33398 -92.5 14.001 -150.5h-29l-8.5 105c-3 36.667 -6.66699 70.334 -11 101.001s-9.66602 55.834 -15.999 75.501s-14.833 29.5 -25.5 29.5
s-19 -9.83301 -25 -29.5s-11 -44.834 -15 -75.501s-7.16699 -64.334 -9.5 -101.001s-5.16602 -71.667 -8.49902 -105c-4.66699 -58 -9.33398 -108.167 -14.001 -150.5s-10.167 -77.5 -16.5 -105.5s-14.166 -48.833 -23.499 -62.5s-21.333 -20.5 -36 -20.5
s-26.667 6.83301 -36 20.5s-17.166 34.5 -23.499 62.5s-11.666 63.167 -15.999 105.5s-9.16602 92.5 -14.499 150.5l-8 105c-2.66699 36.667 -6 70.334 -10 101.001s-9 55.834 -15 75.501s-14.333 29.5 -25 29.5s-19 -9.83301 -25 -29.5s-11 -44.834 -15 -75.501
s-7.16699 -64.334 -9.5 -101.001s-5.16602 -71.667 -8.49902 -105c-4.66699 -58 -9.33398 -108.167 -14.001 -150.5s-10.167 -77.5 -16.5 -105.5s-14.166 -48.833 -23.499 -62.5s-21.333 -20.5 -36 -20.5z" />
    <glyph glyph-name="logicalnot" horiz-adv-x="594" 
d="M75 -14c-14.667 0 -26.6689 6.83301 -36.002 20.5s-17.166 34.5 -23.499 62.5s-11.833 63.167 -16.5 105.5s-9.33398 92.5 -14.001 150.5h29c3.33301 -33.333 6.33301 -68.333 9 -105s6.16699 -70.334 10.5 -101.001s9.66602 -56 15.999 -76s14.833 -30 25.5 -30
s19.167 10 25.5 30s11.666 45.333 15.999 76s8 64.334 11 101.001l8.5 105l14 150.5c4 42.333 9 77.333 15 105s13.5 48.334 22.5 62.001s20.833 20.5 35.5 20.5s26.5 -6.83301 35.5 -20.5s16.5 -34.334 22.5 -62.001s11.167 -62.667 15.5 -105s8.83301 -92.5 13.5 -150.5
c3.33301 -33.333 6.33301 -68.333 9 -105s6.16699 -70.334 10.5 -101.001s9.66602 -56 15.999 -76s14.833 -30 25.5 -30s19.167 10 25.5 30s11.666 45.333 15.999 76s8 64.334 11 101.001l8.5 105l14 150.5c4 42.333 9 77.333 15 105s13.5 48.334 22.5 62.001
s20.833 20.5 35.5 20.5s26.667 -6.83301 36 -20.5s17.166 -34.334 23.499 -62.001s11.833 -62.667 16.5 -105s9.33398 -92.5 14.001 -150.5h-29l-8.5 105c-3 36.667 -6.66699 70.334 -11 101.001s-9.66602 55.834 -15.999 75.501s-14.833 29.5 -25.5 29.5
s-19 -9.83301 -25 -29.5s-11 -44.834 -15 -75.501s-7.16699 -64.334 -9.5 -101.001s-5.16602 -71.667 -8.49902 -105c-4.66699 -58 -9.33398 -108.167 -14.001 -150.5s-10.167 -77.5 -16.5 -105.5s-14.166 -48.833 -23.499 -62.5s-21.333 -20.5 -36 -20.5
s-26.667 6.83301 -36 20.5s-17.166 34.5 -23.499 62.5s-11.666 63.167 -15.999 105.5s-9.16602 92.5 -14.499 150.5l-8 105c-2.66699 36.667 -6 70.334 -10 101.001s-9 55.834 -15 75.501s-14.333 29.5 -25 29.5s-19 -9.83301 -25 -29.5s-11 -44.834 -15 -75.501
s-7.16699 -64.334 -9.5 -101.001s-5.16602 -71.667 -8.49902 -105c-4.66699 -58 -9.33398 -108.167 -14.001 -150.5s-10.167 -77.5 -16.5 -105.5s-14.166 -48.833 -23.499 -62.5s-21.333 -20.5 -36 -20.5z" />
    <glyph glyph-name="radical" horiz-adv-x="487" 
d="M26 376h118l39 -136l31 -195l28 195l127 478h105l-205 -720h-118z" />
    <glyph glyph-name="approxequal" horiz-adv-x="594" 
d="M75 -14c-14.667 0 -26.6689 6.83301 -36.002 20.5s-17.166 34.5 -23.499 62.5s-11.833 63.167 -16.5 105.5s-9.33398 92.5 -14.001 150.5h29c3.33301 -33.333 6.33301 -68.333 9 -105s6.16699 -70.334 10.5 -101.001s9.66602 -56 15.999 -76s14.833 -30 25.5 -30
s19.167 10 25.5 30s11.666 45.333 15.999 76s8 64.334 11 101.001l8.5 105l14 150.5c4 42.333 9 77.333 15 105s13.5 48.334 22.5 62.001s20.833 20.5 35.5 20.5s26.5 -6.83301 35.5 -20.5s16.5 -34.334 22.5 -62.001s11.167 -62.667 15.5 -105s8.83301 -92.5 13.5 -150.5
c3.33301 -33.333 6.33301 -68.333 9 -105s6.16699 -70.334 10.5 -101.001s9.66602 -56 15.999 -76s14.833 -30 25.5 -30s19.167 10 25.5 30s11.666 45.333 15.999 76s8 64.334 11 101.001l8.5 105l14 150.5c4 42.333 9 77.333 15 105s13.5 48.334 22.5 62.001
s20.833 20.5 35.5 20.5s26.667 -6.83301 36 -20.5s17.166 -34.334 23.499 -62.001s11.833 -62.667 16.5 -105s9.33398 -92.5 14.001 -150.5h-29l-8.5 105c-3 36.667 -6.66699 70.334 -11 101.001s-9.66602 55.834 -15.999 75.501s-14.833 29.5 -25.5 29.5
s-19 -9.83301 -25 -29.5s-11 -44.834 -15 -75.501s-7.16699 -64.334 -9.5 -101.001s-5.16602 -71.667 -8.49902 -105c-4.66699 -58 -9.33398 -108.167 -14.001 -150.5s-10.167 -77.5 -16.5 -105.5s-14.166 -48.833 -23.499 -62.5s-21.333 -20.5 -36 -20.5
s-26.667 6.83301 -36 20.5s-17.166 34.5 -23.499 62.5s-11.666 63.167 -15.999 105.5s-9.16602 92.5 -14.499 150.5l-8 105c-2.66699 36.667 -6 70.334 -10 101.001s-9 55.834 -15 75.501s-14.333 29.5 -25 29.5s-19 -9.83301 -25 -29.5s-11 -44.834 -15 -75.501
s-7.16699 -64.334 -9.5 -101.001s-5.16602 -71.667 -8.49902 -105c-4.66699 -58 -9.33398 -108.167 -14.001 -150.5s-10.167 -77.5 -16.5 -105.5s-14.166 -48.833 -23.499 -62.5s-21.333 -20.5 -36 -20.5z" />
    <glyph glyph-name="Delta" horiz-adv-x="594" 
d="M75 -14c-14.667 0 -26.6689 6.83301 -36.002 20.5s-17.166 34.5 -23.499 62.5s-11.833 63.167 -16.5 105.5s-9.33398 92.5 -14.001 150.5h29c3.33301 -33.333 6.33301 -68.333 9 -105s6.16699 -70.334 10.5 -101.001s9.66602 -56 15.999 -76s14.833 -30 25.5 -30
s19.167 10 25.5 30s11.666 45.333 15.999 76s8 64.334 11 101.001l8.5 105l14 150.5c4 42.333 9 77.333 15 105s13.5 48.334 22.5 62.001s20.833 20.5 35.5 20.5s26.5 -6.83301 35.5 -20.5s16.5 -34.334 22.5 -62.001s11.167 -62.667 15.5 -105s8.83301 -92.5 13.5 -150.5
c3.33301 -33.333 6.33301 -68.333 9 -105s6.16699 -70.334 10.5 -101.001s9.66602 -56 15.999 -76s14.833 -30 25.5 -30s19.167 10 25.5 30s11.666 45.333 15.999 76s8 64.334 11 101.001l8.5 105l14 150.5c4 42.333 9 77.333 15 105s13.5 48.334 22.5 62.001
s20.833 20.5 35.5 20.5s26.667 -6.83301 36 -20.5s17.166 -34.334 23.499 -62.001s11.833 -62.667 16.5 -105s9.33398 -92.5 14.001 -150.5h-29l-8.5 105c-3 36.667 -6.66699 70.334 -11 101.001s-9.66602 55.834 -15.999 75.501s-14.833 29.5 -25.5 29.5
s-19 -9.83301 -25 -29.5s-11 -44.834 -15 -75.501s-7.16699 -64.334 -9.5 -101.001s-5.16602 -71.667 -8.49902 -105c-4.66699 -58 -9.33398 -108.167 -14.001 -150.5s-10.167 -77.5 -16.5 -105.5s-14.166 -48.833 -23.499 -62.5s-21.333 -20.5 -36 -20.5
s-26.667 6.83301 -36 20.5s-17.166 34.5 -23.499 62.5s-11.666 63.167 -15.999 105.5s-9.16602 92.5 -14.499 150.5l-8 105c-2.66699 36.667 -6 70.334 -10 101.001s-9 55.834 -15 75.501s-14.333 29.5 -25 29.5s-19 -9.83301 -25 -29.5s-11 -44.834 -15 -75.501
s-7.16699 -64.334 -9.5 -101.001s-5.16602 -71.667 -8.49902 -105c-4.66699 -58 -9.33398 -108.167 -14.001 -150.5s-10.167 -77.5 -16.5 -105.5s-14.166 -48.833 -23.499 -62.5s-21.333 -20.5 -36 -20.5z" />
    <glyph glyph-name="nonbreakingspace" horiz-adv-x="112" 
 />
    <glyph glyph-name="Agrave" horiz-adv-x="582" 
d="M132 0h-110l212 651h120l208 -651h-133l-33 114h-229zM309 412l-23 123l-28 -123l-66 -214h180zM148 876h145l41 -164h-66z" />
    <glyph glyph-name="Atilde" horiz-adv-x="582" 
d="M132 0h-110l212 651h120l208 -651h-133l-33 114h-229zM309 412l-23 123l-28 -123l-66 -214h180zM345 712c-14.667 0 -26.667 2.5 -36 7.5s-18.666 12.167 -27.999 21.5l-17 18c-7.33301 7.33301 -13.166 12.666 -17.499 15.999s-9.83301 5 -16.5 5
c-18.667 0 -28 -17.667 -28 -53v-9h-60c0 46.667 9 83 27 109s39.333 39 64 39c14 0 25.667 -2.5 35 -7.5s18.666 -12.167 27.999 -21.5l17 -18c8 -7.33301 14 -12.666 18 -15.999s9.66699 -5 17 -5c18.667 0 28 17.333 28 52v10h59c0 -46.667 -8.83301 -83 -26.5 -109
s-38.834 -39 -63.501 -39z" />
    <glyph glyph-name="Otilde" horiz-adv-x="623" 
d="M310 -14c-47.333 0 -87.833 8.49805 -121.5 25.498s-61.334 40.833 -83.001 71.5s-37.667 66.834 -48 108.501s-15.5 86.834 -15.5 135.501s5.33301 93.5 16 134.5s27 76.5 49 106.5s50 53.333 84 70s74.333 25 121 25c47.333 0 88 -8.33301 122 -25
s61.833 -39.667 83.5 -69s37.667 -64.5 48 -105.5s15.5 -85.833 15.5 -134.5c0 -50 -5.16699 -96 -15.5 -138s-26.5 -78.167 -48.5 -108.5s-50.167 -54 -84.5 -71s-75.166 -25.5 -122.499 -25.5zM312 77.998c22.667 0 42.4971 3.83496 59.4971 11.502s31 20.5 42 38.5
s19.333 42 25 72s8.5 67.333 8.5 112v44c0 40.667 -2.66699 74.5 -8 101.5s-13.666 48.5 -24.999 64.5s-25.5 27.167 -42.5 33.5s-37.167 9.5 -60.5 9.5c-22.667 0 -42.5 -3.33301 -59.5 -10s-31.167 -18.334 -42.5 -35.001s-19.666 -38.5 -24.999 -65.5
s-8 -61.167 -8 -102.5v-43c0 -45.333 2.83301 -82.833 8.5 -112.5s14.334 -53.334 26.001 -71.001s26 -30 43 -37s36.5 -10.5 58.5 -10.5zM363.997 712c-14.667 0 -26.667 2.5 -36 7.5s-18.666 12.167 -27.999 21.5l-17 18c-7.33301 7.33301 -13.166 12.666 -17.499 15.999
s-9.83301 5 -16.5 5c-18.667 0 -28 -17.667 -28 -53v-9h-60c0 46.667 9 83 27 109s39.333 39 64 39c14 0 25.667 -2.5 35 -7.5s18.666 -12.167 27.999 -21.5l17 -18c8 -7.33301 14 -12.666 18 -15.999s9.66699 -5 17 -5c18.667 0 28 17.333 28 52v10h59
c0 -46.667 -8.83301 -83 -26.5 -109s-38.834 -39 -63.501 -39z" />
    <glyph glyph-name="divide" horiz-adv-x="651" 
d="M318 214l1.00293 101c0 11.333 0.833008 20.833 2.5 28.5s4.83398 14.167 9.50098 19.5s11 9.83301 19 13.5s18.333 7.16699 31 10.5c17.333 4 31.666 8 42.999 12s20.666 9.16699 27.999 15.5s13 14.666 17 24.999s7.33301 23.5 10 39.5l2 15
c3.33301 20.667 3.33301 37.667 0 51s-9.83301 24 -19.5 32s-21.834 13.5 -36.501 16.5s-31.334 4.5 -50.001 4.5c-16 0 -32.167 -1.16699 -48.5 -3.5s-34.5 -5.83301 -54.5 -10.5l-14 89c18 6 38.333 11 61 15s48.667 6 78 6c32 0 61.333 -3.83301 88 -11.5
s49.667 -19.167 69 -34.5s34.5 -34.5 45.5 -57.5s16.5 -49.833 16.5 -80.5c0 -32.667 -4.66699 -60.667 -14 -84s-22.5 -42.666 -39.5 -57.999s-37.667 -27.5 -62 -36.5s-51.833 -15.167 -82.5 -18.5l-22 -112zM93.0029 400l-72 225l126 46l73 -226l44 -234l-54 -22z
M302.003 -12c-22 0 -41 7.33301 -57 22s-24 34 -24 58s8 43.333 24 58s35 22 57 22s41 -7.33301 57 -22s24 -34 24 -58s-8 -43.333 -24 -58s-35 -22 -57 -22z" />
    <glyph glyph-name="lozenge" horiz-adv-x="594" 
d="M75 -14c-14.667 0 -26.6689 6.83301 -36.002 20.5s-17.166 34.5 -23.499 62.5s-11.833 63.167 -16.5 105.5s-9.33398 92.5 -14.001 150.5h29c3.33301 -33.333 6.33301 -68.333 9 -105s6.16699 -70.334 10.5 -101.001s9.66602 -56 15.999 -76s14.833 -30 25.5 -30
s19.167 10 25.5 30s11.666 45.333 15.999 76s8 64.334 11 101.001l8.5 105l14 150.5c4 42.333 9 77.333 15 105s13.5 48.334 22.5 62.001s20.833 20.5 35.5 20.5s26.5 -6.83301 35.5 -20.5s16.5 -34.334 22.5 -62.001s11.167 -62.667 15.5 -105s8.83301 -92.5 13.5 -150.5
c3.33301 -33.333 6.33301 -68.333 9 -105s6.16699 -70.334 10.5 -101.001s9.66602 -56 15.999 -76s14.833 -30 25.5 -30s19.167 10 25.5 30s11.666 45.333 15.999 76s8 64.334 11 101.001l8.5 105l14 150.5c4 42.333 9 77.333 15 105s13.5 48.334 22.5 62.001
s20.833 20.5 35.5 20.5s26.667 -6.83301 36 -20.5s17.166 -34.334 23.499 -62.001s11.833 -62.667 16.5 -105s9.33398 -92.5 14.001 -150.5h-29l-8.5 105c-3 36.667 -6.66699 70.334 -11 101.001s-9.66602 55.834 -15.999 75.501s-14.833 29.5 -25.5 29.5
s-19 -9.83301 -25 -29.5s-11 -44.834 -15 -75.501s-7.16699 -64.334 -9.5 -101.001s-5.16602 -71.667 -8.49902 -105c-4.66699 -58 -9.33398 -108.167 -14.001 -150.5s-10.167 -77.5 -16.5 -105.5s-14.166 -48.833 -23.499 -62.5s-21.333 -20.5 -36 -20.5
s-26.667 6.83301 -36 20.5s-17.166 34.5 -23.499 62.5s-11.666 63.167 -15.999 105.5s-9.16602 92.5 -14.499 150.5l-8 105c-2.66699 36.667 -6 70.334 -10 101.001s-9 55.834 -15 75.501s-14.333 29.5 -25 29.5s-19 -9.83301 -25 -29.5s-11 -44.834 -15 -75.501
s-7.16699 -64.334 -9.5 -101.001s-5.16602 -71.667 -8.49902 -105c-4.66699 -58 -9.33398 -108.167 -14.001 -150.5s-10.167 -77.5 -16.5 -105.5s-14.166 -48.833 -23.499 -62.5s-21.333 -20.5 -36 -20.5z" />
    <glyph glyph-name="ydieresis" horiz-adv-x="475" 
d="M187 19l-172 508h120l83 -273l24 -165l28 165l81 273h109l-219 -689h-111zM330 593c-18.667 0 -34.5 6.33301 -47.5 19s-19.5 29.334 -19.5 50.001s6.5 37.5 19.5 50.5s28.833 19.5 47.5 19.5c19.333 0 35.5 -6.5 48.5 -19.5s19.5 -29.833 19.5 -50.5
s-6.5 -37.334 -19.5 -50.001s-29.167 -19 -48.5 -19zM144 593c-19.333 0 -35.5 6.33301 -48.5 19s-19.5 29.334 -19.5 50.001s6.5 37.5 19.5 50.5s29.167 19.5 48.5 19.5c18.667 0 34.5 -6.5 47.5 -19.5s19.5 -29.833 19.5 -50.5s-6.5 -37.334 -19.5 -50.001
s-28.833 -19 -47.5 -19z" />
    <glyph glyph-name="Ydieresis" horiz-adv-x="546" 
d="M215 230l-197 421h135l101 -244l31 -136l28 136l98 244h117l-186 -415v-236h-127v230zM367 712c-18.667 0 -34.5 6.33301 -47.5 19s-19.5 29.334 -19.5 50.001s6.5 37.5 19.5 50.5s28.833 19.5 47.5 19.5c19.333 0 35.5 -6.5 48.5 -19.5s19.5 -29.833 19.5 -50.5
s-6.5 -37.334 -19.5 -50.001s-29.167 -19 -48.5 -19zM181 712c-19.333 0 -35.5 6.33301 -48.5 19s-19.5 29.334 -19.5 50.001s6.5 37.5 19.5 50.5s29.167 19.5 48.5 19.5c18.667 0 34.5 -6.5 47.5 -19.5s19.5 -29.833 19.5 -50.5s-6.5 -37.334 -19.5 -50.001
s-28.833 -19 -47.5 -19z" />
    <glyph glyph-name="Acircumflex" horiz-adv-x="582" 
d="M132 0h-110l212 651h120l208 -651h-133l-33 114h-229zM309 412l-23 123l-28 -123l-66 -214h180zM241 888h92l121 -176h-110l-35 65l-25 69l-24 -69l-39 -65h-99z" />
    <glyph glyph-name="Ecircumflex" horiz-adv-x="518" 
d="M76 651h380v-102h-253v-171h215v-95h-215v-184h271v-99h-398v651zM221 888h92l121 -176h-110l-35 65l-25 69l-24 -69l-39 -65h-99z" />
    <glyph glyph-name="Aacute" horiz-adv-x="582" 
d="M132 0h-110l212 651h120l208 -651h-133l-33 114h-229zM309 412l-23 123l-28 -123l-66 -214h180zM292 876h145l-120 -164h-66z" />
    <glyph glyph-name="Edieresis" horiz-adv-x="518" 
d="M76 651h380v-102h-253v-171h215v-95h-215v-184h271v-99h-398v651zM364 712c-18.667 0 -34.5 6.33301 -47.5 19s-19.5 29.334 -19.5 50.001s6.5 37.5 19.5 50.5s28.833 19.5 47.5 19.5c19.333 0 35.5 -6.5 48.5 -19.5s19.5 -29.833 19.5 -50.5s-6.5 -37.334 -19.5 -50.001
s-29.167 -19 -48.5 -19zM178 712c-19.333 0 -35.5 6.33301 -48.5 19s-19.5 29.334 -19.5 50.001s6.5 37.5 19.5 50.5s29.167 19.5 48.5 19.5c18.667 0 34.5 -6.5 47.5 -19.5s19.5 -29.833 19.5 -50.5s-6.5 -37.334 -19.5 -50.001s-28.833 -19 -47.5 -19z" />
    <glyph glyph-name="Egrave" horiz-adv-x="518" 
d="M76 651h380v-102h-253v-171h215v-95h-215v-184h271v-99h-398v651zM126 876h145l41 -164h-66z" />
    <glyph glyph-name="Iacute" horiz-adv-x="291" 
d="M82 651h127v-651h-127v651zM138 876h145l-120 -164h-66z" />
    <glyph glyph-name="Icircumflex" horiz-adv-x="291" 
d="M83 651h127v-651h-127v651zM98 888h92l121 -176h-110l-35 65l-25 69l-24 -69l-39 -65h-99z" />
    <glyph glyph-name="Idieresis" horiz-adv-x="291" 
d="M83 651h127v-651h-127v651zM239 712c-18.667 0 -34.5 6.33301 -47.5 19s-19.5 29.334 -19.5 50.001s6.5 37.5 19.5 50.5s28.833 19.5 47.5 19.5c19.333 0 35.5 -6.5 48.5 -19.5s19.5 -29.833 19.5 -50.5s-6.5 -37.334 -19.5 -50.001s-29.167 -19 -48.5 -19zM53 712
c-19.333 0 -35.5 6.33301 -48.5 19s-19.5 29.334 -19.5 50.001s6.5 37.5 19.5 50.5s29.167 19.5 48.5 19.5c18.667 0 34.5 -6.5 47.5 -19.5s19.5 -29.833 19.5 -50.5s-6.5 -37.334 -19.5 -50.001s-28.833 -19 -47.5 -19z" />
    <glyph glyph-name="Igrave" horiz-adv-x="291" 
d="M82 651h127v-651h-127v651zM4 876h145l41 -164h-66z" />
    <glyph glyph-name="Oacute" horiz-adv-x="623" 
d="M310 -14c-47.333 0 -87.833 8.49805 -121.5 25.498s-61.334 40.833 -83.001 71.5s-37.667 66.834 -48 108.501s-15.5 86.834 -15.5 135.501s5.33301 93.5 16 134.5s27 76.5 49 106.5s50 53.333 84 70s74.333 25 121 25c47.333 0 88 -8.33301 122 -25
s61.833 -39.667 83.5 -69s37.667 -64.5 48 -105.5s15.5 -85.833 15.5 -134.5c0 -50 -5.16699 -96 -15.5 -138s-26.5 -78.167 -48.5 -108.5s-50.167 -54 -84.5 -71s-75.166 -25.5 -122.499 -25.5zM312 77.998c22.667 0 42.4971 3.83496 59.4971 11.502s31 20.5 42 38.5
s19.333 42 25 72s8.5 67.333 8.5 112v44c0 40.667 -2.66699 74.5 -8 101.5s-13.666 48.5 -24.999 64.5s-25.5 27.167 -42.5 33.5s-37.167 9.5 -60.5 9.5c-22.667 0 -42.5 -3.33301 -59.5 -10s-31.167 -18.334 -42.5 -35.001s-19.666 -38.5 -24.999 -65.5
s-8 -61.167 -8 -102.5v-43c0 -45.333 2.83301 -82.833 8.5 -112.5s14.334 -53.334 26.001 -71.001s26 -30 43 -37s36.5 -10.5 58.5 -10.5zM300.997 876h145l-120 -164h-66z" />
    <glyph glyph-name="Ocircumflex" horiz-adv-x="623" 
d="M310 -14c-47.333 0 -87.833 8.49805 -121.5 25.498s-61.334 40.833 -83.001 71.5s-37.667 66.834 -48 108.501s-15.5 86.834 -15.5 135.501s5.33301 93.5 16 134.5s27 76.5 49 106.5s50 53.333 84 70s74.333 25 121 25c47.333 0 88 -8.33301 122 -25
s61.833 -39.667 83.5 -69s37.667 -64.5 48 -105.5s15.5 -85.833 15.5 -134.5c0 -50 -5.16699 -96 -15.5 -138s-26.5 -78.167 -48.5 -108.5s-50.167 -54 -84.5 -71s-75.166 -25.5 -122.499 -25.5zM312 77.998c22.667 0 42.4971 3.83496 59.4971 11.502s31 20.5 42 38.5
s19.333 42 25 72s8.5 67.333 8.5 112v44c0 40.667 -2.66699 74.5 -8 101.5s-13.666 48.5 -24.999 64.5s-25.5 27.167 -42.5 33.5s-37.167 9.5 -60.5 9.5c-22.667 0 -42.5 -3.33301 -59.5 -10s-31.167 -18.334 -42.5 -35.001s-19.666 -38.5 -24.999 -65.5
s-8 -61.167 -8 -102.5v-43c0 -45.333 2.83301 -82.833 8.5 -112.5s14.334 -53.334 26.001 -71.001s26 -30 43 -37s36.5 -10.5 58.5 -10.5zM259.997 888h92l121 -176h-110l-35 65l-25 69l-24 -69l-39 -65h-99z" />
    <glyph glyph-name="apple" horiz-adv-x="594" 
d="M75 -14c-14.667 0 -26.6689 6.83301 -36.002 20.5s-17.166 34.5 -23.499 62.5s-11.833 63.167 -16.5 105.5s-9.33398 92.5 -14.001 150.5h29c3.33301 -33.333 6.33301 -68.333 9 -105s6.16699 -70.334 10.5 -101.001s9.66602 -56 15.999 -76s14.833 -30 25.5 -30
s19.167 10 25.5 30s11.666 45.333 15.999 76s8 64.334 11 101.001l8.5 105l14 150.5c4 42.333 9 77.333 15 105s13.5 48.334 22.5 62.001s20.833 20.5 35.5 20.5s26.5 -6.83301 35.5 -20.5s16.5 -34.334 22.5 -62.001s11.167 -62.667 15.5 -105s8.83301 -92.5 13.5 -150.5
c3.33301 -33.333 6.33301 -68.333 9 -105s6.16699 -70.334 10.5 -101.001s9.66602 -56 15.999 -76s14.833 -30 25.5 -30s19.167 10 25.5 30s11.666 45.333 15.999 76s8 64.334 11 101.001l8.5 105l14 150.5c4 42.333 9 77.333 15 105s13.5 48.334 22.5 62.001
s20.833 20.5 35.5 20.5s26.667 -6.83301 36 -20.5s17.166 -34.334 23.499 -62.001s11.833 -62.667 16.5 -105s9.33398 -92.5 14.001 -150.5h-29l-8.5 105c-3 36.667 -6.66699 70.334 -11 101.001s-9.66602 55.834 -15.999 75.501s-14.833 29.5 -25.5 29.5
s-19 -9.83301 -25 -29.5s-11 -44.834 -15 -75.501s-7.16699 -64.334 -9.5 -101.001s-5.16602 -71.667 -8.49902 -105c-4.66699 -58 -9.33398 -108.167 -14.001 -150.5s-10.167 -77.5 -16.5 -105.5s-14.166 -48.833 -23.499 -62.5s-21.333 -20.5 -36 -20.5
s-26.667 6.83301 -36 20.5s-17.166 34.5 -23.499 62.5s-11.666 63.167 -15.999 105.5s-9.16602 92.5 -14.499 150.5l-8 105c-2.66699 36.667 -6 70.334 -10 101.001s-9 55.834 -15 75.501s-14.333 29.5 -25 29.5s-19 -9.83301 -25 -29.5s-11 -44.834 -15 -75.501
s-7.16699 -64.334 -9.5 -101.001s-5.16602 -71.667 -8.49902 -105c-4.66699 -58 -9.33398 -108.167 -14.001 -150.5s-10.167 -77.5 -16.5 -105.5s-14.166 -48.833 -23.499 -62.5s-21.333 -20.5 -36 -20.5z" />
    <glyph glyph-name="Ograve" horiz-adv-x="623" 
d="M310 -14c-47.333 0 -87.833 8.49805 -121.5 25.498s-61.334 40.833 -83.001 71.5s-37.667 66.834 -48 108.501s-15.5 86.834 -15.5 135.501s5.33301 93.5 16 134.5s27 76.5 49 106.5s50 53.333 84 70s74.333 25 121 25c47.333 0 88 -8.33301 122 -25
s61.833 -39.667 83.5 -69s37.667 -64.5 48 -105.5s15.5 -85.833 15.5 -134.5c0 -50 -5.16699 -96 -15.5 -138s-26.5 -78.167 -48.5 -108.5s-50.167 -54 -84.5 -71s-75.166 -25.5 -122.499 -25.5zM312 77.998c22.667 0 42.4971 3.83496 59.4971 11.502s31 20.5 42 38.5
s19.333 42 25 72s8.5 67.333 8.5 112v44c0 40.667 -2.66699 74.5 -8 101.5s-13.666 48.5 -24.999 64.5s-25.5 27.167 -42.5 33.5s-37.167 9.5 -60.5 9.5c-22.667 0 -42.5 -3.33301 -59.5 -10s-31.167 -18.334 -42.5 -35.001s-19.666 -38.5 -24.999 -65.5
s-8 -61.167 -8 -102.5v-43c0 -45.333 2.83301 -82.833 8.5 -112.5s14.334 -53.334 26.001 -71.001s26 -30 43 -37s36.5 -10.5 58.5 -10.5zM166.997 876h145l41 -164h-66z" />
    <glyph glyph-name="Uacute" horiz-adv-x="616" 
d="M412 651l128.003 -0.000976562v-651h-84l-30 67l-42 -61c-9.33301 -3.33301 -23.5 -7.5 -42.5 -12.5s-42.167 -7.5 -69.5 -7.5c-30 0 -57.333 4.5 -82 13.5s-45.834 23.833 -63.501 44.5s-31.167 47.334 -40.5 80.001s-14 72.667 -14 120v407h127v-437
c0 -50.667 7.66699 -85.5 23 -104.5s40.666 -28.5 75.999 -28.5c27.333 0 49.666 3 66.999 9s33 12.667 47 20v541zM296.003 875.999h145l-120 -164h-66z" />
    <glyph glyph-name="Ucircumflex" horiz-adv-x="616" 
d="M412 651l128.003 -0.000976562v-651h-84l-30 67l-42 -61c-9.33301 -3.33301 -23.5 -7.5 -42.5 -12.5s-42.167 -7.5 -69.5 -7.5c-30 0 -57.333 4.5 -82 13.5s-45.834 23.833 -63.501 44.5s-31.167 47.334 -40.5 80.001s-14 72.667 -14 120v407h127v-437
c0 -50.667 7.66699 -85.5 23 -104.5s40.666 -28.5 75.999 -28.5c27.333 0 49.666 3 66.999 9s33 12.667 47 20v541zM255.003 887.999h92l121 -176h-110l-35 65l-25 69l-24 -69l-39 -65h-99z" />
    <glyph glyph-name="Ugrave" horiz-adv-x="616" 
d="M412 651l128.003 -0.000976562v-651h-84l-30 67l-42 -61c-9.33301 -3.33301 -23.5 -7.5 -42.5 -12.5s-42.167 -7.5 -69.5 -7.5c-30 0 -57.333 4.5 -82 13.5s-45.834 23.833 -63.501 44.5s-31.167 47.334 -40.5 80.001s-14 72.667 -14 120v407h127v-437
c0 -50.667 7.66699 -85.5 23 -104.5s40.666 -28.5 75.999 -28.5c27.333 0 49.666 3 66.999 9s33 12.667 47 20v541zM167.003 875.999h145l41 -164h-66z" />
    <glyph glyph-name="Euro" horiz-adv-x="547" 
d="M30 360v77.9971h75c6 33.333 15.333 63.833 28 91.5s29 51.334 49 71.001s44.333 35 73 46s62 16.5 100 16.5c34 0 63.5 -3.16699 88.5 -9.5s48.167 -14.166 69.5 -23.499l-17 -96l-40 12.5c-12 3.66699 -23.5 6.66699 -34.5 9s-22 4.16602 -33 5.49902
s-23.167 2 -36.5 2c-16 0 -30.667 -2 -44 -6s-25 -10.667 -35 -20s-18.5 -22.166 -25.5 -38.499s-12.5 -36.5 -16.5 -60.5h174v-78h-179v-8v-42v-25h179v-78h-172c8.66699 -47.333 23.167 -80.333 43.5 -99s46.166 -28 77.499 -28c28.667 0 53.334 3.66699 74.001 11
s44.334 17 71.001 29l26 -90c-20 -11.333 -44.333 -21.5 -73 -30.5s-62.334 -13.5 -101.001 -13.5c-37.333 0 -69.833 5.33301 -97.5 16s-51.5 25.834 -71.5 45.501s-36.167 43 -48.5 70s-21.5 56.833 -27.5 89.5h-76v78h67c-0.666992 7.33301 -1 14.333 -1 21v21v16
c0 6 0.333008 11.667 1 17h-67z" />
    <glyph glyph-name="Eth" horiz-adv-x="622" 
d="M17 279v90.999h69v281h216c94.667 0 165 -28 211 -84s69 -136 69 -240c0 -107.333 -23.833 -188.666 -71.5 -243.999s-120.167 -83 -217.5 -83h-207v279h-69zM323 369.999l-0.000976562 -91.001h-110v-182h75c26.667 0 49.834 2.66699 69.501 8s36.167 15.833 49.5 31.5
s23.333 37.5 30 65.5s10 64.667 10 110v39c0 41.333 -3.33301 74.833 -10 100.5s-16.667 45.834 -30 60.501s-30 24.667 -50 30s-43.667 8 -71 8h-73v-180h110z" />
    </font>
</defs>
</svg>
