<?xml version="1.0" standalone="no"?>
<!DOCTYPE svg PUBLIC "-//W3C//DTD SVG 1.1//EN" "http://www.w3.org/Graphics/SVG/1.1/DTD/svg11.dtd" >
<svg>
<metadata>
Created by FontForge 20090914 at Wed Jul  2 02:36:19 2014
 By www-data
Copyright (c) The Font Bureau, Inc, 2003. All rights reserved.
</metadata>
<defs>
<font id="Amplitude-Regular" horiz-adv-x="500" >
  <font-face 
    font-family="Amplitude-Regular"
    font-weight="500"
    font-stretch="normal"
    units-per-em="1000"
    panose-1="2 0 6 6 4 0 0 2 0 4"
    ascent="800"
    descent="-200"
    x-height="524"
    cap-height="651"
    bbox="-50.998 -240 1163 888"
    underline-thickness="20"
    underline-position="-113"
    unicode-range="U+0020-U+00FB"
  />
<missing-glyph 
 />
    <glyph glyph-name=".notdef" 
 />
    <glyph glyph-name="space" unicode=" " horiz-adv-x="229" 
 />
    <glyph glyph-name="space" unicode="&#xa0;" horiz-adv-x="229" 
 />
    <glyph glyph-name="exclam" unicode="!" horiz-adv-x="265" 
d="M81 444v248h104v-248l-30 -248h-44zM132 -11c-18.667 0 -34.834 6.33301 -48.501 19s-20.5 29.667 -20.5 51c0 20.667 6.83301 37.5 20.5 50.5s29.834 19.5 48.501 19.5c19.333 0 35.833 -6.5 49.5 -19.5s20.5 -29.833 20.5 -50.5c0 -21.333 -6.83301 -38.333 -20.5 -51
s-30.167 -19 -49.5 -19z" />
    <glyph glyph-name="quotedbl" unicode="&#x22;" horiz-adv-x="391" 
d="M231 567v125h100v-125l-32 -161h-36zM60 567v125h100v-125l-31 -161h-37z" />
    <glyph glyph-name="numbersign" unicode="#" horiz-adv-x="585" 
d="M138 167h-100l12 80h100l27 173h-99l12 80h99l24 151h64l-24 -151h131l24 151h64l-24 -151h99l-12 -80h-100l-26 -173h98l-12 -80h-99l-25 -167h-64l26 167h-132l-25 -167h-64zM347 244l27 179h-136l-27 -179h136z" />
    <glyph glyph-name="dollar" unicode="$" horiz-adv-x="496" 
d="M331 657c19.333 -3.33301 36.6699 -7.33398 52.0029 -12.001s29.666 -9.66699 42.999 -15l-13 -74l-47 14.5c-14.667 4.33301 -30.667 7.5 -48 9.5l-36 -214c26.667 -7.33301 50.5 -15.5 71.5 -24.5s38.667 -20.333 53 -34s25.333 -30.834 33 -51.501s11.5 -46 11.5 -76
c0 -135.333 -77.333 -200 -232 -194l-23 -139l-58 11l22 134c-25.333 4 -47.5 9.33301 -66.5 16s-36.5 14.667 -52.5 24l21 67c19.333 -8 37.666 -15.167 54.999 -21.5s35.666 -11.166 54.999 -14.499l39 231c-26 7.33301 -49.167 15.333 -69.5 24
s-37.5 19.834 -51.5 33.501s-24.667 30.667 -32 51s-11 45.833 -11 76.5c0 60 17.333 105.667 52 137s84.667 47 150 47h23l19 114l58 -11l-18 -109v0zM252.004 584.999c-43.333 0 -74 -7.33105 -92 -21.998s-27 -40.334 -27 -77.001c0 -14.667 1.16699 -27.167 3.5 -37.5
s7 -19.5 14 -27.5s16.5 -15 28.5 -21s27.333 -12 46 -18l2 9c1.33301 6 2.66602 13.667 3.99902 23s3 20.166 5 32.499l6 37.5c4.66699 30 10.334 63.667 17.001 101h-7zM231.004 58.001c22 0 41.166 1.83105 57.499 5.49805s30 9.83398 41 18.501s19.167 20 24.5 34
s8 32 8 54c0 14.667 -1.33301 27.334 -4 38.001s-7.5 20.167 -14.5 28.5s-16.667 15.833 -29 22.5s-28.166 13 -47.499 19l-36 -220v0z" />
    <glyph glyph-name="percent" unicode="%" horiz-adv-x="834" 
d="M193 250c-26.667 0 -49.835 5.66406 -69.502 16.9971s-36 26.5 -49 45.5s-22.5 41 -28.5 66s-9 51.5 -9 79.5c0 26.667 3.16699 52.334 9.5 77.001s16 46.5 29 65.5s29.5 34.167 49.5 45.5s43.333 17 70 17c27.333 0 50.833 -5.66699 70.5 -17s35.834 -26.333 48.501 -45
s22.167 -40.167 28.5 -64.5s9.5 -49.833 9.5 -76.5c0 -28 -3.16699 -54.667 -9.5 -80s-16.166 -47.666 -29.499 -66.999s-29.833 -34.666 -49.5 -45.999s-43.167 -17 -70.5 -17zM566.999 650.997h69l-369 -651h-68zM637.999 -14.0029
c-26.667 0 -49.832 5.66406 -69.499 16.9971s-35.834 26.5 -48.501 45.5s-22.167 41 -28.5 66s-9.5 51.5 -9.5 79.5c0 26.667 3.16699 52.334 9.5 77.001s16 46.5 29 65.5s29.5 34.167 49.5 45.5s43.333 17 70 17c27.333 0 50.833 -5.66699 70.5 -17s36 -26.333 49 -45
s22.5 -40.167 28.5 -64.5s9 -49.833 9 -76.5c0 -28 -3.16699 -54.667 -9.5 -80s-16 -47.666 -29 -66.999s-29.5 -34.666 -49.5 -45.999s-43.667 -17 -71 -17zM194.001 308.994c22 0 39.668 8.66699 53.001 26s20 50 20 98v46c0 23.333 -1.66699 42.833 -5 58.5
s-8.33301 28.167 -15 37.5s-14.334 15.833 -23.001 19.5s-18.667 5.5 -30 5.5s-21.5 -2 -30.5 -6s-16.833 -10.667 -23.5 -20s-11.667 -21.833 -15 -37.5s-5 -35.167 -5 -58.5v-46c0 -24 1.66699 -44 5 -60s8.33301 -28.667 15 -38s14.5 -15.833 23.5 -19.5
s19.167 -5.5 30.5 -5.5zM639.002 44.9941c22.667 0 40.667 8.66699 54 26s20 50 20 98v46c0 23.333 -1.66699 42.833 -5 58.5s-8.33301 28.167 -15 37.5s-14.5 15.833 -23.5 19.5s-19.167 5.5 -30.5 5.5c-10.667 0 -20.5 -2 -29.5 -6s-16.833 -10.667 -23.5 -20
s-11.667 -21.833 -15 -37.5s-5 -35.167 -5 -58.5v-46c0 -24 1.66699 -44 5 -60s8.33301 -28.667 15 -38s14.5 -15.833 23.5 -19.5s18.833 -5.5 29.5 -5.5z" />
    <glyph glyph-name="ampersand" unicode="&#x26;" horiz-adv-x="602" 
d="M425 193c18.667 47.333 32.333 106.666 41 177.999h80l-12 -70c-5.33301 -32 -12.833 -63.5 -22.5 -94.5s-21.167 -58.167 -34.5 -81.5l94 -125h-112l-57 76l-27 -51c-9.33301 -7.33301 -24.166 -15.666 -44.499 -24.999s-48.5 -14 -84.5 -14
c-30.667 0 -58.834 4.16699 -84.501 12.5s-47.834 20.666 -66.501 36.999s-33 36.333 -43 60s-15 50.834 -15 81.501c0 28.667 4 53.5 12 74.5s18.667 39.167 32 54.5s28.333 28.666 45 39.999s33.667 21.333 51 30l-2 2c-25.333 34 -42.5 64.167 -51.5 90.5
s-13.5 53.5 -13.5 81.5c0 24 4.33301 45.5 13 64.5s20.334 35 35.001 48s32.167 22.833 52.5 29.5s41.833 10 64.5 10c20 0 39.5 -3 58.5 -9s35.667 -15.167 50 -27.5s26 -27.666 35 -45.999s13.5 -39.833 13.5 -64.5c0 -32.667 -4.66699 -58.5 -14 -77.5
s-20.333 -36.167 -33 -51.5l-100 -48zM263.999 405c26.667 14.667 47.832 32.001 63.499 52.001s23.5 48.333 23.5 85c0 32.667 -6.83301 55 -20.5 67s-31.167 18 -52.5 18s-39.333 -5.83301 -54 -17.5s-22 -31.5 -22 -59.5c0 -12 0.666992 -23 2 -33
s3.83301 -19.833 7.5 -29.5s8.83398 -19.834 15.501 -30.501s15 -22.667 25 -36l12 -16v0zM210.997 331.001c-25.333 -16.667 -44.001 -35.5 -56.001 -56.5s-18 -48.5 -18 -82.5v-13c0 -43.333 10.167 -74.5 30.5 -93.5s49.5 -28.5 87.5 -28.5
c48.667 0 89.334 17.667 122.001 53z" />
    <glyph glyph-name="quoteright" unicode="'" horiz-adv-x="243" 
d="M62 449l43.001 128.999l-33 7c-4.66699 4.66699 -9.16699 10.667 -13.5 18s-6.5 17 -6.5 29c0 21.333 6.66699 38.333 20 51s29.666 19 48.999 19s35.833 -6.33301 49.5 -19s20.5 -29.334 20.5 -50.001c0 -17.333 -3.5 -33.666 -10.5 -48.999
s-15.5 -30.666 -25.5 -45.999l-65 -102z" />
    <glyph glyph-name="parenleft" unicode="(" horiz-adv-x="311" 
d="M217 -100c-14 13.333 -30.334 32.166 -49.001 56.499s-36.5 53.833 -53.5 88.5s-31.333 74.667 -43 120s-17.5 95.666 -17.5 150.999c0 53.333 5.83301 101.833 17.5 145.5s25.667 82.334 42 116.001s33.833 62.334 52.5 86.001s35 41.834 49 54.501h76
c-22 -28.667 -41.5 -57.334 -58.5 -86.001s-31.5 -58.5 -43.5 -89.5s-21.167 -64 -27.5 -99s-9.5 -73.167 -9.5 -114.5v-26c0 -41.333 3 -79.5 9 -114.5s15 -68.5 27 -100.5s26.833 -63.167 44.5 -93.5s37.834 -61.833 60.501 -94.5h-76v0z" />
    <glyph glyph-name="parenright" unicode=")" horiz-adv-x="311" 
d="M18 -100c22.667 32.667 42.667 64.167 60 94.5s32 61.5 44 93.5s21 65.5 27 100.5s9 73.167 9 114.5v26c0 41.333 -3.16699 79.5 -9.5 114.5s-15.333 68 -27 99s-26 60.833 -43 89.5s-36.5 57.334 -58.5 86.001h76c14 -12.667 30.333 -30.834 49 -54.501
s36.167 -52.334 52.5 -86.001s30.333 -72.334 42 -116.001s17.5 -92.167 17.5 -145.5c0 -55.333 -5.83301 -105.666 -17.5 -150.999s-26 -85.333 -43 -120s-34.833 -64.167 -53.5 -88.5s-35 -43.166 -49 -56.499h-76v0z" />
    <glyph glyph-name="asterisk" unicode="*" horiz-adv-x="423" 
d="M82 408l34 48l75 60l-96 6l-56 17l22 72l57 -18l81 -53l-25 94v58h75v-58l-25 -94l81 53l56 18l23 -72l-56 -17l-96 -6l74 -60l35 -48l-60 -44l-35 47l-35 90l-34 -90l-35 -47z" />
    <glyph glyph-name="plus" unicode="+" horiz-adv-x="497" 
d="M208 266h-154v77h154v167h81v-167h153v-77h-153v-167h-81v167z" />
    <glyph glyph-name="comma" unicode="," horiz-adv-x="252" 
d="M65 -124l45 129.999l-38 9c-4.66699 4.66699 -9 10.834 -13 18.501s-6 17.167 -6 28.5c0 22.667 7.16699 40.667 21.5 54s31.5 20 51.5 20c20.667 0 38.167 -6.83301 52.5 -20.5s21.5 -31.167 21.5 -52.5c0 -18.667 -4.5 -36.5 -13.5 -53.5s-18.5 -33.5 -28.5 -49.5
l-63 -98z" />
    <glyph glyph-name="hyphen" unicode="-" horiz-adv-x="314" 
d="M53 341h208v-87h-208v87z" />
    <glyph glyph-name="period" unicode="." horiz-adv-x="251" 
d="M126 -11c-20 0 -37.333 6.83301 -52 20.5s-22 31.167 -22 52.5c0 22 7.33301 39.833 22 53.5s32 20.5 52 20.5s37.167 -6.83301 51.5 -20.5s21.5 -31.5 21.5 -53.5c0 -21.333 -7.16699 -38.833 -21.5 -52.5s-31.5 -20.5 -51.5 -20.5z" />
    <glyph glyph-name="slash" unicode="/" horiz-adv-x="406" 
d="M312 718h78l-300 -818h-78z" />
    <glyph glyph-name="zero" unicode="0" horiz-adv-x="571" 
d="M284 -14c-40.667 0 -75.8389 8.16602 -105.506 24.499s-54.167 39.5 -73.5 69.5s-33.666 66 -42.999 108s-14 88.333 -14 139c0 49.333 4.83301 94.5 14.5 135.5s24.334 76.333 44.001 106s44.334 52.834 74.001 69.501s64.834 25 105.501 25
s75.834 -8.16699 105.501 -24.5s54.334 -39.166 74.001 -68.499s34.167 -64.5 43.5 -105.5s14 -86.167 14 -135.5c0 -52.667 -4.83301 -100.334 -14.5 -143.001s-24.167 -78.667 -43.5 -108s-44 -52 -74 -68s-65.667 -24 -107 -24zM285.995 58.999
c23.333 0 43.501 4.33496 60.501 13.002s31 23.167 42 43.5s19.167 47 24.5 80s8 73.5 8 121.5v34c0 42.667 -2.5 79 -7.5 109s-13 54.333 -24 73s-25.167 32.167 -42.5 40.5s-38 12.5 -62 12.5c-48 0 -82.5 -18.333 -103.5 -55s-31.5 -98 -31.5 -184v-33
c0 -48 2.66699 -88.333 8 -121s13.5 -58.834 24.5 -78.501s25.167 -33.834 42.5 -42.501s37.666 -13 60.999 -13z" />
    <glyph glyph-name="one" unicode="1" horiz-adv-x="388" 
d="M58 66h95v468h-95v43l140 74h52v-585h91v-66h-283v66z" />
    <glyph glyph-name="two" unicode="2" horiz-adv-x="475" 
d="M41 75l5.99805 22.001c6 23.333 14.833 44.666 26.5 63.999s24.834 37.333 39.501 54s30.334 32.5 47.001 47.5l50 44.5l47.5 43c13.667 12.667 25.334 25 35.001 37s16.834 24.333 21.501 37s7 27 7 43v12c0 20.667 -2.16699 37.667 -6.5 51s-10.833 24 -19.5 32
s-19.5 13.5 -32.5 16.5s-28.167 4.5 -45.5 4.5c-29.333 0 -54.833 -3.5 -76.5 -10.5s-44.834 -15.833 -69.501 -26.5l-17 70c18.667 10.667 42 21.167 70 31.5s64.333 15.5 109 15.5c34 0 63.167 -4.66699 87.5 -14s44.166 -22 59.499 -38s26.666 -35 33.999 -57
s11 -46 11 -72c0 -27.333 -4.33301 -51.833 -13 -73.5s-20.5 -41.5 -35.5 -59.5s-32.5 -35.167 -52.5 -51.5l-63 -50.5l-45.5 -36.5c-14.333 -11.667 -27.166 -24 -38.499 -37s-21 -27 -29 -42s-14.333 -32.167 -19 -51.5l-3 -15l113 13h179v-78h-377v75z" />
    <glyph glyph-name="three" unicode="3" horiz-adv-x="484" 
d="M221 -14c-46 0 -84.3369 4.83203 -115.004 14.499s-55 20.167 -73 31.5l17 66l37.5 -15c11.667 -4.66699 23.334 -8.5 35.001 -11.5s23.834 -5.33301 36.501 -7s27 -2.5 43 -2.5c46 0 79.833 8.83301 101.5 26.5s32.5 47.167 32.5 88.5v12
c0 43.333 -11.667 73.666 -35 90.999s-60.666 26 -111.999 26h-53v69h41c54 0 91.667 8 113 24s32 42.667 32 80v8c0 38 -9.5 63.833 -28.5 77.5s-50.167 20.5 -93.5 20.5c-14 0 -26.667 -0.666992 -38 -2s-22.166 -3.16602 -32.499 -5.49902s-21 -5.16602 -32 -8.49902
l-36.5 -11l-11 70c17.333 8 39.5 15.833 66.5 23.5s59.833 11.5 98.5 11.5c36 0 67 -4.33301 93 -13s47.5 -20.5 64.5 -35.5s29.5 -32.833 37.5 -53.5s12 -43 12 -67c0 -44.667 -11.5 -78 -34.5 -100s-56.5 -38.333 -100.5 -49c48 -9.33301 85.5 -27.5 112.5 -54.5
s40.5 -66.167 40.5 -117.5c0 -28 -5 -53.5 -15 -76.5s-24.5 -42.667 -43.5 -59s-42 -29 -69 -38s-57.5 -13.5 -91.5 -13.5z" />
    <glyph glyph-name="four" unicode="4" horiz-adv-x="562" 
d="M332 158h-297v49l268 444h126v-420h84v-73h-84v-158h-97v158zM333 231v221l8 155l-60 -132l-147 -244h199z" />
    <glyph glyph-name="five" unicode="5" horiz-adv-x="477" 
d="M218 -14c-47.333 0 -85.8301 5.16406 -115.497 15.4971s-53.5 21.5 -71.5 33.5l18 69l38.5 -17c11.667 -5.33301 23.167 -9.66602 34.5 -12.999s23.166 -6 35.499 -8s25.833 -3 40.5 -3c43.333 0 76.166 9.83301 98.499 29.5s33.5 53.834 33.5 102.501v13
c0 26 -2.16699 47.667 -6.5 65s-10.833 31 -19.5 41s-19.167 17 -31.5 21s-26.166 6 -41.499 6c-27.333 0 -47.833 -4.33301 -61.5 -13s-25.167 -19.667 -34.5 -33l-73 11l15 345h324v-79h-249l-6 -132l-16 -88c14 14.667 30.667 27.334 50 38.001s45 16 77 16
c24 0 46.667 -4 68 -12s40.166 -20.333 56.499 -37s29.166 -37.834 38.499 -63.501s14 -56.5 14 -92.5c0 -31.333 -5.16699 -60.166 -15.5 -86.499s-25 -49 -44 -68s-41.667 -33.833 -68 -44.5s-55.833 -16 -88.5 -16z" />
    <glyph glyph-name="six" unicode="6" horiz-adv-x="542" 
d="M236 406c8.66699 3.33301 18.1699 6.16797 28.5029 8.50098s22.5 3.5 36.5 3.5c60 0 107.833 -17.833 143.5 -53.5s53.5 -87.167 53.5 -154.5c0 -70.667 -19.5 -125.667 -58.5 -165s-93.833 -59 -164.5 -59c-34 0 -64.833 5.83301 -92.5 17.5s-51.334 28.667 -71.001 51
s-35 50.166 -46 83.499s-16.5 72 -16.5 116c0 48 7.66699 92.167 23 132.5s35.166 76.833 59.499 109.5s51.333 62 81 88s58.834 48.333 87.501 67h132c-31.333 -19.333 -61.833 -40.333 -91.5 -63s-56.834 -46.667 -81.501 -72s-45.834 -51.833 -63.501 -79.5
s-30.5 -56.167 -38.5 -85.5zM150.003 308.002c-0.666992 -2.66699 -1 -5.33301 -1 -8v-9v-42c0 -68 10.333 -117 31 -147s53 -45 97 -45c41.333 0 71.666 10.5 90.999 31.5s29 56.5 29 106.5v23c0 49.333 -10.167 83.333 -30.5 102s-51.166 28 -92.499 28
c-26 0 -48.5 -3.83301 -67.5 -11.5s-37.833 -17.167 -56.5 -28.5z" />
    <glyph glyph-name="seven" unicode="7" horiz-adv-x="472" 
d="M307 501l55 78l-95 -7h-237v79h402v-93l-239 -558h-102z" />
    <glyph glyph-name="eight" unicode="8" horiz-adv-x="535" 
d="M185 329c-32.667 17.333 -59.832 39.1689 -81.499 65.502s-32.5 60.166 -32.5 101.499c0 23.333 4.33301 45.166 13 65.499s21.5 38 38.5 53s37.833 26.833 62.5 35.5s52.667 13 84 13c33.333 0 62.166 -4.33301 86.499 -13s44.333 -20.334 60 -35.001
s27.334 -31.5 35.001 -50.5s11.5 -39.167 11.5 -60.5c0 -22.667 -2.83301 -42.334 -8.5 -59.001s-14.5 -32.667 -26.5 -48l-89 -44c20.667 -8 40.334 -17.167 59.001 -27.5s35.167 -22.5 49.5 -36.5s25.666 -30.5 33.999 -49.5s12.5 -41.833 12.5 -68.5
c0 -27.333 -5 -52.333 -15 -75s-24.667 -42.167 -44 -58.5s-43 -29 -71 -38s-60 -13.5 -96 -13.5c-38 0 -71 4.33301 -99 13s-51.333 21 -70 37s-32.667 35 -42 57s-14 46.333 -14 73c0 28.667 5.16699 52.834 15.5 72.501s23.166 36.834 38.499 51.501l89 39v0z
M298.002 372.003c15.333 9.33301 28.001 18.5 38.001 27.5s17.833 18.333 23.5 28s9.5 20 11.5 31s3 23.167 3 36.5v6c0 27.333 -7.66699 49 -23 65s-42.666 24 -81.999 24c-38 0 -64.167 -8.33301 -78.5 -25s-21.5 -37.667 -21.5 -63v-6c0 -15.333 2.33301 -28.833 7 -40.5
s12.167 -22.167 22.5 -31.5s23.666 -18 39.999 -26s36.166 -16.667 59.499 -26zM224.003 307.003c-32 -18 -54.668 -37 -68.001 -57s-20 -44 -20 -72v-14c0 -72.667 43.333 -109 130 -109c42 0 73.333 9.5 94 28.5s31 45.5 31 79.5v15c0 15.333 -3 28.333 -9 39
s-15.667 20.667 -29 30s-30.666 18.5 -51.999 27.5z" />
    <glyph glyph-name="nine" unicode="9" horiz-adv-x="541" 
d="M304 241c-8 -3.33301 -17.168 -6.1709 -27.501 -8.50391s-22.5 -3.5 -36.5 -3.5c-60 0 -107.833 18.167 -143.5 54.5s-53.5 88.166 -53.5 155.499c0 34 5 64.833 15 92.5s24.667 51.167 44 70.5s42.833 34.333 70.5 45s58.834 16 93.501 16
c33.333 0 63.833 -5.5 91.5 -16.5s51.5 -27.667 71.5 -50s35.5 -50.166 46.5 -83.499s16.5 -72.666 16.5 -117.999c0 -48 -7.83301 -92 -23.5 -132s-35.667 -76.333 -60 -109s-51.333 -61.667 -81 -87s-58.5 -47.666 -86.5 -66.999h-133c32 20 62.833 41.167 92.5 63.5
s56.667 45.833 81 70.5s45.333 50.334 63 77.001s30.5 54.334 38.5 83.001zM390.999 332.995c0.666992 4 0.999023 7.99805 0.999023 11.998v13v42c0 68.667 -10.167 117 -30.5 145s-52.833 42 -97.5 42c-41.333 0 -71.666 -10 -90.999 -30s-29 -55 -29 -105v-23
c0 -49.333 10 -84.166 30 -104.499s51 -30.5 93 -30.5c25.333 0 47.5 3.83301 66.5 11.5s38.167 16.834 57.5 27.501z" />
    <glyph glyph-name="colon" unicode=":" horiz-adv-x="259" 
d="M129 291c-19.333 0 -36.333 6.83301 -51 20.5s-22 31.167 -22 52.5c0 22 7.33301 39.833 22 53.5s31.667 20.5 51 20.5c20.667 0 38.167 -6.83301 52.5 -20.5s21.5 -31.5 21.5 -53.5c0 -21.333 -7.16699 -38.833 -21.5 -52.5s-31.833 -20.5 -52.5 -20.5zM129 -11
c-19.333 0 -36.333 6.83301 -51 20.5s-22 31.167 -22 52.5c0 22 7.33301 39.833 22 53.5s31.667 20.5 51 20.5c20.667 0 38.167 -6.83301 52.5 -20.5s21.5 -31.5 21.5 -53.5c0 -21.333 -7.16699 -38.833 -21.5 -52.5s-31.833 -20.5 -52.5 -20.5z" />
    <glyph glyph-name="semicolon" unicode=";" horiz-adv-x="259" 
d="M129 291c-19.333 0 -36.333 6.83301 -51 20.5s-22 31.167 -22 52.5c0 22 7.33301 39.833 22 53.5s31.667 20.5 51 20.5c20.667 0 38.167 -6.83301 52.5 -20.5s21.5 -31.5 21.5 -53.5c0 -21.333 -7.16699 -38.833 -21.5 -52.5s-31.833 -20.5 -52.5 -20.5zM69 -124
l45 129.999l-38 9c-4.66699 4.66699 -9 10.834 -13 18.501s-6 17.167 -6 28.5c0 22.667 7.16699 40.667 21.5 54s31.5 20 51.5 20c20.667 0 38.167 -6.83301 52.5 -20.5s21.5 -31.167 21.5 -52.5c0 -18.667 -4.5 -36.5 -13.5 -53.5s-18.5 -33.5 -28.5 -49.5l-63 -98z" />
    <glyph glyph-name="less" unicode="&#x3c;" horiz-adv-x="430" 
d="M44 243v87l335 162v-93l-196 -86l-94 -27l94 -27l196 -89v-87z" />
    <glyph glyph-name="equal" unicode="=" horiz-adv-x="471" 
d="M54 429h362v-76h-362v76zM54 255h362v-75h-362v75z" />
    <glyph glyph-name="greater" unicode="&#x3e;" horiz-adv-x="430" 
d="M51 176l196 86l94 27l-94 27l-196 88v88l335 -160v-87l-335 -162v93z" />
    <glyph glyph-name="question" unicode="?" horiz-adv-x="433" 
d="M127 310c-2.66699 19.333 -1.16992 34.001 4.49707 44.001s19.167 19 40.5 27c23.333 7.33301 42.333 14.333 57 21s26 14.667 34 24s13.5 20.666 16.5 33.999s4.5 30.333 4.5 51v10c0 19.333 -1.66699 35.5 -5 48.5s-9.16602 23.333 -17.499 31
s-19.166 13.167 -32.499 16.5s-30 5 -50 5c-25.333 0 -48.333 -2.5 -69 -7.5s-44.334 -12.167 -71.001 -21.5l-14 70c17.333 9.33301 40.833 18.166 70.5 26.499s62.834 12.5 99.501 12.5c62.667 0 110.5 -15.167 143.5 -45.5s49.5 -75.166 49.5 -134.499
c0 -30.667 -4.16699 -57 -12.5 -79s-20.166 -40.5 -35.499 -55.5s-34 -27.333 -56 -37s-46.667 -17.5 -74 -23.5v-131h-69zM177.997 -10.999c-18.667 0 -35 6.33301 -49 19s-21 29.667 -21 51c0 20.667 7 37.5 21 50.5s30.333 19.5 49 19.5c19.333 0 35.833 -6.5 49.5 -19.5
s20.5 -29.833 20.5 -50.5c0 -21.333 -6.83301 -38.333 -20.5 -51s-30.167 -19 -49.5 -19z" />
    <glyph glyph-name="at" unicode="@" horiz-adv-x="776" 
d="M398 -146c-122 0 -211.665 33.167 -268.998 99.5s-86 166.166 -86 299.499c0 131.333 29.5 230.666 88.5 297.999s149.833 101 272.5 101c61.333 0 113 -8.33301 155 -25s75.833 -40 101.5 -70s44.167 -65.833 55.5 -107.5s17 -87.834 17 -138.501
c0 -100.667 -16 -176.167 -48 -226.5s-85 -75.5 -159 -75.5c-14.667 0 -26.667 0.666992 -36 2s-17 2.66602 -23 3.99902l-25 57l-44 -49c-13.333 -5.33301 -27.333 -9.5 -42 -12.5s-29.667 -4.5 -45 -4.5c-16.667 0 -32.334 2.33301 -47.001 7s-27.5 12 -38.5 22
s-19.667 22.667 -26 38s-9.5 33.333 -9.5 54c0 28 3.83301 52 11.5 72s19.667 36.667 36 50s37.333 24 63 32s56.5 14 92.5 18l81 7l9 54c2 13.333 3 25.333 3 36s-2.33301 19.667 -7 27s-11.834 13 -21.501 17s-22.5 6 -38.5 6c-22 0 -45.5 -2.33301 -70.5 -7
s-50.167 -10.334 -75.5 -17.001v66c28 10.667 54.333 18.667 79 24s51 8 79 8c58 0 97 -16.333 117 -49s24.667 -80.667 14 -144l-39 -229c-2 -14 -1.16699 -23.5 2.5 -28.5s11.5 -7.5 23.5 -7.5h8c40 0 69.833 20.333 89.5 61s29.5 98 29.5 172v25
c0 42.667 -4.16699 81.334 -12.5 116.001s-22.833 64.334 -43.5 89.001s-48.667 43.834 -84 57.501s-79.666 20.5 -132.999 20.5c-54 0 -100 -6.66699 -138 -20s-69.167 -33.666 -93.5 -60.999s-42 -62.166 -53 -104.499s-16.5 -92.5 -16.5 -150.5v-26
c0 -56.667 5.16699 -106.167 15.5 -148.5s27.166 -77.5 50.499 -105.5s53.666 -49 90.999 -63s83.333 -21 138 -21c40.667 0 79.334 4.66699 116.001 14s73.667 20.333 111 33l15 -46c-27.333 -12 -61.833 -23.333 -103.5 -34s-87.5 -16 -137.5 -16zM340.002 67
c24.667 0 44.835 4.16699 60.502 12.5s29.167 17.833 40.5 28.5c5.33301 29.333 9.66602 55 12.999 77c1.33301 9.33301 2.83301 18.666 4.5 27.999s3 17.5 4 24.5l2.5 17l1 6.5l-75 -8c-20 -2.66699 -36.833 -6 -50.5 -10s-24.834 -9.66699 -33.501 -17
s-15.5 -16.666 -20.5 -27.999s-8.5 -25.666 -10.5 -42.999v-7c-3.33301 -26.667 0 -46.834 10 -60.501s28 -20.5 54 -20.5z" />
    <glyph glyph-name="A" unicode="A" horiz-adv-x="573" 
d="M116 0h-87l211 651h98l207 -651h-104l-38 129h-247zM308 445l-24 129l-29 -129l-77 -247h204z" />
    <glyph glyph-name="B" unicode="B" horiz-adv-x="560" 
d="M81 651l205 0.000976562c30.667 0 59 -3.16699 85 -9.5s48.333 -16.5 67 -30.5s33.167 -31.833 43.5 -53.5s15.5 -47.834 15.5 -78.501c0 -24 -3.66699 -44.167 -11 -60.5s-16.833 -30 -28.5 -41s-24.5 -19.833 -38.5 -26.5s-27.667 -12 -41 -16
c14.667 -2.66699 30 -7.5 46 -14.5s30.667 -16.667 44 -29s24.333 -27.666 33 -45.999s13 -40.166 13 -65.499c0 -32 -5.33301 -59.333 -16 -82s-25.667 -41.334 -45 -56.001s-42.333 -25.334 -69 -32.001s-56 -10 -88 -10h-215v651zM288 366.001
c40 0 68.167 7.33203 84.5 21.999s24.5 40.334 24.5 77.001v11c0 36 -9 61.167 -27 75.5s-49 21.5 -93 21.5h-96v-207h107zM288 77c41.333 0 71.667 7.83301 91 23.5s29 42.5 29 80.5v14c0 38.667 -9 65.667 -27 81s-48 23 -90 23h-110v-222h107z" />
    <glyph glyph-name="C" unicode="C" horiz-adv-x="506" 
d="M304 -14c-47.333 0 -87.5049 8.66699 -120.505 26s-59.667 41.333 -80 72s-35 66.834 -44 108.501s-13.5 86.5 -13.5 134.5s4.83301 92.5 14.5 133.5s24.834 76.5 45.501 106.5s47.667 53.5 81 70.5s73.333 25.5 120 25.5c34 0 63.5 -3.16699 88.5 -9.5
s48.833 -14.5 71.5 -24.5l-12 -79l-42 12.5c-12.667 3.66699 -25 6.66699 -37 9s-24 4.16602 -36 5.49902s-25 2 -39 2c-20.667 0 -40.167 -3.33301 -58.5 -10s-34.166 -18.834 -47.499 -36.501s-23.833 -41.5 -31.5 -71.5s-11.5 -68 -11.5 -114v-32
c0 -47.333 3.5 -87 10.5 -119s17 -57.667 30 -77s28.833 -33.166 47.5 -41.499s39.667 -12.5 63 -12.5c16 0 30.333 1 43 3s24.834 4.66699 36.501 8s23.334 7.33301 35.001 12l38.5 15l22 -76c-23.333 -11.333 -49.166 -21 -77.499 -29s-60.5 -12 -96.5 -12z" />
    <glyph glyph-name="D" unicode="D" horiz-adv-x="598" 
d="M81 651h195c93.333 0 162.666 -27.833 207.999 -83.5s68 -135.834 68 -240.501c0 -109.333 -23.167 -191.166 -69.5 -245.499s-118.166 -81.5 -215.499 -81.5h-186v651zM261 76c30.667 0 57.668 3.16797 81.001 9.50098s42.666 18.166 57.999 35.499s27 41.5 35 72.5
s12 71.5 12 121.5v31c0 45.333 -3.83301 82.5 -11.5 111.5s-19.167 51.833 -34.5 68.5s-34.833 28.167 -58.5 34.5s-51.5 9.5 -83.5 9.5h-78v-494h80z" />
    <glyph glyph-name="E" unicode="E" horiz-adv-x="505" 
d="M81 651h362v-81h-262v-199h225v-75h-225v-217h280v-79h-380v651z" />
    <glyph glyph-name="F" unicode="F" horiz-adv-x="492" 
d="M81 651h361v-81h-261v-218h228v-75h-228v-277h-100v651z" />
    <glyph glyph-name="G" unicode="G" horiz-adv-x="565" 
d="M386 -6c-11.333 -2.66699 -24.334 -4.66797 -39.001 -6.00098s-28.667 -2 -42 -2c-47.333 0 -87.5 8.5 -120.5 25.5s-59.667 40.667 -80 71s-35.166 66.333 -44.499 108s-14 87.167 -14 136.5c0 48 5 92.5 15 133.5s25.833 76.5 47.5 106.5s49.5 53.5 83.5 70.5
s74.667 25.5 122 25.5c36 0 67.833 -3.16699 95.5 -9.5s53.167 -14.166 76.5 -23.499l-12 -80c-30.667 9.33301 -58.5 16.666 -83.5 21.999s-52.167 8 -81.5 8c-22.667 0 -43.667 -3.5 -63 -10.5s-36 -19.167 -50 -36.5s-25 -41.166 -33 -71.499s-12 -68.5 -12 -114.5v-32
c0 -48 3.5 -88 10.5 -120s17.167 -57.833 30.5 -77.5s29.333 -33.667 48 -42s40 -12.5 64 -12.5c23.333 0 44 2 62 6s33.667 9 47 15v186h-100v71h193v-349h-33l-29 59z" />
    <glyph glyph-name="H" unicode="H" horiz-adv-x="609" 
d="M181 294v-294h-100v651h100v-279h247v279h100v-651h-100v294h-247z" />
    <glyph glyph-name="I" unicode="I" horiz-adv-x="274" 
d="M87 651h100v-651h-100v651z" />
    <glyph glyph-name="J" unicode="J" horiz-adv-x="364" 
d="M143 -14c-26 0 -48.334 3 -67.001 9s-33.667 12.333 -45 19l10 74c14 -5.33301 27 -10 39 -14s25.667 -6 41 -6c10.667 0 20 1.66699 28 5s14.833 9.16602 20.5 17.499s10 19.833 13 34.5s4.5 33.334 4.5 56.001v470h100v-448c0 -69.333 -11.167 -122.833 -33.5 -160.5
s-59.166 -56.5 -110.499 -56.5z" />
    <glyph glyph-name="K" unicode="K" horiz-adv-x="557" 
d="M420 651h105l-240 -299l74 -56l173 -296h-111l-181 312l-58 -78v-234h-101v651h101v-210l-17 -121z" />
    <glyph glyph-name="L" unicode="L" horiz-adv-x="475" 
d="M81 651h100v-573h261v-78h-361v651z" />
    <glyph glyph-name="M" unicode="M" horiz-adv-x="734" 
d="M82 651h132l120 -432l28 -180l28 180l125 432h137v-651h-98v324l18 288l-46 -209l-117 -403h-105l-112 397l-43 215l17 -289v-323h-84v651z" />
    <glyph glyph-name="N" unicode="N" horiz-adv-x="608" 
d="M82 651h110l201 -389l69 -189l-24 220v358h89v-651h-106l-211 405l-62 179l22 -208v-376h-88v651z" />
    <glyph glyph-name="O" unicode="O" horiz-adv-x="609" 
d="M303 -14c-44.667 0 -83.166 8.33105 -115.499 24.998s-59 40.167 -80 70.5s-36.5 66.333 -46.5 108s-15 87.5 -15 137.5c0 49.333 5.16699 94.5 15.5 135.5s26.166 76.333 47.499 106s48.333 52.834 81 69.501s71 25 115 25s82.333 -8.16699 115 -24.5
s59.5 -39.166 80.5 -68.499s36.667 -64.5 47 -105.5s15.5 -86.167 15.5 -135.5c0 -52 -5.16699 -99.167 -15.5 -141.5s-26 -78.333 -47 -108s-47.833 -52.667 -80.5 -69s-71.667 -24.5 -117 -24.5zM305.001 59.998c25.333 0 47.499 4.33398 66.499 13.001
s34.833 23.167 47.5 43.5s22.167 46.833 28.5 79.5s9.5 73 9.5 121v34c0 43.333 -3.16699 79.666 -9.5 108.999s-15.833 53.333 -28.5 72s-28.5 32 -47.5 40s-41.5 12 -67.5 12c-51.333 0 -89.666 -18 -114.999 -54s-38 -97 -38 -183v-33c0 -48 3.33301 -88.167 10 -120.5
s16.5 -58.5 29.5 -78.5s29.167 -34.167 48.5 -42.5s41.333 -12.5 66 -12.5z" />
    <glyph glyph-name="P" unicode="P" horiz-adv-x="545" 
d="M81 651l208 0.00292969c74 0 129.167 -18.833 165.5 -56.5s54.5 -88.167 54.5 -151.5c0 -30.667 -4.5 -58.834 -13.5 -84.501s-22.5 -47.834 -40.5 -66.501s-40.833 -33.334 -68.5 -44.001s-60.167 -16 -97.5 -16h-108v-232h-100v651zM282 303.003
c44 0 75.168 9.99902 93.501 29.999s27.5 54 27.5 102v15c0 46.667 -9.33301 78.834 -28 96.501s-50.334 26.5 -95.001 26.5h-99v-270h101z" />
    <glyph glyph-name="Q" unicode="Q" horiz-adv-x="609" 
d="M504 -115l-113.999 -19.999l-86 122h-1c-44.667 0 -83.167 8.33301 -115.5 25s-59 40 -80 70s-36.5 65.833 -46.5 107.5s-15 87.5 -15 137.5c0 49.333 5.16699 94.5 15.5 135.5s26.166 76.333 47.499 106s48.333 52.834 81 69.501s71 25 115 25s82.333 -8.33301 115 -25
s59.5 -39.834 80.5 -69.501s36.667 -64.834 47 -105.501s15.5 -85.334 15.5 -134.001c0 -71.333 -8.83301 -131.666 -26.5 -180.999s-45.5 -88 -83.5 -116l-79 -9zM305.001 57.001c25.333 0 47.499 4.50293 66.499 13.5029s34.833 23.667 47.5 44s22.167 47.166 28.5 80.499
s9.5 74 9.5 122v34c0 43.333 -3.16699 79.666 -9.5 108.999s-15.833 53.333 -28.5 72s-28.5 32 -47.5 40s-41.5 12 -67.5 12c-51.333 0 -89.666 -18 -114.999 -54s-38 -97 -38 -183v-33c0 -48.667 3.33301 -89.334 10 -122.001s16.5 -59 29.5 -79s29.167 -34.333 48.5 -43
s41.333 -13 66 -13z" />
    <glyph glyph-name="R" unicode="R" horiz-adv-x="565" 
d="M407 222l118.999 -222.001h-107l-135 260h-103v-260h-100v651h208c74.667 0 130.334 -17.167 167.001 -51.5s55 -82.833 55 -145.5c0 -21.333 -2.66699 -42.166 -8 -62.499s-14.333 -39 -27 -56s-29.5 -31.333 -50.5 -43s-47.167 -19.5 -78.5 -23.5zM281.999 326.999
c44.667 0 76.168 9.00098 94.501 27.001s27.5 49 27.5 93v15c0 21.333 -2.16699 39.166 -6.5 53.499s-11.5 25.833 -21.5 34.5s-22.833 14.667 -38.5 18s-34.834 5 -57.501 5h-99v-246h101z" />
    <glyph glyph-name="S" unicode="S" horiz-adv-x="494" 
d="M240 -14c-48 0 -87.0029 4.66699 -117.003 14s-55.667 20 -77 32l18 71c28 -12 54.167 -21.833 78.5 -29.5s52.166 -11.5 83.499 -11.5c43.333 0 75.166 7.33301 95.499 22s30.5 42.667 30.5 84c0 16 -1.83301 29.833 -5.5 41.5s-10 21.667 -19 30
s-21.333 15.833 -37 22.5s-35.834 13.334 -60.501 20.001c-29.333 8 -55.166 16.667 -77.499 26s-41 21.333 -56 36s-26.333 32.834 -34 54.501s-11.5 48.5 -11.5 80.5c0 60 17.333 105.667 52 137s84.334 47 149.001 47c40 0 72.833 -3 98.5 -9s49.167 -13.667 70.5 -23
l-14 -76l-36 11c-11.333 3.33301 -22.666 6.16602 -33.999 8.49902s-23.5 4.16602 -36.5 5.49902s-28.167 2 -45.5 2c-39.333 0 -67.666 -6.83301 -84.999 -20.5s-26 -38.167 -26 -73.5c0 -16.667 1.5 -30.5 4.5 -41.5s8.83301 -20.5 17.5 -28.5s20.834 -15 36.501 -21
s36.167 -12.667 61.5 -20c28.667 -7.33301 54.334 -15.833 77.001 -25.5s42 -22 58 -37s28.333 -33.333 37 -55s13 -48.167 13 -79.5c0 -64 -17.667 -112.333 -53 -145s-87.333 -49 -156 -49z" />
    <glyph glyph-name="T" unicode="T" horiz-adv-x="488" 
d="M26 570v81h436v-81h-168v-570h-100v570h-168z" />
    <glyph glyph-name="U" unicode="U" horiz-adv-x="599" 
d="M417 651h100.999v-651h-62l-28 64l-40 -55c-10.667 -4.66699 -26.167 -9.66699 -46.5 -15s-44.166 -8 -71.499 -8c-32 0 -60 4.66699 -84 14s-44 24.333 -60 45s-28.167 47.334 -36.5 80.001s-12.5 72 -12.5 118v408h100v-435c0 -30.667 2 -56 6 -76
s10.5 -35.667 19.5 -47s20.667 -19.333 35 -24s31.5 -7 51.5 -7c30 0 54.833 3.66699 74.5 11s37.5 15.666 53.5 24.999v553z" />
    <glyph glyph-name="V" unicode="V" horiz-adv-x="571" 
d="M29 651h104l130 -431l28 -157l29 157l130 431h93l-208 -651h-95z" />
    <glyph glyph-name="W" unicode="W" horiz-adv-x="764" 
d="M28 651h103l75 -371l24 -226l28 214l79 383h103l81 -383l26 -214l27 226l79 371h87l-150 -651h-101l-80 380l-24 211l-26 -211l-82 -380h-100z" />
    <glyph glyph-name="X" unicode="X" horiz-adv-x="532" 
d="M207 335l-173 316h111l93 -178l40 -105l34 105l89 178h93l-171 -315l183 -336h-111l-100 192l-44 106l-34 -106l-98 -192h-93z" />
    <glyph glyph-name="Y" unicode="Y" horiz-adv-x="530" 
d="M220 231l-197 420h107l114 -264l30 -127l30 127l110 264h93l-187 -415v-236h-100v231z" />
    <glyph glyph-name="Z" unicode="Z" horiz-adv-x="496" 
d="M45 92l273 430l55 62l-97 -10h-220v77h392v-96l-270 -423l-65 -71l106 14h231v-75h-405v92z" />
    <glyph glyph-name="bracketleft" unicode="[" horiz-adv-x="287" 
d="M65 718h183v-68h-92v-686h92v-68h-183v822z" />
    <glyph glyph-name="backslash" unicode="\" horiz-adv-x="405" 
d="M16 718h77l300 -818h-77z" />
    <glyph glyph-name="bracketright" unicode="]" horiz-adv-x="287" 
d="M39 -36h92v686h-92v68h183v-822h-183v68z" />
    <glyph glyph-name="asciicircum" unicode="^" horiz-adv-x="494" 
d="M197 691h87l143 -284h-93l-71 157l-24 88l-24 -88l-74 -157h-83z" />
    <glyph glyph-name="underscore" unicode="_" horiz-adv-x="284" 
d="M2 -99h280v-63h-280v63z" />
    <glyph glyph-name="quoteleft" unicode="`" horiz-adv-x="243" 
d="M121 453c-19.333 0 -35.667 6.33398 -49 19.001s-20 29.334 -20 50.001c0 17.333 3.5 33.666 10.5 48.999s15.5 30.666 25.5 45.999l65 102l27 -13l-42 -129l33 -7c4.66699 -4.66699 9.16699 -10.667 13.5 -18s6.5 -17 6.5 -29c0 -21.333 -6.83301 -38.333 -20.5 -51
s-30.167 -19 -49.5 -19z" />
    <glyph glyph-name="a" unicode="a" horiz-adv-x="489" 
d="M317 364c0 13.333 -1.33008 25.667 -3.99707 37s-7.16699 21 -13.5 29s-14.833 14.333 -25.5 19s-24.334 7 -41.001 7c-24 0 -48.667 -3.16699 -74 -9.5s-52.333 -14.5 -81 -24.5l-14 71c23.333 10 49.333 19.333 78 28s61 13 97 13c60 0 103.167 -15.833 129.5 -47.5
s39.5 -83.167 39.5 -154.5v-246c0 -14 2.5 -23.333 7.5 -28s13.167 -7 24.5 -7h21l3 -45c-5.33301 -4 -12.833 -7.83301 -22.5 -11.5s-21.5 -5.5 -35.5 -5.5c-8 0 -16 0.5 -24 1.5s-15.667 2.83301 -23 5.5l-37 58l-44 -51c-10 -4.66699 -22.333 -8.66699 -37 -12
s-31.334 -5 -50.001 -5c-20 0 -39.167 2.66699 -57.5 8s-34.333 14 -48 26s-24.5 27.5 -32.5 46.5s-12 42.5 -12 70.5c0 26.667 3.66699 49.5 11 68.5s18.666 34.833 33.999 47.5s35 22.667 59 30s52.667 13 86 17l86 10v54zM317.003 254.001l-79.998 -10
c-38 -4 -65.333 -13 -82 -27s-25 -38 -25 -72v-8c0 -30 7.33301 -51.667 22 -65s37 -20 67 -20c25.333 0 45.666 4.33301 60.999 13s27.666 18.667 36.999 30v159z" />
    <glyph glyph-name="b" unicode="b" horiz-adv-x="519" 
d="M119 -3l-45 -0.000976562v721h92v-238c14 14 31.333 26.5 52 37.5s46 16.5 76 16.5c58.667 0 103.667 -22.167 135 -66.5s47 -112.833 47 -205.5c0 -95.333 -16.167 -165.166 -48.5 -209.499s-79.833 -66.5 -142.5 -66.5c-18 0 -34.167 1.83301 -48.5 5.5
s-25.5 7.16699 -33.5 10.5l-56 57zM166 84.999c14.667 -10.667 30.332 -19.166 46.999 -25.499s35 -9.5 55 -9.5c18.667 0 35 3.33301 49 10s25.833 17.5 35.5 32.5s16.834 34.667 21.501 59s7 54.166 7 89.499v35c0 36 -2.5 65.833 -7.5 89.5s-12 42.5 -21 56.5
s-20.167 23.667 -33.5 29s-28.333 8 -45 8c-26.667 0 -48.667 -5.33301 -66 -16s-31.333 -20.667 -42 -30v-328z" />
    <glyph glyph-name="c" unicode="c" horiz-adv-x="424" 
d="M248 -14c-66.667 0 -117.664 23.1689 -152.997 69.502s-53 115.166 -53 206.499c0 92 17.333 160.333 52 205s86 67 154 67c29.333 0 56 -3.16699 80 -9.5s44.667 -13.5 62 -21.5l-14 -70c-22.667 7.33301 -43.5 13.166 -62.5 17.499s-38.833 6.5 -59.5 6.5
c-18.667 0 -35.334 -2.5 -50.001 -7.5s-26.834 -14.333 -36.501 -28s-17 -32.334 -22 -56.001s-7.5 -54.5 -7.5 -92.5v-16c0 -38.667 2.5 -70.667 7.5 -96s12.5 -45.5 22.5 -60.5s22.167 -25.5 36.5 -31.5s30.833 -9 49.5 -9c24 0 45.5 3.16699 64.5 9.5
s39.5 14.5 61.5 24.5l15 -69c-16.667 -9.33301 -37.334 -18.166 -62.001 -26.499s-53 -12.5 -85 -12.5z" />
    <glyph glyph-name="d" unicode="d" horiz-adv-x="517" 
d="M351 718h92.001v-718h-57l-31 62l-55 -59c-7.33301 -3.33301 -17 -6.5 -29 -9.5s-25.667 -4.5 -41 -4.5c-61.333 0 -107.833 23 -139.5 69s-47.5 114.333 -47.5 205c0 48 4.83301 89 14.5 123s23 62 40 84s37 38.167 60 48.5s47.5 15.5 73.5 15.5
c28 0 51.667 -4.5 71 -13.5s35.666 -19.167 48.999 -30.5v228zM351.001 422c-10.667 8 -24.667 16.166 -42 24.499s-37.666 12.5 -60.999 12.5c-17.333 0 -32.833 -2.5 -46.5 -7.5s-25.167 -14.333 -34.5 -28s-16.5 -32 -21.5 -55s-7.5 -52.5 -7.5 -88.5v-38
c0 -70 9.66699 -119.167 29 -147.5s46.666 -42.5 81.999 -42.5c21.333 0 39.333 4.33301 54 13s30.667 20.334 48 35.001v322z" />
    <glyph glyph-name="e" unicode="e" horiz-adv-x="482" 
d="M138 233c0.666992 -32.667 3.49805 -59.999 8.49805 -81.999s12.667 -39.667 23 -53s23.5 -23 39.5 -29s35 -9 57 -9c24.667 0 48 3.33301 70 10s44.333 14.667 67 24l15 -68c-15.333 -8.66699 -37.166 -17.5 -65.499 -26.5s-59.166 -13.5 -92.499 -13.5
c-72 0 -126.333 23 -163 69s-55 114.667 -55 206c0 93.333 19 162.166 57 206.499s88.333 66.5 151 66.5c65.333 0 113 -21.833 143 -65.5s45 -103.167 45 -178.5v-57h-300v0zM348.998 299.001l0.000976562 16c0 55.333 -8 94.333 -24 117s-40.667 34 -74 34
c-16.667 0 -31.834 -2.5 -45.501 -7.5s-25.167 -13.667 -34.5 -26s-16.833 -29.333 -22.5 -51s-9.16699 -49.167 -10.5 -82.5h211z" />
    <glyph glyph-name="f" unicode="f" horiz-adv-x="311" 
d="M24 455v69h64v60c0 48.667 10.667 84.667 32 108s51.333 35 90 35c22 0 41.333 -2.33301 58 -7s30.667 -10 42 -16l-4 -51h-78c-18 0 -30.667 -3.66699 -38 -11s-11 -19 -11 -35v-83h116v-69h-116v-455h-91v455h-64z" />
    <glyph glyph-name="g" unicode="g" horiz-adv-x="491" 
d="M477 545l-0.00195312 -86h-118l65 -42c2 -7.33301 3.83301 -14.666 5.5 -21.999s2.5 -16.666 2.5 -27.999c0 -32 -5.33301 -59 -16 -81s-24.667 -39.833 -42 -53.5s-37.5 -23.334 -60.5 -29.001s-47.167 -8.5 -72.5 -8.5c-34.667 0 -64 5.33301 -88 16
c-7.33301 -5.33301 -13.5 -11.833 -18.5 -19.5s-7.5 -16.834 -7.5 -27.501c0 -33.333 21.667 -50 65 -50h115c52 0 91.5 -10.667 118.5 -32s40.5 -54 40.5 -98c0 -28.667 -6 -53.334 -18 -74.001s-28.5 -37.667 -49.5 -51s-45.667 -23.166 -74 -29.499
s-58.833 -9.5 -91.5 -9.5c-65.333 0 -114.666 11.333 -147.999 34s-50 54 -50 94c0 19.333 3 34.666 9 45.999s11.667 20 17 26l58 29c-18 5.33301 -33.333 14.833 -46 28.5s-19 33.167 -19 58.5c0 16.667 2.33301 30.167 7 40.5s9.33398 18.5 14.001 24.5l56 30l-60 38
c-6.66699 12.667 -12.167 26.834 -16.5 42.501s-6.5 33.167 -6.5 52.5c0 32 5.66699 58.833 17 80.5s26.333 39.167 45 52.5s39.5 22.833 62.5 28.5s45.833 8.5 68.5 8.5c45.333 0 84.333 -10.333 117 -31zM240.998 257c34 0 59 7.83301 75 23.5s24 41.167 24 76.5v13
c0 32 -8 56 -24 72s-41 24 -75 24c-35.333 0 -61 -8 -77 -24s-24 -39.667 -24 -71v-13c0 -36 8 -61.833 24 -77.5s41.667 -23.5 77 -23.5zM153.998 40c-12 -10 -21.5 -21.167 -28.5 -33.5s-10.5 -27.166 -10.5 -44.499c0 -25.333 9.5 -44 28.5 -56s49.5 -18 91.5 -18
c48.667 0 85 8.66699 109 26s36 37.666 36 60.999v6c0 16.667 -5 30.667 -15 42s-29.667 17 -59 17h-152v0z" />
    <glyph glyph-name="h" unicode="h" horiz-adv-x="519" 
d="M166 0l-92.001 0.000976562v718h92v-259l47 54c11.333 5.33301 24.833 10.166 40.5 14.499s33.834 6.5 54.501 6.5c44 0 78.5 -13 103.5 -39s37.5 -68.333 37.5 -127v-368h-92v380c0 30 -7 50.667 -21 62s-32.667 17 -56 17s-43.333 -3.5 -60 -10.5
s-34.667 -16.5 -54 -28.5v-420z" />
    <glyph glyph-name="i" unicode="i" horiz-adv-x="247" 
d="M124 613c-16 0 -30 5.33301 -42 16s-18 24.667 -18 42s6 31.5 18 42.5s26 16.5 42 16.5s29.833 -5.5 41.5 -16.5s17.5 -25.167 17.5 -42.5s-5.83301 -31.333 -17.5 -42s-25.5 -16 -41.5 -16zM77 524h92v-524h-92v524z" />
    <glyph glyph-name="j" unicode="j" horiz-adv-x="242" 
d="M121 613c-16 0 -29.833 5.33301 -41.5 16s-17.5 24.667 -17.5 42s5.83301 31.5 17.5 42.5s25.5 16.5 41.5 16.5s29.833 -5.5 41.5 -16.5s17.5 -25.167 17.5 -42.5s-5.83301 -31.333 -17.5 -42s-25.5 -16 -41.5 -16zM62 -170c-23.333 0 -42.501 2.50098 -57.501 7.50098
s-26.833 10.167 -35.5 15.5l7 49h55c16.667 0 28.334 3.66699 35.001 11s10 18.666 10 33.999v577h90v-550c0 -50 -9.16699 -86.5 -27.5 -109.5s-43.833 -34.5 -76.5 -34.5z" />
    <glyph glyph-name="k" unicode="k" horiz-adv-x="474" 
d="M166 0h-92v718h92v-323l-17 -145l202 274h98l-179 -230l66 -67l123 -227h-101l-137 257l-55 -79v-178z" />
    <glyph glyph-name="l" unicode="l" horiz-adv-x="252" 
d="M80 718h92v-718h-92v718z" />
    <glyph glyph-name="m" unicode="m" horiz-adv-x="782" 
d="M482 513c10.667 5.33301 23.666 10.168 38.999 14.501s33 6.5 53 6.5c44 0 78 -13 102 -39s36 -68.333 36 -127v-368h-92v380c0 30 -6.5 50.667 -19.5 62s-31.167 17 -54.5 17c-22.667 0 -41.834 -3.66699 -57.501 -11s-32.167 -16.666 -49.5 -27.999v-420h-92v380
c0 30 -6.83301 50.667 -20.5 62s-31.5 17 -53.5 17c-21.333 0 -40.166 -3.33301 -56.499 -10s-33.166 -15.667 -50.499 -27v-422h-92v524h56l33 -65l47 54c10.667 5.33301 23.5 10.166 38.5 14.499s32.833 6.5 53.5 6.5c19.333 0 36.333 -1.83301 51 -5.5
s28 -8.83398 40 -15.501l37 -58z" />
    <glyph glyph-name="n" unicode="n" horiz-adv-x="519" 
d="M213 513c11.333 5.33301 24.832 10.167 40.499 14.5s33.834 6.5 54.501 6.5c44 0 78.5 -13 103.5 -39s37.5 -68.333 37.5 -127v-368h-92v380c0 30 -7 50.667 -21 62s-32.667 17 -56 17s-43.333 -3.5 -60 -10.5s-34.667 -16.5 -54 -28.5v-420h-92v524h56l34 -67z" />
    <glyph glyph-name="o" unicode="o" horiz-adv-x="505" 
d="M253 -14c-65.333 0 -116.835 23.5 -154.502 70.5s-56.5 114.833 -56.5 203.5c0 89.333 19.167 157.333 57.5 204s89.5 70 153.5 70c64.667 0 115.834 -23 153.501 -69s56.5 -113.333 56.5 -202c0 -90 -18.667 -158.667 -56 -206s-88.666 -71 -153.999 -71zM252.998 57
c18 0 33.999 3.33105 47.999 9.99805s25.833 17.5 35.5 32.5s17.167 34.833 22.5 59.5s8 55.334 8 92.001v16c0 38 -2.5 69.5 -7.5 94.5s-12.167 44.833 -21.5 59.5s-21.166 25 -35.499 31s-30.833 9 -49.5 9s-35.167 -2.83301 -49.5 -8.5s-26.333 -15.834 -36 -30.501
s-17 -34 -22 -58s-7.5 -54.667 -7.5 -92v-17c0 -37.333 2.66699 -68.666 8 -93.999s12.833 -45.666 22.5 -60.999s21.667 -26.333 36 -33s30.5 -10 48.5 -10z" />
    <glyph glyph-name="p" unicode="p" horiz-adv-x="518" 
d="M211 516c11.333 4.66699 23.832 8.83398 37.499 12.501s30.167 5.5 49.5 5.5c58.667 0 102.834 -23 132.501 -69s44.5 -114 44.5 -204c0 -88 -15.167 -153.167 -45.5 -195.5s-75.833 -63.5 -136.5 -63.5c-28 0 -52.5 4.66699 -73.5 14s-38.833 19.666 -53.5 30.999v-209
h-92v686h56l32 -63zM165.999 102c11.333 -8 25.8311 -16.335 43.498 -25.002s38.5 -13 62.5 -13c36 0 63 13.833 81 41.5s27 74.834 27 141.501v33c0 33.333 -2.16699 61.5 -6.5 84.5s-10.833 41.5 -19.5 55.5s-19.667 24 -33 30s-28.666 9 -45.999 9
c-20.667 0 -39.667 -3.16699 -57 -9.5s-34.666 -15.166 -51.999 -26.499v-321v0z" />
    <glyph glyph-name="q" unicode="q" horiz-adv-x="518" 
d="M353 51c-14.667 -12.667 -32.1699 -23.999 -52.5029 -33.999s-45.166 -15 -74.499 -15c-57.333 0 -102.166 21.5 -134.499 64.5s-48.5 108.833 -48.5 197.5c0 89.333 15.667 156.666 47 201.999s76 68 134 68c20.667 0 38.834 -1.83301 54.501 -5.5
s29.167 -8.16699 40.5 -13.5l51 -55l30 64h45v-686h-92v213v0zM352.997 424.001c-17.333 11.333 -34.835 19.999 -52.502 25.999s-36.5 9 -56.5 9c-16.667 0 -31.5 -3 -44.5 -9s-24 -15.833 -33 -29.5s-16 -32 -21 -55s-7.5 -51.5 -7.5 -85.5v-33
c0 -66 9.33301 -113 28 -141s45.667 -42 81 -42c24.667 0 45.834 4.83301 63.501 14.5s31.834 18.834 42.501 27.501v318v0z" />
    <glyph glyph-name="r" unicode="r" horiz-adv-x="374" 
d="M217 517c11.333 5.33301 23 9.49902 35 12.499s24.667 4.5 38 4.5c16 0 29.5 -1.66699 40.5 -5s19.5 -6.66602 25.5 -9.99902l-17 -84c-9.33301 4 -19.5 7.33301 -30.5 10s-25.167 4 -42.5 4c-20 0 -37.833 -3.5 -53.5 -10.5s-31.167 -15.833 -46.5 -26.5v-412h-92v524
h56l34 -71z" />
    <glyph glyph-name="s" unicode="s" horiz-adv-x="408" 
d="M193 -14c-36 0 -66.5039 3.66602 -91.5039 10.999s-45.167 14.666 -60.5 21.999l11 68c17.333 -7.33301 37.166 -14.333 59.499 -21s46.5 -10 72.5 -10c32 0 56.5 6 73.5 18s25.5 33.333 25.5 64c0 14.667 -1.66699 26.5 -5 35.5s-9.33301 16.5 -18 22.5
s-20.667 11.5 -36 16.5s-35 10.5 -59 16.5c-18.667 5.33301 -35.667 11.5 -51 18.5s-28.666 16.333 -39.999 28s-20.166 26 -26.499 43s-9.5 37.5 -9.5 61.5c0 52.667 15.667 91.5 47 116.5s73 37.5 125 37.5c32 0 59.833 -3 83.5 -9s43.167 -13 58.5 -21l-14 -67
c-19.333 6.66699 -38.166 12.167 -56.499 16.5s-40.166 6.5 -65.499 6.5c-31.333 0 -54.666 -5 -69.999 -15s-23 -30 -23 -60c0 -14 2 -25.167 6 -33.5s10.333 -15.333 19 -21s20 -10.667 34 -15s31 -9.16602 51 -14.499c22.667 -6 42.5 -13 59.5 -21
s31.333 -18.167 43 -30.5s20.5 -27.166 26.5 -44.499s9 -38.333 9 -63c0 -46 -14.667 -83.5 -44 -112.5s-74 -43.5 -134 -43.5z" />
    <glyph glyph-name="t" unicode="t" horiz-adv-x="331" 
d="M198 -11c-40 0 -68.833 10.998 -86.5 32.998s-26.5 56 -26.5 102v331h-62v69h68l44 141h42v-141h114v-69h-114v-351c0 -17.333 3.16699 -29.166 9.5 -35.499s18.833 -9.5 37.5 -9.5h75l5 -49c-13.333 -5.33301 -28.833 -10.166 -46.5 -14.499s-37.5 -6.5 -59.5 -6.5z" />
    <glyph glyph-name="u" unicode="u" horiz-adv-x="517" 
d="M351 524h91.999v-524h-57l-33 64l-45 -55c-12 -5.33301 -26.167 -10 -42.5 -14s-34.833 -6 -55.5 -6c-42.667 0 -76.667 13.333 -102 40s-38 69 -38 127v368h92v-379c0 -32.667 6.83301 -55.167 20.5 -67.5s31.834 -18.5 54.501 -18.5c24.667 0 45.5 3.5 62.5 10.5
s34.167 16.167 51.5 27.5v427z" />
    <glyph glyph-name="v" unicode="v" horiz-adv-x="460" 
d="M19 524h96l92 -323l26 -168l26 168l94 323h87l-162 -524h-95z" />
    <glyph glyph-name="w" unicode="w" horiz-adv-x="669" 
d="M19 524h94l71 -315l15 -157l30 190l67 282h92l66 -282l26 -190l15 157l71 315h83l-130 -524h-92l-65 282l-24 177l-25 -177l-70 -282h-93z" />
    <glyph glyph-name="x" unicode="x" horiz-adv-x="457" 
d="M176 268l-144 256h98l69 -127l38 -100l31 100l64 127h90l-141 -255l150 -269h-98l-75 137l-38 104l-34 -104l-70 -137h-90z" />
    <glyph glyph-name="y" unicode="y" horiz-adv-x="460" 
d="M188 16l-169 508h95l94 -306l25 -152l27 152l93 306h87l-218 -686h-89z" />
    <glyph glyph-name="z" unicode="z" horiz-adv-x="422" 
d="M35 79l225 328l48 49l-94 -8h-166v76h337v-84l-222 -327l-54 -54l97 12h182v-71h-353v79z" />
    <glyph glyph-name="braceleft" unicode="{" horiz-adv-x="307" 
d="M206 -109c-34 0 -61.6699 10.335 -83.0029 31.002s-32 51 -32 91c0 18.667 1.33301 36.667 4 54s5.83398 33.666 9.50098 48.999s6.83398 29.5 9.50098 42.5s4 24.833 4 35.5c0 28.667 -7.5 49.667 -22.5 63s-36.833 20.666 -65.5 21.999v67
c28.667 1.33301 50.5 8.33301 65.5 21s22.5 33.334 22.5 62.001c0 10.667 -1.5 22.334 -4.5 35.001l-9.5 40.5c-3.33301 14.333 -6.5 29.666 -9.5 45.999s-4.5 33.5 -4.5 51.5c0 21.333 3.33301 39.666 10 54.999s15.5 28 26.5 38s23.833 17.5 38.5 22.5s30 7.5 46 7.5
c14 0 26.333 -1.33301 37 -4s19.334 -5.66699 26.001 -9l-5 -59h-38c-20.667 0 -35.167 -5.66699 -43.5 -17s-9.83301 -32.333 -4.5 -63l20 -112c7.33301 -40 3.16602 -72.833 -12.501 -98.5s-46.5 -42.167 -92.5 -49.5c46 -7.33301 77 -23.5 93 -48.5
s20.333 -59.167 13 -102.5l-19 -115c-5.33301 -30.667 -4.16602 -52.667 3.50098 -66s21.834 -20 42.501 -20h38l5 -56c-6.66699 -3.33301 -16.334 -6.5 -29.001 -9.5s-25.667 -4.5 -39 -4.5z" />
    <glyph glyph-name="bar" unicode="|" horiz-adv-x="197" 
d="M62 718h73v-818h-73v818z" />
    <glyph glyph-name="braceright" unicode="}" horiz-adv-x="307" 
d="M101 -109c-13.333 0 -26.333 1.50293 -39 4.50293s-22.334 6.16699 -29.001 9.5l5 56h38c20.667 0 35.167 6.16699 43.5 18.5s9.83301 33.5 4.5 63.5l-20 120c-7.33301 42 -3.16602 75.667 12.501 101s46.5 41.666 92.5 48.999c-46 7.33301 -77 23.333 -93 48
s-20 58.667 -12 102l18 106c5.33301 31.333 4.16602 53.166 -3.50098 65.499s-21.834 18.5 -42.501 18.5h-38l-5 59c6.66699 3.33301 15.334 6.33301 26.001 9s22.667 4 36 4c16.667 0 32.334 -2.33301 47.001 -7s27.5 -12 38.5 -22s19.833 -22.5 26.5 -37.5
s10 -32.833 10 -53.5c0 -18.667 -1.5 -36.167 -4.5 -52.5s-6.16699 -31.666 -9.5 -45.999l-9.5 -40c-3 -12.333 -4.5 -23.833 -4.5 -34.5c0 -28.667 7.66699 -49.834 23 -63.501s37 -21.167 65 -22.5v-67c-28 -1.33301 -49.667 -8.33301 -65 -21s-23 -33 -23 -61
c0 -10.667 1.5 -22.834 4.5 -36.501l9.5 -44c3.33301 -15.667 6.5 -32 9.5 -49s4.5 -34.167 4.5 -51.5c0 -42.667 -10.667 -74.167 -32 -94.5s-49.333 -30.5 -84 -30.5z" />
    <glyph glyph-name="asciitilde" unicode="~" horiz-adv-x="405" 
d="M268 250c-16.667 0 -30.499 4.33496 -41.499 13.002s-21.833 18 -32.5 28l-27 28c-9.33301 10 -16 16.5 -20 19.5s-9.33301 4.5 -16 4.5c-10.667 0 -18 -6.16699 -22 -18.5s-6 -29.833 -6 -52.5v-13h-56c0 54.667 8.16699 95.667 24.5 123s37.833 41 64.5 41
c17.333 0 31.5 -4.33301 42.5 -13s21.833 -18.334 32.5 -29.001l26 -27c10 -10.667 16.833 -17.334 20.5 -20.001s9.16699 -4 16.5 -4c10 0 17 6.16699 21 18.5s6 29.5 6 51.5v13h57c0 -54.667 -8.33301 -95.5 -25 -122.5s-38.334 -40.5 -65.001 -40.5z" />
    <glyph glyph-name="exclamdown" unicode="&#xa1;" horiz-adv-x="265" 
d="M133 395c-19.333 0 -35.833 6.33301 -49.5 19s-20.5 29.667 -20.5 51c0 20.667 6.83301 37.334 20.5 50.001s30.167 19 49.5 19c18.667 0 35 -6.33301 49 -19s21 -29.334 21 -50.001c0 -21.333 -7 -38.333 -21 -51s-30.333 -19 -49 -19zM81 79l30 248h44l30 -248v-241
h-104v241z" />
    <glyph glyph-name="cent" unicode="&#xa2;" horiz-adv-x="426" 
d="M239 59c3.33301 -0.666992 8.33301 -1.00098 15 -1.00098c24 0 45.5 3.66699 64.5 11s39.5 16.333 61.5 27l14 -71c-16 -9.33301 -36.333 -18.166 -61 -26.499s-53 -12.5 -85 -12.5c-5.33301 0 -10.5 0.166992 -15.5 0.5s-10.167 0.833008 -15.5 1.5l-39 -127l-55 18
l38 124c-38.667 17.333 -68.167 47.5 -88.5 90.5s-30.5 99.167 -30.5 168.5c0 92 17.333 160.333 52 205s86 67 154 67c25.333 0 49.333 -2.66699 72 -8l38 125l57 -17l-176 -575v0zM298 454.999c-7.33301 1.33301 -14.667 2.33301 -22 3s-14.666 1 -21.999 1
c-19.333 0 -36.333 -2.66699 -51 -8s-27 -14.833 -37 -28.5s-17.5 -32.5 -22.5 -56.5s-7.5 -55 -7.5 -93v-16c0 -50 4.16699 -88.833 12.5 -116.5s20.166 -48.167 35.499 -61.5l114 376v0z" />
    <glyph glyph-name="sterling" unicode="&#xa3;" horiz-adv-x="469" 
d="M241 289c2 -9.33301 3.66504 -18.667 4.99805 -28s2 -19.666 2 -30.999c0 -42.667 -18 -83 -54 -121l-80 -46l120 15h205v-78h-385v75c15.333 10 29.5 19.667 42.5 29s24 19.5 33 30.5s16 23.167 21 36.5s7.5 29.333 7.5 48c0 12.667 -1.16699 24.667 -3.5 36
s-5.5 22.666 -9.5 33.999h-102v73h69c-9.33301 20 -17.666 40.667 -24.999 62s-11 45 -11 71c0 23.333 3.66699 45.166 11 65.499s18.833 38 34.5 53s35.667 27 60 36s53.5 13.5 87.5 13.5c21.333 0 40.5 -1.16699 57.5 -3.5s32.333 -5.33301 46 -9s26.167 -8 37.5 -13
s22.333 -10.5 33 -16.5l-18 -71c-23.333 10 -45.166 18 -65.499 24s-44.833 9 -73.5 9c-38 0 -65.167 -6.66699 -81.5 -20s-24.5 -37.333 -24.5 -72v-13c0 -21.333 3.5 -41.166 10.5 -59.499l22.5 -56.5h154v-73h-126v0z" />
    <glyph glyph-name="fraction" unicode="&#xa4;" horiz-adv-x="310" 
d="M275 651h73l-313 -651h-73z" />
    <glyph glyph-name="yen" unicode="&#xa5;" horiz-adv-x="565" 
d="M527 426v-72h-145l-41 -95h186v-73h-196v-186h-97v186h-196v73h183l-43 95h-140v72h107l-101 225h107l107 -261l29 -153l31 153l105 261h88l-98 -225h114z" />
    <glyph glyph-name="florin" unicode="&#xa6;" horiz-adv-x="380" 
d="M28 -177c-18 0 -33.165 2.5 -45.498 7.5s-23.5 10.167 -33.5 15.5l14 52h49c14 0 23.667 2.66699 29 8s9.33301 15 12 29l80 460h-77v69h88l21 118c9.33301 52.667 25.666 89.667 48.999 111s53 32 89 32c22.667 0 41.5 -2.5 56.5 -7.5s28.167 -10.167 39.5 -15.5
l-14 -52h-69c-17.333 0 -29.833 -3.33301 -37.5 -10s-13.167 -18.667 -16.5 -36l-25 -140h100v-69h-111l-78 -447c-8.66699 -47.333 -22.834 -80 -42.501 -98s-45.5 -27 -77.5 -27z" />
    <glyph glyph-name="section" unicode="&#xa7;" horiz-adv-x="452" 
d="M165 361c-25.333 11.333 -47.334 28.0029 -66.001 50.0029s-28 52.667 -28 92c0 52.667 15.667 92.5 47 119.5s73 40.5 125 40.5c32 0 59.667 -2.83301 83 -8.5s43 -12.834 59 -21.501l-15 -68c-20 7.33301 -38.833 13 -56.5 17s-39.167 6 -64.5 6
c-32 0 -55.5 -6 -70.5 -18s-22.5 -33 -22.5 -63c0 -14 2 -25.5 6 -34.5s10.333 -17 19 -24s20 -13.167 34 -18.5s31 -11 51 -17c22 -6.66699 42 -14 60 -22s33.5 -18 46.5 -30s23.167 -26.667 30.5 -44s11 -38.333 11 -63c0 -24 -4.16699 -44.5 -12.5 -61.5
s-19.833 -31.833 -34.5 -44.5l-80 -22c25.333 -12 46.833 -29 64.5 -51s26.5 -52.333 26.5 -91c0 -52.667 -15.667 -92.667 -47 -120s-73 -41 -125 -41c-32 0 -60 3 -84 9s-44 13.333 -60 22l12 65c19.333 -7.33301 38 -13.5 56 -18.5s41 -7.5 69 -7.5
c32 0 55.667 6.66699 71 20s23 35 23 65c0 28 -8.5 48.667 -25.5 62s-45.167 25.666 -84.5 36.999c-23.333 7.33301 -44 15.166 -62 23.499s-33.167 18.833 -45.5 31.5s-21.666 27.667 -27.999 45s-9.5 38.333 -9.5 63c0 22 4.33301 41.5 13 58.5s20 31.167 34 42.5l80 20v0
zM238.999 144.003c31.333 10.667 54.5 22.8369 69.5 36.5039s22.5 34.167 22.5 61.5c0 15.333 -1.66699 28.166 -5 38.499s-9.33301 19.166 -18 26.499s-20.5 13.833 -35.5 19.5s-33.833 11.5 -56.5 17.5c-33.333 -8.66699 -57.5 -19.834 -72.5 -33.501
s-22.5 -34.5 -22.5 -62.5c0 -14.667 1.33301 -27 4 -37s8 -18.667 16 -26s19.167 -13.833 33.5 -19.5s32.833 -11.834 55.5 -18.501l9 -3v0z" />
    <glyph glyph-name="currency" unicode="&#xa8;" horiz-adv-x="532" 
d="M33 364l0.00195312 66.001h77c5.33301 34.667 13.833 66.334 25.5 95.001s27.167 53.167 46.5 73.5s42.5 36.166 69.5 47.499s58.5 17 94.5 17c32 0 60 -3 84 -9s47 -13.667 69 -23l-14 -76l-40 12.5c-12 3.66699 -23.5 6.66699 -34.5 9s-22 4 -33 5
s-22.833 1.5 -35.5 1.5c-17.333 0 -33.333 -2.5 -48 -7.5s-27.834 -13.333 -39.501 -25s-21.334 -27.334 -29.001 -47.001s-13.167 -44.167 -16.5 -73.5h186v-66h-191v-17v-32v-35h191v-65h-185c7.33301 -56.667 22.333 -96.667 45 -120s52 -35 88 -35
c14.667 0 27.834 0.833008 39.501 2.5s23.167 4.16699 34.5 7.5s22.666 7.33301 33.999 12l37 16l22 -71c-21.333 -11.333 -45.333 -21 -72 -29s-58 -12 -94 -12s-67.333 5.5 -94 16.5s-49.5 26.667 -68.5 47s-34.333 44.5 -46 72.5s-20.167 59 -25.5 93h-77v65h70
c-0.666992 7.33301 -1 15 -1 23v24v19c0 6 0.333008 12 1 18h-70z" />
    <glyph glyph-name="quotesingle" unicode="&#xa9;" horiz-adv-x="220" 
d="M60 567v125h100v-125l-31 -161h-37z" />
    <glyph glyph-name="quotedblleft" unicode="&#xaa;" horiz-adv-x="426" 
d="M305 453c-19.333 0 -35.668 6.33398 -49.001 19.001s-20 29.334 -20 50.001c0 17.333 3.5 33.666 10.5 48.999s15.5 30.666 25.5 45.999l64 102l28 -13l-43 -129l34 -7c4.66699 -4.66699 9 -10.667 13 -18s6 -17 6 -29c0 -21.333 -6.66699 -38.333 -20 -51
s-29.666 -19 -48.999 -19zM120.998 453.001c-19.333 0 -35.667 6.33398 -49 19.001s-20 29.334 -20 50.001c0 17.333 3.5 33.666 10.5 48.999s15.5 30.666 25.5 45.999l65 102l27 -13l-42 -129l33 -7c4.66699 -4.66699 9.16699 -10.667 13.5 -18s6.5 -17 6.5 -29
c0 -21.333 -6.83301 -38.333 -20.5 -51s-30.167 -19 -49.5 -19z" />
    <glyph glyph-name="guillemotleft" unicode="&#xab;" horiz-adv-x="464" 
d="M218 168v70l124 167h90l-112 -152l-48 -50l48 -49l112 -154h-89zM42 168v70l125 167h89l-112 -152l-48 -50l48 -49l112 -154h-88z" />
    <glyph glyph-name="guilsinglleft" unicode="&#xac;" horiz-adv-x="288" 
d="M42 168v70l125 167h89l-112 -152l-48 -50l48 -49l112 -154h-88z" />
    <glyph glyph-name="guilsinglright" unicode="&#xad;" horiz-adv-x="287" 
d="M143 152l49 50l-49 49l-111 154h88l125 -167v-71l-124 -167h-89z" />
    <glyph glyph-name="fi" unicode="&#xae;" horiz-adv-x="548" 
d="M422 613c-17.333 0 -32.166 5.5 -44.499 16.5s-18.5 25.167 -18.5 42.5c0 18 6.16699 32.5 18.5 43.5s27.166 16.5 44.499 16.5s32 -5.5 44 -16.5s18 -25.5 18 -43.5c0 -17.333 -6 -31.5 -18 -42.5s-26.667 -16.5 -44 -16.5zM26 455l0.000976562 69h64v60
c0 48.667 10.667 84.667 32 108s51 35 89 35c19.333 0 36.666 -2.5 51.999 -7.5s28 -10.167 38 -15.5l-5 -51h-61c-20 0 -34 -3.66699 -42 -11s-12 -19 -12 -35v-83h114v-69h-114v-455h-91v455h-64zM376.001 524h91v-524h-91v524z" />
    <glyph glyph-name="fl" unicode="&#xaf;" horiz-adv-x="542" 
d="M26 455v69h64v60c0 48.667 10.667 84.667 32 108s51 35 89 35c20.667 0 38.5 -2.5 53.5 -7.5s27.5 -10.167 37.5 -15.5l-5 -51h-62c-20 0 -34 -3.66699 -42 -11s-12 -19 -12 -35v-83h114v-69h-114v-455h-91v455h-64zM370 718h92v-718h-92v718z" />
    <glyph glyph-name="endash" unicode="&#xb1;" horiz-adv-x="421" 
d="M50 333h321v-70h-321v70z" />
    <glyph glyph-name="dagger" unicode="&#xb2;" horiz-adv-x="491" 
d="M134 394h-87v82h87l91 -25l-30 98v122h101v-122l-31 -98l92 25h87v-82h-87l-93 19l32 -115v-164l-29 -296h-44l-28 296v164l31 115z" />
    <glyph glyph-name="daggerdbl" unicode="&#xb3;" horiz-adv-x="491" 
d="M134 394h-87v82h87l92 -25l-31 98v122h101v-122l-32 -98l93 25h87v-82h-87l-92 19l31 -108v-101l-31 -107l92 19h87v-83h-87l-93 25l32 -98v-122h-101v122l31 98l-92 -25h-87v83h87l91 -19l-30 107v101l30 108z" />
    <glyph glyph-name="periodcentered" unicode="&#xb4;" horiz-adv-x="251" 
d="M126 263c-20 0 -37.333 6.83301 -52 20.5s-22 31.167 -22 52.5c0 22 7.33301 39.833 22 53.5s32 20.5 52 20.5s37.167 -6.83301 51.5 -20.5s21.5 -31.5 21.5 -53.5c0 -21.333 -7.16699 -38.833 -21.5 -52.5s-31.5 -20.5 -51.5 -20.5z" />
    <glyph glyph-name="paragraph" unicode="&#xb6;" horiz-adv-x="508" 
d="M225 324l-72 -13.001c-36 9.33301 -63.833 27.833 -83.5 55.5s-29.5 65.834 -29.5 114.501c0 56 17.833 98.333 53.5 127s83.167 43 142.5 43h191v-751h-64v689h-74v-689h-64v424z" />
    <glyph glyph-name="bullet" unicode="&#xb7;" horiz-adv-x="335" 
d="M166 205c-15.333 0 -30 2.83301 -44 8.5s-26.333 13.834 -37 24.501s-19.167 23.167 -25.5 37.5s-9.5 30.166 -9.5 47.499c0 18 3.16699 34.5 9.5 49.5s14.833 27.667 25.5 38s23 18.5 37 24.5s28.667 9 44 9c16.667 0 32.167 -3 46.5 -9s26.833 -14.167 37.5 -24.5
s19.167 -23 25.5 -38s9.5 -31.5 9.5 -49.5c0 -17.333 -3.16699 -33.166 -9.5 -47.499s-14.833 -26.833 -25.5 -37.5s-23.167 -18.834 -37.5 -24.501s-29.833 -8.5 -46.5 -8.5z" />
    <glyph glyph-name="bullet" unicode="&#x2219;" horiz-adv-x="335" 
d="M166 205c-15.333 0 -30 2.83301 -44 8.5s-26.333 13.834 -37 24.501s-19.167 23.167 -25.5 37.5s-9.5 30.166 -9.5 47.499c0 18 3.16699 34.5 9.5 49.5s14.833 27.667 25.5 38s23 18.5 37 24.5s28.667 9 44 9c16.667 0 32.167 -3 46.5 -9s26.833 -14.167 37.5 -24.5
s19.167 -23 25.5 -38s9.5 -31.5 9.5 -49.5c0 -17.333 -3.16699 -33.166 -9.5 -47.499s-14.833 -26.833 -25.5 -37.5s-23.167 -18.834 -37.5 -24.501s-29.833 -8.5 -46.5 -8.5z" />
    <glyph glyph-name="quotesinglbase" unicode="&#xb8;" horiz-adv-x="243" 
d="M62 -119l43.001 128.001l-33 7c-4.66699 5.33301 -9.16699 11.666 -13.5 18.999s-6.5 17 -6.5 29c0 20.667 6.66699 37.5 20 50.5s29.666 19.5 48.999 19.5s35.833 -6.33301 49.5 -19s20.5 -29.334 20.5 -50.001c0 -17.333 -3.5 -33.666 -10.5 -48.999
s-15.5 -31 -25.5 -47l-65 -101z" />
    <glyph glyph-name="quotedblbase" unicode="&#xb9;" horiz-adv-x="426" 
d="M246 -119l43.0029 128.001l-34 7c-4.66699 5.33301 -9 11.666 -13 18.999s-6 17 -6 29c0 20.667 6.66699 37.5 20 50.5s29.666 19.5 48.999 19.5s35.666 -6.33301 48.999 -19s20 -29.334 20 -50.001c0 -17.333 -3.33301 -33.666 -10 -48.999s-15.334 -31 -26.001 -47
l-64 -101zM62.0029 -118.999l43.001 128.001l-33 7c-4.66699 5.33301 -9.16699 11.666 -13.5 18.999s-6.5 17 -6.5 29c0 20.667 6.66699 37.5 20 50.5s29.666 19.5 48.999 19.5s35.833 -6.33301 49.5 -19s20.5 -29.334 20.5 -50.001c0 -17.333 -3.5 -33.666 -10.5 -48.999
s-15.5 -31 -25.5 -47l-65 -101z" />
    <glyph glyph-name="quotedblright" unicode="&#xba;" horiz-adv-x="426" 
d="M246 449l43.0029 128.999l-34 7c-4.66699 4.66699 -9 10.667 -13 18s-6 17 -6 29c0 21.333 6.66699 38.333 20 51s29.666 19 48.999 19s35.666 -6.33301 48.999 -19s20 -29.334 20 -50.001c0 -17.333 -3.33301 -33.666 -10 -48.999s-15.334 -30.666 -26.001 -45.999
l-64 -102zM62.0029 448.999l43.001 128.999l-33 7c-4.66699 4.66699 -9.16699 10.667 -13.5 18s-6.5 17 -6.5 29c0 21.333 6.66699 38.333 20 51s29.666 19 48.999 19s35.833 -6.33301 49.5 -19s20.5 -29.334 20.5 -50.001c0 -17.333 -3.5 -33.666 -10.5 -48.999
s-15.5 -30.666 -25.5 -45.999l-65 -102z" />
    <glyph glyph-name="guillemotright" unicode="&#xbb;" horiz-adv-x="463" 
d="M319 152l49 50l-49 49l-112 154h89l125 -167v-71l-124 -167h-90zM143 152l49 50l-49 49l-111 154h88l125 -167v-71l-124 -167h-89z" />
    <glyph glyph-name="ellipsis" unicode="&#xbc;" horiz-adv-x="709" 
d="M582 -11c-20 0 -37.167 6.83301 -51.5 20.5s-21.5 31.167 -21.5 52.5c0 22 7.16699 39.833 21.5 53.5s31.5 20.5 51.5 20.5c20.667 0 38.167 -6.83301 52.5 -20.5s21.5 -31.5 21.5 -53.5c0 -21.333 -7.16699 -38.833 -21.5 -52.5s-31.833 -20.5 -52.5 -20.5zM354 -11
c-19.333 0 -36.333 6.83301 -51 20.5s-22 31.167 -22 52.5c0 22 7.33301 39.833 22 53.5s31.667 20.5 51 20.5c20.667 0 38.167 -6.83301 52.5 -20.5s21.5 -31.5 21.5 -53.5c0 -21.333 -7.16699 -38.833 -21.5 -52.5s-31.833 -20.5 -52.5 -20.5zM126 -11
c-19.333 0 -36.333 6.83301 -51 20.5s-22 31.167 -22 52.5c0 22 7.33301 39.833 22 53.5s31.667 20.5 51 20.5c20.667 0 38.167 -6.83301 52.5 -20.5s21.5 -31.5 21.5 -53.5c0 -21.333 -7.16699 -38.833 -21.5 -52.5s-31.833 -20.5 -52.5 -20.5z" />
    <glyph glyph-name="perthousand" unicode="&#xbd;" horiz-adv-x="1200" 
d="M193 250c-26.667 0 -49.835 5.66406 -69.502 16.9971s-36 26.5 -49 45.5s-22.5 41 -28.5 66s-9 51.5 -9 79.5c0 26.667 3.16699 52.334 9.5 77.001s16 46.5 29 65.5s29.5 34.167 49.5 45.5s43.333 17 70 17c27.333 0 50.833 -5.66699 70.5 -17s35.834 -26.333 48.501 -45
s22.167 -40.167 28.5 -64.5s9.5 -49.833 9.5 -76.5c0 -28 -3.16699 -54.667 -9.5 -80s-16.166 -47.666 -29.499 -66.999s-29.833 -34.666 -49.5 -45.999s-43.167 -17 -70.5 -17zM566.999 650.997h69l-369 -651h-68zM1003 -14.0029c-26.667 0 -49.833 5.66406 -69.5 16.9971
s-35.834 26.5 -48.501 45.5s-22.167 41 -28.5 66s-9.5 51.5 -9.5 79.5c0 26.667 3.16699 52.334 9.5 77.001s16 46.5 29 65.5s29.5 34.167 49.5 45.5s43.333 17 70 17c27.333 0 50.833 -5.66699 70.5 -17s36 -26.333 49 -45s22.667 -40.167 29 -64.5s9.5 -49.833 9.5 -76.5
c0 -28 -3.16699 -54.667 -9.5 -80s-16.166 -47.666 -29.499 -66.999s-30 -34.666 -50 -45.999s-43.667 -17 -71 -17zM638 -14.0059c-26.667 0 -49.832 5.66406 -69.499 16.9971s-35.834 26.5 -48.501 45.5s-22.167 41 -28.5 66s-9.5 51.5 -9.5 79.5
c0 26.667 3.16699 52.334 9.5 77.001s16 46.5 29 65.5s29.5 34.167 49.5 45.5s43.333 17 70 17c27.333 0 50.833 -5.66699 70.5 -17s36 -26.333 49 -45s22.5 -40.167 28.5 -64.5s9 -49.833 9 -76.5c0 -28 -3.16699 -54.667 -9.5 -80s-16 -47.666 -29 -66.999
s-29.5 -34.666 -49.5 -45.999s-43.667 -17 -71 -17zM194.002 308.991c22 0 39.668 8.66699 53.001 26s20 50 20 98v46c0 23.333 -1.66699 42.833 -5 58.5s-8.33301 28.167 -15 37.5s-14.334 15.833 -23.001 19.5s-18.667 5.5 -30 5.5s-21.5 -2 -30.5 -6
s-16.833 -10.667 -23.5 -20s-11.667 -21.833 -15 -37.5s-5 -35.167 -5 -58.5v-46c0 -24 1.66699 -44 5 -60s8.33301 -28.667 15 -38s14.5 -15.833 23.5 -19.5s19.167 -5.5 30.5 -5.5zM1004 44.9912c22.667 0 40.667 8.66699 54 26s20 50 20 98v46
c0 23.333 -1.66699 42.833 -5 58.5s-8.33301 28.167 -15 37.5s-14.5 15.833 -23.5 19.5s-19.167 5.5 -30.5 5.5c-10.667 0 -20.5 -2 -29.5 -6s-16.833 -10.667 -23.5 -20s-11.667 -21.833 -15 -37.5s-5 -35.167 -5 -58.5v-46c0 -24 1.66699 -44 5 -60
s8.33301 -28.667 15 -38s14.5 -15.833 23.5 -19.5s18.833 -5.5 29.5 -5.5zM639.003 44.9912c22.667 0 40.667 8.66699 54 26s20 50 20 98v46c0 23.333 -1.66699 42.833 -5 58.5s-8.33301 28.167 -15 37.5s-14.5 15.833 -23.5 19.5s-19.167 5.5 -30.5 5.5
c-10.667 0 -20.5 -2 -29.5 -6s-16.833 -10.667 -23.5 -20s-11.667 -21.833 -15 -37.5s-5 -35.167 -5 -58.5v-46c0 -24 1.66699 -44 5 -60s8.33301 -28.667 15 -38s14.5 -15.833 23.5 -19.5s18.833 -5.5 29.5 -5.5z" />
    <glyph glyph-name="questiondown" unicode="&#xbf;" horiz-adv-x="433" 
d="M255 395c-19.333 0 -35.833 6.33301 -49.5 19s-20.5 29.667 -20.5 51c0 20.667 6.83301 37.334 20.5 50.001s30.167 19 49.5 19c18.667 0 35 -6.33301 49 -19s21 -29.334 21 -50.001c0 -21.333 -7 -38.333 -21 -51s-30.333 -19 -49 -19zM238 -175
c-62.667 0 -110.499 15.332 -143.499 45.999s-49.5 75.334 -49.5 134.001c0 31.333 4.16699 57.666 12.5 78.999s20.166 39.5 35.499 54.5s34 27.167 56 36.5s46.667 17 74 23v129h69l14 -111c2.66699 -19.333 1.16699 -34.166 -4.5 -44.499s-19.167 -19.166 -40.5 -26.499
c-23.333 -7.33301 -42.333 -14.333 -57 -21s-26 -14.5 -34 -23.5s-13.5 -20.167 -16.5 -33.5s-4.5 -30.333 -4.5 -51v-10c0 -38 7.5 -64.5 22.5 -79.5s42.5 -22.5 82.5 -22.5c25.333 0 48.333 2.66699 69 8s44.334 12.666 71.001 21.999l14 -71
c-17.333 -8.66699 -40.833 -17.167 -70.5 -25.5s-62.834 -12.5 -99.501 -12.5z" />
    <glyph glyph-name="grave" unicode="&#xc1;" horiz-adv-x="514" 
d="M118 757h115l53 -164h-54z" />
    <glyph glyph-name="acute" unicode="&#xc2;" 
d="M269 757h114l-113 -164h-55z" />
    <glyph glyph-name="circumflex" unicode="&#xc3;" 
d="M212 769h74l113 -176h-88l-41 76l-23 65l-23 -65l-45 -76h-79z" />
    <glyph glyph-name="tilde" unicode="&#xc4;" 
d="M303 596c-13.333 0 -24.501 2.66699 -33.501 8s-18.167 13 -27.5 23l-19 22c-6 6.66699 -10.833 11.5 -14.5 14.5s-8.5 4.5 -14.5 4.5c-18.667 0 -28 -18.333 -28 -55v-10h-52c0 44 8.33301 77.5 25 100.5s36 34.5 58 34.5c13.333 0 24.5 -2.66699 33.5 -8
s18.167 -13 27.5 -23l18 -22c6.66699 -6.66699 11.834 -11.5 15.501 -14.5s8.5 -4.5 14.5 -4.5c18.667 0 28 18 28 54v10h52c0 -43.333 -8.33301 -76.5 -25 -99.5s-36 -34.5 -58 -34.5z" />
    <glyph glyph-name="macron" unicode="&#xc5;" 
d="M134 701h232v-79h-232v79z" />
    <glyph glyph-name="breve" unicode="&#xc6;" 
d="M253 610c-22 0 -40.832 3.83301 -56.499 11.5s-28.667 18.167 -39 31.5s-18 28.833 -23 46.5s-7.5 36.5 -7.5 56.5h67v-11c0 -22.667 4.16699 -39.667 12.5 -51s23.833 -17 46.5 -17c23.333 0 39.166 5.66699 47.499 17s12.5 28.333 12.5 51v11h67
c0 -20 -2.5 -38.833 -7.5 -56.5s-12.667 -33.167 -23 -46.5s-23.5 -23.833 -39.5 -31.5s-35 -11.5 -57 -11.5z" />
    <glyph glyph-name="dotaccent" unicode="&#xc7;" 
d="M250 595c-16 0 -29.667 5.5 -41 16.5s-17 25.167 -17 42.5s5.66699 31.666 17 42.999s25 17 41 17s29.667 -5.66699 41 -17s17 -25.666 17 -42.999s-5.66699 -31.5 -17 -42.5s-25 -16.5 -41 -16.5z" />
    <glyph glyph-name="dieresis" unicode="&#xc8;" 
d="M337 595c-15.333 0 -28.833 5.5 -40.5 16.5s-17.5 25.167 -17.5 42.5s5.83301 31.666 17.5 42.999s25.167 17 40.5 17c16 0 29.667 -5.66699 41 -17s17 -25.666 17 -42.999s-5.66699 -31.5 -17 -42.5s-25 -16.5 -41 -16.5zM163 595c-16 0 -29.667 5.5 -41 16.5
s-17 25.167 -17 42.5s5.66699 31.666 17 42.999s25 17 41 17c15.333 0 28.833 -5.66699 40.5 -17s17.5 -25.666 17.5 -42.999s-5.83301 -31.5 -17.5 -42.5s-25.167 -16.5 -40.5 -16.5z" />
    <glyph glyph-name="ring" unicode="&#xca;" 
d="M250 589c-28 0 -51.833 9 -71.5 27s-29.5 45.667 -29.5 83s9.83301 65.166 29.5 83.499s43.5 27.5 71.5 27.5s51.833 -9.16699 71.5 -27.5s29.5 -46.166 29.5 -83.499s-9.83301 -65 -29.5 -83s-43.5 -27 -71.5 -27zM250 635c15.333 0 27.166 3.83301 35.499 11.5
s12.5 25.167 12.5 52.5s-4.16699 45.166 -12.5 53.499s-20.166 12.5 -35.499 12.5s-27.166 -4.16699 -35.499 -12.5s-12.5 -26.166 -12.5 -53.499s4.16699 -44.833 12.5 -52.5s20.166 -11.5 35.499 -11.5z" />
    <glyph glyph-name="cedilla" unicode="&#xcb;" 
d="M249 -240c-17.333 0 -33.834 2.33203 -49.501 6.99902s-28.167 10 -37.5 16l8 42c13.333 -5.33301 25.833 -9.83301 37.5 -13.5s23.167 -5.5 34.5 -5.5c35.333 0 53 12.667 53 38v8c0 12.667 -2.5 21.667 -7.5 27s-14.167 8 -27.5 8
c-11.333 0 -19.666 -1.33301 -24.999 -4s-11.333 -6.66699 -18 -12l-31 25l42 104h49l-36 -84l39 16c21.333 -1.33301 39.833 -9 55.5 -23s23.5 -33.667 23.5 -59c0 -31.333 -10.833 -54.166 -32.5 -68.499s-47.5 -21.5 -77.5 -21.5z" />
    <glyph glyph-name="hungarumlaut" unicode="&#xcd;" 
d="M359 757h99l-103 -164h-55zM201 757h99l-103 -164h-55z" />
    <glyph glyph-name="ogonek" unicode="&#xce;" 
d="M253 -239c-28 0 -51.166 7.66895 -69.499 23.002s-27.5 36.333 -27.5 63c0 15.333 2.83301 30.166 8.5 44.499s13.334 27.833 23.001 40.5s20.5 24.667 32.5 36s24 22 36 32h40l-45 -66c-10.667 -15.333 -18.167 -28.833 -22.5 -40.5s-6.5 -25.834 -6.5 -42.501
c0 -30 14 -45 42 -45c11.333 0 21.166 1.33301 29.499 4s19.166 6.66699 32.499 12l6 -42c-7.33301 -4 -17.5 -8.16699 -30.5 -12.5s-29.167 -6.5 -48.5 -6.5z" />
    <glyph glyph-name="caron" unicode="&#xcf;" 
d="M101 769h88l41 -76l23 -65l23 65l45 76h79l-112 -176h-74z" />
    <glyph glyph-name="emdash" unicode="&#xd0;" horiz-adv-x="639" 
d="M50 333h539v-70h-539v70z" />
    <glyph glyph-name="AE" unicode="&#xe1;" horiz-adv-x="830" 
d="M373 651h396v-81h-262v-199h225v-75h-225v-217h279v-79h-378v129h-223l-70 -129h-98zM408 198v260l9 156l-51 -139l-144 -277h186z" />
    <glyph glyph-name="ordfeminine" unicode="&#xe3;" horiz-adv-x="438" 
d="M277 515c0 23.333 -4.66797 42.167 -14.001 56.5s-28 21.5 -56 21.5c-20.667 0 -41.667 -2.66699 -63 -8s-44.333 -11.666 -69 -18.999l-11 62c21.333 9.33301 44 17.5 68 24.5s51 10.5 81 10.5c52 0 89.5 -13.5 112.5 -40.5s34.5 -70.833 34.5 -131.5v-206
c0 -11.333 2 -19 6 -23s10.333 -6 19 -6h18l2 -40c-4.66699 -3.33301 -12 -6.5 -22 -9.5s-20.667 -4.5 -32 -4.5c-14 0 -27.333 2.33301 -40 7l-30 50l-36 -46c-8.66699 -3.33301 -19 -6.33301 -31 -9s-25.667 -4 -41 -4c-17.333 0 -33.666 2.16699 -48.999 6.5
s-28.833 11.5 -40.5 21.5s-21 23 -28 39s-10.5 36 -10.5 60c0 46 12.833 79.167 38.5 99.5s66.167 33.166 121.5 38.499l72 7v43zM276.999 426.001l-66.002 -8.00098c-32 -3.33301 -54 -11.166 -66 -23.499s-18 -32.5 -18 -60.5v-6c0 -25.333 5.33301 -43.5 16 -54.5
s28 -16.5 52 -16.5c20.667 0 37.334 3.83301 50.001 11.5s23.334 16.5 32.001 26.5v131z" />
    <glyph glyph-name="Lslash" unicode="&#xe8;" horiz-adv-x="480" 
d="M23 227v81l71 33v310h100v-264l133 61v-81l-133 -61v-227h255v-79h-355v260z" />
    <glyph glyph-name="Oslash" unicode="&#xe9;" horiz-adv-x="609" 
d="M485 588c25.333 -30 44.334 -67.001 57.001 -111.001s19 -93.333 19 -148c0 -52 -5.16699 -99.167 -15.5 -141.5s-26 -78.333 -47 -108s-47.833 -52.667 -80.5 -69s-71.667 -24.5 -117 -24.5c-25.333 0 -48.333 2.66699 -69 8s-39.667 13 -57 23l-58 -106l-56 32l63 116
c-27.333 30 -47.333 68 -60 114s-19 97.333 -19 154c0 49.333 5.16699 94.5 15.5 135.5s26 76.333 47 106s47.833 52.834 80.5 69.501s71 25 115 25c51.333 0 95.666 -11.333 132.999 -34l53 97l55 -30l-59 -108v0zM398.001 559.999c-22.667 18 -54.667 27 -96 27
c-50.667 0 -89 -18.5 -115 -55.5s-39 -98.5 -39 -184.5v-33c0 -74 7.33301 -131 22 -171zM211.001 82.999c22 -18 52.668 -26.9971 92.001 -26.9971c25.333 0 47.666 4.66699 66.999 14s35.5 24.166 48.5 44.499s22.833 47.166 29.5 80.499s10 74 10 122v34
c0 65.333 -6.66699 115.666 -20 150.999z" />
    <glyph glyph-name="OE" unicode="&#xea;" horiz-adv-x="822" 
d="M330 0c-97.333 0 -169.168 27.168 -215.501 81.501s-69.5 136.166 -69.5 245.499c0 104 22.833 184 68.5 240s114.834 84 207.501 84h439v-81h-257v-199h220v-75h-220v-217h275v-79h-448v0zM402.998 76.001l-0.000976562 493.999h-65c-32 0 -59.667 -3.16699 -83 -9.5
s-42.833 -17.833 -58.5 -34.5s-27.167 -39.5 -34.5 -68.5s-11 -66.167 -11 -111.5v-31c0 -50 3.83301 -90.5 11.5 -121.5s19.334 -55.167 35.001 -72.5s35 -29.166 58 -35.499s49.833 -9.5 80.5 -9.5h67z" />
    <glyph glyph-name="ordmasculine" unicode="&#xeb;" horiz-adv-x="444" 
d="M224 206c-26.667 0 -51.001 5.16504 -73.001 15.498s-40.833 25.333 -56.5 45s-27.667 43.5 -36 71.5s-12.5 60 -12.5 96c0 72.667 16.167 129 48.5 169s75.5 60 129.5 60c26.667 0 50.834 -5.16699 72.501 -15.5s40.334 -25.166 56.001 -44.499s27.667 -43 36 -71
s12.5 -59.667 12.5 -95c0 -73.333 -15.833 -130.166 -47.5 -170.499s-74.834 -60.5 -129.501 -60.5zM223.999 266.998c14.667 0 27.668 2.5 39.001 7.5s21 13.5 29 25.5s14 28.167 18 48.5s6 45.833 6 76.5v15c0 32 -2 58.333 -6 79s-10 37 -18 49s-17.667 20.333 -29 25
s-24.333 7 -39 7s-27.834 -2.33301 -39.501 -7s-21.5 -13 -29.5 -25s-14 -28 -18 -48s-6 -45.333 -6 -76v-15c0 -32 2.16699 -58.5 6.5 -79.5s10.5 -37.5 18.5 -49.5s17.833 -20.5 29.5 -25.5s24.5 -7.5 38.5 -7.5z" />
    <glyph glyph-name="ae" unicode="&#xf1;" horiz-adv-x="746" 
d="M196 -14c-21.333 0 -41.4961 2.66602 -60.4961 7.99902s-35.5 14 -49.5 26s-25 27.5 -33 46.5s-12 42.5 -12 70.5c0 26.667 3.66699 49.5 11 68.5s18.666 34.833 33.999 47.5s35 22.667 59 30s52.667 13 86 17l88 9v55c0 13.333 -1.33301 25.666 -4 36.999
s-7.33398 21 -14.001 29s-15.5 14.333 -26.5 19s-24.833 7 -41.5 7c-24 0 -48.833 -3.16699 -74.5 -9.5s-52.834 -14.5 -81.501 -24.5l-13 71c28 11.333 55.667 21 83 29s58 12 92 12s62.667 -6.66699 86 -20s40 -36 50 -68c13.333 30 32.833 52.167 58.5 66.5
s54.834 21.5 87.501 21.5c65.333 0 113 -21.833 143 -65.5s45 -103.167 45 -178.5v-55h-299c0 -34 2.66699 -62.167 8 -84.5s13.166 -40.166 23.499 -53.499s23.5 -22.833 39.5 -28.5s35 -8.5 57 -8.5c24 0 47.5 3.5 70.5 10.5s46.167 15.167 69.5 24.5l10 -69
c-16 -9.33301 -37.833 -18.333 -65.5 -27s-57.834 -13 -90.501 -13c-83.333 0 -142 32 -176 96l-71 -78c-10.667 -5.33301 -23.5 -9.66602 -38.5 -12.999s-31.833 -5 -50.5 -5zM620.004 296.999l0.00195312 18.001c0 55.333 -8 94.333 -24 117s-40.667 34 -74 34
c-16.667 0 -31.834 -2.5 -45.501 -7.5s-25.167 -13.833 -34.5 -26.5s-16.833 -29.834 -22.5 -51.501s-8.83398 -49.5 -9.50098 -83.5h210zM219.006 52c16 0 30 2 42 6s22.5 9.33301 31.5 16s17.333 14 25 22s14.834 16.333 21.501 25
c-12.667 37.333 -19.334 81.666 -20.001 132.999l-82 -10c-19.333 -2 -35.833 -5.16699 -49.5 -9.5s-24.667 -10.333 -33 -18s-14.5 -17.167 -18.5 -28.5s-6 -25.666 -6 -42.999v-8c0 -30 7.33301 -51.667 22 -65s37 -20 67 -20z" />
    <glyph glyph-name="dotlessi" unicode="&#xf5;" horiz-adv-x="247" 
d="M77 524h92v-524h-92v524z" />
    <glyph glyph-name="lslash" unicode="&#xf8;" horiz-adv-x="311" 
d="M33 254v80l76 42v342h92v-292l77 42v-80l-77 -42v-346h-92v296z" />
    <glyph glyph-name="oslash" unicode="&#xf9;" horiz-adv-x="505" 
d="M402 467c19.333 -23.333 33.999 -52 43.999 -86s15 -73.333 15 -118c0 -90 -18.5 -158.667 -55.5 -206s-88.167 -71 -153.5 -71c-38 0 -72.333 8.66699 -103 26l-53 -96l-52 29l59 106c-20 23.333 -35.333 52.5 -46 87.5s-16 75.5 -16 121.5
c0 89.333 19.167 157.333 57.5 204s89.5 70 153.5 70c40.667 0 75.334 -9 104.001 -27l50 89l52 -28l-56 -101v0zM322.999 446c-9.33301 7.33301 -19.8311 12.335 -31.498 15.002s-24.834 4 -39.501 4c-18.667 0 -35.334 -3.16699 -50.001 -9.5s-27 -16.833 -37 -31.5
s-17.667 -34.334 -23 -59.001s-8 -55.667 -8 -93v-17c0 -54.667 4.33301 -96.334 13 -125.001zM182.001 71.002c16.667 -12 40 -18.002 70 -18.002c18 0 34.333 3.33301 49 10s27 17.834 37 33.501s17.667 36.167 23 61.5s8 56.333 8 93v16c0 26 -1 48.833 -3 68.5
s-4.66699 36.834 -8 51.501z" />
    <glyph glyph-name="oe" unicode="&#xfa;" horiz-adv-x="796" 
d="M458 235c0.666992 -33.333 3.50293 -61.1689 8.50293 -83.502s12.667 -40.333 23 -54s23.5 -23.334 39.5 -29.001s35 -8.5 57 -8.5c24 0 47.5 3.5 70.5 10.5s46.167 15.167 69.5 24.5l10 -69c-16 -9.33301 -37.833 -18.333 -65.5 -27s-57.834 -13 -90.501 -13
c-42 0 -77.5 9 -106.5 27s-49.833 46 -62.5 84c-14.667 -39.333 -35.334 -67.666 -62.001 -84.999s-59 -26 -97 -26c-64.667 0 -115.834 23.5 -153.501 70.5s-56.5 114.833 -56.5 203.5c0 89.333 19.167 157.333 57.5 204s89.5 70 153.5 70c36 0 68.167 -8.66699 96.5 -26
s48.833 -45.666 61.5 -84.999c12 38.667 32.333 66.834 61 84.501s61 26.5 97 26.5c65.333 0 113 -21.833 143 -65.5s45 -103.167 45 -178.5v-55h-299v0zM668.003 296.997l-0.000976562 18.001c0 55.333 -8 94.333 -24 117s-40.667 34 -74 34
c-16.667 0 -31.667 -2.5 -45 -7.5s-24.833 -13.833 -34.5 -26.5s-17.167 -29.834 -22.5 -51.501s-8.66602 -49.5 -9.99902 -83.5h210zM253.002 56.998c18 0 34.166 3.16602 48.499 9.49902s26.333 17 36 32s17 35 22 60s7.5 55.833 7.5 92.5v16c0 38 -2.5 69.5 -7.5 94.5
s-12.167 44.833 -21.5 59.5s-21.166 25 -35.499 31s-30.833 9 -49.5 9s-35.167 -2.83301 -49.5 -8.5s-26.333 -15.834 -36 -30.501s-17 -34 -22 -58s-7.5 -54.667 -7.5 -92v-17c0 -38 2.5 -69.667 7.5 -95s12.5 -45.666 22.5 -60.999s22.167 -26.166 36.5 -32.499
s30.5 -9.5 48.5 -9.5z" />
    <glyph glyph-name="germandbls" unicode="&#xfb;" horiz-adv-x="576" 
d="M374 -14c-34 0 -61.666 3.32812 -82.999 9.99512s-39.666 14 -54.999 22l11 68c16.667 -7.33301 34.167 -14.166 52.5 -20.499s40.166 -9.5 65.499 -9.5c32.667 0 55.167 6 67.5 18s18.5 31.333 18.5 58c0 14.667 -1.33301 26.334 -4 35.001s-7.66699 16 -15 22
s-17.166 11 -29.499 15l-47.5 15c-14.667 4.66699 -29 10 -43 16s-26.5 14.667 -37.5 26s-19.667 25.833 -26 43.5s-9.5 40.167 -9.5 67.5c0 18.667 2.16699 34.834 6.5 48.501s10.166 25.667 17.499 36s15.5 19 24.5 26s17.833 12.833 26.5 17.5l56 6v24
c0 22 -1 40.833 -3 56.5s-6.33301 28.5 -13 38.5s-16.5 17.5 -29.5 22.5s-30.167 7.5 -51.5 7.5c-42 0 -70.5 -12.5 -85.5 -37.5s-22.5 -65.167 -22.5 -120.5v-497h-91v474c0 83.333 15.833 146.333 47.5 189s82.5 64 152.5 64c34.667 0 63.5 -5 86.5 -15
s41.5 -24.333 55.5 -43s23.833 -41.334 29.5 -68.001s8.5 -56.667 8.5 -90v-47l-47 -8c-32 -5.33301 -54 -13.166 -66 -23.499s-18 -29.166 -18 -56.499c0 -14 1.83301 -25.333 5.5 -34s9 -15.667 16 -21s16 -9.66602 27 -12.999l38.5 -12
c15.333 -4.66699 30.666 -10.167 45.999 -16.5s29.166 -15 41.499 -26s22.333 -25.667 30 -44s11.5 -41.833 11.5 -70.5c0 -22 -3.16699 -42.5 -9.5 -61.5s-16.166 -35.167 -29.499 -48.5s-30.333 -23.833 -51 -31.5s-45.667 -11.5 -75 -11.5z" />
    <glyph glyph-name="NUL" horiz-adv-x="0" 
 />
    <glyph glyph-name="nonmarkingreturn" horiz-adv-x="229" 
 />
    <glyph glyph-name="Scaron" horiz-adv-x="494" 
d="M240 -14c-48 0 -87.0029 4.66699 -117.003 14s-55.667 20 -77 32l18 71c28 -12 54.167 -21.833 78.5 -29.5s52.166 -11.5 83.499 -11.5c43.333 0 75.166 7.33301 95.499 22s30.5 42.667 30.5 84c0 16 -1.83301 29.833 -5.5 41.5s-10 21.667 -19 30
s-21.333 15.833 -37 22.5s-35.834 13.334 -60.501 20.001c-29.333 8 -55.166 16.667 -77.499 26s-41 21.333 -56 36s-26.333 32.834 -34 54.501s-11.5 48.5 -11.5 80.5c0 60 17.333 105.667 52 137s84.334 47 149.001 47c40 0 72.833 -3 98.5 -9s49.167 -13.667 70.5 -23
l-14 -76l-36 11c-11.333 3.33301 -22.666 6.16602 -33.999 8.49902s-23.5 4.16602 -36.5 5.49902s-28.167 2 -45.5 2c-39.333 0 -67.666 -6.83301 -84.999 -20.5s-26 -38.167 -26 -73.5c0 -16.667 1.5 -30.5 4.5 -41.5s8.83301 -20.5 17.5 -28.5s20.834 -15 36.501 -21
s36.167 -12.667 61.5 -20c28.667 -7.33301 54.334 -15.833 77.001 -25.5s42 -22 58 -37s28.333 -33.333 37 -55s13 -48.167 13 -79.5c0 -64 -17.667 -112.333 -53 -145s-87.333 -49 -156 -49zM97.9971 888h88l41 -76l23 -65l23 65l45 76h79l-112 -176h-74z" />
    <glyph glyph-name="scaron" horiz-adv-x="408" 
d="M193 -14c-36 0 -66.5039 3.66602 -91.5039 10.999s-45.167 14.666 -60.5 21.999l11 68c17.333 -7.33301 37.166 -14.333 59.499 -21s46.5 -10 72.5 -10c32 0 56.5 6 73.5 18s25.5 33.333 25.5 64c0 14.667 -1.66699 26.5 -5 35.5s-9.33301 16.5 -18 22.5
s-20.667 11.5 -36 16.5s-35 10.5 -59 16.5c-18.667 5.33301 -35.667 11.5 -51 18.5s-28.666 16.333 -39.999 28s-20.166 26 -26.499 43s-9.5 37.5 -9.5 61.5c0 52.667 15.667 91.5 47 116.5s73 37.5 125 37.5c32 0 59.833 -3 83.5 -9s43.167 -13 58.5 -21l-14 -67
c-19.333 6.66699 -38.166 12.167 -56.499 16.5s-40.166 6.5 -65.499 6.5c-31.333 0 -54.666 -5 -69.999 -15s-23 -30 -23 -60c0 -14 2 -25.167 6 -33.5s10.333 -15.333 19 -21s20 -10.667 34 -15s31 -9.16602 51 -14.499c22.667 -6 42.5 -13 59.5 -21
s31.333 -18.167 43 -30.5s20.5 -27.166 26.5 -44.499s9 -38.333 9 -63c0 -46 -14.667 -83.5 -44 -112.5s-74 -43.5 -134 -43.5zM54.9961 768.999h88l41 -76l23 -65l23 65l45 76h79l-112 -176h-74z" />
    <glyph glyph-name="Yacute" horiz-adv-x="530" 
d="M220 231l-197 420h107l114 -264l30 -127l30 127l110 264h93l-187 -415v-236h-100v231zM282 876h114l-113 -164h-55z" />
    <glyph glyph-name="yacute" horiz-adv-x="460" 
d="M188 16l-169 508h95l94 -306l25 -152l27 152l93 306h87l-218 -686h-89zM247 757h114l-113 -164h-55z" />
    <glyph glyph-name="Thorn" horiz-adv-x="543" 
d="M81 651h100v-104h108c74 0 129.167 -18.833 165.5 -56.5s54.5 -87.5 54.5 -149.5c0 -30 -4.5 -57.833 -13.5 -83.5s-22.5 -47.667 -40.5 -66s-40.833 -32.833 -68.5 -43.5s-60.167 -16 -97.5 -16h-108v-132h-100v651zM282 203c44 0 75.168 9.83301 93.501 29.5
s27.5 53.167 27.5 100.5v15c0 45.333 -9.33301 76.833 -28 94.5s-50.334 26.5 -95.001 26.5h-99v-266h101z" />
    <glyph glyph-name="thorn" horiz-adv-x="518" 
d="M166 -162l-92.001 -0.00195312v880h92v-238c14 14 31.333 26.5 52 37.5s46 16.5 76 16.5c58.667 0 103.667 -22.167 135 -66.5s47 -112.833 47 -205.5c0 -95.333 -15.667 -165.166 -47 -209.499s-77.333 -66.5 -138 -66.5c-16 0 -30.167 1.33301 -42.5 4
s-22.166 5.33398 -29.499 8.00098l-53 48v-208zM165.999 88.998c15.333 -11.333 31.167 -20.667 47.5 -28s34.833 -11 55.5 -11c19.333 0 36 3.16699 50 9.5s25.5 17 34.5 32s15.833 34.667 20.5 59s7 54.5 7 90.5v35c0 36 -2.5 65.833 -7.5 89.5s-12 42.5 -21 56.5
s-20.167 23.667 -33.5 29s-28.333 8 -45 8c-26.667 0 -48.667 -5.33301 -66 -16s-31.333 -20.667 -42 -30v-324z" />
    <glyph glyph-name="Zcaron" horiz-adv-x="496" 
d="M45 92l273 430l55 62l-97 -10h-220v77h392v-96l-270 -423l-65 -71l106 14h231v-75h-405v92zM97 888h88l41 -76l23 -65l23 65l45 76h79l-112 -176h-74z" />
    <glyph glyph-name="zcaron" horiz-adv-x="422" 
d="M35 79l225 328l48 49l-94 -8h-166v76h337v-84l-222 -327l-54 -54l97 12h182v-71h-353v79zM63 769h88l41 -76l23 -65l23 65l45 76h79l-112 -176h-74z" />
    <glyph glyph-name="onehalf" horiz-adv-x="836" 
d="M36 309h58v254h-58v36l96 57h41v-347h55v-50h-192v50zM544 651h68l-368 -651h-69zM538 57l3.99902 12c7.33301 27.333 20.333 50.5 39 69.5s38 36.833 58 53.5c20 17.333 34.833 31.833 44.5 43.5s14.5 26.167 14.5 43.5v8c0 21.333 -4.5 35.666 -13.5 42.999
s-23.167 11 -42.5 11c-15.333 0 -29.666 -2 -42.999 -6s-28 -9 -44 -15l-12 55c12 7.33301 27 14.166 45 20.499s41.333 9.5 70 9.5c44 0 75.667 -10.5 95 -31.5s29 -48.5 29 -82.5c0 -18 -2.66699 -33.667 -8 -47s-12.5 -25.5 -21.5 -36.5s-19.5 -21.333 -31.5 -31
s-25 -19.5 -39 -29.5c-17.333 -13.333 -32.333 -26.166 -45 -38.499s-21.667 -28.166 -27 -47.499l-2 -9l68 10h102v-62h-240v57z" />
    <glyph glyph-name="onequarter" horiz-adv-x="836" 
d="M38 309h59v254h-59v36l97 57h40v-347h56v-50h-193v50zM555 651h69l-369 -651h-68zM659 90h-179v42l158 266h99v-252h51v-56h-51v-90h-78v90zM661 146v117l5 95l-34 -79l-78 -133h107z" />
    <glyph glyph-name="onesuperior" horiz-adv-x="293" 
d="M47 309h58v255h-58v36l96 57h41v-348h55v-50h-192v50z" />
    <glyph glyph-name="threequarters" horiz-adv-x="836" 
d="M156 250c-29.333 0 -53.667 2.83008 -73 8.49707s-35 12.167 -47 19.5l13 52c16 -6 30.5 -10.833 43.5 -14.5s28.833 -5.5 47.5 -5.5c24.667 0 43 4.5 55 13.5s18 24.167 18 45.5v9c0 22 -6.5 37.333 -19.5 46s-33.5 13 -61.5 13h-35v53h28c30 0 51 4.33301 63 13
s18 22.667 18 42v6c0 20 -5.5 33.5 -16.5 40.5s-27.833 10.5 -50.5 10.5c-16.667 0 -30.667 -1.33301 -42 -4s-25.333 -6.66699 -42 -12l-8 55c12 5.33301 26.333 10.5 43 15.5s37.667 7.5 63 7.5c45.333 0 78.833 -9.66699 100.5 -29s32.5 -44.666 32.5 -75.999
c0 -27.333 -7.5 -47.666 -22.5 -60.999s-36.5 -23.666 -64.5 -30.999c30.667 -5.33301 54.5 -16 71.5 -32s25.5 -40 25.5 -72c0 -34 -12.333 -61.333 -37 -82s-59 -31 -103 -31zM578.999 650.997h68l-368 -651h-69zM676.999 89.9971h-179v42l158 266h99v-252h51v-56h-51v-90
h-78v90zM678.999 145.997v117l5 95l-34 -79l-79 -133h108z" />
    <glyph glyph-name="threesuperior" horiz-adv-x="352" 
d="M158 250c-29.333 0 -53.832 2.83008 -73.499 8.49707s-35.5 12.167 -47.5 19.5l13 52c16.667 -6 31.5 -10.833 44.5 -14.5s28.5 -5.5 46.5 -5.5c24.667 0 43 4.5 55 13.5s18 24.167 18 45.5v9c0 22 -6.33301 37.333 -19 46s-33 13 -61 13h-35v53h28
c30 0 51 4.33301 63 13s18 22.667 18 42v6c0 20 -5.5 33.5 -16.5 40.5s-27.833 10.5 -50.5 10.5c-16.667 0 -30.834 -1.33301 -42.501 -4s-25.834 -6.66699 -42.501 -12l-8 55c12 5.33301 26.5 10.5 43.5 15.5s38.167 7.5 63.5 7.5c44.667 0 77.834 -9.66699 99.501 -29
s32.5 -44.666 32.5 -75.999c0 -27.333 -7.5 -47.666 -22.5 -60.999s-36.5 -23.666 -64.5 -30.999c30.667 -5.33301 54.667 -16 72 -32s26 -40 26 -72c0 -34 -12.333 -61.333 -37 -82s-59 -31 -103 -31z" />
    <glyph glyph-name="twosuperior" horiz-adv-x="335" 
d="M43 315l3.99902 12.001c8 28 21.167 51.333 39.5 70s37.5 36.667 57.5 54s35 31.833 45 43.5s15 26.167 15 43.5v8c0 20.667 -4.66699 34.667 -14 42s-23.333 11 -42 11c-15.333 0 -29.666 -1.83301 -42.999 -5.5s-28.333 -8.83398 -45 -15.501l-11 56
c12 7.33301 27 14.166 45 20.499s41.333 9.5 70 9.5c43.333 0 74.833 -10.667 94.5 -32s29.5 -49 29.5 -83c0 -17.333 -2.66699 -32.666 -8 -45.999s-12.5 -25.5 -21.5 -36.5s-19.667 -21.5 -32 -31.5l-38.5 -30c-18 -13.333 -33.333 -26 -46 -38s-21.667 -28 -27 -48l-2 -8
l69 9h101v-61h-240v56z" />
    <glyph glyph-name="brokenbar" horiz-adv-x="199" 
d="M63 718h73v-369h-73v369zM63 273h73v-373h-73v373z" />
    <glyph glyph-name="minus" horiz-adv-x="497" 
d="M54 343h388v-77h-388v77z" />
    <glyph glyph-name="multiply" horiz-adv-x="497" 
d="M432 170l-53 -51.999l-130 132l-5.5 -5.5l-14.5 -15l-21 -21.5l-24 -24l-65 -66l-53 52l131 133l-131 134l53 52l65 -66l45 -45.5c13.333 -13.667 20 -20.834 20 -21.501l130 133l53 -52l-131 -133z" />
    <glyph glyph-name="eth" horiz-adv-x="505" 
d="M202 544l-25.001 47.999l84 42c-10 14.667 -20.667 28.834 -32 42.501l-34 41.5h86c7.33301 -6.66699 14.833 -14 22.5 -22s15.834 -17.333 24.501 -28l86 43l25 -49l-76 -38c12.667 -18.667 25 -39.334 37 -62.001s22.667 -47.834 32 -75.501
s16.833 -57.834 22.5 -90.501s8.5 -68 8.5 -106c0 -54 -4.83301 -100.167 -14.5 -138.5s-23.5 -69.666 -41.5 -93.999s-40 -42.333 -66 -54s-55.333 -17.5 -88 -17.5c-64.667 0 -116 21.667 -154 65s-57 109 -57 197c0 44.667 5 83.334 15 116.001s23.833 59.5 41.5 80.5
s38.5 36.5 62.5 46.5s50.333 15 79 15c8.66699 0 16.167 -0.666992 22.5 -2l18.5 -4l71 -57c-6.66699 28.667 -15 54.834 -25 78.501s-21.667 46.167 -35 67.5zM360.999 394.999c-14 11.333 -29.333 20.833 -46 28.5s-37.667 11.5 -63 11.5c-18 0 -34.167 -2.66699 -48.5 -8
s-26.333 -14.5 -36 -27.5s-17 -30.833 -22 -53.5s-7.5 -51.667 -7.5 -87v-16c0 -36.667 2.5 -67 7.5 -91s12.5 -43 22.5 -57s22.167 -23.833 36.5 -29.5s30.5 -8.5 48.5 -8.5s34.167 2.66699 48.5 8s26.5 15.833 36.5 31.5s17.5 37.5 22.5 65.5s7.5 65 7.5 111v16
c0 19.333 -0.666992 37.833 -2 55.5s-3 34.5 -5 50.5z" />
    <glyph glyph-name="Adieresis" horiz-adv-x="573" 
d="M116 0h-87l211 651h98l207 -651h-104l-38 129h-247zM308 445l-24 129l-29 -129l-77 -247h204zM371 714c-15.333 0 -28.833 5.5 -40.5 16.5s-17.5 25.167 -17.5 42.5s5.83301 31.666 17.5 42.999s25.167 17 40.5 17c16 0 29.667 -5.66699 41 -17s17 -25.666 17 -42.999
s-5.66699 -31.5 -17 -42.5s-25 -16.5 -41 -16.5zM197 714c-16 0 -29.667 5.5 -41 16.5s-17 25.167 -17 42.5s5.66699 31.666 17 42.999s25 17 41 17c15.333 0 28.833 -5.66699 40.5 -17s17.5 -25.666 17.5 -42.999s-5.83301 -31.5 -17.5 -42.5s-25.167 -16.5 -40.5 -16.5z
" />
    <glyph glyph-name="Aring" horiz-adv-x="573" 
d="M230 624c-13.333 8 -24.167 19.833 -32.5 35.5s-12.5 35.167 -12.5 58.5c0 37.333 9.83301 65.166 29.5 83.499s43.5 27.5 71.5 27.5s51.833 -9.16699 71.5 -27.5s29.5 -46.166 29.5 -83.499c0 -22 -3.66699 -40.667 -11 -56s-17.333 -27.333 -30 -36l8.5 -26.5
l22.5 -70.5l32 -100.5l37 -115.5l99 -313h-104l-38 129h-247l-40 -129h-87zM285.999 653c16 0 28 4 36 12s12 25.667 12 53s-4 45.166 -12 53.499s-20 12.5 -36 12.5c-15.333 0 -27.166 -4.16699 -35.499 -12.5s-12.5 -26.166 -12.5 -53.499s4.16699 -45 12.5 -53
s20.166 -12 35.499 -12zM381.999 198l-74 247l-24 129l-29 -129l-77 -247h204z" />
    <glyph glyph-name="Ccedilla" horiz-adv-x="506" 
d="M254 -10c-38 6 -70.1729 18.667 -96.5059 38s-47.833 43.833 -64.5 73.5s-28.667 63.667 -36 102s-11 79.5 -11 123.5c0 48 4.83301 92.5 14.5 133.5s24.834 76.5 45.501 106.5s47.667 53.5 81 70.5s73.333 25.5 120 25.5c34 0 63.5 -3.16699 88.5 -9.5
s48.833 -14.5 71.5 -24.5l-12 -79l-42 12.5c-12.667 3.66699 -25 6.66699 -37 9s-24 4.16602 -36 5.49902s-25 2 -39 2c-20.667 0 -40.167 -3.33301 -58.5 -10s-34.166 -18.834 -47.499 -36.501s-23.833 -41.5 -31.5 -71.5s-11.5 -68 -11.5 -114v-32
c0 -47.333 3.5 -87 10.5 -119s17 -57.667 30 -77s28.833 -33.166 47.5 -41.499s39.667 -12.5 63 -12.5c16 0 30.333 1 43 3s24.834 4.66699 36.501 8s23.334 7.33301 35.001 12l38.5 15l22 -76c-23.333 -11.333 -49.166 -21 -77.499 -29s-60.5 -12 -96.5 -12h-3l-30 -70
l39 16c21.333 -1.33301 39.833 -9 55.5 -23s23.5 -33.667 23.5 -59c0 -31.333 -10.833 -54.166 -32.5 -68.499s-47.5 -21.5 -77.5 -21.5c-17.333 0 -33.833 2.33301 -49.5 7s-28.167 10 -37.5 16l8 42c13.333 -5.33301 25.833 -9.83301 37.5 -13.5s23.167 -5.5 34.5 -5.5
c35.333 0 53 12.667 53 38v8c0 12.667 -2.5 21.667 -7.5 27s-14.167 8 -27.5 8c-11.333 0 -19.666 -1.33301 -24.999 -4s-11.333 -6.66699 -18 -12l-31 25l38 94v0z" />
    <glyph glyph-name="Eacute" horiz-adv-x="505" 
d="M81 651h362v-81h-262v-199h225v-75h-225v-217h280v-79h-380v651zM271 876h114l-113 -164h-55z" />
    <glyph glyph-name="Ntilde" horiz-adv-x="608" 
d="M82 651h110l201 -389l69 -189l-24 220v358h89v-651h-106l-211 405l-62 179l22 -208v-376h-88v651zM355 715c-13.333 0 -24.501 2.66699 -33.501 8s-18.167 13 -27.5 23l-19 22c-6 6.66699 -10.833 11.5 -14.5 14.5s-8.5 4.5 -14.5 4.5c-18.667 0 -28 -18.333 -28 -55v-10
h-52c0 44 8.33301 77.5 25 100.5s36 34.5 58 34.5c13.333 0 24.5 -2.66699 33.5 -8s18.167 -13 27.5 -23l18 -22c6.66699 -6.66699 11.834 -11.5 15.501 -14.5s8.5 -4.5 14.5 -4.5c18.667 0 28 18 28 54v10h52c0 -43.333 -8.33301 -76.5 -25 -99.5s-36 -34.5 -58 -34.5z" />
    <glyph glyph-name="Odieresis" horiz-adv-x="609" 
d="M303 -14c-44.667 0 -83.166 8.33105 -115.499 24.998s-59 40.167 -80 70.5s-36.5 66.333 -46.5 108s-15 87.5 -15 137.5c0 49.333 5.16699 94.5 15.5 135.5s26.166 76.333 47.499 106s48.333 52.834 81 69.501s71 25 115 25s82.333 -8.16699 115 -24.5
s59.5 -39.166 80.5 -68.499s36.667 -64.5 47 -105.5s15.5 -86.167 15.5 -135.5c0 -52 -5.16699 -99.167 -15.5 -141.5s-26 -78.333 -47 -108s-47.833 -52.667 -80.5 -69s-71.667 -24.5 -117 -24.5zM305.001 59.998c25.333 0 47.499 4.33398 66.499 13.001
s34.833 23.167 47.5 43.5s22.167 46.833 28.5 79.5s9.5 73 9.5 121v34c0 43.333 -3.16699 79.666 -9.5 108.999s-15.833 53.333 -28.5 72s-28.5 32 -47.5 40s-41.5 12 -67.5 12c-51.333 0 -89.666 -18 -114.999 -54s-38 -97 -38 -183v-33c0 -48 3.33301 -88.167 10 -120.5
s16.5 -58.5 29.5 -78.5s29.167 -34.167 48.5 -42.5s41.333 -12.5 66 -12.5zM389 713.999c-15.333 0 -28.833 5.5 -40.5 16.5s-17.5 25.167 -17.5 42.5s5.83301 31.666 17.5 42.999s25.167 17 40.5 17c16 0 29.667 -5.66699 41 -17s17 -25.666 17 -42.999
s-5.66699 -31.5 -17 -42.5s-25 -16.5 -41 -16.5zM215 713.999c-16 0 -29.667 5.5 -41 16.5s-17 25.167 -17 42.5s5.66699 31.666 17 42.999s25 17 41 17c15.333 0 28.833 -5.66699 40.5 -17s17.5 -25.666 17.5 -42.999s-5.83301 -31.5 -17.5 -42.5
s-25.167 -16.5 -40.5 -16.5z" />
    <glyph glyph-name="Udieresis" horiz-adv-x="599" 
d="M417 651h100.999v-651h-62l-28 64l-40 -55c-10.667 -4.66699 -26.167 -9.66699 -46.5 -15s-44.166 -8 -71.499 -8c-32 0 -60 4.66699 -84 14s-44 24.333 -60 45s-28.167 47.334 -36.5 80.001s-12.5 72 -12.5 118v408h100v-435c0 -30.667 2 -56 6 -76
s10.5 -35.667 19.5 -47s20.667 -19.333 35 -24s31.5 -7 51.5 -7c30 0 54.833 3.66699 74.5 11s37.5 15.666 53.5 24.999v553zM382.999 714c-15.333 0 -28.833 5.5 -40.5 16.5s-17.5 25.167 -17.5 42.5s5.83301 31.666 17.5 42.999s25.167 17 40.5 17
c16 0 29.667 -5.66699 41 -17s17 -25.666 17 -42.999s-5.66699 -31.5 -17 -42.5s-25 -16.5 -41 -16.5zM208.999 714c-16 0 -29.667 5.5 -41 16.5s-17 25.167 -17 42.5s5.66699 31.666 17 42.999s25 17 41 17c15.333 0 28.833 -5.66699 40.5 -17s17.5 -25.666 17.5 -42.999
s-5.83301 -31.5 -17.5 -42.5s-25.167 -16.5 -40.5 -16.5z" />
    <glyph glyph-name="aacute" horiz-adv-x="489" 
d="M317 364c0 13.333 -1.33008 25.667 -3.99707 37s-7.16699 21 -13.5 29s-14.833 14.333 -25.5 19s-24.334 7 -41.001 7c-24 0 -48.667 -3.16699 -74 -9.5s-52.333 -14.5 -81 -24.5l-14 71c23.333 10 49.333 19.333 78 28s61 13 97 13c60 0 103.167 -15.833 129.5 -47.5
s39.5 -83.167 39.5 -154.5v-246c0 -14 2.5 -23.333 7.5 -28s13.167 -7 24.5 -7h21l3 -45c-5.33301 -4 -12.833 -7.83301 -22.5 -11.5s-21.5 -5.5 -35.5 -5.5c-8 0 -16 0.5 -24 1.5s-15.667 2.83301 -23 5.5l-37 58l-44 -51c-10 -4.66699 -22.333 -8.66699 -37 -12
s-31.334 -5 -50.001 -5c-20 0 -39.167 2.66699 -57.5 8s-34.333 14 -48 26s-24.5 27.5 -32.5 46.5s-12 42.5 -12 70.5c0 26.667 3.66699 49.5 11 68.5s18.666 34.833 33.999 47.5s35 22.667 59 30s52.667 13 86 17l86 10v54zM317.003 254.001l-79.998 -10
c-38 -4 -65.333 -13 -82 -27s-25 -38 -25 -72v-8c0 -30 7.33301 -51.667 22 -65s37 -20 67 -20c25.333 0 45.666 4.33301 60.999 13s27.666 18.667 36.999 30v159zM249.005 757.001h114l-113 -164h-55z" />
    <glyph glyph-name="agrave" horiz-adv-x="489" 
d="M317 364c0 13.333 -1.33008 25.667 -3.99707 37s-7.16699 21 -13.5 29s-14.833 14.333 -25.5 19s-24.334 7 -41.001 7c-24 0 -48.667 -3.16699 -74 -9.5s-52.333 -14.5 -81 -24.5l-14 71c23.333 10 49.333 19.333 78 28s61 13 97 13c60 0 103.167 -15.833 129.5 -47.5
s39.5 -83.167 39.5 -154.5v-246c0 -14 2.5 -23.333 7.5 -28s13.167 -7 24.5 -7h21l3 -45c-5.33301 -4 -12.833 -7.83301 -22.5 -11.5s-21.5 -5.5 -35.5 -5.5c-8 0 -16 0.5 -24 1.5s-15.667 2.83301 -23 5.5l-37 58l-44 -51c-10 -4.66699 -22.333 -8.66699 -37 -12
s-31.334 -5 -50.001 -5c-20 0 -39.167 2.66699 -57.5 8s-34.333 14 -48 26s-24.5 27.5 -32.5 46.5s-12 42.5 -12 70.5c0 26.667 3.66699 49.5 11 68.5s18.666 34.833 33.999 47.5s35 22.667 59 30s52.667 13 86 17l86 10v54zM317.003 254.001l-79.998 -10
c-38 -4 -65.333 -13 -82 -27s-25 -38 -25 -72v-8c0 -30 7.33301 -51.667 22 -65s37 -20 67 -20c25.333 0 45.666 4.33301 60.999 13s27.666 18.667 36.999 30v159zM111.005 757.001h115l53 -164h-54z" />
    <glyph glyph-name="acircumflex" horiz-adv-x="489" 
d="M317 364c0 13.333 -1.33008 25.667 -3.99707 37s-7.16699 21 -13.5 29s-14.833 14.333 -25.5 19s-24.334 7 -41.001 7c-24 0 -48.667 -3.16699 -74 -9.5s-52.333 -14.5 -81 -24.5l-14 71c23.333 10 49.333 19.333 78 28s61 13 97 13c60 0 103.167 -15.833 129.5 -47.5
s39.5 -83.167 39.5 -154.5v-246c0 -14 2.5 -23.333 7.5 -28s13.167 -7 24.5 -7h21l3 -45c-5.33301 -4 -12.833 -7.83301 -22.5 -11.5s-21.5 -5.5 -35.5 -5.5c-8 0 -16 0.5 -24 1.5s-15.667 2.83301 -23 5.5l-37 58l-44 -51c-10 -4.66699 -22.333 -8.66699 -37 -12
s-31.334 -5 -50.001 -5c-20 0 -39.167 2.66699 -57.5 8s-34.333 14 -48 26s-24.5 27.5 -32.5 46.5s-12 42.5 -12 70.5c0 26.667 3.66699 49.5 11 68.5s18.666 34.833 33.999 47.5s35 22.667 59 30s52.667 13 86 17l86 10v54zM317.003 254.001l-79.998 -10
c-38 -4 -65.333 -13 -82 -27s-25 -38 -25 -72v-8c0 -30 7.33301 -51.667 22 -65s37 -20 67 -20c25.333 0 45.666 4.33301 60.999 13s27.666 18.667 36.999 30v159zM201.005 769.001h74l113 -176h-88l-41 76l-23 65l-23 -65l-45 -76h-79z" />
    <glyph glyph-name="adieresis" horiz-adv-x="489" 
d="M317 364c0 13.333 -1.33008 25.667 -3.99707 37s-7.16699 21 -13.5 29s-14.833 14.333 -25.5 19s-24.334 7 -41.001 7c-24 0 -48.667 -3.16699 -74 -9.5s-52.333 -14.5 -81 -24.5l-14 71c23.333 10 49.333 19.333 78 28s61 13 97 13c60 0 103.167 -15.833 129.5 -47.5
s39.5 -83.167 39.5 -154.5v-246c0 -14 2.5 -23.333 7.5 -28s13.167 -7 24.5 -7h21l3 -45c-5.33301 -4 -12.833 -7.83301 -22.5 -11.5s-21.5 -5.5 -35.5 -5.5c-8 0 -16 0.5 -24 1.5s-15.667 2.83301 -23 5.5l-37 58l-44 -51c-10 -4.66699 -22.333 -8.66699 -37 -12
s-31.334 -5 -50.001 -5c-20 0 -39.167 2.66699 -57.5 8s-34.333 14 -48 26s-24.5 27.5 -32.5 46.5s-12 42.5 -12 70.5c0 26.667 3.66699 49.5 11 68.5s18.666 34.833 33.999 47.5s35 22.667 59 30s52.667 13 86 17l86 10v54zM317.003 254.001l-79.998 -10
c-38 -4 -65.333 -13 -82 -27s-25 -38 -25 -72v-8c0 -30 7.33301 -51.667 22 -65s37 -20 67 -20c25.333 0 45.666 4.33301 60.999 13s27.666 18.667 36.999 30v159zM330.005 595.001c-15.333 0 -28.833 5.5 -40.5 16.5s-17.5 25.167 -17.5 42.5s5.83301 31.666 17.5 42.999
s25.167 17 40.5 17c16 0 29.667 -5.66699 41 -17s17 -25.666 17 -42.999s-5.66699 -31.5 -17 -42.5s-25 -16.5 -41 -16.5zM156.005 595.001c-16 0 -29.667 5.5 -41 16.5s-17 25.167 -17 42.5s5.66699 31.666 17 42.999s25 17 41 17c15.333 0 28.833 -5.66699 40.5 -17
s17.5 -25.666 17.5 -42.999s-5.83301 -31.5 -17.5 -42.5s-25.167 -16.5 -40.5 -16.5z" />
    <glyph glyph-name="atilde" horiz-adv-x="489" 
d="M317 364c0 13.333 -1.33008 25.667 -3.99707 37s-7.16699 21 -13.5 29s-14.833 14.333 -25.5 19s-24.334 7 -41.001 7c-24 0 -48.667 -3.16699 -74 -9.5s-52.333 -14.5 -81 -24.5l-14 71c23.333 10 49.333 19.333 78 28s61 13 97 13c60 0 103.167 -15.833 129.5 -47.5
s39.5 -83.167 39.5 -154.5v-246c0 -14 2.5 -23.333 7.5 -28s13.167 -7 24.5 -7h21l3 -45c-5.33301 -4 -12.833 -7.83301 -22.5 -11.5s-21.5 -5.5 -35.5 -5.5c-8 0 -16 0.5 -24 1.5s-15.667 2.83301 -23 5.5l-37 58l-44 -51c-10 -4.66699 -22.333 -8.66699 -37 -12
s-31.334 -5 -50.001 -5c-20 0 -39.167 2.66699 -57.5 8s-34.333 14 -48 26s-24.5 27.5 -32.5 46.5s-12 42.5 -12 70.5c0 26.667 3.66699 49.5 11 68.5s18.666 34.833 33.999 47.5s35 22.667 59 30s52.667 13 86 17l86 10v54zM317.003 254.001l-79.998 -10
c-38 -4 -65.333 -13 -82 -27s-25 -38 -25 -72v-8c0 -30 7.33301 -51.667 22 -65s37 -20 67 -20c25.333 0 45.666 4.33301 60.999 13s27.666 18.667 36.999 30v159zM290.005 596.001c-13.333 0 -24.501 2.66699 -33.501 8s-18.167 13 -27.5 23l-19 22
c-6 6.66699 -10.833 11.5 -14.5 14.5s-8.5 4.5 -14.5 4.5c-18.667 0 -28 -18.333 -28 -55v-10h-52c0 44 8.33301 77.5 25 100.5s36 34.5 58 34.5c13.333 0 24.5 -2.66699 33.5 -8s18.167 -13 27.5 -23l18 -22c6.66699 -6.66699 11.834 -11.5 15.501 -14.5
s8.5 -4.5 14.5 -4.5c18.667 0 28 18 28 54v10h52c0 -43.333 -8.33301 -76.5 -25 -99.5s-36 -34.5 -58 -34.5z" />
    <glyph glyph-name="aring" horiz-adv-x="489" 
d="M317 364c0 13.333 -1.33008 25.667 -3.99707 37s-7.16699 21 -13.5 29s-14.833 14.333 -25.5 19s-24.334 7 -41.001 7c-24 0 -48.667 -3.16699 -74 -9.5s-52.333 -14.5 -81 -24.5l-14 71c23.333 10 49.333 19.333 78 28s61 13 97 13c60 0 103.167 -15.833 129.5 -47.5
s39.5 -83.167 39.5 -154.5v-246c0 -14 2.5 -23.333 7.5 -28s13.167 -7 24.5 -7h21l3 -45c-5.33301 -4 -12.833 -7.83301 -22.5 -11.5s-21.5 -5.5 -35.5 -5.5c-8 0 -16 0.5 -24 1.5s-15.667 2.83301 -23 5.5l-37 58l-44 -51c-10 -4.66699 -22.333 -8.66699 -37 -12
s-31.334 -5 -50.001 -5c-20 0 -39.167 2.66699 -57.5 8s-34.333 14 -48 26s-24.5 27.5 -32.5 46.5s-12 42.5 -12 70.5c0 26.667 3.66699 49.5 11 68.5s18.666 34.833 33.999 47.5s35 22.667 59 30s52.667 13 86 17l86 10v54zM317.003 254.001l-79.998 -10
c-38 -4 -65.333 -13 -82 -27s-25 -38 -25 -72v-8c0 -30 7.33301 -51.667 22 -65s37 -20 67 -20c25.333 0 45.666 4.33301 60.999 13s27.666 18.667 36.999 30v159zM239.005 589.001c-28 0 -51.833 9 -71.5 27s-29.5 45.667 -29.5 83s9.83301 65.166 29.5 83.499
s43.5 27.5 71.5 27.5s51.833 -9.16699 71.5 -27.5s29.5 -46.166 29.5 -83.499s-9.83301 -65 -29.5 -83s-43.5 -27 -71.5 -27zM239.005 635.001c15.333 0 27.166 3.83301 35.499 11.5s12.5 25.167 12.5 52.5s-4.16699 45.166 -12.5 53.499s-20.166 12.5 -35.499 12.5
s-27.166 -4.16699 -35.499 -12.5s-12.5 -26.166 -12.5 -53.499s4.16699 -44.833 12.5 -52.5s20.166 -11.5 35.499 -11.5z" />
    <glyph glyph-name="ccedilla" horiz-adv-x="424" 
d="M207 -11c-54 9.33301 -94.999 36.834 -122.999 82.501s-42 109.167 -42 190.5c0 92 17.333 160.333 52 205s86 67 154 67c29.333 0 56 -3.16699 80 -9.5s44.667 -13.5 62 -21.5l-14 -70c-22.667 7.33301 -43.5 13.166 -62.5 17.499s-38.833 6.5 -59.5 6.5
c-18.667 0 -35.334 -2.5 -50.001 -7.5s-26.834 -14.333 -36.501 -28s-17 -32.334 -22 -56.001s-7.5 -54.5 -7.5 -92.5v-16c0 -38.667 2.5 -70.667 7.5 -96s12.5 -45.5 22.5 -60.5s22.167 -25.5 36.5 -31.5s30.833 -9 49.5 -9c24 0 45.5 3.16699 64.5 9.5
s39.5 14.5 61.5 24.5l15 -69c-16 -9.33301 -36 -18 -60 -26s-51 -12.333 -81 -13l-30 -70l39 16c21.333 -1.33301 39.833 -9 55.5 -23s23.5 -33.667 23.5 -59c0 -31.333 -10.833 -54.166 -32.5 -68.499s-47.5 -21.5 -77.5 -21.5c-17.333 0 -33.833 2.33301 -49.5 7
s-28.167 10 -37.5 16l8 42c13.333 -5.33301 25.833 -9.83301 37.5 -13.5s23.167 -5.5 34.5 -5.5c35.333 0 53 12.667 53 38v8c0 12.667 -2.5 21.667 -7.5 27s-14.167 8 -27.5 8c-11.333 0 -19.666 -1.33301 -24.999 -4s-11.333 -6.66699 -18 -12l-31 25l38 93v0z" />
    <glyph glyph-name="eacute" horiz-adv-x="482" 
d="M138 233c0.666992 -32.667 3.49805 -59.999 8.49805 -81.999s12.667 -39.667 23 -53s23.5 -23 39.5 -29s35 -9 57 -9c24.667 0 48 3.33301 70 10s44.333 14.667 67 24l15 -68c-15.333 -8.66699 -37.166 -17.5 -65.499 -26.5s-59.166 -13.5 -92.499 -13.5
c-72 0 -126.333 23 -163 69s-55 114.667 -55 206c0 93.333 19 162.166 57 206.499s88.333 66.5 151 66.5c65.333 0 113 -21.833 143 -65.5s45 -103.167 45 -178.5v-57h-300v0zM348.998 299.001l0.000976562 16c0 55.333 -8 94.333 -24 117s-40.667 34 -74 34
c-16.667 0 -31.834 -2.5 -45.501 -7.5s-25.167 -13.667 -34.5 -26s-16.833 -29.333 -22.5 -51s-9.16699 -49.167 -10.5 -82.5h211zM259.999 757.001h114l-113 -164h-55z" />
    <glyph glyph-name="egrave" horiz-adv-x="482" 
d="M138 233c0.666992 -32.667 3.49805 -59.999 8.49805 -81.999s12.667 -39.667 23 -53s23.5 -23 39.5 -29s35 -9 57 -9c24.667 0 48 3.33301 70 10s44.333 14.667 67 24l15 -68c-15.333 -8.66699 -37.166 -17.5 -65.499 -26.5s-59.166 -13.5 -92.499 -13.5
c-72 0 -126.333 23 -163 69s-55 114.667 -55 206c0 93.333 19 162.166 57 206.499s88.333 66.5 151 66.5c65.333 0 113 -21.833 143 -65.5s45 -103.167 45 -178.5v-57h-300v0zM348.998 299.001l0.000976562 16c0 55.333 -8 94.333 -24 117s-40.667 34 -74 34
c-16.667 0 -31.834 -2.5 -45.501 -7.5s-25.167 -13.667 -34.5 -26s-16.833 -29.333 -22.5 -51s-9.16699 -49.167 -10.5 -82.5h211zM112.999 757.001h115l53 -164h-54z" />
    <glyph glyph-name="ecircumflex" horiz-adv-x="482" 
d="M138 233c0.666992 -32.667 3.49805 -59.999 8.49805 -81.999s12.667 -39.667 23 -53s23.5 -23 39.5 -29s35 -9 57 -9c24.667 0 48 3.33301 70 10s44.333 14.667 67 24l15 -68c-15.333 -8.66699 -37.166 -17.5 -65.499 -26.5s-59.166 -13.5 -92.499 -13.5
c-72 0 -126.333 23 -163 69s-55 114.667 -55 206c0 93.333 19 162.166 57 206.499s88.333 66.5 151 66.5c65.333 0 113 -21.833 143 -65.5s45 -103.167 45 -178.5v-57h-300v0zM348.998 299.001l0.000976562 16c0 55.333 -8 94.333 -24 117s-40.667 34 -74 34
c-16.667 0 -31.834 -2.5 -45.501 -7.5s-25.167 -13.667 -34.5 -26s-16.833 -29.333 -22.5 -51s-9.16699 -49.167 -10.5 -82.5h211zM204.999 769.001h74l113 -176h-88l-41 76l-23 65l-23 -65l-45 -76h-79z" />
    <glyph glyph-name="edieresis" horiz-adv-x="482" 
d="M138 233c0.666992 -32.667 3.49805 -59.999 8.49805 -81.999s12.667 -39.667 23 -53s23.5 -23 39.5 -29s35 -9 57 -9c24.667 0 48 3.33301 70 10s44.333 14.667 67 24l15 -68c-15.333 -8.66699 -37.166 -17.5 -65.499 -26.5s-59.166 -13.5 -92.499 -13.5
c-72 0 -126.333 23 -163 69s-55 114.667 -55 206c0 93.333 19 162.166 57 206.499s88.333 66.5 151 66.5c65.333 0 113 -21.833 143 -65.5s45 -103.167 45 -178.5v-57h-300v0zM348.998 299.001l0.000976562 16c0 55.333 -8 94.333 -24 117s-40.667 34 -74 34
c-16.667 0 -31.834 -2.5 -45.501 -7.5s-25.167 -13.667 -34.5 -26s-16.833 -29.333 -22.5 -51s-9.16699 -49.167 -10.5 -82.5h211zM328.999 595.001c-15.333 0 -28.833 5.5 -40.5 16.5s-17.5 25.167 -17.5 42.5s5.83301 31.666 17.5 42.999s25.167 17 40.5 17
c16 0 29.667 -5.66699 41 -17s17 -25.666 17 -42.999s-5.66699 -31.5 -17 -42.5s-25 -16.5 -41 -16.5zM154.999 595.001c-16 0 -29.667 5.5 -41 16.5s-17 25.167 -17 42.5s5.66699 31.666 17 42.999s25 17 41 17c15.333 0 28.833 -5.66699 40.5 -17
s17.5 -25.666 17.5 -42.999s-5.83301 -31.5 -17.5 -42.5s-25.167 -16.5 -40.5 -16.5z" />
    <glyph glyph-name="iacute" horiz-adv-x="247" 
d="M77 524h92v-524h-92v524zM140 757h114l-113 -164h-55z" />
    <glyph glyph-name="igrave" horiz-adv-x="247" 
d="M77 524h92v-524h-92v524zM-7 757h115l53 -164h-54z" />
    <glyph glyph-name="icircumflex" horiz-adv-x="247" 
d="M77 524h92v-524h-92v524zM85 769h74l113 -176h-88l-41 76l-23 65l-23 -65l-45 -76h-79z" />
    <glyph glyph-name="idieresis" horiz-adv-x="247" 
d="M77 524h92v-524h-92v524zM210 595c-15.333 0 -28.833 5.5 -40.5 16.5s-17.5 25.167 -17.5 42.5s5.83301 31.666 17.5 42.999s25.167 17 40.5 17c16 0 29.667 -5.66699 41 -17s17 -25.666 17 -42.999s-5.66699 -31.5 -17 -42.5s-25 -16.5 -41 -16.5zM36 595
c-16 0 -29.667 5.5 -41 16.5s-17 25.167 -17 42.5s5.66699 31.666 17 42.999s25 17 41 17c15.333 0 28.833 -5.66699 40.5 -17s17.5 -25.666 17.5 -42.999s-5.83301 -31.5 -17.5 -42.5s-25.167 -16.5 -40.5 -16.5z" />
    <glyph glyph-name="ntilde" horiz-adv-x="519" 
d="M213 513c11.333 5.33301 24.832 10.167 40.499 14.5s33.834 6.5 54.501 6.5c44 0 78.5 -13 103.5 -39s37.5 -68.333 37.5 -127v-368h-92v380c0 30 -7 50.667 -21 62s-32.667 17 -56 17s-43.333 -3.5 -60 -10.5s-34.667 -16.5 -54 -28.5v-420h-92v524h56l34 -67z
M310.999 596.001c-13.333 0 -24.501 2.66699 -33.501 8s-18.167 13 -27.5 23l-19 22c-6 6.66699 -10.833 11.5 -14.5 14.5s-8.5 4.5 -14.5 4.5c-18.667 0 -28 -18.333 -28 -55v-10h-52c0 44 8.33301 77.5 25 100.5s36 34.5 58 34.5c13.333 0 24.5 -2.66699 33.5 -8
s18.167 -13 27.5 -23l18 -22c6.66699 -6.66699 11.834 -11.5 15.501 -14.5s8.5 -4.5 14.5 -4.5c18.667 0 28 18 28 54v10h52c0 -43.333 -8.33301 -76.5 -25 -99.5s-36 -34.5 -58 -34.5z" />
    <glyph glyph-name="oacute" horiz-adv-x="505" 
d="M253 -14c-65.333 0 -116.835 23.5 -154.502 70.5s-56.5 114.833 -56.5 203.5c0 89.333 19.167 157.333 57.5 204s89.5 70 153.5 70c64.667 0 115.834 -23 153.501 -69s56.5 -113.333 56.5 -202c0 -90 -18.667 -158.667 -56 -206s-88.666 -71 -153.999 -71zM252.998 57
c18 0 33.999 3.33105 47.999 9.99805s25.833 17.5 35.5 32.5s17.167 34.833 22.5 59.5s8 55.334 8 92.001v16c0 38 -2.5 69.5 -7.5 94.5s-12.167 44.833 -21.5 59.5s-21.166 25 -35.499 31s-30.833 9 -49.5 9s-35.167 -2.83301 -49.5 -8.5s-26.333 -15.834 -36 -30.501
s-17 -34 -22 -58s-7.5 -54.667 -7.5 -92v-17c0 -37.333 2.66699 -68.666 8 -93.999s12.833 -45.666 22.5 -60.999s21.667 -26.333 36 -33s30.5 -10 48.5 -10zM269.997 756.998h114l-113 -164h-55z" />
    <glyph glyph-name="ograve" horiz-adv-x="505" 
d="M253 -14c-65.333 0 -116.835 23.5 -154.502 70.5s-56.5 114.833 -56.5 203.5c0 89.333 19.167 157.333 57.5 204s89.5 70 153.5 70c64.667 0 115.834 -23 153.501 -69s56.5 -113.333 56.5 -202c0 -90 -18.667 -158.667 -56 -206s-88.666 -71 -153.999 -71zM252.998 57
c18 0 33.999 3.33105 47.999 9.99805s25.833 17.5 35.5 32.5s17.167 34.833 22.5 59.5s8 55.334 8 92.001v16c0 38 -2.5 69.5 -7.5 94.5s-12.167 44.833 -21.5 59.5s-21.166 25 -35.499 31s-30.833 9 -49.5 9s-35.167 -2.83301 -49.5 -8.5s-26.333 -15.834 -36 -30.501
s-17 -34 -22 -58s-7.5 -54.667 -7.5 -92v-17c0 -37.333 2.66699 -68.666 8 -93.999s12.833 -45.666 22.5 -60.999s21.667 -26.333 36 -33s30.5 -10 48.5 -10zM118.997 756.998h115l53 -164h-54z" />
    <glyph glyph-name="ocircumflex" horiz-adv-x="505" 
d="M253 -14c-65.333 0 -116.835 23.5 -154.502 70.5s-56.5 114.833 -56.5 203.5c0 89.333 19.167 157.333 57.5 204s89.5 70 153.5 70c64.667 0 115.834 -23 153.501 -69s56.5 -113.333 56.5 -202c0 -90 -18.667 -158.667 -56 -206s-88.666 -71 -153.999 -71zM252.998 57
c18 0 33.999 3.33105 47.999 9.99805s25.833 17.5 35.5 32.5s17.167 34.833 22.5 59.5s8 55.334 8 92.001v16c0 38 -2.5 69.5 -7.5 94.5s-12.167 44.833 -21.5 59.5s-21.166 25 -35.499 31s-30.833 9 -49.5 9s-35.167 -2.83301 -49.5 -8.5s-26.333 -15.834 -36 -30.501
s-17 -34 -22 -58s-7.5 -54.667 -7.5 -92v-17c0 -37.333 2.66699 -68.666 8 -93.999s12.833 -45.666 22.5 -60.999s21.667 -26.333 36 -33s30.5 -10 48.5 -10zM212.997 768.998h74l113 -176h-88l-41 76l-23 65l-23 -65l-45 -76h-79z" />
    <glyph glyph-name="odieresis" horiz-adv-x="505" 
d="M253 -14c-65.333 0 -116.835 23.5 -154.502 70.5s-56.5 114.833 -56.5 203.5c0 89.333 19.167 157.333 57.5 204s89.5 70 153.5 70c64.667 0 115.834 -23 153.501 -69s56.5 -113.333 56.5 -202c0 -90 -18.667 -158.667 -56 -206s-88.666 -71 -153.999 -71zM252.998 57
c18 0 33.999 3.33105 47.999 9.99805s25.833 17.5 35.5 32.5s17.167 34.833 22.5 59.5s8 55.334 8 92.001v16c0 38 -2.5 69.5 -7.5 94.5s-12.167 44.833 -21.5 59.5s-21.166 25 -35.499 31s-30.833 9 -49.5 9s-35.167 -2.83301 -49.5 -8.5s-26.333 -15.834 -36 -30.501
s-17 -34 -22 -58s-7.5 -54.667 -7.5 -92v-17c0 -37.333 2.66699 -68.666 8 -93.999s12.833 -45.666 22.5 -60.999s21.667 -26.333 36 -33s30.5 -10 48.5 -10zM337.997 594.998c-15.333 0 -28.833 5.5 -40.5 16.5s-17.5 25.167 -17.5 42.5s5.83301 31.666 17.5 42.999
s25.167 17 40.5 17c16 0 29.667 -5.66699 41 -17s17 -25.666 17 -42.999s-5.66699 -31.5 -17 -42.5s-25 -16.5 -41 -16.5zM163.997 594.998c-16 0 -29.667 5.5 -41 16.5s-17 25.167 -17 42.5s5.66699 31.666 17 42.999s25 17 41 17c15.333 0 28.833 -5.66699 40.5 -17
s17.5 -25.666 17.5 -42.999s-5.83301 -31.5 -17.5 -42.5s-25.167 -16.5 -40.5 -16.5z" />
    <glyph glyph-name="otilde" horiz-adv-x="505" 
d="M253 -14c-65.333 0 -116.835 23.5 -154.502 70.5s-56.5 114.833 -56.5 203.5c0 89.333 19.167 157.333 57.5 204s89.5 70 153.5 70c64.667 0 115.834 -23 153.501 -69s56.5 -113.333 56.5 -202c0 -90 -18.667 -158.667 -56 -206s-88.666 -71 -153.999 -71zM252.998 57
c18 0 33.999 3.33105 47.999 9.99805s25.833 17.5 35.5 32.5s17.167 34.833 22.5 59.5s8 55.334 8 92.001v16c0 38 -2.5 69.5 -7.5 94.5s-12.167 44.833 -21.5 59.5s-21.166 25 -35.499 31s-30.833 9 -49.5 9s-35.167 -2.83301 -49.5 -8.5s-26.333 -15.834 -36 -30.501
s-17 -34 -22 -58s-7.5 -54.667 -7.5 -92v-17c0 -37.333 2.66699 -68.666 8 -93.999s12.833 -45.666 22.5 -60.999s21.667 -26.333 36 -33s30.5 -10 48.5 -10zM303.997 595.998c-13.333 0 -24.501 2.66699 -33.501 8s-18.167 13 -27.5 23l-19 22
c-6 6.66699 -10.833 11.5 -14.5 14.5s-8.5 4.5 -14.5 4.5c-18.667 0 -28 -18.333 -28 -55v-10h-52c0 44 8.33301 77.5 25 100.5s36 34.5 58 34.5c13.333 0 24.5 -2.66699 33.5 -8s18.167 -13 27.5 -23l18 -22c6.66699 -6.66699 11.834 -11.5 15.501 -14.5
s8.5 -4.5 14.5 -4.5c18.667 0 28 18 28 54v10h52c0 -43.333 -8.33301 -76.5 -25 -99.5s-36 -34.5 -58 -34.5z" />
    <glyph glyph-name="uacute" horiz-adv-x="517" 
d="M351 524h91.999v-524h-57l-33 64l-45 -55c-12 -5.33301 -26.167 -10 -42.5 -14s-34.833 -6 -55.5 -6c-42.667 0 -76.667 13.333 -102 40s-38 69 -38 127v368h92v-379c0 -32.667 6.83301 -55.167 20.5 -67.5s31.834 -18.5 54.501 -18.5c24.667 0 45.5 3.5 62.5 10.5
s34.167 16.167 51.5 27.5v427zM276.999 757h114l-113 -164h-55z" />
    <glyph glyph-name="ugrave" horiz-adv-x="517" 
d="M351 524h91.999v-524h-57l-33 64l-45 -55c-12 -5.33301 -26.167 -10 -42.5 -14s-34.833 -6 -55.5 -6c-42.667 0 -76.667 13.333 -102 40s-38 69 -38 127v368h92v-379c0 -32.667 6.83301 -55.167 20.5 -67.5s31.834 -18.5 54.501 -18.5c24.667 0 45.5 3.5 62.5 10.5
s34.167 16.167 51.5 27.5v427zM125.999 757h115l53 -164h-54z" />
    <glyph glyph-name="ucircumflex" horiz-adv-x="517" 
d="M351 524h91.999v-524h-57l-33 64l-45 -55c-12 -5.33301 -26.167 -10 -42.5 -14s-34.833 -6 -55.5 -6c-42.667 0 -76.667 13.333 -102 40s-38 69 -38 127v368h92v-379c0 -32.667 6.83301 -55.167 20.5 -67.5s31.834 -18.5 54.501 -18.5c24.667 0 45.5 3.5 62.5 10.5
s34.167 16.167 51.5 27.5v427zM219.999 769h74l113 -176h-88l-41 76l-23 65l-23 -65l-45 -76h-79z" />
    <glyph glyph-name="udieresis" horiz-adv-x="517" 
d="M351 524h91.999v-524h-57l-33 64l-45 -55c-12 -5.33301 -26.167 -10 -42.5 -14s-34.833 -6 -55.5 -6c-42.667 0 -76.667 13.333 -102 40s-38 69 -38 127v368h92v-379c0 -32.667 6.83301 -55.167 20.5 -67.5s31.834 -18.5 54.501 -18.5c24.667 0 45.5 3.5 62.5 10.5
s34.167 16.167 51.5 27.5v427zM344.999 595c-15.333 0 -28.833 5.5 -40.5 16.5s-17.5 25.167 -17.5 42.5s5.83301 31.666 17.5 42.999s25.167 17 40.5 17c16 0 29.667 -5.66699 41 -17s17 -25.666 17 -42.999s-5.66699 -31.5 -17 -42.5s-25 -16.5 -41 -16.5zM170.999 595
c-16 0 -29.667 5.5 -41 16.5s-17 25.167 -17 42.5s5.66699 31.666 17 42.999s25 17 41 17c15.333 0 28.833 -5.66699 40.5 -17s17.5 -25.666 17.5 -42.999s-5.83301 -31.5 -17.5 -42.5s-25.167 -16.5 -40.5 -16.5z" />
    <glyph glyph-name="degree" horiz-adv-x="321" 
d="M161 364c-16.667 0 -32.501 2.99902 -47.501 8.99902s-28.167 15.167 -39.5 27.5s-20.333 28 -27 47s-10 41.167 -10 66.5s3.33301 47.333 10 66s15.834 34.167 27.501 46.5s25 21.5 40 27.5s30.5 9 46.5 9s31.5 -3 46.5 -9s28.167 -15.167 39.5 -27.5
s20.333 -27.666 27 -45.999s10 -40.166 10 -65.499c0 -26 -3.33301 -48.333 -10 -67s-15.5 -34.334 -26.5 -47.001s-24 -22 -39 -28s-30.833 -9 -47.5 -9zM160.999 413.999c18 0 31.8311 6.33398 41.498 19.001s14.5 36.667 14.5 72v17c0 35.333 -4.83301 59 -14.5 71
s-23.5 18 -41.5 18c-9.33301 0 -17.666 -1.33301 -24.999 -4s-13.333 -7.33398 -18 -14.001s-8.16699 -15.667 -10.5 -27s-3.5 -25.666 -3.5 -42.999v-16c0 -36.667 4.83301 -61.334 14.5 -74.001s23.834 -19 42.501 -19z" />
    <glyph glyph-name="registered" horiz-adv-x="458" 
d="M227 168c-66 0 -114.667 22 -146 66s-47 105.333 -47 184c0 76 16.167 135.833 48.5 179.5s81.166 65.5 146.499 65.5c64.667 0 113.334 -21.5 146.001 -64.5s49 -102.833 49 -179.5c0 -85.333 -16 -148.5 -48 -189.5s-81.667 -61.5 -149 -61.5zM227 205
c28.667 0 53.168 3.83301 73.501 11.5s36.833 20 49.5 37s22 39 28 66s9 60.167 9 99.5c0 72 -12.333 124.667 -37 158s-65 50 -121 50c-56.667 0 -97.334 -17.167 -122.001 -51.5s-37 -86.833 -37 -157.5c0 -74 12 -128 36 -162s64.333 -51 121 -51zM287.001 369
l45.999 -93h-54l-52 111h-34v-111h-51v284h89c32.667 0 57 -7.66699 73 -23s24 -36.666 24 -63.999c0 -19.333 -4.66699 -36.333 -14 -51s-27.666 -24.334 -54.999 -29.001zM228 420c17.333 0 29.5 3.83203 36.5 11.499s10.5 19.834 10.5 36.501v6
c0 16 -3.66699 27.5 -11 34.5s-19.333 10.5 -36 10.5h-35v-99h35z" />
    <glyph glyph-name="copyright" horiz-adv-x="616" 
d="M306 -14c-90 0 -156.667 29.833 -200 89.5s-65 143.5 -65 251.5c0 52 5.5 98.833 16.5 140.5s27.667 77 50 106s50.166 51.167 83.499 66.5s72.333 23 117 23c88.667 0 155.334 -29.333 200.001 -88s67 -140.667 67 -246c0 -116 -22 -202.167 -66 -258.5
s-111.667 -84.5 -203 -84.5zM306 28c40 0 74.333 5.50098 103 16.501s52 28.5 70 52.5s31.167 55.167 39.5 93.5s12.5 84.5 12.5 138.5c0 99.333 -17.667 172.833 -53 220.5s-92 71.5 -170 71.5c-79.333 0 -136.333 -24.333 -171 -73s-52 -122.334 -52 -221.001
c0 -102 16.833 -177.333 50.5 -226s90.5 -73 170.5 -73zM313 96.001c-30.667 0 -56.6641 6 -77.9971 18s-38.666 28.333 -51.999 49s-22.833 45.167 -28.5 73.5s-8.5 58.5 -8.5 90.5s3 61.833 9 89.5s15.667 51.667 29 72s30.666 36.333 51.999 48s47.333 17.5 78 17.5
c23.333 0 43.166 -2.16699 59.499 -6.5s33.166 -9.83301 50.499 -16.5l-9 -63c-21.333 7.33301 -38.666 12.5 -51.999 15.5s-29 4.5 -47 4.5c-27.333 0 -48.833 -11 -64.5 -33s-23.5 -60 -23.5 -114v-23c0 -56.667 7.33301 -97.167 22 -121.5s37 -36.5 67 -36.5
c19.333 0 35.666 2.33301 48.999 7l49 18l18 -57c-18.667 -10.667 -37.334 -18.667 -56.001 -24s-40 -8 -64 -8z" />
    <glyph glyph-name="trademark" horiz-adv-x="738" 
d="M343 651h86l64 -232l15 -109l18 109l67 232h89v-374h-71v141l14 199l-38 -166l-52 -174h-63l-49 178l-33 162l12 -194v-146h-59v374zM40 594v57h256v-57h-92v-317h-72v317h-92z" />
    <glyph glyph-name="notequal" horiz-adv-x="601" 
d="M319 455l-0.000976562 69h59v60c0 48.667 10.667 84.667 32 108s51.333 35 90 35c22.667 0 42.334 -2.33301 59.001 -7s30.667 -10 42 -16l-5 -51h-78c-17.333 0 -29.833 -3.66699 -37.5 -11s-11.5 -19 -11.5 -35v-83h116v-69h-116v-455h-91v455h-59zM25.999 455v69h64
v60c0 49.333 11 85.5 33 108.5s52 34.5 90 34.5c23.333 0 43.333 -2.33301 60 -7s30.667 -9.66699 42 -15l-4 -52h-76c-20 0 -34 -3.66699 -42 -11s-12 -19 -12 -35v-83h96v-69h-96v-455h-91v455h-64z" />
    <glyph glyph-name="infinity" horiz-adv-x="836" 
d="M710 613c-16.667 0 -31.167 5.5 -43.5 16.5s-18.5 25.167 -18.5 42.5c0 18 6.16699 32.5 18.5 43.5s26.833 16.5 43.5 16.5c17.333 0 32.166 -5.5 44.499 -16.5s18.5 -25.5 18.5 -43.5c0 -17.333 -6.16699 -31.5 -18.5 -42.5s-27.166 -16.5 -44.499 -16.5zM319 455
l0.00195312 69h59v60c0 48.667 10.833 84.667 32.5 108s51.5 35 89.5 35c19.333 0 36.666 -2.5 51.999 -7.5s27.666 -10.167 36.999 -15.5l-5 -51h-60c-20 0 -34.167 -3.66699 -42.5 -11s-12.5 -19 -12.5 -35v-83h115v-69h-115v-455h-91v455h-59zM26.002 455v69h64v60
c0 49.333 11 85.5 33 108.5s52 34.5 90 34.5c23.333 0 43.333 -2.33301 60 -7s30.667 -9.66699 42 -15l-4 -52h-76c-20 0 -34 -3.66699 -42 -11s-12 -19 -12 -35v-83h96v-69h-96v-455h-91v455h-64zM664.002 524h92v-524h-92v524z" />
    <glyph glyph-name="plusminus" horiz-adv-x="831" 
d="M319 455v69h59v60c0 48.667 10.833 84.667 32.5 108s51.5 35 89.5 35c20.667 0 39 -2.5 55 -7.5s28.667 -10.167 38 -15.5l-4 -51h-65c-20 0 -34.167 -3.66699 -42.5 -11s-12.5 -19 -12.5 -35v-83h115v-69h-115v-455h-91v455h-59zM26 455v69h64v60
c0 49.333 11 85.5 33 108.5s52 34.5 90 34.5c23.333 0 43.333 -2.33301 60 -7s30.667 -9.66699 42 -15l-4 -52h-76c-20 0 -34 -3.66699 -42 -11s-12 -19 -12 -35v-83h96v-69h-96v-455h-91v455h-64zM659 718h91v-718h-91v718z" />
    <glyph glyph-name="lessequal" horiz-adv-x="265" 
d="M81 444v248h104v-248l-30 -248h-44zM72 -121l43.001 125.002l-35 9c-4.66699 4 -8.83398 9.66699 -12.501 17s-5.5 16.666 -5.5 27.999c0 21.333 7 38.666 21 51.999s30.333 20 49 20c19.333 0 36 -6.66699 50 -20s21 -30.333 21 -51c0 -18 -4.33301 -35.333 -13 -52
s-18 -32.667 -28 -48l-60 -93z" />
    <glyph glyph-name="greaterequal" horiz-adv-x="433" 
d="M127 310c-2.66699 19.333 -1.16992 34.001 4.49707 44.001s19.167 19 40.5 27c23.333 7.33301 42.333 14.333 57 21s26 14.667 34 24s13.5 20.666 16.5 33.999s4.5 30.333 4.5 51v10c0 19.333 -1.66699 35.5 -5 48.5s-9.16602 23.333 -17.499 31
s-19.166 13.167 -32.499 16.5s-30 5 -50 5c-25.333 0 -48.333 -2.5 -69 -7.5s-44.334 -12.167 -71.001 -21.5l-14 70c17.333 9.33301 40.833 18.166 70.5 26.499s62.834 12.5 99.501 12.5c62.667 0 110.5 -15.167 143.5 -45.5s49.5 -75.166 49.5 -134.499
c0 -30.667 -4.16699 -57 -12.5 -79s-20.166 -40.5 -35.499 -55.5s-34 -27.333 -56 -37s-46.667 -17.5 -74 -23.5v-131h-69zM116.997 -120.999l43 125.002l-35 9c-4.66699 4 -9 9.66699 -13 17s-6 16.666 -6 27.999c0 21.333 7 38.666 21 51.999s30.667 20 50 20
s36 -6.66699 50 -20s21 -30.333 21 -51c0 -18 -4.33301 -35.333 -13 -52s-18 -32.667 -28 -48l-60 -93z" />
    <glyph glyph-name="mu" horiz-adv-x="521" 
d="M355 524h91.9961v-524h-57l-33 64l-45 -57c-9.33301 -4.66699 -21.166 -8.66699 -35.499 -12s-30.166 -5 -47.499 -5c-13.333 0 -23.666 1 -30.999 3l-53 48l19 -93v-110h-90v686h92v-379c0 -32.667 6.83301 -55.167 20.5 -67.5s31.834 -18.5 54.501 -18.5
c24.667 0 45.5 3.5 62.5 10.5s34.167 16.167 51.5 27.5v427z" />
    <glyph glyph-name="partialdiff" horiz-adv-x="594" 
d="M75 -14c-14.667 0 -26.6689 6.83301 -36.002 20.5s-17.166 34.5 -23.499 62.5s-11.833 63.167 -16.5 105.5s-9.33398 92.5 -14.001 150.5h29c3.33301 -33.333 6.33301 -68.333 9 -105s6.16699 -70.334 10.5 -101.001s9.66602 -56 15.999 -76s14.833 -30 25.5 -30
s19.167 10 25.5 30s11.666 45.333 15.999 76s8 64.334 11 101.001l8.5 105l14 150.5c4 42.333 9 77.333 15 105s13.5 48.334 22.5 62.001s20.833 20.5 35.5 20.5s26.5 -6.83301 35.5 -20.5s16.5 -34.334 22.5 -62.001s11.167 -62.667 15.5 -105s8.83301 -92.5 13.5 -150.5
c3.33301 -33.333 6.33301 -68.333 9 -105s6.16699 -70.334 10.5 -101.001s9.66602 -56 15.999 -76s14.833 -30 25.5 -30s19.167 10 25.5 30s11.666 45.333 15.999 76s8 64.334 11 101.001l8.5 105l14 150.5c4 42.333 9 77.333 15 105s13.5 48.334 22.5 62.001
s20.833 20.5 35.5 20.5s26.667 -6.83301 36 -20.5s17.166 -34.334 23.499 -62.001s11.833 -62.667 16.5 -105s9.33398 -92.5 14.001 -150.5h-29l-8.5 105c-3 36.667 -6.66699 70.334 -11 101.001s-9.66602 55.834 -15.999 75.501s-14.833 29.5 -25.5 29.5
s-19 -9.83301 -25 -29.5s-11 -44.834 -15 -75.501s-7.16699 -64.334 -9.5 -101.001s-5.16602 -71.667 -8.49902 -105c-4.66699 -58 -9.33398 -108.167 -14.001 -150.5s-10.167 -77.5 -16.5 -105.5s-14.166 -48.833 -23.499 -62.5s-21.333 -20.5 -36 -20.5
s-26.667 6.83301 -36 20.5s-17.166 34.5 -23.499 62.5s-11.666 63.167 -15.999 105.5s-9.16602 92.5 -14.499 150.5l-8 105c-2.66699 36.667 -6 70.334 -10 101.001s-9 55.834 -15 75.501s-14.333 29.5 -25 29.5s-19 -9.83301 -25 -29.5s-11 -44.834 -15 -75.501
s-7.16699 -64.334 -9.5 -101.001s-5.16602 -71.667 -8.49902 -105c-4.66699 -58 -9.33398 -108.167 -14.001 -150.5s-10.167 -77.5 -16.5 -105.5s-14.166 -48.833 -23.499 -62.5s-21.333 -20.5 -36 -20.5z" />
    <glyph glyph-name="summation" horiz-adv-x="594" 
d="M75 -14c-14.667 0 -26.6689 6.83301 -36.002 20.5s-17.166 34.5 -23.499 62.5s-11.833 63.167 -16.5 105.5s-9.33398 92.5 -14.001 150.5h29c3.33301 -33.333 6.33301 -68.333 9 -105s6.16699 -70.334 10.5 -101.001s9.66602 -56 15.999 -76s14.833 -30 25.5 -30
s19.167 10 25.5 30s11.666 45.333 15.999 76s8 64.334 11 101.001l8.5 105l14 150.5c4 42.333 9 77.333 15 105s13.5 48.334 22.5 62.001s20.833 20.5 35.5 20.5s26.5 -6.83301 35.5 -20.5s16.5 -34.334 22.5 -62.001s11.167 -62.667 15.5 -105s8.83301 -92.5 13.5 -150.5
c3.33301 -33.333 6.33301 -68.333 9 -105s6.16699 -70.334 10.5 -101.001s9.66602 -56 15.999 -76s14.833 -30 25.5 -30s19.167 10 25.5 30s11.666 45.333 15.999 76s8 64.334 11 101.001l8.5 105l14 150.5c4 42.333 9 77.333 15 105s13.5 48.334 22.5 62.001
s20.833 20.5 35.5 20.5s26.667 -6.83301 36 -20.5s17.166 -34.334 23.499 -62.001s11.833 -62.667 16.5 -105s9.33398 -92.5 14.001 -150.5h-29l-8.5 105c-3 36.667 -6.66699 70.334 -11 101.001s-9.66602 55.834 -15.999 75.501s-14.833 29.5 -25.5 29.5
s-19 -9.83301 -25 -29.5s-11 -44.834 -15 -75.501s-7.16699 -64.334 -9.5 -101.001s-5.16602 -71.667 -8.49902 -105c-4.66699 -58 -9.33398 -108.167 -14.001 -150.5s-10.167 -77.5 -16.5 -105.5s-14.166 -48.833 -23.499 -62.5s-21.333 -20.5 -36 -20.5
s-26.667 6.83301 -36 20.5s-17.166 34.5 -23.499 62.5s-11.666 63.167 -15.999 105.5s-9.16602 92.5 -14.499 150.5l-8 105c-2.66699 36.667 -6 70.334 -10 101.001s-9 55.834 -15 75.501s-14.333 29.5 -25 29.5s-19 -9.83301 -25 -29.5s-11 -44.834 -15 -75.501
s-7.16699 -64.334 -9.5 -101.001s-5.16602 -71.667 -8.49902 -105c-4.66699 -58 -9.33398 -108.167 -14.001 -150.5s-10.167 -77.5 -16.5 -105.5s-14.166 -48.833 -23.499 -62.5s-21.333 -20.5 -36 -20.5z" />
    <glyph glyph-name="product" horiz-adv-x="594" 
d="M75 -14c-14.667 0 -26.6689 6.83301 -36.002 20.5s-17.166 34.5 -23.499 62.5s-11.833 63.167 -16.5 105.5s-9.33398 92.5 -14.001 150.5h29c3.33301 -33.333 6.33301 -68.333 9 -105s6.16699 -70.334 10.5 -101.001s9.66602 -56 15.999 -76s14.833 -30 25.5 -30
s19.167 10 25.5 30s11.666 45.333 15.999 76s8 64.334 11 101.001l8.5 105l14 150.5c4 42.333 9 77.333 15 105s13.5 48.334 22.5 62.001s20.833 20.5 35.5 20.5s26.5 -6.83301 35.5 -20.5s16.5 -34.334 22.5 -62.001s11.167 -62.667 15.5 -105s8.83301 -92.5 13.5 -150.5
c3.33301 -33.333 6.33301 -68.333 9 -105s6.16699 -70.334 10.5 -101.001s9.66602 -56 15.999 -76s14.833 -30 25.5 -30s19.167 10 25.5 30s11.666 45.333 15.999 76s8 64.334 11 101.001l8.5 105l14 150.5c4 42.333 9 77.333 15 105s13.5 48.334 22.5 62.001
s20.833 20.5 35.5 20.5s26.667 -6.83301 36 -20.5s17.166 -34.334 23.499 -62.001s11.833 -62.667 16.5 -105s9.33398 -92.5 14.001 -150.5h-29l-8.5 105c-3 36.667 -6.66699 70.334 -11 101.001s-9.66602 55.834 -15.999 75.501s-14.833 29.5 -25.5 29.5
s-19 -9.83301 -25 -29.5s-11 -44.834 -15 -75.501s-7.16699 -64.334 -9.5 -101.001s-5.16602 -71.667 -8.49902 -105c-4.66699 -58 -9.33398 -108.167 -14.001 -150.5s-10.167 -77.5 -16.5 -105.5s-14.166 -48.833 -23.499 -62.5s-21.333 -20.5 -36 -20.5
s-26.667 6.83301 -36 20.5s-17.166 34.5 -23.499 62.5s-11.666 63.167 -15.999 105.5s-9.16602 92.5 -14.499 150.5l-8 105c-2.66699 36.667 -6 70.334 -10 101.001s-9 55.834 -15 75.501s-14.333 29.5 -25 29.5s-19 -9.83301 -25 -29.5s-11 -44.834 -15 -75.501
s-7.16699 -64.334 -9.5 -101.001s-5.16602 -71.667 -8.49902 -105c-4.66699 -58 -9.33398 -108.167 -14.001 -150.5s-10.167 -77.5 -16.5 -105.5s-14.166 -48.833 -23.499 -62.5s-21.333 -20.5 -36 -20.5z" />
    <glyph glyph-name="pi" horiz-adv-x="616" 
d="M306 -14c-90 0 -156.667 29.833 -200 89.5s-65 143.5 -65 251.5c0 52 5.5 98.833 16.5 140.5s27.667 77 50 106s50.166 51.167 83.499 66.5s72.333 23 117 23c88.667 0 155.334 -29.333 200.001 -88s67 -140.667 67 -246c0 -116 -22 -202.167 -66 -258.5
s-111.667 -84.5 -203 -84.5zM306 28c40 0 74.333 5.50098 103 16.501s52 28.5 70 52.5s31.167 55.167 39.5 93.5s12.5 84.5 12.5 138.5c0 99.333 -17.667 172.833 -53 220.5s-92 71.5 -170 71.5c-79.333 0 -136.333 -24.333 -171 -73s-52 -122.334 -52 -221.001
c0 -102 16.833 -177.333 50.5 -226s90.5 -73 170.5 -73zM185 542.001h132.001c49.333 0 86 -13.5 110 -40.5s36 -61.167 36 -102.5c0 -20 -2.83301 -38.833 -8.5 -56.5s-14.334 -33 -26.001 -46s-26.667 -23.167 -45 -30.5s-40.5 -11 -66.5 -11h-57v-153h-75v440z
M312.001 310.001c29.333 0 49 6.16797 59 18.501s15 34.166 15 65.499v14c0 30 -5.33301 50.167 -16 60.5s-30.667 15.5 -60 15.5h-50v-174h52z" />
    <glyph glyph-name="integral" horiz-adv-x="594" 
d="M75 -14c-14.667 0 -26.6689 6.83301 -36.002 20.5s-17.166 34.5 -23.499 62.5s-11.833 63.167 -16.5 105.5s-9.33398 92.5 -14.001 150.5h29c3.33301 -33.333 6.33301 -68.333 9 -105s6.16699 -70.334 10.5 -101.001s9.66602 -56 15.999 -76s14.833 -30 25.5 -30
s19.167 10 25.5 30s11.666 45.333 15.999 76s8 64.334 11 101.001l8.5 105l14 150.5c4 42.333 9 77.333 15 105s13.5 48.334 22.5 62.001s20.833 20.5 35.5 20.5s26.5 -6.83301 35.5 -20.5s16.5 -34.334 22.5 -62.001s11.167 -62.667 15.5 -105s8.83301 -92.5 13.5 -150.5
c3.33301 -33.333 6.33301 -68.333 9 -105s6.16699 -70.334 10.5 -101.001s9.66602 -56 15.999 -76s14.833 -30 25.5 -30s19.167 10 25.5 30s11.666 45.333 15.999 76s8 64.334 11 101.001l8.5 105l14 150.5c4 42.333 9 77.333 15 105s13.5 48.334 22.5 62.001
s20.833 20.5 35.5 20.5s26.667 -6.83301 36 -20.5s17.166 -34.334 23.499 -62.001s11.833 -62.667 16.5 -105s9.33398 -92.5 14.001 -150.5h-29l-8.5 105c-3 36.667 -6.66699 70.334 -11 101.001s-9.66602 55.834 -15.999 75.501s-14.833 29.5 -25.5 29.5
s-19 -9.83301 -25 -29.5s-11 -44.834 -15 -75.501s-7.16699 -64.334 -9.5 -101.001s-5.16602 -71.667 -8.49902 -105c-4.66699 -58 -9.33398 -108.167 -14.001 -150.5s-10.167 -77.5 -16.5 -105.5s-14.166 -48.833 -23.499 -62.5s-21.333 -20.5 -36 -20.5
s-26.667 6.83301 -36 20.5s-17.166 34.5 -23.499 62.5s-11.666 63.167 -15.999 105.5s-9.16602 92.5 -14.499 150.5l-8 105c-2.66699 36.667 -6 70.334 -10 101.001s-9 55.834 -15 75.501s-14.333 29.5 -25 29.5s-19 -9.83301 -25 -29.5s-11 -44.834 -15 -75.501
s-7.16699 -64.334 -9.5 -101.001s-5.16602 -71.667 -8.49902 -105c-4.66699 -58 -9.33398 -108.167 -14.001 -150.5s-10.167 -77.5 -16.5 -105.5s-14.166 -48.833 -23.499 -62.5s-21.333 -20.5 -36 -20.5z" />
    <glyph glyph-name="Omega" horiz-adv-x="594" 
d="M75 -14c-14.667 0 -26.6689 6.83301 -36.002 20.5s-17.166 34.5 -23.499 62.5s-11.833 63.167 -16.5 105.5s-9.33398 92.5 -14.001 150.5h29c3.33301 -33.333 6.33301 -68.333 9 -105s6.16699 -70.334 10.5 -101.001s9.66602 -56 15.999 -76s14.833 -30 25.5 -30
s19.167 10 25.5 30s11.666 45.333 15.999 76s8 64.334 11 101.001l8.5 105l14 150.5c4 42.333 9 77.333 15 105s13.5 48.334 22.5 62.001s20.833 20.5 35.5 20.5s26.5 -6.83301 35.5 -20.5s16.5 -34.334 22.5 -62.001s11.167 -62.667 15.5 -105s8.83301 -92.5 13.5 -150.5
c3.33301 -33.333 6.33301 -68.333 9 -105s6.16699 -70.334 10.5 -101.001s9.66602 -56 15.999 -76s14.833 -30 25.5 -30s19.167 10 25.5 30s11.666 45.333 15.999 76s8 64.334 11 101.001l8.5 105l14 150.5c4 42.333 9 77.333 15 105s13.5 48.334 22.5 62.001
s20.833 20.5 35.5 20.5s26.667 -6.83301 36 -20.5s17.166 -34.334 23.499 -62.001s11.833 -62.667 16.5 -105s9.33398 -92.5 14.001 -150.5h-29l-8.5 105c-3 36.667 -6.66699 70.334 -11 101.001s-9.66602 55.834 -15.999 75.501s-14.833 29.5 -25.5 29.5
s-19 -9.83301 -25 -29.5s-11 -44.834 -15 -75.501s-7.16699 -64.334 -9.5 -101.001s-5.16602 -71.667 -8.49902 -105c-4.66699 -58 -9.33398 -108.167 -14.001 -150.5s-10.167 -77.5 -16.5 -105.5s-14.166 -48.833 -23.499 -62.5s-21.333 -20.5 -36 -20.5
s-26.667 6.83301 -36 20.5s-17.166 34.5 -23.499 62.5s-11.666 63.167 -15.999 105.5s-9.16602 92.5 -14.499 150.5l-8 105c-2.66699 36.667 -6 70.334 -10 101.001s-9 55.834 -15 75.501s-14.333 29.5 -25 29.5s-19 -9.83301 -25 -29.5s-11 -44.834 -15 -75.501
s-7.16699 -64.334 -9.5 -101.001s-5.16602 -71.667 -8.49902 -105c-4.66699 -58 -9.33398 -108.167 -14.001 -150.5s-10.167 -77.5 -16.5 -105.5s-14.166 -48.833 -23.499 -62.5s-21.333 -20.5 -36 -20.5z" />
    <glyph glyph-name="logicalnot" horiz-adv-x="594" 
d="M75 -14c-14.667 0 -26.6689 6.83301 -36.002 20.5s-17.166 34.5 -23.499 62.5s-11.833 63.167 -16.5 105.5s-9.33398 92.5 -14.001 150.5h29c3.33301 -33.333 6.33301 -68.333 9 -105s6.16699 -70.334 10.5 -101.001s9.66602 -56 15.999 -76s14.833 -30 25.5 -30
s19.167 10 25.5 30s11.666 45.333 15.999 76s8 64.334 11 101.001l8.5 105l14 150.5c4 42.333 9 77.333 15 105s13.5 48.334 22.5 62.001s20.833 20.5 35.5 20.5s26.5 -6.83301 35.5 -20.5s16.5 -34.334 22.5 -62.001s11.167 -62.667 15.5 -105s8.83301 -92.5 13.5 -150.5
c3.33301 -33.333 6.33301 -68.333 9 -105s6.16699 -70.334 10.5 -101.001s9.66602 -56 15.999 -76s14.833 -30 25.5 -30s19.167 10 25.5 30s11.666 45.333 15.999 76s8 64.334 11 101.001l8.5 105l14 150.5c4 42.333 9 77.333 15 105s13.5 48.334 22.5 62.001
s20.833 20.5 35.5 20.5s26.667 -6.83301 36 -20.5s17.166 -34.334 23.499 -62.001s11.833 -62.667 16.5 -105s9.33398 -92.5 14.001 -150.5h-29l-8.5 105c-3 36.667 -6.66699 70.334 -11 101.001s-9.66602 55.834 -15.999 75.501s-14.833 29.5 -25.5 29.5
s-19 -9.83301 -25 -29.5s-11 -44.834 -15 -75.501s-7.16699 -64.334 -9.5 -101.001s-5.16602 -71.667 -8.49902 -105c-4.66699 -58 -9.33398 -108.167 -14.001 -150.5s-10.167 -77.5 -16.5 -105.5s-14.166 -48.833 -23.499 -62.5s-21.333 -20.5 -36 -20.5
s-26.667 6.83301 -36 20.5s-17.166 34.5 -23.499 62.5s-11.666 63.167 -15.999 105.5s-9.16602 92.5 -14.499 150.5l-8 105c-2.66699 36.667 -6 70.334 -10 101.001s-9 55.834 -15 75.501s-14.333 29.5 -25 29.5s-19 -9.83301 -25 -29.5s-11 -44.834 -15 -75.501
s-7.16699 -64.334 -9.5 -101.001s-5.16602 -71.667 -8.49902 -105c-4.66699 -58 -9.33398 -108.167 -14.001 -150.5s-10.167 -77.5 -16.5 -105.5s-14.166 -48.833 -23.499 -62.5s-21.333 -20.5 -36 -20.5z" />
    <glyph glyph-name="radical" horiz-adv-x="466" 
d="M29 375h94l50 -172l29 -170l27 170l138 515h84l-204 -719h-95z" />
    <glyph glyph-name="approxequal" horiz-adv-x="594" 
d="M75 -14c-14.667 0 -26.6689 6.83301 -36.002 20.5s-17.166 34.5 -23.499 62.5s-11.833 63.167 -16.5 105.5s-9.33398 92.5 -14.001 150.5h29c3.33301 -33.333 6.33301 -68.333 9 -105s6.16699 -70.334 10.5 -101.001s9.66602 -56 15.999 -76s14.833 -30 25.5 -30
s19.167 10 25.5 30s11.666 45.333 15.999 76s8 64.334 11 101.001l8.5 105l14 150.5c4 42.333 9 77.333 15 105s13.5 48.334 22.5 62.001s20.833 20.5 35.5 20.5s26.5 -6.83301 35.5 -20.5s16.5 -34.334 22.5 -62.001s11.167 -62.667 15.5 -105s8.83301 -92.5 13.5 -150.5
c3.33301 -33.333 6.33301 -68.333 9 -105s6.16699 -70.334 10.5 -101.001s9.66602 -56 15.999 -76s14.833 -30 25.5 -30s19.167 10 25.5 30s11.666 45.333 15.999 76s8 64.334 11 101.001l8.5 105l14 150.5c4 42.333 9 77.333 15 105s13.5 48.334 22.5 62.001
s20.833 20.5 35.5 20.5s26.667 -6.83301 36 -20.5s17.166 -34.334 23.499 -62.001s11.833 -62.667 16.5 -105s9.33398 -92.5 14.001 -150.5h-29l-8.5 105c-3 36.667 -6.66699 70.334 -11 101.001s-9.66602 55.834 -15.999 75.501s-14.833 29.5 -25.5 29.5
s-19 -9.83301 -25 -29.5s-11 -44.834 -15 -75.501s-7.16699 -64.334 -9.5 -101.001s-5.16602 -71.667 -8.49902 -105c-4.66699 -58 -9.33398 -108.167 -14.001 -150.5s-10.167 -77.5 -16.5 -105.5s-14.166 -48.833 -23.499 -62.5s-21.333 -20.5 -36 -20.5
s-26.667 6.83301 -36 20.5s-17.166 34.5 -23.499 62.5s-11.666 63.167 -15.999 105.5s-9.16602 92.5 -14.499 150.5l-8 105c-2.66699 36.667 -6 70.334 -10 101.001s-9 55.834 -15 75.501s-14.333 29.5 -25 29.5s-19 -9.83301 -25 -29.5s-11 -44.834 -15 -75.501
s-7.16699 -64.334 -9.5 -101.001s-5.16602 -71.667 -8.49902 -105c-4.66699 -58 -9.33398 -108.167 -14.001 -150.5s-10.167 -77.5 -16.5 -105.5s-14.166 -48.833 -23.499 -62.5s-21.333 -20.5 -36 -20.5z" />
    <glyph glyph-name="Delta" horiz-adv-x="594" 
d="M75 -14c-14.667 0 -26.6689 6.83301 -36.002 20.5s-17.166 34.5 -23.499 62.5s-11.833 63.167 -16.5 105.5s-9.33398 92.5 -14.001 150.5h29c3.33301 -33.333 6.33301 -68.333 9 -105s6.16699 -70.334 10.5 -101.001s9.66602 -56 15.999 -76s14.833 -30 25.5 -30
s19.167 10 25.5 30s11.666 45.333 15.999 76s8 64.334 11 101.001l8.5 105l14 150.5c4 42.333 9 77.333 15 105s13.5 48.334 22.5 62.001s20.833 20.5 35.5 20.5s26.5 -6.83301 35.5 -20.5s16.5 -34.334 22.5 -62.001s11.167 -62.667 15.5 -105s8.83301 -92.5 13.5 -150.5
c3.33301 -33.333 6.33301 -68.333 9 -105s6.16699 -70.334 10.5 -101.001s9.66602 -56 15.999 -76s14.833 -30 25.5 -30s19.167 10 25.5 30s11.666 45.333 15.999 76s8 64.334 11 101.001l8.5 105l14 150.5c4 42.333 9 77.333 15 105s13.5 48.334 22.5 62.001
s20.833 20.5 35.5 20.5s26.667 -6.83301 36 -20.5s17.166 -34.334 23.499 -62.001s11.833 -62.667 16.5 -105s9.33398 -92.5 14.001 -150.5h-29l-8.5 105c-3 36.667 -6.66699 70.334 -11 101.001s-9.66602 55.834 -15.999 75.501s-14.833 29.5 -25.5 29.5
s-19 -9.83301 -25 -29.5s-11 -44.834 -15 -75.501s-7.16699 -64.334 -9.5 -101.001s-5.16602 -71.667 -8.49902 -105c-4.66699 -58 -9.33398 -108.167 -14.001 -150.5s-10.167 -77.5 -16.5 -105.5s-14.166 -48.833 -23.499 -62.5s-21.333 -20.5 -36 -20.5
s-26.667 6.83301 -36 20.5s-17.166 34.5 -23.499 62.5s-11.666 63.167 -15.999 105.5s-9.16602 92.5 -14.499 150.5l-8 105c-2.66699 36.667 -6 70.334 -10 101.001s-9 55.834 -15 75.501s-14.333 29.5 -25 29.5s-19 -9.83301 -25 -29.5s-11 -44.834 -15 -75.501
s-7.16699 -64.334 -9.5 -101.001s-5.16602 -71.667 -8.49902 -105c-4.66699 -58 -9.33398 -108.167 -14.001 -150.5s-10.167 -77.5 -16.5 -105.5s-14.166 -48.833 -23.499 -62.5s-21.333 -20.5 -36 -20.5z" />
    <glyph glyph-name="nonbreakingspace" horiz-adv-x="114" 
 />
    <glyph glyph-name="Agrave" horiz-adv-x="573" 
d="M116 0h-87l211 651h98l207 -651h-104l-38 129h-247zM308 445l-24 129l-29 -129l-77 -247h204zM152 876h115l53 -164h-54z" />
    <glyph glyph-name="Atilde" horiz-adv-x="573" 
d="M116 0h-87l211 651h98l207 -651h-104l-38 129h-247zM308 445l-24 129l-29 -129l-77 -247h204zM337 715c-13.333 0 -24.501 2.66699 -33.501 8s-18.167 13 -27.5 23l-19 22c-6 6.66699 -10.833 11.5 -14.5 14.5s-8.5 4.5 -14.5 4.5c-18.667 0 -28 -18.333 -28 -55v-10h-52
c0 44 8.33301 77.5 25 100.5s36 34.5 58 34.5c13.333 0 24.5 -2.66699 33.5 -8s18.167 -13 27.5 -23l18 -22c6.66699 -6.66699 11.834 -11.5 15.501 -14.5s8.5 -4.5 14.5 -4.5c18.667 0 28 18 28 54v10h52c0 -43.333 -8.33301 -76.5 -25 -99.5s-36 -34.5 -58 -34.5z" />
    <glyph glyph-name="Otilde" horiz-adv-x="609" 
d="M303 -14c-44.667 0 -83.166 8.33105 -115.499 24.998s-59 40.167 -80 70.5s-36.5 66.333 -46.5 108s-15 87.5 -15 137.5c0 49.333 5.16699 94.5 15.5 135.5s26.166 76.333 47.499 106s48.333 52.834 81 69.501s71 25 115 25s82.333 -8.16699 115 -24.5
s59.5 -39.166 80.5 -68.499s36.667 -64.5 47 -105.5s15.5 -86.167 15.5 -135.5c0 -52 -5.16699 -99.167 -15.5 -141.5s-26 -78.333 -47 -108s-47.833 -52.667 -80.5 -69s-71.667 -24.5 -117 -24.5zM305.001 59.998c25.333 0 47.499 4.33398 66.499 13.001
s34.833 23.167 47.5 43.5s22.167 46.833 28.5 79.5s9.5 73 9.5 121v34c0 43.333 -3.16699 79.666 -9.5 108.999s-15.833 53.333 -28.5 72s-28.5 32 -47.5 40s-41.5 12 -67.5 12c-51.333 0 -89.666 -18 -114.999 -54s-38 -97 -38 -183v-33c0 -48 3.33301 -88.167 10 -120.5
s16.5 -58.5 29.5 -78.5s29.167 -34.167 48.5 -42.5s41.333 -12.5 66 -12.5zM355 714.999c-13.333 0 -24.501 2.66699 -33.501 8s-18.167 13 -27.5 23l-19 22c-6 6.66699 -10.833 11.5 -14.5 14.5s-8.5 4.5 -14.5 4.5c-18.667 0 -28 -18.333 -28 -55v-10h-52
c0 44 8.33301 77.5 25 100.5s36 34.5 58 34.5c13.333 0 24.5 -2.66699 33.5 -8s18.167 -13 27.5 -23l18 -22c6.66699 -6.66699 11.834 -11.5 15.501 -14.5s8.5 -4.5 14.5 -4.5c18.667 0 28 18 28 54v10h52c0 -43.333 -8.33301 -76.5 -25 -99.5s-36 -34.5 -58 -34.5z" />
    <glyph glyph-name="divide" horiz-adv-x="617" 
d="M300 191l1.00391 113.998c0 20 3.33301 34.5 10 43.5s21 16.167 43 21.5c21.333 4 38.666 8.33301 51.999 13s24.166 10.834 32.499 18.501s14.666 17.5 18.999 29.5s7.83301 27.333 10.5 46l2 15c3.33301 24 3.16602 43.667 -0.500977 59s-10.5 27.5 -20.5 36.5
s-23.167 15.167 -39.5 18.5s-35.166 5 -56.499 5c-30 0 -65.333 -4.66699 -106 -14l-12 70c17.333 6 37 11 59 15s47 6 75 6c30.667 0 58.667 -3.5 84 -10.5s47 -17.667 65 -32s32 -32.666 42 -54.999s15 -48.5 15 -78.5c0 -62.667 -15.333 -109.667 -46 -141
s-79.334 -51.333 -146.001 -60l-22 -130zM99.0039 386.998l-72 244l99 33l73 -244l44 -233l-43 -16zM281.004 -11.002c-18.667 0 -34.834 6.33301 -48.501 19s-20.5 29.667 -20.5 51c0 20.667 6.83301 37.5 20.5 50.5s29.834 19.5 48.501 19.5
c19.333 0 35.833 -6.5 49.5 -19.5s20.5 -29.833 20.5 -50.5c0 -21.333 -6.83301 -38.333 -20.5 -51s-30.167 -19 -49.5 -19z" />
    <glyph glyph-name="lozenge" horiz-adv-x="594" 
d="M75 -14c-14.667 0 -26.6689 6.83301 -36.002 20.5s-17.166 34.5 -23.499 62.5s-11.833 63.167 -16.5 105.5s-9.33398 92.5 -14.001 150.5h29c3.33301 -33.333 6.33301 -68.333 9 -105s6.16699 -70.334 10.5 -101.001s9.66602 -56 15.999 -76s14.833 -30 25.5 -30
s19.167 10 25.5 30s11.666 45.333 15.999 76s8 64.334 11 101.001l8.5 105l14 150.5c4 42.333 9 77.333 15 105s13.5 48.334 22.5 62.001s20.833 20.5 35.5 20.5s26.5 -6.83301 35.5 -20.5s16.5 -34.334 22.5 -62.001s11.167 -62.667 15.5 -105s8.83301 -92.5 13.5 -150.5
c3.33301 -33.333 6.33301 -68.333 9 -105s6.16699 -70.334 10.5 -101.001s9.66602 -56 15.999 -76s14.833 -30 25.5 -30s19.167 10 25.5 30s11.666 45.333 15.999 76s8 64.334 11 101.001l8.5 105l14 150.5c4 42.333 9 77.333 15 105s13.5 48.334 22.5 62.001
s20.833 20.5 35.5 20.5s26.667 -6.83301 36 -20.5s17.166 -34.334 23.499 -62.001s11.833 -62.667 16.5 -105s9.33398 -92.5 14.001 -150.5h-29l-8.5 105c-3 36.667 -6.66699 70.334 -11 101.001s-9.66602 55.834 -15.999 75.501s-14.833 29.5 -25.5 29.5
s-19 -9.83301 -25 -29.5s-11 -44.834 -15 -75.501s-7.16699 -64.334 -9.5 -101.001s-5.16602 -71.667 -8.49902 -105c-4.66699 -58 -9.33398 -108.167 -14.001 -150.5s-10.167 -77.5 -16.5 -105.5s-14.166 -48.833 -23.499 -62.5s-21.333 -20.5 -36 -20.5
s-26.667 6.83301 -36 20.5s-17.166 34.5 -23.499 62.5s-11.666 63.167 -15.999 105.5s-9.16602 92.5 -14.499 150.5l-8 105c-2.66699 36.667 -6 70.334 -10 101.001s-9 55.834 -15 75.501s-14.333 29.5 -25 29.5s-19 -9.83301 -25 -29.5s-11 -44.834 -15 -75.501
s-7.16699 -64.334 -9.5 -101.001s-5.16602 -71.667 -8.49902 -105c-4.66699 -58 -9.33398 -108.167 -14.001 -150.5s-10.167 -77.5 -16.5 -105.5s-14.166 -48.833 -23.499 -62.5s-21.333 -20.5 -36 -20.5z" />
    <glyph glyph-name="ydieresis" horiz-adv-x="460" 
d="M188 16l-169 508h95l94 -306l25 -152l27 152l93 306h87l-218 -686h-89zM315 595c-15.333 0 -28.833 5.5 -40.5 16.5s-17.5 25.167 -17.5 42.5s5.83301 31.666 17.5 42.999s25.167 17 40.5 17c16 0 29.667 -5.66699 41 -17s17 -25.666 17 -42.999
s-5.66699 -31.5 -17 -42.5s-25 -16.5 -41 -16.5zM141 595c-16 0 -29.667 5.5 -41 16.5s-17 25.167 -17 42.5s5.66699 31.666 17 42.999s25 17 41 17c15.333 0 28.833 -5.66699 40.5 -17s17.5 -25.666 17.5 -42.999s-5.83301 -31.5 -17.5 -42.5s-25.167 -16.5 -40.5 -16.5z
" />
    <glyph glyph-name="Ydieresis" horiz-adv-x="530" 
d="M220 231l-197 420h107l114 -264l30 -127l30 127l110 264h93l-187 -415v-236h-100v231zM354 714c-15.333 0 -28.833 5.5 -40.5 16.5s-17.5 25.167 -17.5 42.5s5.83301 31.666 17.5 42.999s25.167 17 40.5 17c16 0 29.667 -5.66699 41 -17s17 -25.666 17 -42.999
s-5.66699 -31.5 -17 -42.5s-25 -16.5 -41 -16.5zM180 714c-16 0 -29.667 5.5 -41 16.5s-17 25.167 -17 42.5s5.66699 31.666 17 42.999s25 17 41 17c15.333 0 28.833 -5.66699 40.5 -17s17.5 -25.666 17.5 -42.999s-5.83301 -31.5 -17.5 -42.5s-25.167 -16.5 -40.5 -16.5z
" />
    <glyph glyph-name="Acircumflex" horiz-adv-x="573" 
d="M116 0h-87l211 651h98l207 -651h-104l-38 129h-247zM308 445l-24 129l-29 -129l-77 -247h204zM246 888h74l113 -176h-88l-41 76l-23 65l-23 -65l-45 -76h-79z" />
    <glyph glyph-name="Ecircumflex" horiz-adv-x="505" 
d="M81 651h362v-81h-262v-199h225v-75h-225v-217h280v-79h-380v651zM223 888h74l113 -176h-88l-41 76l-23 65l-23 -65l-45 -76h-79z" />
    <glyph glyph-name="Aacute" horiz-adv-x="573" 
d="M116 0h-87l211 651h98l207 -651h-104l-38 129h-247zM308 445l-24 129l-29 -129l-77 -247h204zM303 876h114l-113 -164h-55z" />
    <glyph glyph-name="Edieresis" horiz-adv-x="505" 
d="M81 651h362v-81h-262v-199h225v-75h-225v-217h280v-79h-380v651zM352 714c-15.333 0 -28.833 5.5 -40.5 16.5s-17.5 25.167 -17.5 42.5s5.83301 31.666 17.5 42.999s25.167 17 40.5 17c16 0 29.667 -5.66699 41 -17s17 -25.666 17 -42.999s-5.66699 -31.5 -17 -42.5
s-25 -16.5 -41 -16.5zM178 714c-16 0 -29.667 5.5 -41 16.5s-17 25.167 -17 42.5s5.66699 31.666 17 42.999s25 17 41 17c15.333 0 28.833 -5.66699 40.5 -17s17.5 -25.666 17.5 -42.999s-5.83301 -31.5 -17.5 -42.5s-25.167 -16.5 -40.5 -16.5z" />
    <glyph glyph-name="Egrave" horiz-adv-x="505" 
d="M81 651h362v-81h-262v-199h225v-75h-225v-217h280v-79h-380v651zM133 876h115l53 -164h-54z" />
    <glyph glyph-name="Iacute" horiz-adv-x="274" 
d="M87 651h100v-651h-100v651zM155 876h114l-113 -164h-55z" />
    <glyph glyph-name="Icircumflex" horiz-adv-x="274" 
d="M87 651h100v-651h-100v651zM98 888h74l113 -176h-88l-41 76l-23 65l-23 -65l-45 -76h-79z" />
    <glyph glyph-name="Idieresis" horiz-adv-x="274" 
d="M87 651h100v-651h-100v651zM223 714c-15.333 0 -28.833 5.5 -40.5 16.5s-17.5 25.167 -17.5 42.5s5.83301 31.666 17.5 42.999s25.167 17 40.5 17c16 0 29.667 -5.66699 41 -17s17 -25.666 17 -42.999s-5.66699 -31.5 -17 -42.5s-25 -16.5 -41 -16.5zM49 714
c-16 0 -29.667 5.5 -41 16.5s-17 25.167 -17 42.5s5.66699 31.666 17 42.999s25 17 41 17c15.333 0 28.833 -5.66699 40.5 -17s17.5 -25.666 17.5 -42.999s-5.83301 -31.5 -17.5 -42.5s-25.167 -16.5 -40.5 -16.5z" />
    <glyph glyph-name="Igrave" horiz-adv-x="274" 
d="M87 651h100v-651h-100v651zM4 876h115l53 -164h-54z" />
    <glyph glyph-name="Oacute" horiz-adv-x="609" 
d="M303 -14c-44.667 0 -83.166 8.33105 -115.499 24.998s-59 40.167 -80 70.5s-36.5 66.333 -46.5 108s-15 87.5 -15 137.5c0 49.333 5.16699 94.5 15.5 135.5s26.166 76.333 47.499 106s48.333 52.834 81 69.501s71 25 115 25s82.333 -8.16699 115 -24.5
s59.5 -39.166 80.5 -68.499s36.667 -64.5 47 -105.5s15.5 -86.167 15.5 -135.5c0 -52 -5.16699 -99.167 -15.5 -141.5s-26 -78.333 -47 -108s-47.833 -52.667 -80.5 -69s-71.667 -24.5 -117 -24.5zM305.001 59.998c25.333 0 47.499 4.33398 66.499 13.001
s34.833 23.167 47.5 43.5s22.167 46.833 28.5 79.5s9.5 73 9.5 121v34c0 43.333 -3.16699 79.666 -9.5 108.999s-15.833 53.333 -28.5 72s-28.5 32 -47.5 40s-41.5 12 -67.5 12c-51.333 0 -89.666 -18 -114.999 -54s-38 -97 -38 -183v-33c0 -48 3.33301 -88.167 10 -120.5
s16.5 -58.5 29.5 -78.5s29.167 -34.167 48.5 -42.5s41.333 -12.5 66 -12.5zM321 875.999h114l-113 -164h-55z" />
    <glyph glyph-name="Ocircumflex" horiz-adv-x="609" 
d="M303 -14c-44.667 0 -83.166 8.33105 -115.499 24.998s-59 40.167 -80 70.5s-36.5 66.333 -46.5 108s-15 87.5 -15 137.5c0 49.333 5.16699 94.5 15.5 135.5s26.166 76.333 47.499 106s48.333 52.834 81 69.501s71 25 115 25s82.333 -8.16699 115 -24.5
s59.5 -39.166 80.5 -68.499s36.667 -64.5 47 -105.5s15.5 -86.167 15.5 -135.5c0 -52 -5.16699 -99.167 -15.5 -141.5s-26 -78.333 -47 -108s-47.833 -52.667 -80.5 -69s-71.667 -24.5 -117 -24.5zM305.001 59.998c25.333 0 47.499 4.33398 66.499 13.001
s34.833 23.167 47.5 43.5s22.167 46.833 28.5 79.5s9.5 73 9.5 121v34c0 43.333 -3.16699 79.666 -9.5 108.999s-15.833 53.333 -28.5 72s-28.5 32 -47.5 40s-41.5 12 -67.5 12c-51.333 0 -89.666 -18 -114.999 -54s-38 -97 -38 -183v-33c0 -48 3.33301 -88.167 10 -120.5
s16.5 -58.5 29.5 -78.5s29.167 -34.167 48.5 -42.5s41.333 -12.5 66 -12.5zM264 887.999h74l113 -176h-88l-41 76l-23 65l-23 -65l-45 -76h-79z" />
    <glyph glyph-name="apple" horiz-adv-x="594" 
d="M75 -14c-14.667 0 -26.6689 6.83301 -36.002 20.5s-17.166 34.5 -23.499 62.5s-11.833 63.167 -16.5 105.5s-9.33398 92.5 -14.001 150.5h29c3.33301 -33.333 6.33301 -68.333 9 -105s6.16699 -70.334 10.5 -101.001s9.66602 -56 15.999 -76s14.833 -30 25.5 -30
s19.167 10 25.5 30s11.666 45.333 15.999 76s8 64.334 11 101.001l8.5 105l14 150.5c4 42.333 9 77.333 15 105s13.5 48.334 22.5 62.001s20.833 20.5 35.5 20.5s26.5 -6.83301 35.5 -20.5s16.5 -34.334 22.5 -62.001s11.167 -62.667 15.5 -105s8.83301 -92.5 13.5 -150.5
c3.33301 -33.333 6.33301 -68.333 9 -105s6.16699 -70.334 10.5 -101.001s9.66602 -56 15.999 -76s14.833 -30 25.5 -30s19.167 10 25.5 30s11.666 45.333 15.999 76s8 64.334 11 101.001l8.5 105l14 150.5c4 42.333 9 77.333 15 105s13.5 48.334 22.5 62.001
s20.833 20.5 35.5 20.5s26.667 -6.83301 36 -20.5s17.166 -34.334 23.499 -62.001s11.833 -62.667 16.5 -105s9.33398 -92.5 14.001 -150.5h-29l-8.5 105c-3 36.667 -6.66699 70.334 -11 101.001s-9.66602 55.834 -15.999 75.501s-14.833 29.5 -25.5 29.5
s-19 -9.83301 -25 -29.5s-11 -44.834 -15 -75.501s-7.16699 -64.334 -9.5 -101.001s-5.16602 -71.667 -8.49902 -105c-4.66699 -58 -9.33398 -108.167 -14.001 -150.5s-10.167 -77.5 -16.5 -105.5s-14.166 -48.833 -23.499 -62.5s-21.333 -20.5 -36 -20.5
s-26.667 6.83301 -36 20.5s-17.166 34.5 -23.499 62.5s-11.666 63.167 -15.999 105.5s-9.16602 92.5 -14.499 150.5l-8 105c-2.66699 36.667 -6 70.334 -10 101.001s-9 55.834 -15 75.501s-14.333 29.5 -25 29.5s-19 -9.83301 -25 -29.5s-11 -44.834 -15 -75.501
s-7.16699 -64.334 -9.5 -101.001s-5.16602 -71.667 -8.49902 -105c-4.66699 -58 -9.33398 -108.167 -14.001 -150.5s-10.167 -77.5 -16.5 -105.5s-14.166 -48.833 -23.499 -62.5s-21.333 -20.5 -36 -20.5z" />
    <glyph glyph-name="Ograve" horiz-adv-x="609" 
d="M303 -14c-44.667 0 -83.166 8.33105 -115.499 24.998s-59 40.167 -80 70.5s-36.5 66.333 -46.5 108s-15 87.5 -15 137.5c0 49.333 5.16699 94.5 15.5 135.5s26.166 76.333 47.499 106s48.333 52.834 81 69.501s71 25 115 25s82.333 -8.16699 115 -24.5
s59.5 -39.166 80.5 -68.499s36.667 -64.5 47 -105.5s15.5 -86.167 15.5 -135.5c0 -52 -5.16699 -99.167 -15.5 -141.5s-26 -78.333 -47 -108s-47.833 -52.667 -80.5 -69s-71.667 -24.5 -117 -24.5zM305.001 59.998c25.333 0 47.499 4.33398 66.499 13.001
s34.833 23.167 47.5 43.5s22.167 46.833 28.5 79.5s9.5 73 9.5 121v34c0 43.333 -3.16699 79.666 -9.5 108.999s-15.833 53.333 -28.5 72s-28.5 32 -47.5 40s-41.5 12 -67.5 12c-51.333 0 -89.666 -18 -114.999 -54s-38 -97 -38 -183v-33c0 -48 3.33301 -88.167 10 -120.5
s16.5 -58.5 29.5 -78.5s29.167 -34.167 48.5 -42.5s41.333 -12.5 66 -12.5zM170 875.999h115l53 -164h-54z" />
    <glyph glyph-name="Uacute" horiz-adv-x="599" 
d="M417 651h100.999v-651h-62l-28 64l-40 -55c-10.667 -4.66699 -26.167 -9.66699 -46.5 -15s-44.166 -8 -71.499 -8c-32 0 -60 4.66699 -84 14s-44 24.333 -60 45s-28.167 47.334 -36.5 80.001s-12.5 72 -12.5 118v408h100v-435c0 -30.667 2 -56 6 -76
s10.5 -35.667 19.5 -47s20.667 -19.333 35 -24s31.5 -7 51.5 -7c30 0 54.833 3.66699 74.5 11s37.5 15.666 53.5 24.999v553zM314.999 876h114l-113 -164h-55z" />
    <glyph glyph-name="Ucircumflex" horiz-adv-x="599" 
d="M417 651h100.999v-651h-62l-28 64l-40 -55c-10.667 -4.66699 -26.167 -9.66699 -46.5 -15s-44.166 -8 -71.499 -8c-32 0 -60 4.66699 -84 14s-44 24.333 -60 45s-28.167 47.334 -36.5 80.001s-12.5 72 -12.5 118v408h100v-435c0 -30.667 2 -56 6 -76
s10.5 -35.667 19.5 -47s20.667 -19.333 35 -24s31.5 -7 51.5 -7c30 0 54.833 3.66699 74.5 11s37.5 15.666 53.5 24.999v553zM257.999 888h74l113 -176h-88l-41 76l-23 65l-23 -65l-45 -76h-79z" />
    <glyph glyph-name="Ugrave" horiz-adv-x="599" 
d="M417 651h100.999v-651h-62l-28 64l-40 -55c-10.667 -4.66699 -26.167 -9.66699 -46.5 -15s-44.166 -8 -71.499 -8c-32 0 -60 4.66699 -84 14s-44 24.333 -60 45s-28.167 47.334 -36.5 80.001s-12.5 72 -12.5 118v408h100v-435c0 -30.667 2 -56 6 -76
s10.5 -35.667 19.5 -47s20.667 -19.333 35 -24s31.5 -7 51.5 -7c30 0 54.833 3.66699 74.5 11s37.5 15.666 53.5 24.999v553zM171.999 876h115l53 -164h-54z" />
    <glyph glyph-name="Euro" horiz-adv-x="532" 
d="M33 364l0.00195312 66.001h77c5.33301 34.667 13.833 66.334 25.5 95.001s27.167 53.167 46.5 73.5s42.5 36.166 69.5 47.499s58.5 17 94.5 17c32 0 60 -3 84 -9s47 -13.667 69 -23l-14 -76l-40 12.5c-12 3.66699 -23.5 6.66699 -34.5 9s-22 4 -33 5
s-22.833 1.5 -35.5 1.5c-17.333 0 -33.333 -2.5 -48 -7.5s-27.834 -13.333 -39.501 -25s-21.334 -27.334 -29.001 -47.001s-13.167 -44.167 -16.5 -73.5h186v-66h-191v-17v-32v-35h191v-65h-185c7.33301 -56.667 22.333 -96.667 45 -120s52 -35 88 -35
c14.667 0 27.834 0.833008 39.501 2.5s23.167 4.16699 34.5 7.5s22.666 7.33301 33.999 12l37 16l22 -71c-21.333 -11.333 -45.333 -21 -72 -29s-58 -12 -94 -12s-67.333 5.5 -94 16.5s-49.5 26.667 -68.5 47s-34.333 44.5 -46 72.5s-20.167 59 -25.5 93h-77v65h70
c-0.666992 7.33301 -1 15 -1 23v24v19c0 6 0.333008 12 1 18h-70z" />
    <glyph glyph-name="Eth" horiz-adv-x="608" 
d="M18 287v75h73v289h195c93.333 0 162.833 -27.833 208.5 -83.5s68.5 -135.834 68.5 -240.501c0 -109.333 -23.333 -191.166 -70 -245.499s-118.667 -81.5 -216 -81.5h-186v287h-73zM312 362l-0.000976562 -74.999h-121v-211h80c30.667 0 57.5 3.16699 80.5 9.5
s42.333 18.166 58 35.499s27.334 41.5 35.001 72.5s11.5 71.5 11.5 121.5v31c0 45.333 -3.66699 82.5 -11 111.5s-18.833 51.833 -34.5 68.5s-35.167 28.167 -58.5 34.5s-51 9.5 -83 9.5h-78v-208h121z" />
    </font>
</defs>
</svg>
